G04 #@! TF.GenerationSoftware,KiCad,Pcbnew,9.0.2-2.fc42*
G04 #@! TF.CreationDate,2025-07-15T14:43:00+03:00*
G04 #@! TF.ProjectId,QMTECH_XC7A100T-Expantion-Board,514d5445-4348-45f5-9843-374131303054,rev?*
G04 #@! TF.SameCoordinates,Original*
G04 #@! TF.FileFunction,Soldermask,Bot*
G04 #@! TF.FilePolarity,Negative*
%FSLAX46Y46*%
G04 Gerber Fmt 4.6, Leading zero omitted, Abs format (unit mm)*
G04 Created by KiCad (PCBNEW 9.0.2-2.fc42) date 2025-07-15 14:43:00*
%MOMM*%
%LPD*%
G01*
G04 APERTURE LIST*
G04 Aperture macros list*
%AMRoundRect*
0 Rectangle with rounded corners*
0 $1 Rounding radius*
0 $2 $3 $4 $5 $6 $7 $8 $9 X,Y pos of 4 corners*
0 Add a 4 corners polygon primitive as box body*
4,1,4,$2,$3,$4,$5,$6,$7,$8,$9,$2,$3,0*
0 Add four circle primitives for the rounded corners*
1,1,$1+$1,$2,$3*
1,1,$1+$1,$4,$5*
1,1,$1+$1,$6,$7*
1,1,$1+$1,$8,$9*
0 Add four rect primitives between the rounded corners*
20,1,$1+$1,$2,$3,$4,$5,0*
20,1,$1+$1,$4,$5,$6,$7,0*
20,1,$1+$1,$6,$7,$8,$9,0*
20,1,$1+$1,$8,$9,$2,$3,0*%
%AMRotRect*
0 Rectangle, with rotation*
0 The origin of the aperture is its center*
0 $1 length*
0 $2 width*
0 $3 Rotation angle, in degrees counterclockwise*
0 Add horizontal line*
21,1,$1,$2,0,0,$3*%
G04 Aperture macros list end*
%ADD10R,1.700000X1.700000*%
%ADD11C,1.700000*%
%ADD12C,0.600000*%
%ADD13O,2.000000X0.900000*%
%ADD14O,1.700000X0.900000*%
%ADD15C,1.524000*%
%ADD16RoundRect,0.243750X0.243750X0.456250X-0.243750X0.456250X-0.243750X-0.456250X0.243750X-0.456250X0*%
%ADD17C,1.500000*%
%ADD18R,0.800000X0.500000*%
%ADD19RoundRect,0.200000X0.200000X0.275000X-0.200000X0.275000X-0.200000X-0.275000X0.200000X-0.275000X0*%
%ADD20RoundRect,0.225000X0.250000X-0.225000X0.250000X0.225000X-0.250000X0.225000X-0.250000X-0.225000X0*%
%ADD21RoundRect,0.225000X-0.335876X-0.017678X-0.017678X-0.335876X0.335876X0.017678X0.017678X0.335876X0*%
%ADD22RoundRect,0.200000X-0.200000X-0.275000X0.200000X-0.275000X0.200000X0.275000X-0.200000X0.275000X0*%
%ADD23RoundRect,0.200000X-0.275000X0.200000X-0.275000X-0.200000X0.275000X-0.200000X0.275000X0.200000X0*%
%ADD24RoundRect,0.225000X-0.225000X-0.250000X0.225000X-0.250000X0.225000X0.250000X-0.225000X0.250000X0*%
%ADD25RoundRect,0.225000X-0.017678X0.335876X-0.335876X0.017678X0.017678X-0.335876X0.335876X-0.017678X0*%
%ADD26RoundRect,0.225000X-0.250000X0.225000X-0.250000X-0.225000X0.250000X-0.225000X0.250000X0.225000X0*%
%ADD27RoundRect,0.200000X0.275000X-0.200000X0.275000X0.200000X-0.275000X0.200000X-0.275000X-0.200000X0*%
%ADD28RoundRect,0.218750X0.218750X0.381250X-0.218750X0.381250X-0.218750X-0.381250X0.218750X-0.381250X0*%
%ADD29RoundRect,0.087500X0.250000X0.087500X-0.250000X0.087500X-0.250000X-0.087500X0.250000X-0.087500X0*%
%ADD30C,0.800000*%
%ADD31R,1.600000X0.700000*%
%ADD32R,2.200000X1.200000*%
%ADD33R,1.500000X1.200000*%
%ADD34R,1.500000X1.600000*%
%ADD35R,1.300000X1.200000*%
%ADD36RoundRect,0.225000X0.017678X-0.335876X0.335876X-0.017678X-0.017678X0.335876X-0.335876X0.017678X0*%
%ADD37RoundRect,0.218750X0.381250X-0.218750X0.381250X0.218750X-0.381250X0.218750X-0.381250X-0.218750X0*%
%ADD38RoundRect,0.087500X0.087500X-0.250000X0.087500X0.250000X-0.087500X0.250000X-0.087500X-0.250000X0*%
%ADD39RoundRect,0.093750X0.106250X-0.093750X0.106250X0.093750X-0.106250X0.093750X-0.106250X-0.093750X0*%
%ADD40R,1.600000X1.000000*%
%ADD41RoundRect,0.150000X0.675000X0.150000X-0.675000X0.150000X-0.675000X-0.150000X0.675000X-0.150000X0*%
%ADD42RotRect,0.800000X0.500000X225.000000*%
%ADD43RoundRect,0.225000X0.225000X0.250000X-0.225000X0.250000X-0.225000X-0.250000X0.225000X-0.250000X0*%
%ADD44RoundRect,0.100000X-0.100000X0.637500X-0.100000X-0.637500X0.100000X-0.637500X0.100000X0.637500X0*%
G04 APERTURE END LIST*
D10*
X129413000Y-111633000D03*
D11*
X129413000Y-114173000D03*
X129413000Y-116713000D03*
X129413000Y-119253000D03*
D10*
X95758000Y-111633000D03*
D11*
X95758000Y-114173000D03*
X95758000Y-116713000D03*
X95758000Y-119253000D03*
D10*
X68072000Y-69977000D03*
D11*
X65532000Y-69977000D03*
X68072000Y-72517000D03*
X65532000Y-72517000D03*
X68072000Y-75057000D03*
X65532000Y-75057000D03*
X68072000Y-77597000D03*
X65532000Y-77597000D03*
X68072000Y-80137000D03*
X65532000Y-80137000D03*
X68072000Y-82677000D03*
X65532000Y-82677000D03*
D12*
X154907600Y-69643200D03*
X154907600Y-63863200D03*
D13*
X154427600Y-71073200D03*
D14*
X158597600Y-71073200D03*
D13*
X154427600Y-62433200D03*
D14*
X158597600Y-62433200D03*
D15*
X71755000Y-45085000D03*
X71755000Y-42545000D03*
X74295000Y-45085000D03*
X74295000Y-42545000D03*
X76835000Y-45085000D03*
X76835000Y-42545000D03*
X79375000Y-45085000D03*
X79375000Y-42545000D03*
X81915000Y-45085000D03*
X81915000Y-42545000D03*
X84455000Y-45085000D03*
X84455000Y-42545000D03*
X86995000Y-45085000D03*
X86995000Y-42545000D03*
X89535000Y-45085000D03*
X89535000Y-42545000D03*
X92075000Y-45085000D03*
X92075000Y-42545000D03*
X94615000Y-45085000D03*
X94615000Y-42545000D03*
X97155000Y-45085000D03*
X97155000Y-42545000D03*
X99695000Y-45085000D03*
X99695000Y-42545000D03*
X102235000Y-45085000D03*
X102235000Y-42545000D03*
X104775000Y-45085000D03*
X104775000Y-42545000D03*
X107315000Y-45085000D03*
X107315000Y-42545000D03*
X109855000Y-45085000D03*
X109855000Y-42545000D03*
X112395000Y-45085000D03*
X112395000Y-42545000D03*
X114935000Y-45085000D03*
X114935000Y-42545000D03*
X117475000Y-45085000D03*
X117475000Y-42545000D03*
X120015000Y-45085000D03*
X120015000Y-42545000D03*
X122555000Y-45085000D03*
X122555000Y-42545000D03*
X125095000Y-45085000D03*
X125095000Y-42545000D03*
X127635000Y-45085000D03*
X127635000Y-42545000D03*
X130175000Y-45085000D03*
X130175000Y-42545000D03*
X132715000Y-45085000D03*
X132715000Y-42545000D03*
X135255000Y-45085000D03*
X135255000Y-42545000D03*
X137795000Y-45085000D03*
X137795000Y-42545000D03*
X140335000Y-45085000D03*
X140335000Y-42545000D03*
X142875000Y-45085000D03*
X142875000Y-42545000D03*
X145415000Y-45085000D03*
X145415000Y-42545000D03*
X147955000Y-45085000D03*
X147955000Y-42545000D03*
X150495000Y-45085000D03*
X150495000Y-42545000D03*
X71755000Y-106045000D03*
X71755000Y-103505000D03*
X74295000Y-106045000D03*
X74295000Y-103505000D03*
X76835000Y-106045000D03*
X76835000Y-103505000D03*
X79375000Y-106045000D03*
X79375000Y-103505000D03*
X81915000Y-106045000D03*
X81915000Y-103505000D03*
X84455000Y-106045000D03*
X84455000Y-103505000D03*
X86995000Y-106045000D03*
X86995000Y-103505000D03*
X89535000Y-106045000D03*
X89535000Y-103505000D03*
X92075000Y-106045000D03*
X92075000Y-103505000D03*
X94615000Y-106045000D03*
X94615000Y-103505000D03*
X97155000Y-106045000D03*
X97155000Y-103505000D03*
X99695000Y-106045000D03*
X99695000Y-103505000D03*
X102235000Y-106045000D03*
X102235000Y-103505000D03*
X104775000Y-106045000D03*
X104775000Y-103505000D03*
X107315000Y-106045000D03*
X107315000Y-103505000D03*
X109855000Y-106045000D03*
X109855000Y-103505000D03*
X112395000Y-106045000D03*
X112395000Y-103505000D03*
X114935000Y-106045000D03*
X114935000Y-103505000D03*
X117475000Y-106045000D03*
X117475000Y-103505000D03*
X120015000Y-106045000D03*
X120015000Y-103505000D03*
X122555000Y-106045000D03*
X122555000Y-103505000D03*
X125095000Y-106045000D03*
X125095000Y-103505000D03*
X127635000Y-106045000D03*
X127635000Y-103505000D03*
X130175000Y-106045000D03*
X130175000Y-103505000D03*
X132715000Y-106045000D03*
X132715000Y-103505000D03*
X135255000Y-106045000D03*
X135255000Y-103505000D03*
X137795000Y-106045000D03*
X137795000Y-103505000D03*
X140335000Y-106045000D03*
X140335000Y-103505000D03*
X142875000Y-106045000D03*
X142875000Y-103505000D03*
X145415000Y-106045000D03*
X145415000Y-103505000D03*
X147955000Y-106045000D03*
X147955000Y-103505000D03*
X150495000Y-106045000D03*
X150495000Y-103505000D03*
D10*
X116967000Y-136525000D03*
D11*
X119507000Y-136525000D03*
X122046999Y-136525000D03*
D10*
X68072000Y-92862000D03*
D11*
X65532000Y-92862000D03*
X68072000Y-95402000D03*
X65532000Y-95402000D03*
X68072000Y-97942000D03*
X65532000Y-97942000D03*
X68072000Y-100482000D03*
X65532000Y-100482000D03*
X68072000Y-103022000D03*
X65532000Y-103022000D03*
X68072000Y-105562000D03*
X65532000Y-105562000D03*
D10*
X78740000Y-136525000D03*
D11*
X81280000Y-136525000D03*
X83819999Y-136525000D03*
X86360000Y-136525000D03*
X88900000Y-136525000D03*
X91440000Y-136525000D03*
D10*
X96393000Y-136525000D03*
D11*
X98933000Y-136525000D03*
X101472999Y-136525000D03*
D10*
X131983000Y-133965000D03*
D11*
X131983000Y-136505000D03*
X134523000Y-133965000D03*
X134523000Y-136505000D03*
X137062999Y-133965000D03*
X137063000Y-136505000D03*
X139603000Y-133965000D03*
X139603000Y-136505000D03*
X142143000Y-133965000D03*
X142143000Y-136505000D03*
X144683000Y-133965000D03*
X144683000Y-136505000D03*
X147223000Y-133965000D03*
X147223000Y-136505000D03*
X149763001Y-133965000D03*
X149763000Y-136505000D03*
X152303000Y-133965000D03*
X152303000Y-136505000D03*
X154843000Y-133965000D03*
X154843000Y-136505000D03*
D12*
X154901001Y-54071000D03*
X154901001Y-48291000D03*
D13*
X154421001Y-55501000D03*
D14*
X158591001Y-55501000D03*
D13*
X154421001Y-46861000D03*
D14*
X158591001Y-46861000D03*
D16*
X158823900Y-82956400D03*
X156948900Y-82956400D03*
X158823900Y-80924400D03*
X156948900Y-80924400D03*
D17*
X124841000Y-116834000D03*
D18*
X153278000Y-92600399D03*
X153278000Y-91600401D03*
X155078000Y-91600401D03*
X155078000Y-92600399D03*
D19*
X65418500Y-111641000D03*
X63768500Y-111641000D03*
D20*
X66803300Y-116505400D03*
X66803300Y-114955400D03*
D17*
X157734000Y-116719000D03*
X124841000Y-113284000D03*
D20*
X106850000Y-115710000D03*
X106850000Y-114160000D03*
D16*
X158823900Y-84988400D03*
X156948900Y-84988400D03*
D21*
X105522392Y-127925192D03*
X106618408Y-129021208D03*
D22*
X140176798Y-52731400D03*
X141826798Y-52731400D03*
D23*
X86106000Y-126556000D03*
X86106000Y-128206000D03*
D24*
X120586200Y-122212100D03*
X122136200Y-122212100D03*
D22*
X140176798Y-54255399D03*
X141826798Y-54255399D03*
D25*
X101106608Y-129677792D03*
X100010592Y-130773808D03*
D24*
X123940700Y-127847600D03*
X125490700Y-127847600D03*
D26*
X82143600Y-122161000D03*
X82143600Y-123711000D03*
D16*
X158823900Y-93141800D03*
X156948900Y-93141800D03*
X158823900Y-91109800D03*
X156948900Y-91109800D03*
D17*
X157734000Y-120269000D03*
D27*
X125501400Y-125196100D03*
X125501400Y-123546100D03*
D17*
X157734000Y-113169000D03*
D20*
X154051000Y-127698800D03*
X154051000Y-126148800D03*
D16*
X158823900Y-78867000D03*
X156948900Y-78867000D03*
D22*
X140176799Y-55779400D03*
X141826799Y-55779400D03*
D19*
X117868200Y-132588000D03*
X116218200Y-132588000D03*
D28*
X64333900Y-118110000D03*
X62208900Y-118110000D03*
D29*
X156922500Y-126423800D03*
X156922500Y-126923800D03*
X156922500Y-127423800D03*
X155497500Y-127423800D03*
X155497500Y-126923800D03*
X155497500Y-126423800D03*
D30*
X155973800Y-52538200D03*
X155973800Y-60538200D03*
D31*
X144973800Y-59738200D03*
X144973800Y-58638200D03*
X144973800Y-57538200D03*
X144973800Y-56438200D03*
X144973800Y-55338200D03*
X144973800Y-54238200D03*
X144973800Y-53138200D03*
X144973800Y-52038200D03*
X144973800Y-50938200D03*
D32*
X155573800Y-49738200D03*
D33*
X145973800Y-49738200D03*
D34*
X145973800Y-64338200D03*
D32*
X155573800Y-65238200D03*
D35*
X129675199Y-125008600D03*
X131775201Y-125008600D03*
X131775201Y-126908600D03*
X129675199Y-126908600D03*
D29*
X65306000Y-115205000D03*
X65306001Y-115705000D03*
X65306000Y-116205000D03*
X63881000Y-116205000D03*
X63880999Y-115705000D03*
X63881000Y-115205000D03*
D22*
X131788400Y-128955800D03*
X133438400Y-128955800D03*
D36*
X106919392Y-132043808D03*
X108015408Y-130947792D03*
D19*
X97409000Y-132435600D03*
X95759000Y-132435600D03*
D24*
X129908000Y-123129000D03*
X131458000Y-123129000D03*
D19*
X155536400Y-75412600D03*
X153886400Y-75412600D03*
D25*
X111215808Y-127925192D03*
X110119792Y-129021208D03*
D27*
X98933000Y-134022600D03*
X98933000Y-132372600D03*
D18*
X153278000Y-84319999D03*
X153278000Y-83320001D03*
X155078000Y-83320001D03*
X155078000Y-84319999D03*
D25*
X110885608Y-133614792D03*
X109789592Y-134710808D03*
D27*
X119456200Y-134175000D03*
X119456200Y-132525000D03*
D16*
X158823900Y-87045800D03*
X156948900Y-87045800D03*
D37*
X118948200Y-124036600D03*
X118948200Y-121911600D03*
D22*
X63768500Y-113292001D03*
X65418500Y-113292001D03*
D25*
X109463208Y-132141592D03*
X108367192Y-133237608D03*
D22*
X140170400Y-59512199D03*
X141820400Y-59512199D03*
D20*
X158496000Y-127698800D03*
X158496000Y-126148800D03*
D24*
X117411200Y-130911600D03*
X118961200Y-130911600D03*
D22*
X140170399Y-61036198D03*
X141820399Y-61036198D03*
X155131000Y-124383800D03*
X156781000Y-124383800D03*
D38*
X121777000Y-125045500D03*
X121277000Y-125045501D03*
X120777000Y-125045500D03*
X120777000Y-123620500D03*
X121277000Y-123620499D03*
X121777000Y-123620500D03*
D18*
X153278000Y-88604598D03*
X153278000Y-87604600D03*
X155078000Y-87604600D03*
X155078000Y-88604598D03*
D39*
X125237000Y-131061000D03*
X124587000Y-131061000D03*
X123937000Y-131061000D03*
X123937000Y-129286000D03*
X124587000Y-129286000D03*
X125237000Y-129286000D03*
D40*
X124587000Y-130173500D03*
D41*
X104691000Y-112268000D03*
X104691000Y-113538000D03*
X104691000Y-114808000D03*
X104691000Y-116078000D03*
X99441000Y-116078000D03*
X99441000Y-114808000D03*
X99441000Y-113538000D03*
X99441000Y-112268000D03*
D22*
X140176799Y-51207401D03*
X141826799Y-51207401D03*
D42*
X133328043Y-117501051D03*
X134035149Y-118208157D03*
X132762357Y-119480949D03*
X132055251Y-118773843D03*
D23*
X84328000Y-126556000D03*
X84328000Y-128206000D03*
D41*
X138346000Y-112014000D03*
X138346000Y-113284000D03*
X138346000Y-114554000D03*
X138346000Y-115824000D03*
X133096000Y-115824000D03*
X133096000Y-114554000D03*
X133096000Y-113284000D03*
X133096000Y-112014000D03*
D28*
X155875500Y-129336800D03*
X153750500Y-129336800D03*
D21*
X107757592Y-127163192D03*
X108853608Y-128259208D03*
D20*
X140293000Y-115329000D03*
X140293000Y-113779000D03*
X62485300Y-116505400D03*
X62485300Y-114955400D03*
D22*
X140170400Y-57988200D03*
X141820400Y-57988200D03*
D19*
X156781000Y-122732800D03*
X155131000Y-122732800D03*
D17*
X124841000Y-120384000D03*
D24*
X120484599Y-126555500D03*
X122034599Y-126555500D03*
D16*
X158823900Y-89077800D03*
X156948900Y-89077800D03*
D43*
X125465300Y-132521200D03*
X123915300Y-132521200D03*
D23*
X123850401Y-123546100D03*
X123850401Y-125196100D03*
D44*
X83562000Y-117848000D03*
X84212000Y-117848000D03*
X84862000Y-117848000D03*
X85512000Y-117848000D03*
X86162000Y-117848000D03*
X86812000Y-117848000D03*
X87462000Y-117848000D03*
X88112000Y-117848000D03*
X88762000Y-117848000D03*
X89412000Y-117848000D03*
X89412000Y-123573000D03*
X88762000Y-123573000D03*
X88112000Y-123573000D03*
X87462000Y-123573000D03*
X86812000Y-123573000D03*
X86162000Y-123573000D03*
X85512000Y-123573000D03*
X84862000Y-123573000D03*
X84212000Y-123573000D03*
X83562000Y-123573000D03*
D18*
X153278000Y-80382999D03*
X153278000Y-79383001D03*
X155078000Y-79383001D03*
X155078000Y-80382999D03*
D26*
X82169000Y-119113000D03*
X82169000Y-120663000D03*
M02*
