G04 #@! TF.GenerationSoftware,KiCad,Pcbnew,9.0.2-2.fc42*
G04 #@! TF.CreationDate,2025-07-11T19:52:54+03:00*
G04 #@! TF.ProjectId,QMTECH_XC7A100T-Expantion-Board,514d5445-4348-45f5-9843-374131303054,rev?*
G04 #@! TF.SameCoordinates,Original*
G04 #@! TF.FileFunction,Paste,Top*
G04 #@! TF.FilePolarity,Positive*
%FSLAX46Y46*%
G04 Gerber Fmt 4.6, Leading zero omitted, Abs format (unit mm)*
G04 Created by KiCad (PCBNEW 9.0.2-2.fc42) date 2025-07-11 19:52:54*
%MOMM*%
%LPD*%
G01*
G04 APERTURE LIST*
G04 Aperture macros list*
%AMRoundRect*
0 Rectangle with rounded corners*
0 $1 Rounding radius*
0 $2 $3 $4 $5 $6 $7 $8 $9 X,Y pos of 4 corners*
0 Add a 4 corners polygon primitive as box body*
4,1,4,$2,$3,$4,$5,$6,$7,$8,$9,$2,$3,0*
0 Add four circle primitives for the rounded corners*
1,1,$1+$1,$2,$3*
1,1,$1+$1,$4,$5*
1,1,$1+$1,$6,$7*
1,1,$1+$1,$8,$9*
0 Add four rect primitives between the rounded corners*
20,1,$1+$1,$2,$3,$4,$5,0*
20,1,$1+$1,$4,$5,$6,$7,0*
20,1,$1+$1,$6,$7,$8,$9,0*
20,1,$1+$1,$8,$9,$2,$3,0*%
%AMRotRect*
0 Rectangle, with rotation*
0 The origin of the aperture is its center*
0 $1 length*
0 $2 width*
0 $3 Rotation angle, in degrees counterclockwise*
0 Add horizontal line*
21,1,$1,$2,0,0,$3*%
%AMFreePoly0*
4,1,21,1.372500,0.787500,0.862500,0.787500,0.862500,0.532500,1.372500,0.532500,1.372500,0.127500,0.862500,0.127500,0.862500,-0.127500,1.372500,-0.127500,1.372500,-0.532500,0.862500,-0.532500,0.862500,-0.787500,1.372500,-0.787500,1.372500,-1.195000,0.612500,-1.195000,0.612500,-1.117500,-0.862500,-1.117500,-0.862500,1.117500,0.612500,1.117500,0.612500,1.195000,1.372500,1.195000,
1.372500,0.787500,1.372500,0.787500,$1*%
G04 Aperture macros list end*
%ADD10R,0.500000X0.800000*%
%ADD11RoundRect,0.225000X0.250000X-0.225000X0.250000X0.225000X-0.250000X0.225000X-0.250000X-0.225000X0*%
%ADD12R,0.400000X0.800000*%
%ADD13R,0.300000X1.800000*%
%ADD14R,2.000000X1.500000*%
%ADD15RoundRect,0.243750X0.243750X0.456250X-0.243750X0.456250X-0.243750X-0.456250X0.243750X-0.456250X0*%
%ADD16RoundRect,0.200000X0.275000X-0.200000X0.275000X0.200000X-0.275000X0.200000X-0.275000X-0.200000X0*%
%ADD17RoundRect,0.200000X-0.200000X-0.275000X0.200000X-0.275000X0.200000X0.275000X-0.200000X0.275000X0*%
%ADD18RoundRect,0.200000X-0.275000X0.200000X-0.275000X-0.200000X0.275000X-0.200000X0.275000X0.200000X0*%
%ADD19R,0.650000X0.800000*%
%ADD20RoundRect,0.225000X-0.225000X-0.250000X0.225000X-0.250000X0.225000X0.250000X-0.225000X0.250000X0*%
%ADD21R,0.450000X0.600000*%
%ADD22RoundRect,0.200000X0.200000X0.275000X-0.200000X0.275000X-0.200000X-0.275000X0.200000X-0.275000X0*%
%ADD23RoundRect,0.100000X-0.100000X0.637500X-0.100000X-0.637500X0.100000X-0.637500X0.100000X0.637500X0*%
%ADD24R,1.800000X0.300000*%
%ADD25R,1.500000X2.000000*%
%ADD26RoundRect,0.225000X0.225000X0.250000X-0.225000X0.250000X-0.225000X-0.250000X0.225000X-0.250000X0*%
%ADD27R,0.625000X0.250000*%
%ADD28R,0.700000X0.450000*%
%ADD29R,0.575000X0.450000*%
%ADD30R,1.160000X0.600000*%
%ADD31R,1.160000X0.300000*%
%ADD32RoundRect,0.225000X0.017678X-0.335876X0.335876X-0.017678X-0.017678X0.335876X-0.335876X0.017678X0*%
%ADD33RoundRect,0.167500X0.167500X0.312500X-0.167500X0.312500X-0.167500X-0.312500X0.167500X-0.312500X0*%
%ADD34RoundRect,0.062500X0.362500X0.062500X-0.362500X0.062500X-0.362500X-0.062500X0.362500X-0.062500X0*%
%ADD35RoundRect,0.225000X-0.250000X0.225000X-0.250000X-0.225000X0.250000X-0.225000X0.250000X0.225000X0*%
%ADD36R,0.800000X0.650000*%
%ADD37R,0.990000X0.405000*%
%ADD38FreePoly0,180.000000*%
%ADD39R,1.200000X1.400000*%
%ADD40RoundRect,0.150000X-0.150000X0.825000X-0.150000X-0.825000X0.150000X-0.825000X0.150000X0.825000X0*%
%ADD41RoundRect,0.250000X-0.312500X-1.450000X0.312500X-1.450000X0.312500X1.450000X-0.312500X1.450000X0*%
%ADD42RotRect,0.800000X0.300000X135.000000*%
%ADD43RotRect,0.800000X0.300000X225.000000*%
%ADD44RotRect,0.800000X0.300000X315.000000*%
%ADD45RotRect,0.800000X0.300000X45.000000*%
%ADD46RotRect,3.600000X3.600000X135.000000*%
G04 APERTURE END LIST*
D10*
X99593400Y-117275200D03*
X98593402Y-117275200D03*
X98593402Y-119075200D03*
X99593400Y-119075200D03*
D11*
X90805000Y-124854000D03*
X90805000Y-123304000D03*
X69291200Y-127165400D03*
X69291200Y-125615400D03*
D10*
X72822000Y-130556000D03*
D12*
X73622000Y-130556000D03*
X74422000Y-130556000D03*
D10*
X75222000Y-130556000D03*
X75222000Y-128756000D03*
D12*
X74422000Y-128756000D03*
X73622000Y-128756000D03*
D10*
X72822000Y-128756000D03*
D11*
X132257800Y-71742600D03*
X132257800Y-70192600D03*
D13*
X68795000Y-114935000D03*
X69295000Y-114935000D03*
X69795000Y-114935000D03*
X70295000Y-114935000D03*
X70795000Y-114935000D03*
X71295000Y-114935000D03*
X71795000Y-114935000D03*
X72295000Y-114935000D03*
X72795000Y-114935000D03*
X73295000Y-114935000D03*
X73795000Y-114935000D03*
X74295000Y-114935000D03*
X74795000Y-114935000D03*
X75295000Y-114935000D03*
X75795000Y-114935000D03*
X76295000Y-114935000D03*
X76795000Y-114935000D03*
X77295000Y-114935000D03*
X77795000Y-114935000D03*
X78295000Y-114935000D03*
X78795000Y-114935000D03*
X79295000Y-114935000D03*
X79795000Y-114935000D03*
X80295000Y-114935000D03*
X80795000Y-114935000D03*
X81295000Y-114935000D03*
X81795000Y-114935000D03*
X82295000Y-114935000D03*
X82795000Y-114935000D03*
X83295000Y-114935000D03*
X83795000Y-114935000D03*
X84295000Y-114935000D03*
X84795000Y-114935000D03*
X85295000Y-114935000D03*
D14*
X86995000Y-112495000D03*
X67095000Y-112495000D03*
D10*
X104197000Y-117845000D03*
D12*
X103397000Y-117845000D03*
X102597000Y-117845000D03*
D10*
X101797000Y-117845000D03*
X101797000Y-119645000D03*
D12*
X102597000Y-119645000D03*
X103397000Y-119645000D03*
D10*
X104197000Y-119645000D03*
D11*
X80568800Y-122187000D03*
X80568800Y-120637000D03*
D15*
X75410301Y-136575800D03*
X73535299Y-136575800D03*
D16*
X143637000Y-72173600D03*
X143637000Y-70523600D03*
D10*
X66148000Y-132842000D03*
D12*
X66948000Y-132842000D03*
X67748000Y-132842000D03*
D10*
X68548000Y-132842000D03*
X68548000Y-131042000D03*
D12*
X67748000Y-131042000D03*
X66948000Y-131042000D03*
D10*
X66148000Y-131042000D03*
D17*
X108268000Y-137414000D03*
X109918000Y-137414000D03*
D18*
X91135200Y-126962400D03*
X91135200Y-128612400D03*
D10*
X77083000Y-133985000D03*
D12*
X77883000Y-133985000D03*
X78683000Y-133985000D03*
D10*
X79483000Y-133985000D03*
X79483000Y-132185000D03*
D12*
X78683000Y-132185000D03*
X77883000Y-132185000D03*
D10*
X77083000Y-132185000D03*
D19*
X158572200Y-112547400D03*
X157732200Y-112547400D03*
X157732200Y-111047400D03*
X158572200Y-111047400D03*
D18*
X135051800Y-66713600D03*
X135051800Y-68363600D03*
D20*
X111620000Y-122555000D03*
X113170000Y-122555000D03*
X104431800Y-122961400D03*
X105981800Y-122961400D03*
D10*
X62173000Y-132842000D03*
D12*
X62973000Y-132842000D03*
X63773000Y-132842000D03*
D10*
X64573000Y-132842000D03*
X64573000Y-131042000D03*
D12*
X63773000Y-131042000D03*
X62973000Y-131042000D03*
D10*
X62173000Y-131042000D03*
D13*
X102621000Y-114885000D03*
X103121000Y-114885000D03*
X103621000Y-114885000D03*
X104121000Y-114885000D03*
X104621000Y-114885000D03*
X105121000Y-114885000D03*
X105621000Y-114885000D03*
X106121000Y-114885000D03*
X106621000Y-114885000D03*
X107121000Y-114885000D03*
X107621000Y-114885000D03*
X108121000Y-114885000D03*
X108621000Y-114885000D03*
X109121000Y-114885000D03*
X109621000Y-114885000D03*
X110121000Y-114885000D03*
X110621000Y-114885000D03*
X111121000Y-114885000D03*
X111621000Y-114885000D03*
X112121000Y-114885000D03*
X112621000Y-114885000D03*
X113121000Y-114885000D03*
X113621000Y-114885000D03*
X114121000Y-114885000D03*
X114621000Y-114885000D03*
X115121000Y-114885000D03*
X115621000Y-114885000D03*
X116121000Y-114885000D03*
X116621000Y-114885000D03*
X117121000Y-114885000D03*
X117621000Y-114885000D03*
X118121000Y-114885000D03*
X118621000Y-114885000D03*
X119121000Y-114885000D03*
D14*
X120821000Y-112445000D03*
X100921000Y-112445000D03*
D21*
X145034000Y-71670000D03*
X145034000Y-70570000D03*
D11*
X90805000Y-121806000D03*
X90805000Y-120256000D03*
D10*
X108280000Y-117845000D03*
D12*
X107480000Y-117845000D03*
X106680000Y-117845000D03*
D10*
X105880000Y-117845000D03*
X105880000Y-119645000D03*
D12*
X106680000Y-119645000D03*
X107480000Y-119645000D03*
D10*
X108280000Y-119645000D03*
D22*
X158482800Y-114554000D03*
X156832800Y-114554000D03*
D23*
X79125000Y-120835500D03*
X78475000Y-120835500D03*
X77825000Y-120835500D03*
X77175000Y-120835500D03*
X76525000Y-120835500D03*
X75875000Y-120835500D03*
X75225000Y-120835500D03*
X74575000Y-120835500D03*
X73925000Y-120835500D03*
X73275000Y-120835500D03*
X73275000Y-126560500D03*
X73925000Y-126560500D03*
X74575000Y-126560500D03*
X75225000Y-126560500D03*
X75875000Y-126560500D03*
X76525000Y-126560500D03*
X77175000Y-126560500D03*
X77825000Y-126560500D03*
X78475000Y-126560500D03*
X79125000Y-126560500D03*
D24*
X66801500Y-64003000D03*
X66801500Y-63503000D03*
X66801500Y-63003000D03*
X66801500Y-62503000D03*
X66801500Y-62003000D03*
X66801500Y-61503000D03*
X66801500Y-61003000D03*
X66801500Y-60503000D03*
X66801500Y-60003000D03*
X66801500Y-59503000D03*
X66801500Y-59003000D03*
X66801500Y-58503000D03*
X66801500Y-58003000D03*
X66801500Y-57503000D03*
X66801500Y-57003000D03*
X66801500Y-56503000D03*
X66801500Y-56003000D03*
X66801500Y-55503000D03*
X66801500Y-55003000D03*
X66801500Y-54503000D03*
X66801500Y-54003000D03*
X66801500Y-53503000D03*
X66801500Y-53003000D03*
X66801500Y-52503000D03*
X66801500Y-52003000D03*
X66801500Y-51503000D03*
X66801500Y-51003000D03*
X66801500Y-50503000D03*
X66801500Y-50003000D03*
X66801500Y-49503000D03*
X66801500Y-49003000D03*
X66801500Y-48503000D03*
X66801500Y-48003000D03*
X66801500Y-47503000D03*
D25*
X64361500Y-45803000D03*
X64361500Y-65703000D03*
D18*
X70129400Y-132855200D03*
X70129400Y-134505200D03*
D26*
X143548400Y-69037200D03*
X141998400Y-69037200D03*
D10*
X137160000Y-118480000D03*
D12*
X136360000Y-118480000D03*
X135560000Y-118480000D03*
D10*
X134760000Y-118480000D03*
X134760000Y-120280000D03*
D12*
X135560000Y-120280000D03*
X136360000Y-120280000D03*
D10*
X137160000Y-120280000D03*
X117913000Y-117845000D03*
D12*
X117113000Y-117845000D03*
X116313000Y-117845000D03*
D10*
X115513000Y-117845000D03*
X115513000Y-119645000D03*
D12*
X116313000Y-119645000D03*
X117113000Y-119645000D03*
D10*
X117913000Y-119645000D03*
D18*
X70129400Y-129756400D03*
X70129400Y-131406400D03*
D27*
X146088399Y-68393800D03*
X146088398Y-67893800D03*
D28*
X146050898Y-67393800D03*
D27*
X146088398Y-66893800D03*
X146088399Y-66393800D03*
X145313399Y-66393800D03*
X145313400Y-66893800D03*
D29*
X145288398Y-67393800D03*
D27*
X145313400Y-67893800D03*
X145313399Y-68393800D03*
D30*
X153847600Y-69953200D03*
X153847600Y-69153200D03*
D31*
X153847600Y-68003199D03*
X153847600Y-67003200D03*
X153847600Y-66503200D03*
X153847600Y-65503201D03*
D30*
X153847600Y-64353200D03*
X153847600Y-63553200D03*
X153847600Y-63553200D03*
X153847600Y-64353200D03*
D31*
X153847600Y-65003200D03*
X153847600Y-66003200D03*
X153847600Y-67503200D03*
X153847600Y-68503200D03*
D30*
X153847600Y-69153200D03*
X153847600Y-69953200D03*
D11*
X80467200Y-125235000D03*
X80467200Y-123685000D03*
D32*
X104521000Y-127381000D03*
X105617016Y-126284984D03*
D23*
X89371000Y-120513000D03*
X88721000Y-120513000D03*
X88071000Y-120513000D03*
X87421000Y-120513000D03*
X86771000Y-120513000D03*
X86121000Y-120513000D03*
X85471000Y-120513000D03*
X84821000Y-120513000D03*
X84171000Y-120513000D03*
X83521000Y-120513000D03*
X83521000Y-126238000D03*
X84171000Y-126238000D03*
X84821000Y-126238000D03*
X85471000Y-126238000D03*
X86121000Y-126238000D03*
X86771000Y-126238000D03*
X87421000Y-126238000D03*
X88071000Y-126238000D03*
X88721000Y-126238000D03*
X89371000Y-126238000D03*
X67949000Y-122867500D03*
X67299000Y-122867500D03*
X66649000Y-122867500D03*
X65999000Y-122867500D03*
X65349000Y-122867500D03*
X64699000Y-122867500D03*
X64049000Y-122867500D03*
X63399000Y-122867500D03*
X62749000Y-122867500D03*
X62099000Y-122867500D03*
X62099000Y-128592500D03*
X62749000Y-128592500D03*
X63399000Y-128592500D03*
X64049000Y-128592500D03*
X64699000Y-128592500D03*
X65349000Y-128592500D03*
X65999000Y-128592500D03*
X66649000Y-128592500D03*
X67299000Y-128592500D03*
X67949000Y-128592500D03*
D10*
X66129000Y-136282000D03*
D12*
X66929000Y-136282000D03*
X67729000Y-136282000D03*
D10*
X68529000Y-136282000D03*
X68529000Y-134482000D03*
D12*
X67729000Y-134482000D03*
X66929000Y-134482000D03*
D10*
X66129000Y-134482000D03*
X142551000Y-118491000D03*
D12*
X141751000Y-118491000D03*
X140951000Y-118491000D03*
D10*
X140151000Y-118491000D03*
X140151000Y-120291000D03*
D12*
X140951000Y-120291000D03*
X141751000Y-120291000D03*
D10*
X142551000Y-120291000D03*
D24*
X154178500Y-80065800D03*
X154178500Y-80565800D03*
X154178500Y-81065800D03*
X154178500Y-81565800D03*
X154178500Y-82065800D03*
X154178500Y-82565800D03*
X154178500Y-83065800D03*
X154178500Y-83565800D03*
X154178500Y-84065800D03*
X154178500Y-84565800D03*
X154178500Y-85065800D03*
X154178500Y-85565800D03*
X154178500Y-86065800D03*
X154178500Y-86565800D03*
X154178500Y-87065800D03*
X154178500Y-87565800D03*
X154178500Y-88065800D03*
X154178500Y-88565800D03*
X154178500Y-89065800D03*
X154178500Y-89565800D03*
X154178500Y-90065800D03*
X154178500Y-90565800D03*
X154178500Y-91065800D03*
X154178500Y-91565800D03*
X154178500Y-92065800D03*
X154178500Y-92565800D03*
X154178500Y-93065800D03*
X154178500Y-93565800D03*
X154178500Y-94065800D03*
X154178500Y-94565800D03*
X154178500Y-95065800D03*
X154178500Y-95565800D03*
X154178500Y-96065800D03*
X154178500Y-96565800D03*
D25*
X156618500Y-98265800D03*
X156618500Y-78365800D03*
D22*
X125310400Y-114528600D03*
X123660400Y-114528600D03*
D10*
X87211000Y-133499000D03*
D12*
X88011000Y-133499000D03*
X88811000Y-133499000D03*
D10*
X89611000Y-133499000D03*
X89611000Y-131699000D03*
D12*
X88811000Y-131699000D03*
X88011000Y-131699000D03*
D10*
X87211000Y-131699000D03*
X83128000Y-130059000D03*
D12*
X83928000Y-130059000D03*
X84728000Y-130059000D03*
D10*
X85528000Y-130059000D03*
X85528000Y-128259000D03*
D12*
X84728000Y-128259000D03*
X83928000Y-128259000D03*
D10*
X83128000Y-128259000D03*
D17*
X149568400Y-47498000D03*
X151218400Y-47498000D03*
D33*
X140872000Y-67016000D03*
X140872000Y-65826000D03*
X140052000Y-67016000D03*
X140052000Y-65826000D03*
D34*
X141912000Y-67421000D03*
X141912000Y-66921000D03*
X141912000Y-66421000D03*
X141912000Y-65921000D03*
X141912000Y-65421000D03*
X139012000Y-65421000D03*
X139012000Y-65921000D03*
X139012000Y-66421000D03*
X139012000Y-66921000D03*
X139012000Y-67421000D03*
D26*
X138849400Y-55346600D03*
X137299400Y-55346600D03*
D35*
X107442000Y-122948400D03*
X107442000Y-124498400D03*
D18*
X91135200Y-130061200D03*
X91135200Y-131711200D03*
D11*
X133853400Y-71742600D03*
X133853400Y-70192600D03*
D17*
X70168000Y-136652000D03*
X71818000Y-136652000D03*
D11*
X115062000Y-126365000D03*
X115062000Y-124815000D03*
D36*
X159017400Y-75322800D03*
X159017400Y-76162800D03*
X157517400Y-76162800D03*
X157517400Y-75322800D03*
D37*
X140081000Y-73354600D03*
X140081000Y-72694600D03*
X140081000Y-72034600D03*
X140081000Y-71374600D03*
D38*
X138088500Y-72364600D03*
D13*
X134625000Y-114807500D03*
X135125000Y-114807500D03*
X135625000Y-114807500D03*
X136125000Y-114807500D03*
X136625000Y-114807500D03*
X137125000Y-114807500D03*
X137625000Y-114807500D03*
X138125000Y-114807500D03*
X138625000Y-114807500D03*
X139125000Y-114807500D03*
X139625000Y-114807500D03*
X140125000Y-114807500D03*
X140625000Y-114807500D03*
X141125000Y-114807500D03*
X141625000Y-114807500D03*
X142125000Y-114807500D03*
X142625000Y-114807500D03*
X143125000Y-114807500D03*
X143625000Y-114807500D03*
X144125000Y-114807500D03*
X144625000Y-114807500D03*
X145125000Y-114807500D03*
X145625000Y-114807500D03*
X146125000Y-114807500D03*
X146625000Y-114807500D03*
X147125000Y-114807500D03*
X147625000Y-114807500D03*
X148125000Y-114807500D03*
X148625000Y-114807500D03*
X149125000Y-114807500D03*
X149625000Y-114807500D03*
X150125000Y-114807500D03*
X150625000Y-114807500D03*
X151125000Y-114807500D03*
D14*
X152825000Y-112367500D03*
X132925000Y-112367500D03*
D11*
X69342000Y-124168200D03*
X69342000Y-122618200D03*
D39*
X113233000Y-126746000D03*
X113233000Y-124546000D03*
X111633000Y-124546000D03*
X111633000Y-126746000D03*
D10*
X87192000Y-130070000D03*
D12*
X87992000Y-130070000D03*
X88792000Y-130070000D03*
D10*
X89592000Y-130070000D03*
X89592000Y-128270000D03*
D12*
X88792000Y-128270000D03*
X87992000Y-128270000D03*
D10*
X87192000Y-128270000D03*
D22*
X106031800Y-124485400D03*
X104381800Y-124485400D03*
D10*
X83128000Y-133488000D03*
D12*
X83928000Y-133488000D03*
X84728000Y-133488000D03*
D10*
X85528000Y-133488000D03*
X85528000Y-131688000D03*
D12*
X84728000Y-131688000D03*
X83928000Y-131688000D03*
D10*
X83128000Y-131688000D03*
D18*
X81026000Y-127445000D03*
X81026000Y-129095000D03*
D27*
X150755000Y-50924700D03*
X150754999Y-50424700D03*
D28*
X150717499Y-49924700D03*
D27*
X150754999Y-49424700D03*
X150755000Y-48924700D03*
X149980000Y-48924700D03*
X149980001Y-49424700D03*
D29*
X149954999Y-49924700D03*
D27*
X149980001Y-50424700D03*
X149980000Y-50924700D03*
D10*
X77083000Y-130556000D03*
D12*
X77883000Y-130556000D03*
X78683000Y-130556000D03*
D10*
X79483000Y-130556000D03*
X79483000Y-128756000D03*
D12*
X78683000Y-128756000D03*
X77883000Y-128756000D03*
D10*
X77083000Y-128756000D03*
D17*
X149644600Y-52705000D03*
X151294600Y-52705000D03*
D40*
X138675200Y-47944000D03*
X137405200Y-47944000D03*
X136135200Y-47944000D03*
X134865200Y-47944000D03*
X133595200Y-47944000D03*
X132325200Y-47944000D03*
X131055200Y-47944000D03*
X129785200Y-47944000D03*
X129785200Y-52894000D03*
X131055200Y-52894000D03*
X132325200Y-52894000D03*
X133595200Y-52894000D03*
X134865200Y-52894000D03*
X136135200Y-52894000D03*
X137405200Y-52894000D03*
X138675200Y-52894000D03*
D19*
X125718200Y-112484600D03*
X124878200Y-112484600D03*
X124878200Y-110984600D03*
X125718200Y-110984600D03*
D41*
X147464600Y-72390000D03*
X151739600Y-72390000D03*
D10*
X146615000Y-118480000D03*
D12*
X145815000Y-118480000D03*
X145015000Y-118480000D03*
D10*
X144215000Y-118480000D03*
X144215000Y-120280000D03*
D12*
X145015000Y-120280000D03*
X145815000Y-120280000D03*
D10*
X146615000Y-120280000D03*
D16*
X142011400Y-72148400D03*
X142011400Y-70498400D03*
D10*
X150609000Y-118469000D03*
D12*
X149809000Y-118469000D03*
X149009000Y-118469000D03*
D10*
X148209000Y-118469000D03*
X148209000Y-120269000D03*
D12*
X149009000Y-120269000D03*
X149809000Y-120269000D03*
D10*
X150609000Y-120269000D03*
D18*
X81026000Y-130556000D03*
X81026000Y-132206000D03*
D10*
X72822000Y-133974000D03*
D12*
X73622000Y-133974000D03*
X74422000Y-133974000D03*
D10*
X75222000Y-133974000D03*
X75222000Y-132174000D03*
D12*
X74422000Y-132174000D03*
X73622000Y-132174000D03*
D10*
X72822000Y-132174000D03*
D30*
X153841001Y-54381000D03*
X153841001Y-53581000D03*
D31*
X153841001Y-52430999D03*
X153841001Y-51431000D03*
X153841001Y-50931000D03*
X153841001Y-49931001D03*
D30*
X153841001Y-48781000D03*
X153841001Y-47981000D03*
X153841001Y-47981000D03*
X153841001Y-48781000D03*
D31*
X153841001Y-49431000D03*
X153841001Y-50431000D03*
X153841001Y-51931000D03*
X153841001Y-52931000D03*
D30*
X153841001Y-53581000D03*
X153841001Y-54381000D03*
D16*
X136652000Y-68337800D03*
X136652000Y-66687800D03*
D42*
X108751726Y-133030874D03*
X109105279Y-132677320D03*
X109458833Y-132323767D03*
X109812386Y-131970214D03*
X110165940Y-131616660D03*
X110519493Y-131263107D03*
X110873046Y-130909553D03*
X111226600Y-130556000D03*
D43*
X111226600Y-129495340D03*
X110873046Y-129141787D03*
X110519493Y-128788233D03*
X110165940Y-128434680D03*
X109812386Y-128081126D03*
X109458833Y-127727573D03*
X109105279Y-127374020D03*
X108751726Y-127020466D03*
D44*
X107691066Y-127020466D03*
X107337513Y-127374020D03*
X106983959Y-127727573D03*
X106630406Y-128081126D03*
X106276852Y-128434680D03*
X105923299Y-128788233D03*
X105569746Y-129141787D03*
X105216192Y-129495340D03*
D45*
X105216192Y-130556000D03*
X105569746Y-130909553D03*
X105923299Y-131263107D03*
X106276852Y-131616660D03*
X106630406Y-131970214D03*
X106983959Y-132323767D03*
X107337513Y-132677320D03*
X107691066Y-133030874D03*
D46*
X108221396Y-130025670D03*
D11*
X135458200Y-71755600D03*
X135458200Y-70205600D03*
D10*
X113849000Y-117845000D03*
D12*
X113049000Y-117845000D03*
X112249000Y-117845000D03*
D10*
X111449000Y-117845000D03*
X111449000Y-119645000D03*
D12*
X112249000Y-119645000D03*
X113049000Y-119645000D03*
D10*
X113849000Y-119645000D03*
X62173000Y-136271000D03*
D12*
X62973000Y-136271000D03*
X63773000Y-136271000D03*
D10*
X64573000Y-136271000D03*
X64573000Y-134471000D03*
D12*
X63773000Y-134471000D03*
X62973000Y-134471000D03*
D10*
X62173000Y-134471000D03*
M02*
