M48
; DRILL file {KiCad 9.0.2-2.fc42} date 2025-07-15T14:43:37+0300
; FORMAT={-:-/ absolute / metric / decimal}
; #@! TF.CreationDate,2025-07-15T14:43:37+03:00
; #@! TF.GenerationSoftware,Kicad,Pcbnew,9.0.2-2.fc42
; #@! TF.FileFunction,Plated,1,4,PTH
FMAT,2
METRIC
; #@! TA.AperFunction,Plated,PTH,ViaDrill
T1C0.200
; #@! TA.AperFunction,Plated,PTH,ComponentDrill
T2C0.200
; #@! TA.AperFunction,Plated,PTH,ComponentDrill
T3C0.600
; #@! TA.AperFunction,Plated,PTH,ComponentDrill
T4C0.762
; #@! TA.AperFunction,Plated,PTH,ComponentDrill
T5C1.000
%
G90
G05
T1
X61.976Y-121.844
X62.103Y-119.761
X62.128Y-121.107
X62.23Y-117.221
X62.357Y-119.024
X62.814Y-111.709
X62.89Y-119.786
X62.916Y-113.259
X62.992Y-114.046
X63.17Y-118.923
X63.525Y-114.63
X64.414Y-114.325
X64.592Y-62.357
X64.618Y-115.037
X65.303Y-62.205
X65.799Y-47.206
X66.116Y-115.57
X66.929Y-127.127
X67.386Y-115.595
X68.021Y-125.07
X68.021Y-127.152
X68.047Y-63.856
X68.123Y-62.586
X68.224Y-126.086
X68.631Y-63.246
X68.682Y-112.624
X68.758Y-113.894
X69.037Y-63.906
X69.113Y-62.636
X69.304Y-113.195
X69.367Y-129.591
X69.85Y-112.547
X69.952Y-123.241
X69.977Y-113.614
X70.104Y-124.968
X70.307Y-122.631
X70.409Y-123.901
X70.409Y-125.781
X70.841Y-113.538
X70.866Y-112.598
X73.203Y-121.895
X73.203Y-122.657
X76.429Y-136.576
X78.232Y-125.095
X79.096Y-122.326
X79.197Y-123.749
X79.248Y-125.374
X79.654Y-124.714
X79.705Y-122.936
X80.924Y-126.721
X81.331Y-121.26
X81.432Y-120.498
X81.432Y-124.054
X81.483Y-123.088
X82.931Y-113.411
X82.931Y-121.793
X83.058Y-122.809
X83.16Y-134.315
X83.566Y-122.301
X84.455Y-113.411
X84.582Y-121.793
X85.344Y-112.522
X85.344Y-113.589
X88.392Y-124.841
X89.408Y-124.866
X89.51Y-121.768
X89.865Y-122.377
X89.967Y-125.298
X90.068Y-124.257
X90.195Y-118.262
X91.059Y-126.238
X91.592Y-120.853
X91.643Y-122.784
X91.694Y-120.04
X91.948Y-123.444
X91.999Y-121.615
X95.606Y-133.248
X97.104Y-118.593
X97.841Y-120.066
X100.635Y-117.399
X101.879Y-120.472
X102.591Y-112.751
X102.591Y-113.64
X103.124Y-128.778
X103.835Y-131.318
X103.937Y-130.581
X104.648Y-129.997
X104.8Y-128.321
X105.054Y-122.784
X105.512Y-132.461
X106.07Y-129.819
X106.172Y-116.459
X106.426Y-127.127
X106.477Y-132.867
X106.528Y-130.404
X106.604Y-113.513
X106.705Y-135.585
X106.934Y-126.492
X107.366Y-130.505
X107.417Y-123.469
X107.442Y-129.743
X108.56Y-134.214
X109.22Y-129.083
X109.22Y-133.858
X109.804Y-129.667
X109.88Y-124.333
X109.982Y-132.944
X110.007Y-126.924
X110.287Y-122.555
X111.506Y-134.29
X111.658Y-121.107
X112.217Y-121.793
X113.17Y-123.393
X113.64Y-128.067
X114.224Y-124.546
X114.351Y-122.352
X115.481Y-127.216
X115.684Y-123.685
X115.9Y-125.476
X116.713Y-112.954
X116.738Y-133.299
X116.967Y-113.64
X117.754Y-113.487
X117.78Y-112.522
X118.415Y-112.979
X118.999Y-113.538
X119.075Y-112.573
X120.523Y-121.158
X121.006Y-120.371
X121.158Y-121.539
X121.59Y-120.879
X121.666Y-128.524
X121.742Y-125.933
X122.276Y-127.914
X122.403Y-128.854
X122.504Y-123.444
X122.555Y-124.282
X123.19Y-122.936
X123.673Y-127.102
X123.723Y-131.572
X123.8Y-111.023
X123.85Y-112.37
X124.384Y-114.681
X124.409Y-131.801
X124.435Y-126.797
X125.197Y-126.797
X125.476Y-122.784
X125.781Y-129.946
X125.832Y-127.102
X125.933Y-128.651
X128.397Y-121.285
X131.978Y-119.532
X132.105Y-123.952
X132.283Y-123.165
X132.613Y-118.974
X132.74Y-124.917
X133.045Y-69.621
X133.071Y-70.46
X133.426Y-72.796
X133.909Y-73.508
X134.264Y-72.847
X134.544Y-112.598
X134.544Y-113.563
X134.62Y-49.301
X134.671Y-70.434
X134.696Y-69.647
X134.874Y-121.158
X134.976Y-73.381
X135.179Y-65.888
X135.357Y-49.352
X135.509Y-72.822
X135.763Y-121.158
X136.017Y-73.533
X136.22Y-72.72
X136.728Y-121.183
X137.287Y-54.559
X137.86Y-65.786
X137.973Y-116.916
X138.088Y-67.005
X138.328Y-46.888
X138.608Y-116.484
X138.735Y-46.126
X139.192Y-116.942
X139.243Y-54.026
X139.294Y-52.934
X139.903Y-53.543
X140.081Y-113.132
X140.995Y-69.037
X143.764Y-49.403
X143.789Y-54.407
X144.12Y-50.165
X144.729Y-49.505
X144.755Y-67.361
X145.567Y-69.977
X145.593Y-63.271
X145.948Y-62.509
X146.304Y-63.221
X146.431Y-76.505
X146.837Y-67.386
X147.65Y-77.241
X147.955Y-76.022
X148.412Y-78.308
X148.692Y-112.827
X148.742Y-77.114
X148.996Y-113.513
X149.403Y-78.283
X149.733Y-113.386
X149.809Y-79.223
X149.835Y-112.522
X150.368Y-47.447
X150.47Y-113.005
X150.495Y-52.832
X150.546Y-79.07
X150.876Y-65.583
X151.003Y-113.462
X151.054Y-112.471
X151.79Y-49.53
X152.4Y-67.97
X152.705Y-80.061
X154.33Y-130.988
X154.432Y-122.758
X154.584Y-125.146
X154.813Y-66.523
X154.838Y-67.589
X154.838Y-125.933
X154.838Y-130.48
X154.864Y-50.952
X154.864Y-52.07
X154.94Y-52.832
X155.016Y-131.216
X155.372Y-95.885
X155.448Y-125.273
X155.524Y-67.767
X155.575Y-95.174
X155.677Y-94.361
X155.702Y-66.37
X156.108Y-125.806
X156.134Y-51.257
X156.134Y-96.368
X156.21Y-67.31
X156.388Y-94.209
X156.439Y-66.472
X156.439Y-95.275
X156.87Y-95.885
X156.87Y-112.268
X156.921Y-50.444
X156.947Y-49.428
X157.175Y-128.219
X157.505Y-49.936
X157.632Y-115.037
X157.683Y-127.559
X157.785Y-78.664
X157.785Y-80.924
X157.785Y-85.014
X157.785Y-87.046
X157.785Y-91.11
X157.81Y-82.956
X157.81Y-89.078
X157.81Y-93.142
X157.988Y-128.499
X158.648Y-94.742
X158.902Y-74.676
X158.979Y-126.797
X159.156Y-96.088
X159.156Y-119.304
X159.182Y-125.679
X159.385Y-76.835
T2
X139.887Y-65.481
X139.887Y-67.361
X139.887Y-66.421
X141.037Y-66.421
X141.037Y-65.481
X141.037Y-67.361
T4
X71.755Y-42.545
X71.755Y-45.085
X71.755Y-103.505
X71.755Y-106.045
X74.295Y-42.545
X74.295Y-45.085
X74.295Y-103.505
X74.295Y-106.045
X76.835Y-42.545
X76.835Y-45.085
X76.835Y-103.505
X76.835Y-106.045
X79.375Y-42.545
X79.375Y-45.085
X79.375Y-103.505
X79.375Y-106.045
X81.915Y-42.545
X81.915Y-45.085
X81.915Y-103.505
X81.915Y-106.045
X84.455Y-42.545
X84.455Y-45.085
X84.455Y-103.505
X84.455Y-106.045
X86.995Y-42.545
X86.995Y-45.085
X86.995Y-103.505
X86.995Y-106.045
X89.535Y-42.545
X89.535Y-45.085
X89.535Y-103.505
X89.535Y-106.045
X92.075Y-42.545
X92.075Y-45.085
X92.075Y-103.505
X92.075Y-106.045
X94.615Y-42.545
X94.615Y-45.085
X94.615Y-103.505
X94.615Y-106.045
X97.155Y-42.545
X97.155Y-45.085
X97.155Y-103.505
X97.155Y-106.045
X99.695Y-42.545
X99.695Y-45.085
X99.695Y-103.505
X99.695Y-106.045
X102.235Y-42.545
X102.235Y-45.085
X102.235Y-103.505
X102.235Y-106.045
X104.775Y-42.545
X104.775Y-45.085
X104.775Y-103.505
X104.775Y-106.045
X107.315Y-42.545
X107.315Y-45.085
X107.315Y-103.505
X107.315Y-106.045
X109.855Y-42.545
X109.855Y-45.085
X109.855Y-103.505
X109.855Y-106.045
X112.395Y-42.545
X112.395Y-45.085
X112.395Y-103.505
X112.395Y-106.045
X114.935Y-42.545
X114.935Y-45.085
X114.935Y-103.505
X114.935Y-106.045
X117.475Y-42.545
X117.475Y-45.085
X117.475Y-103.505
X117.475Y-106.045
X120.015Y-42.545
X120.015Y-45.085
X120.015Y-103.505
X120.015Y-106.045
X122.555Y-42.545
X122.555Y-45.085
X122.555Y-103.505
X122.555Y-106.045
X125.095Y-42.545
X125.095Y-45.085
X125.095Y-103.505
X125.095Y-106.045
X127.635Y-42.545
X127.635Y-45.085
X127.635Y-103.505
X127.635Y-106.045
X130.175Y-42.545
X130.175Y-45.085
X130.175Y-103.505
X130.175Y-106.045
X132.715Y-42.545
X132.715Y-45.085
X132.715Y-103.505
X132.715Y-106.045
X135.255Y-42.545
X135.255Y-45.085
X135.255Y-103.505
X135.255Y-106.045
X137.795Y-42.545
X137.795Y-45.085
X137.795Y-103.505
X137.795Y-106.045
X140.335Y-42.545
X140.335Y-45.085
X140.335Y-103.505
X140.335Y-106.045
X142.875Y-42.545
X142.875Y-45.085
X142.875Y-103.505
X142.875Y-106.045
X145.415Y-42.545
X145.415Y-45.085
X145.415Y-103.505
X145.415Y-106.045
X147.955Y-42.545
X147.955Y-45.085
X147.955Y-103.505
X147.955Y-106.045
X150.495Y-42.545
X150.495Y-45.085
X150.495Y-103.505
X150.495Y-106.045
T5
X65.532Y-69.977
X65.532Y-72.517
X65.532Y-75.057
X65.532Y-77.597
X65.532Y-80.137
X65.532Y-82.677
X65.532Y-92.862
X65.532Y-95.402
X65.532Y-97.942
X65.532Y-100.482
X65.532Y-103.022
X65.532Y-105.562
X68.072Y-69.977
X68.072Y-72.517
X68.072Y-75.057
X68.072Y-77.597
X68.072Y-80.137
X68.072Y-82.677
X68.072Y-92.862
X68.072Y-95.402
X68.072Y-97.942
X68.072Y-100.482
X68.072Y-103.022
X68.072Y-105.562
X78.74Y-136.525
X81.28Y-136.525
X83.82Y-136.525
X86.36Y-136.525
X88.9Y-136.525
X91.44Y-136.525
X95.758Y-111.633
X95.758Y-114.173
X95.758Y-116.713
X95.758Y-119.253
X96.393Y-136.525
X98.933Y-136.525
X101.473Y-136.525
X116.967Y-136.525
X119.507Y-136.525
X122.047Y-136.525
X129.413Y-111.633
X129.413Y-114.173
X129.413Y-116.713
X129.413Y-119.253
X131.983Y-133.965
X131.983Y-136.505
X134.523Y-133.965
X134.523Y-136.505
X137.063Y-133.965
X137.063Y-136.505
X139.603Y-133.965
X139.603Y-136.505
X142.143Y-133.965
X142.143Y-136.505
X144.683Y-133.965
X144.683Y-136.505
X147.223Y-133.965
X147.223Y-136.505
X149.763Y-136.505
X149.763Y-133.965
X152.303Y-133.965
X152.303Y-136.505
X154.843Y-133.965
X154.843Y-136.505
T3
X154.971Y-46.861G85X153.871Y-46.861
G05
X154.971Y-55.501G85X153.871Y-55.501
G05
X154.978Y-62.433G85X153.878Y-62.433
G05
X154.978Y-71.073G85X153.878Y-71.073
G05
X158.991Y-46.861G85X158.191Y-46.861
G05
X158.991Y-55.501G85X158.191Y-55.501
G05
X158.998Y-62.433G85X158.198Y-62.433
G05
X158.998Y-71.073G85X158.198Y-71.073
G05
M30
