G04 #@! TF.GenerationSoftware,KiCad,Pcbnew,9.0.2-2.fc42*
G04 #@! TF.CreationDate,2025-07-15T14:43:00+03:00*
G04 #@! TF.ProjectId,QMTECH_XC7A100T-Expantion-Board,514d5445-4348-45f5-9843-374131303054,rev?*
G04 #@! TF.SameCoordinates,Original*
G04 #@! TF.FileFunction,Legend,Bot*
G04 #@! TF.FilePolarity,Positive*
%FSLAX46Y46*%
G04 Gerber Fmt 4.6, Leading zero omitted, Abs format (unit mm)*
G04 Created by KiCad (PCBNEW 9.0.2-2.fc42) date 2025-07-15 14:43:00*
%MOMM*%
%LPD*%
G01*
G04 APERTURE LIST*
G04 Aperture macros list*
%AMRoundRect*
0 Rectangle with rounded corners*
0 $1 Rounding radius*
0 $2 $3 $4 $5 $6 $7 $8 $9 X,Y pos of 4 corners*
0 Add a 4 corners polygon primitive as box body*
4,1,4,$2,$3,$4,$5,$6,$7,$8,$9,$2,$3,0*
0 Add four circle primitives for the rounded corners*
1,1,$1+$1,$2,$3*
1,1,$1+$1,$4,$5*
1,1,$1+$1,$6,$7*
1,1,$1+$1,$8,$9*
0 Add four rect primitives between the rounded corners*
20,1,$1+$1,$2,$3,$4,$5,0*
20,1,$1+$1,$4,$5,$6,$7,0*
20,1,$1+$1,$6,$7,$8,$9,0*
20,1,$1+$1,$8,$9,$2,$3,0*%
%AMRotRect*
0 Rectangle, with rotation*
0 The origin of the aperture is its center*
0 $1 length*
0 $2 width*
0 $3 Rotation angle, in degrees counterclockwise*
0 Add horizontal line*
21,1,$1,$2,0,0,$3*%
G04 Aperture macros list end*
%ADD10C,0.150000*%
%ADD11C,0.350000*%
%ADD12C,0.250000*%
%ADD13C,0.300000*%
%ADD14C,0.120000*%
%ADD15C,0.100000*%
%ADD16R,1.700000X1.700000*%
%ADD17C,1.700000*%
%ADD18C,0.600000*%
%ADD19O,2.000000X0.900000*%
%ADD20O,1.700000X0.900000*%
%ADD21C,1.524000*%
%ADD22RoundRect,0.243750X0.243750X0.456250X-0.243750X0.456250X-0.243750X-0.456250X0.243750X-0.456250X0*%
%ADD23C,1.500000*%
%ADD24R,0.800000X0.500000*%
%ADD25RoundRect,0.200000X0.200000X0.275000X-0.200000X0.275000X-0.200000X-0.275000X0.200000X-0.275000X0*%
%ADD26RoundRect,0.225000X0.250000X-0.225000X0.250000X0.225000X-0.250000X0.225000X-0.250000X-0.225000X0*%
%ADD27RoundRect,0.225000X-0.335876X-0.017678X-0.017678X-0.335876X0.335876X0.017678X0.017678X0.335876X0*%
%ADD28RoundRect,0.200000X-0.200000X-0.275000X0.200000X-0.275000X0.200000X0.275000X-0.200000X0.275000X0*%
%ADD29RoundRect,0.200000X-0.275000X0.200000X-0.275000X-0.200000X0.275000X-0.200000X0.275000X0.200000X0*%
%ADD30RoundRect,0.225000X-0.225000X-0.250000X0.225000X-0.250000X0.225000X0.250000X-0.225000X0.250000X0*%
%ADD31RoundRect,0.225000X-0.017678X0.335876X-0.335876X0.017678X0.017678X-0.335876X0.335876X-0.017678X0*%
%ADD32RoundRect,0.225000X-0.250000X0.225000X-0.250000X-0.225000X0.250000X-0.225000X0.250000X0.225000X0*%
%ADD33RoundRect,0.200000X0.275000X-0.200000X0.275000X0.200000X-0.275000X0.200000X-0.275000X-0.200000X0*%
%ADD34RoundRect,0.218750X0.218750X0.381250X-0.218750X0.381250X-0.218750X-0.381250X0.218750X-0.381250X0*%
%ADD35RoundRect,0.087500X0.250000X0.087500X-0.250000X0.087500X-0.250000X-0.087500X0.250000X-0.087500X0*%
%ADD36C,0.800000*%
%ADD37R,1.600000X0.700000*%
%ADD38R,2.200000X1.200000*%
%ADD39R,1.500000X1.200000*%
%ADD40R,1.500000X1.600000*%
%ADD41R,1.300000X1.200000*%
%ADD42RoundRect,0.225000X0.017678X-0.335876X0.335876X-0.017678X-0.017678X0.335876X-0.335876X0.017678X0*%
%ADD43RoundRect,0.218750X0.381250X-0.218750X0.381250X0.218750X-0.381250X0.218750X-0.381250X-0.218750X0*%
%ADD44RoundRect,0.087500X0.087500X-0.250000X0.087500X0.250000X-0.087500X0.250000X-0.087500X-0.250000X0*%
%ADD45RoundRect,0.093750X0.106250X-0.093750X0.106250X0.093750X-0.106250X0.093750X-0.106250X-0.093750X0*%
%ADD46R,1.600000X1.000000*%
%ADD47RoundRect,0.150000X0.675000X0.150000X-0.675000X0.150000X-0.675000X-0.150000X0.675000X-0.150000X0*%
%ADD48RotRect,0.800000X0.500000X225.000000*%
%ADD49RoundRect,0.225000X0.225000X0.250000X-0.225000X0.250000X-0.225000X-0.250000X0.225000X-0.250000X0*%
%ADD50RoundRect,0.100000X-0.100000X0.637500X-0.100000X-0.637500X0.100000X-0.637500X0.100000X0.637500X0*%
G04 APERTURE END LIST*
D10*
X60960000Y-109220000D02*
X62610000Y-109220000D01*
X63210000Y-109220000D02*
X64860000Y-109220000D01*
X65460000Y-109220000D02*
X67110000Y-109220000D01*
X67710000Y-109220000D02*
X69360000Y-109220000D01*
X69960000Y-109220000D02*
X71610000Y-109220000D01*
X72210000Y-109220000D02*
X73860000Y-109220000D01*
X74460000Y-109220000D02*
X76110000Y-109220000D01*
X76710000Y-109220000D02*
X78360000Y-109220000D01*
X78960000Y-109220000D02*
X80610000Y-109220000D01*
X81210000Y-109220000D02*
X82860000Y-109220000D01*
X83460000Y-109220000D02*
X85110000Y-109220000D01*
X85710000Y-109220000D02*
X87360000Y-109220000D01*
X87960000Y-109220000D02*
X89610000Y-109220000D01*
X90210000Y-109220000D02*
X91860000Y-109220000D01*
X92460000Y-109220000D02*
X94110000Y-109220000D01*
X94710000Y-109220000D02*
X96360000Y-109220000D01*
X96960000Y-109220000D02*
X98610000Y-109220000D01*
X99210000Y-109220000D02*
X100860000Y-109220000D01*
X101460000Y-109220000D02*
X103110000Y-109220000D01*
X103710000Y-109220000D02*
X105360000Y-109220000D01*
X105960000Y-109220000D02*
X107610000Y-109220000D01*
X108210000Y-109220000D02*
X109860000Y-109220000D01*
X110460000Y-109220000D02*
X112110000Y-109220000D01*
X112710000Y-109220000D02*
X114360000Y-109220000D01*
X114960000Y-109220000D02*
X116610000Y-109220000D01*
X117210000Y-109220000D02*
X118860000Y-109220000D01*
X119460000Y-109220000D02*
X121110000Y-109220000D01*
X121710000Y-109220000D02*
X123360000Y-109220000D01*
X123960000Y-109220000D02*
X125610000Y-109220000D01*
X126210000Y-109220000D02*
X127860000Y-109220000D01*
X128460000Y-109220000D02*
X130110000Y-109220000D01*
X130710000Y-109220000D02*
X132360000Y-109220000D01*
X132960000Y-109220000D02*
X134610000Y-109220000D01*
X135210000Y-109220000D02*
X136860000Y-109220000D01*
X137460000Y-109220000D02*
X139110000Y-109220000D01*
X139710000Y-109220000D02*
X141360000Y-109220000D01*
X141960000Y-109220000D02*
X143610000Y-109220000D01*
X144210000Y-109220000D02*
X145860000Y-109220000D01*
X146460000Y-109220000D02*
X148110000Y-109220000D01*
X148710000Y-109220000D02*
X150360000Y-109220000D01*
X150960000Y-109220000D02*
X152610000Y-109220000D01*
X153210000Y-109220000D02*
X154860000Y-109220000D01*
X155460000Y-109220000D02*
X157110000Y-109220000D01*
X157710000Y-109220000D02*
X159360000Y-109220000D01*
X159960000Y-109220000D02*
X160020000Y-109220000D01*
X127000000Y-109220000D02*
X127000000Y-110870000D01*
X127000000Y-111470000D02*
X127000000Y-113120000D01*
X127000000Y-113720000D02*
X127000000Y-115370000D01*
X127000000Y-115970000D02*
X127000000Y-117620000D01*
X127000000Y-118220000D02*
X127000000Y-119870000D01*
X127000000Y-120470000D02*
X127000000Y-122120000D01*
X127000000Y-122720000D02*
X127000000Y-124370000D01*
X127000000Y-124970000D02*
X127000000Y-126620000D01*
X127000000Y-127220000D02*
X127000000Y-128870000D01*
X127000000Y-129470000D02*
X127000000Y-131120000D01*
X127000000Y-131720000D02*
X127000000Y-133370000D01*
X127000000Y-133970000D02*
X127000000Y-135620000D01*
X127000000Y-136220000D02*
X127000000Y-137870000D01*
X93345000Y-109220000D02*
X93345000Y-110870000D01*
X93345000Y-111470000D02*
X93345000Y-113120000D01*
X93345000Y-113720000D02*
X93345000Y-115370000D01*
X93345000Y-115970000D02*
X93345000Y-117620000D01*
X93345000Y-118220000D02*
X93345000Y-119870000D01*
X93345000Y-120470000D02*
X93345000Y-122120000D01*
X93345000Y-122720000D02*
X93345000Y-124370000D01*
X93345000Y-124970000D02*
X93345000Y-126620000D01*
X93345000Y-127220000D02*
X93345000Y-128870000D01*
X93345000Y-129470000D02*
X93345000Y-131120000D01*
X93345000Y-131720000D02*
X93345000Y-133370000D01*
X93345000Y-133970000D02*
X93345000Y-135620000D01*
X93345000Y-136220000D02*
X93345000Y-137870000D01*
D11*
X149395013Y-93868538D02*
X149585489Y-93773300D01*
X149585489Y-93773300D02*
X149775965Y-93582824D01*
X149775965Y-93582824D02*
X150061679Y-93297109D01*
X150061679Y-93297109D02*
X150252156Y-93201871D01*
X150252156Y-93201871D02*
X150442632Y-93201871D01*
X150347394Y-93678062D02*
X150537870Y-93582824D01*
X150537870Y-93582824D02*
X150728346Y-93392347D01*
X150728346Y-93392347D02*
X150823584Y-93011395D01*
X150823584Y-93011395D02*
X150823584Y-92344728D01*
X150823584Y-92344728D02*
X150728346Y-91963776D01*
X150728346Y-91963776D02*
X150537870Y-91773300D01*
X150537870Y-91773300D02*
X150347394Y-91678062D01*
X150347394Y-91678062D02*
X149966441Y-91678062D01*
X149966441Y-91678062D02*
X149775965Y-91773300D01*
X149775965Y-91773300D02*
X149585489Y-91963776D01*
X149585489Y-91963776D02*
X149490251Y-92344728D01*
X149490251Y-92344728D02*
X149490251Y-93011395D01*
X149490251Y-93011395D02*
X149585489Y-93392347D01*
X149585489Y-93392347D02*
X149775965Y-93582824D01*
X149775965Y-93582824D02*
X149966441Y-93678062D01*
X149966441Y-93678062D02*
X150347394Y-93678062D01*
X148633108Y-93678062D02*
X148633108Y-91678062D01*
X148633108Y-91678062D02*
X147966441Y-93106633D01*
X147966441Y-93106633D02*
X147299775Y-91678062D01*
X147299775Y-91678062D02*
X147299775Y-93678062D01*
X146633108Y-91678062D02*
X145490251Y-91678062D01*
X146061680Y-93678062D02*
X146061680Y-91678062D01*
X144823584Y-92630443D02*
X144156917Y-92630443D01*
X143871203Y-93678062D02*
X144823584Y-93678062D01*
X144823584Y-93678062D02*
X144823584Y-91678062D01*
X144823584Y-91678062D02*
X143871203Y-91678062D01*
X141871203Y-93487585D02*
X141966441Y-93582824D01*
X141966441Y-93582824D02*
X142252155Y-93678062D01*
X142252155Y-93678062D02*
X142442631Y-93678062D01*
X142442631Y-93678062D02*
X142728346Y-93582824D01*
X142728346Y-93582824D02*
X142918822Y-93392347D01*
X142918822Y-93392347D02*
X143014060Y-93201871D01*
X143014060Y-93201871D02*
X143109298Y-92820919D01*
X143109298Y-92820919D02*
X143109298Y-92535204D01*
X143109298Y-92535204D02*
X143014060Y-92154252D01*
X143014060Y-92154252D02*
X142918822Y-91963776D01*
X142918822Y-91963776D02*
X142728346Y-91773300D01*
X142728346Y-91773300D02*
X142442631Y-91678062D01*
X142442631Y-91678062D02*
X142252155Y-91678062D01*
X142252155Y-91678062D02*
X141966441Y-91773300D01*
X141966441Y-91773300D02*
X141871203Y-91868538D01*
X141014060Y-93678062D02*
X141014060Y-91678062D01*
X141014060Y-92630443D02*
X139871203Y-92630443D01*
X139871203Y-93678062D02*
X139871203Y-91678062D01*
X137585488Y-91678062D02*
X136252155Y-93678062D01*
X136252155Y-91678062D02*
X137585488Y-93678062D01*
X134347393Y-93487585D02*
X134442631Y-93582824D01*
X134442631Y-93582824D02*
X134728345Y-93678062D01*
X134728345Y-93678062D02*
X134918821Y-93678062D01*
X134918821Y-93678062D02*
X135204536Y-93582824D01*
X135204536Y-93582824D02*
X135395012Y-93392347D01*
X135395012Y-93392347D02*
X135490250Y-93201871D01*
X135490250Y-93201871D02*
X135585488Y-92820919D01*
X135585488Y-92820919D02*
X135585488Y-92535204D01*
X135585488Y-92535204D02*
X135490250Y-92154252D01*
X135490250Y-92154252D02*
X135395012Y-91963776D01*
X135395012Y-91963776D02*
X135204536Y-91773300D01*
X135204536Y-91773300D02*
X134918821Y-91678062D01*
X134918821Y-91678062D02*
X134728345Y-91678062D01*
X134728345Y-91678062D02*
X134442631Y-91773300D01*
X134442631Y-91773300D02*
X134347393Y-91868538D01*
X132442631Y-93678062D02*
X133585488Y-93678062D01*
X133014060Y-93678062D02*
X133014060Y-91678062D01*
X133014060Y-91678062D02*
X133204536Y-91963776D01*
X133204536Y-91963776D02*
X133395012Y-92154252D01*
X133395012Y-92154252D02*
X133585488Y-92249490D01*
X131204536Y-91678062D02*
X131014059Y-91678062D01*
X131014059Y-91678062D02*
X130823583Y-91773300D01*
X130823583Y-91773300D02*
X130728345Y-91868538D01*
X130728345Y-91868538D02*
X130633107Y-92059014D01*
X130633107Y-92059014D02*
X130537869Y-92439966D01*
X130537869Y-92439966D02*
X130537869Y-92916157D01*
X130537869Y-92916157D02*
X130633107Y-93297109D01*
X130633107Y-93297109D02*
X130728345Y-93487585D01*
X130728345Y-93487585D02*
X130823583Y-93582824D01*
X130823583Y-93582824D02*
X131014059Y-93678062D01*
X131014059Y-93678062D02*
X131204536Y-93678062D01*
X131204536Y-93678062D02*
X131395012Y-93582824D01*
X131395012Y-93582824D02*
X131490250Y-93487585D01*
X131490250Y-93487585D02*
X131585488Y-93297109D01*
X131585488Y-93297109D02*
X131680726Y-92916157D01*
X131680726Y-92916157D02*
X131680726Y-92439966D01*
X131680726Y-92439966D02*
X131585488Y-92059014D01*
X131585488Y-92059014D02*
X131490250Y-91868538D01*
X131490250Y-91868538D02*
X131395012Y-91773300D01*
X131395012Y-91773300D02*
X131204536Y-91678062D01*
X129299774Y-91678062D02*
X129109297Y-91678062D01*
X129109297Y-91678062D02*
X128918821Y-91773300D01*
X128918821Y-91773300D02*
X128823583Y-91868538D01*
X128823583Y-91868538D02*
X128728345Y-92059014D01*
X128728345Y-92059014D02*
X128633107Y-92439966D01*
X128633107Y-92439966D02*
X128633107Y-92916157D01*
X128633107Y-92916157D02*
X128728345Y-93297109D01*
X128728345Y-93297109D02*
X128823583Y-93487585D01*
X128823583Y-93487585D02*
X128918821Y-93582824D01*
X128918821Y-93582824D02*
X129109297Y-93678062D01*
X129109297Y-93678062D02*
X129299774Y-93678062D01*
X129299774Y-93678062D02*
X129490250Y-93582824D01*
X129490250Y-93582824D02*
X129585488Y-93487585D01*
X129585488Y-93487585D02*
X129680726Y-93297109D01*
X129680726Y-93297109D02*
X129775964Y-92916157D01*
X129775964Y-92916157D02*
X129775964Y-92439966D01*
X129775964Y-92439966D02*
X129680726Y-92059014D01*
X129680726Y-92059014D02*
X129585488Y-91868538D01*
X129585488Y-91868538D02*
X129490250Y-91773300D01*
X129490250Y-91773300D02*
X129299774Y-91678062D01*
X128061678Y-91678062D02*
X126918821Y-91678062D01*
X127490250Y-93678062D02*
X127490250Y-91678062D01*
X150918822Y-95564616D02*
X150442632Y-96897950D01*
X150442632Y-96897950D02*
X149966441Y-95564616D01*
X149204536Y-96897950D02*
X149204536Y-95564616D01*
X149204536Y-94897950D02*
X149299774Y-94993188D01*
X149299774Y-94993188D02*
X149204536Y-95088426D01*
X149204536Y-95088426D02*
X149109298Y-94993188D01*
X149109298Y-94993188D02*
X149204536Y-94897950D01*
X149204536Y-94897950D02*
X149204536Y-95088426D01*
X147395012Y-96897950D02*
X147395012Y-94897950D01*
X147395012Y-96802712D02*
X147585488Y-96897950D01*
X147585488Y-96897950D02*
X147966441Y-96897950D01*
X147966441Y-96897950D02*
X148156917Y-96802712D01*
X148156917Y-96802712D02*
X148252155Y-96707473D01*
X148252155Y-96707473D02*
X148347393Y-96516997D01*
X148347393Y-96516997D02*
X148347393Y-95945569D01*
X148347393Y-95945569D02*
X148252155Y-95755092D01*
X148252155Y-95755092D02*
X148156917Y-95659854D01*
X148156917Y-95659854D02*
X147966441Y-95564616D01*
X147966441Y-95564616D02*
X147585488Y-95564616D01*
X147585488Y-95564616D02*
X147395012Y-95659854D01*
X145680726Y-96802712D02*
X145871202Y-96897950D01*
X145871202Y-96897950D02*
X146252155Y-96897950D01*
X146252155Y-96897950D02*
X146442631Y-96802712D01*
X146442631Y-96802712D02*
X146537869Y-96612235D01*
X146537869Y-96612235D02*
X146537869Y-95850331D01*
X146537869Y-95850331D02*
X146442631Y-95659854D01*
X146442631Y-95659854D02*
X146252155Y-95564616D01*
X146252155Y-95564616D02*
X145871202Y-95564616D01*
X145871202Y-95564616D02*
X145680726Y-95659854D01*
X145680726Y-95659854D02*
X145585488Y-95850331D01*
X145585488Y-95850331D02*
X145585488Y-96040807D01*
X145585488Y-96040807D02*
X146537869Y-96231283D01*
X144442631Y-96897950D02*
X144633107Y-96802712D01*
X144633107Y-96802712D02*
X144728345Y-96707473D01*
X144728345Y-96707473D02*
X144823583Y-96516997D01*
X144823583Y-96516997D02*
X144823583Y-95945569D01*
X144823583Y-95945569D02*
X144728345Y-95755092D01*
X144728345Y-95755092D02*
X144633107Y-95659854D01*
X144633107Y-95659854D02*
X144442631Y-95564616D01*
X144442631Y-95564616D02*
X144156916Y-95564616D01*
X144156916Y-95564616D02*
X143966440Y-95659854D01*
X143966440Y-95659854D02*
X143871202Y-95755092D01*
X143871202Y-95755092D02*
X143775964Y-95945569D01*
X143775964Y-95945569D02*
X143775964Y-96516997D01*
X143775964Y-96516997D02*
X143871202Y-96707473D01*
X143871202Y-96707473D02*
X143966440Y-96802712D01*
X143966440Y-96802712D02*
X144156916Y-96897950D01*
X144156916Y-96897950D02*
X144442631Y-96897950D01*
X141395011Y-95564616D02*
X141395011Y-97564616D01*
X141395011Y-95659854D02*
X141204535Y-95564616D01*
X141204535Y-95564616D02*
X140823582Y-95564616D01*
X140823582Y-95564616D02*
X140633106Y-95659854D01*
X140633106Y-95659854D02*
X140537868Y-95755092D01*
X140537868Y-95755092D02*
X140442630Y-95945569D01*
X140442630Y-95945569D02*
X140442630Y-96516997D01*
X140442630Y-96516997D02*
X140537868Y-96707473D01*
X140537868Y-96707473D02*
X140633106Y-96802712D01*
X140633106Y-96802712D02*
X140823582Y-96897950D01*
X140823582Y-96897950D02*
X141204535Y-96897950D01*
X141204535Y-96897950D02*
X141395011Y-96802712D01*
X139299773Y-96897950D02*
X139490249Y-96802712D01*
X139490249Y-96802712D02*
X139585487Y-96612235D01*
X139585487Y-96612235D02*
X139585487Y-94897950D01*
X137680725Y-96897950D02*
X137680725Y-95850331D01*
X137680725Y-95850331D02*
X137775963Y-95659854D01*
X137775963Y-95659854D02*
X137966439Y-95564616D01*
X137966439Y-95564616D02*
X138347392Y-95564616D01*
X138347392Y-95564616D02*
X138537868Y-95659854D01*
X137680725Y-96802712D02*
X137871201Y-96897950D01*
X137871201Y-96897950D02*
X138347392Y-96897950D01*
X138347392Y-96897950D02*
X138537868Y-96802712D01*
X138537868Y-96802712D02*
X138633106Y-96612235D01*
X138633106Y-96612235D02*
X138633106Y-96421759D01*
X138633106Y-96421759D02*
X138537868Y-96231283D01*
X138537868Y-96231283D02*
X138347392Y-96136045D01*
X138347392Y-96136045D02*
X137871201Y-96136045D01*
X137871201Y-96136045D02*
X137680725Y-96040807D01*
X136918820Y-95564616D02*
X136442630Y-96897950D01*
X135966439Y-95564616D02*
X136442630Y-96897950D01*
X136442630Y-96897950D02*
X136633106Y-97374140D01*
X136633106Y-97374140D02*
X136728344Y-97469378D01*
X136728344Y-97469378D02*
X136918820Y-97564616D01*
X134347391Y-95564616D02*
X134347391Y-97183664D01*
X134347391Y-97183664D02*
X134442629Y-97374140D01*
X134442629Y-97374140D02*
X134537867Y-97469378D01*
X134537867Y-97469378D02*
X134728344Y-97564616D01*
X134728344Y-97564616D02*
X135014058Y-97564616D01*
X135014058Y-97564616D02*
X135204534Y-97469378D01*
X134347391Y-96802712D02*
X134537867Y-96897950D01*
X134537867Y-96897950D02*
X134918820Y-96897950D01*
X134918820Y-96897950D02*
X135109296Y-96802712D01*
X135109296Y-96802712D02*
X135204534Y-96707473D01*
X135204534Y-96707473D02*
X135299772Y-96516997D01*
X135299772Y-96516997D02*
X135299772Y-95945569D01*
X135299772Y-95945569D02*
X135204534Y-95755092D01*
X135204534Y-95755092D02*
X135109296Y-95659854D01*
X135109296Y-95659854D02*
X134918820Y-95564616D01*
X134918820Y-95564616D02*
X134537867Y-95564616D01*
X134537867Y-95564616D02*
X134347391Y-95659854D01*
X133395010Y-96897950D02*
X133395010Y-95564616D01*
X133395010Y-95945569D02*
X133299772Y-95755092D01*
X133299772Y-95755092D02*
X133204534Y-95659854D01*
X133204534Y-95659854D02*
X133014058Y-95564616D01*
X133014058Y-95564616D02*
X132823581Y-95564616D01*
X131871201Y-96897950D02*
X132061677Y-96802712D01*
X132061677Y-96802712D02*
X132156915Y-96707473D01*
X132156915Y-96707473D02*
X132252153Y-96516997D01*
X132252153Y-96516997D02*
X132252153Y-95945569D01*
X132252153Y-95945569D02*
X132156915Y-95755092D01*
X132156915Y-95755092D02*
X132061677Y-95659854D01*
X132061677Y-95659854D02*
X131871201Y-95564616D01*
X131871201Y-95564616D02*
X131585486Y-95564616D01*
X131585486Y-95564616D02*
X131395010Y-95659854D01*
X131395010Y-95659854D02*
X131299772Y-95755092D01*
X131299772Y-95755092D02*
X131204534Y-95945569D01*
X131204534Y-95945569D02*
X131204534Y-96516997D01*
X131204534Y-96516997D02*
X131299772Y-96707473D01*
X131299772Y-96707473D02*
X131395010Y-96802712D01*
X131395010Y-96802712D02*
X131585486Y-96897950D01*
X131585486Y-96897950D02*
X131871201Y-96897950D01*
X129490248Y-95564616D02*
X129490248Y-96897950D01*
X130347391Y-95564616D02*
X130347391Y-96612235D01*
X130347391Y-96612235D02*
X130252153Y-96802712D01*
X130252153Y-96802712D02*
X130061677Y-96897950D01*
X130061677Y-96897950D02*
X129775962Y-96897950D01*
X129775962Y-96897950D02*
X129585486Y-96802712D01*
X129585486Y-96802712D02*
X129490248Y-96707473D01*
X128537867Y-95564616D02*
X128537867Y-96897950D01*
X128537867Y-95755092D02*
X128442629Y-95659854D01*
X128442629Y-95659854D02*
X128252153Y-95564616D01*
X128252153Y-95564616D02*
X127966438Y-95564616D01*
X127966438Y-95564616D02*
X127775962Y-95659854D01*
X127775962Y-95659854D02*
X127680724Y-95850331D01*
X127680724Y-95850331D02*
X127680724Y-96897950D01*
X125871200Y-96897950D02*
X125871200Y-94897950D01*
X125871200Y-96802712D02*
X126061676Y-96897950D01*
X126061676Y-96897950D02*
X126442629Y-96897950D01*
X126442629Y-96897950D02*
X126633105Y-96802712D01*
X126633105Y-96802712D02*
X126728343Y-96707473D01*
X126728343Y-96707473D02*
X126823581Y-96516997D01*
X126823581Y-96516997D02*
X126823581Y-95945569D01*
X126823581Y-95945569D02*
X126728343Y-95755092D01*
X126728343Y-95755092D02*
X126633105Y-95659854D01*
X126633105Y-95659854D02*
X126442629Y-95564616D01*
X126442629Y-95564616D02*
X126061676Y-95564616D01*
X126061676Y-95564616D02*
X125871200Y-95659854D01*
X150728346Y-100117838D02*
X150728346Y-98117838D01*
X150728346Y-98879742D02*
X150537870Y-98784504D01*
X150537870Y-98784504D02*
X150156917Y-98784504D01*
X150156917Y-98784504D02*
X149966441Y-98879742D01*
X149966441Y-98879742D02*
X149871203Y-98974980D01*
X149871203Y-98974980D02*
X149775965Y-99165457D01*
X149775965Y-99165457D02*
X149775965Y-99736885D01*
X149775965Y-99736885D02*
X149871203Y-99927361D01*
X149871203Y-99927361D02*
X149966441Y-100022600D01*
X149966441Y-100022600D02*
X150156917Y-100117838D01*
X150156917Y-100117838D02*
X150537870Y-100117838D01*
X150537870Y-100117838D02*
X150728346Y-100022600D01*
X149109298Y-98784504D02*
X148633108Y-100117838D01*
X148156917Y-98784504D02*
X148633108Y-100117838D01*
X148633108Y-100117838D02*
X148823584Y-100594028D01*
X148823584Y-100594028D02*
X148918822Y-100689266D01*
X148918822Y-100689266D02*
X149109298Y-100784504D01*
X145014059Y-100117838D02*
X145014059Y-98117838D01*
X145014059Y-100022600D02*
X145204535Y-100117838D01*
X145204535Y-100117838D02*
X145585488Y-100117838D01*
X145585488Y-100117838D02*
X145775964Y-100022600D01*
X145775964Y-100022600D02*
X145871202Y-99927361D01*
X145871202Y-99927361D02*
X145966440Y-99736885D01*
X145966440Y-99736885D02*
X145966440Y-99165457D01*
X145966440Y-99165457D02*
X145871202Y-98974980D01*
X145871202Y-98974980D02*
X145775964Y-98879742D01*
X145775964Y-98879742D02*
X145585488Y-98784504D01*
X145585488Y-98784504D02*
X145204535Y-98784504D01*
X145204535Y-98784504D02*
X145014059Y-98879742D01*
X143204535Y-100117838D02*
X143204535Y-99070219D01*
X143204535Y-99070219D02*
X143299773Y-98879742D01*
X143299773Y-98879742D02*
X143490249Y-98784504D01*
X143490249Y-98784504D02*
X143871202Y-98784504D01*
X143871202Y-98784504D02*
X144061678Y-98879742D01*
X143204535Y-100022600D02*
X143395011Y-100117838D01*
X143395011Y-100117838D02*
X143871202Y-100117838D01*
X143871202Y-100117838D02*
X144061678Y-100022600D01*
X144061678Y-100022600D02*
X144156916Y-99832123D01*
X144156916Y-99832123D02*
X144156916Y-99641647D01*
X144156916Y-99641647D02*
X144061678Y-99451171D01*
X144061678Y-99451171D02*
X143871202Y-99355933D01*
X143871202Y-99355933D02*
X143395011Y-99355933D01*
X143395011Y-99355933D02*
X143204535Y-99260695D01*
X142252154Y-100117838D02*
X142252154Y-98784504D01*
X142252154Y-99165457D02*
X142156916Y-98974980D01*
X142156916Y-98974980D02*
X142061678Y-98879742D01*
X142061678Y-98879742D02*
X141871202Y-98784504D01*
X141871202Y-98784504D02*
X141680725Y-98784504D01*
X141299773Y-98784504D02*
X140537869Y-98784504D01*
X141014059Y-98117838D02*
X141014059Y-99832123D01*
X141014059Y-99832123D02*
X140918821Y-100022600D01*
X140918821Y-100022600D02*
X140728345Y-100117838D01*
X140728345Y-100117838D02*
X140537869Y-100117838D01*
X139014059Y-100022600D02*
X139204535Y-100117838D01*
X139204535Y-100117838D02*
X139585488Y-100117838D01*
X139585488Y-100117838D02*
X139775964Y-100022600D01*
X139775964Y-100022600D02*
X139871202Y-99927361D01*
X139871202Y-99927361D02*
X139966440Y-99736885D01*
X139966440Y-99736885D02*
X139966440Y-99165457D01*
X139966440Y-99165457D02*
X139871202Y-98974980D01*
X139871202Y-98974980D02*
X139775964Y-98879742D01*
X139775964Y-98879742D02*
X139585488Y-98784504D01*
X139585488Y-98784504D02*
X139204535Y-98784504D01*
X139204535Y-98784504D02*
X139014059Y-98879742D01*
X137871202Y-100117838D02*
X138061678Y-100022600D01*
X138061678Y-100022600D02*
X138156916Y-99927361D01*
X138156916Y-99927361D02*
X138252154Y-99736885D01*
X138252154Y-99736885D02*
X138252154Y-99165457D01*
X138252154Y-99165457D02*
X138156916Y-98974980D01*
X138156916Y-98974980D02*
X138061678Y-98879742D01*
X138061678Y-98879742D02*
X137871202Y-98784504D01*
X137871202Y-98784504D02*
X137585487Y-98784504D01*
X137585487Y-98784504D02*
X137395011Y-98879742D01*
X137395011Y-98879742D02*
X137299773Y-98974980D01*
X137299773Y-98974980D02*
X137204535Y-99165457D01*
X137204535Y-99165457D02*
X137204535Y-99736885D01*
X137204535Y-99736885D02*
X137299773Y-99927361D01*
X137299773Y-99927361D02*
X137395011Y-100022600D01*
X137395011Y-100022600D02*
X137585487Y-100117838D01*
X137585487Y-100117838D02*
X137871202Y-100117838D01*
X136347392Y-100117838D02*
X136347392Y-98784504D01*
X136347392Y-98974980D02*
X136252154Y-98879742D01*
X136252154Y-98879742D02*
X136061678Y-98784504D01*
X136061678Y-98784504D02*
X135775963Y-98784504D01*
X135775963Y-98784504D02*
X135585487Y-98879742D01*
X135585487Y-98879742D02*
X135490249Y-99070219D01*
X135490249Y-99070219D02*
X135490249Y-100117838D01*
X135490249Y-99070219D02*
X135395011Y-98879742D01*
X135395011Y-98879742D02*
X135204535Y-98784504D01*
X135204535Y-98784504D02*
X134918821Y-98784504D01*
X134918821Y-98784504D02*
X134728344Y-98879742D01*
X134728344Y-98879742D02*
X134633106Y-99070219D01*
X134633106Y-99070219D02*
X134633106Y-100117838D01*
D12*
X79301571Y-134622241D02*
X78301571Y-134265098D01*
X78301571Y-134265098D02*
X79301571Y-133907955D01*
X78373000Y-133407955D02*
X78301571Y-133265098D01*
X78301571Y-133265098D02*
X78301571Y-132979384D01*
X78301571Y-132979384D02*
X78373000Y-132836527D01*
X78373000Y-132836527D02*
X78515857Y-132765098D01*
X78515857Y-132765098D02*
X78587285Y-132765098D01*
X78587285Y-132765098D02*
X78730142Y-132836527D01*
X78730142Y-132836527D02*
X78801571Y-132979384D01*
X78801571Y-132979384D02*
X78801571Y-133193670D01*
X78801571Y-133193670D02*
X78873000Y-133336527D01*
X78873000Y-133336527D02*
X79015857Y-133407955D01*
X79015857Y-133407955D02*
X79087285Y-133407955D01*
X79087285Y-133407955D02*
X79230142Y-133336527D01*
X79230142Y-133336527D02*
X79301571Y-133193670D01*
X79301571Y-133193670D02*
X79301571Y-132979384D01*
X79301571Y-132979384D02*
X79230142Y-132836527D01*
X79301571Y-132265098D02*
X78301571Y-131907955D01*
X79301571Y-131550812D02*
X78301571Y-131907955D01*
X78301571Y-131907955D02*
X77944428Y-132050812D01*
X77944428Y-132050812D02*
X77873000Y-132122241D01*
X77873000Y-132122241D02*
X77801571Y-132265098D01*
X79301571Y-130979384D02*
X78301571Y-130979384D01*
X79158714Y-130979384D02*
X79230142Y-130907955D01*
X79230142Y-130907955D02*
X79301571Y-130765098D01*
X79301571Y-130765098D02*
X79301571Y-130550812D01*
X79301571Y-130550812D02*
X79230142Y-130407955D01*
X79230142Y-130407955D02*
X79087285Y-130336527D01*
X79087285Y-130336527D02*
X78301571Y-130336527D01*
X78373000Y-128979384D02*
X78301571Y-129122241D01*
X78301571Y-129122241D02*
X78301571Y-129407955D01*
X78301571Y-129407955D02*
X78373000Y-129550812D01*
X78373000Y-129550812D02*
X78444428Y-129622241D01*
X78444428Y-129622241D02*
X78587285Y-129693669D01*
X78587285Y-129693669D02*
X79015857Y-129693669D01*
X79015857Y-129693669D02*
X79158714Y-129622241D01*
X79158714Y-129622241D02*
X79230142Y-129550812D01*
X79230142Y-129550812D02*
X79301571Y-129407955D01*
X79301571Y-129407955D02*
X79301571Y-129122241D01*
X79301571Y-129122241D02*
X79230142Y-128979384D01*
X86921571Y-133963527D02*
X85707285Y-133963527D01*
X85707285Y-133963527D02*
X85564428Y-134034955D01*
X85564428Y-134034955D02*
X85493000Y-134106384D01*
X85493000Y-134106384D02*
X85421571Y-134249241D01*
X85421571Y-134249241D02*
X85421571Y-134463527D01*
X85421571Y-134463527D02*
X85493000Y-134606384D01*
X85993000Y-133963527D02*
X85921571Y-134106384D01*
X85921571Y-134106384D02*
X85921571Y-134392098D01*
X85921571Y-134392098D02*
X85993000Y-134534955D01*
X85993000Y-134534955D02*
X86064428Y-134606384D01*
X86064428Y-134606384D02*
X86207285Y-134677812D01*
X86207285Y-134677812D02*
X86635857Y-134677812D01*
X86635857Y-134677812D02*
X86778714Y-134606384D01*
X86778714Y-134606384D02*
X86850142Y-134534955D01*
X86850142Y-134534955D02*
X86921571Y-134392098D01*
X86921571Y-134392098D02*
X86921571Y-134106384D01*
X86921571Y-134106384D02*
X86850142Y-133963527D01*
X85921571Y-133249241D02*
X86921571Y-133249241D01*
X86635857Y-133249241D02*
X86778714Y-133177812D01*
X86778714Y-133177812D02*
X86850142Y-133106384D01*
X86850142Y-133106384D02*
X86921571Y-132963526D01*
X86921571Y-132963526D02*
X86921571Y-132820669D01*
X85993000Y-131749241D02*
X85921571Y-131892098D01*
X85921571Y-131892098D02*
X85921571Y-132177813D01*
X85921571Y-132177813D02*
X85993000Y-132320670D01*
X85993000Y-132320670D02*
X86135857Y-132392098D01*
X86135857Y-132392098D02*
X86707285Y-132392098D01*
X86707285Y-132392098D02*
X86850142Y-132320670D01*
X86850142Y-132320670D02*
X86921571Y-132177813D01*
X86921571Y-132177813D02*
X86921571Y-131892098D01*
X86921571Y-131892098D02*
X86850142Y-131749241D01*
X86850142Y-131749241D02*
X86707285Y-131677813D01*
X86707285Y-131677813D02*
X86564428Y-131677813D01*
X86564428Y-131677813D02*
X86421571Y-132392098D01*
X85993000Y-130463527D02*
X85921571Y-130606384D01*
X85921571Y-130606384D02*
X85921571Y-130892099D01*
X85921571Y-130892099D02*
X85993000Y-131034956D01*
X85993000Y-131034956D02*
X86135857Y-131106384D01*
X86135857Y-131106384D02*
X86707285Y-131106384D01*
X86707285Y-131106384D02*
X86850142Y-131034956D01*
X86850142Y-131034956D02*
X86921571Y-130892099D01*
X86921571Y-130892099D02*
X86921571Y-130606384D01*
X86921571Y-130606384D02*
X86850142Y-130463527D01*
X86850142Y-130463527D02*
X86707285Y-130392099D01*
X86707285Y-130392099D02*
X86564428Y-130392099D01*
X86564428Y-130392099D02*
X86421571Y-131106384D01*
X86921571Y-129749242D02*
X85921571Y-129749242D01*
X86778714Y-129749242D02*
X86850142Y-129677813D01*
X86850142Y-129677813D02*
X86921571Y-129534956D01*
X86921571Y-129534956D02*
X86921571Y-129320670D01*
X86921571Y-129320670D02*
X86850142Y-129177813D01*
X86850142Y-129177813D02*
X86707285Y-129106385D01*
X86707285Y-129106385D02*
X85921571Y-129106385D01*
X156405241Y-111972428D02*
X156048098Y-112972428D01*
X156048098Y-112972428D02*
X155690955Y-111972428D01*
X154476670Y-112901000D02*
X154619527Y-112972428D01*
X154619527Y-112972428D02*
X154905241Y-112972428D01*
X154905241Y-112972428D02*
X155048098Y-112901000D01*
X155048098Y-112901000D02*
X155119527Y-112829571D01*
X155119527Y-112829571D02*
X155190955Y-112686714D01*
X155190955Y-112686714D02*
X155190955Y-112258142D01*
X155190955Y-112258142D02*
X155119527Y-112115285D01*
X155119527Y-112115285D02*
X155048098Y-112043857D01*
X155048098Y-112043857D02*
X154905241Y-111972428D01*
X154905241Y-111972428D02*
X154619527Y-111972428D01*
X154619527Y-111972428D02*
X154476670Y-112043857D01*
X153190956Y-112901000D02*
X153333813Y-112972428D01*
X153333813Y-112972428D02*
X153619527Y-112972428D01*
X153619527Y-112972428D02*
X153762384Y-112901000D01*
X153762384Y-112901000D02*
X153833813Y-112829571D01*
X153833813Y-112829571D02*
X153905241Y-112686714D01*
X153905241Y-112686714D02*
X153905241Y-112258142D01*
X153905241Y-112258142D02*
X153833813Y-112115285D01*
X153833813Y-112115285D02*
X153762384Y-112043857D01*
X153762384Y-112043857D02*
X153619527Y-111972428D01*
X153619527Y-111972428D02*
X153333813Y-111972428D01*
X153333813Y-111972428D02*
X153190956Y-112043857D01*
X83381571Y-134606384D02*
X84881571Y-134606384D01*
X84310142Y-134606384D02*
X84381571Y-134463527D01*
X84381571Y-134463527D02*
X84381571Y-134177812D01*
X84381571Y-134177812D02*
X84310142Y-134034955D01*
X84310142Y-134034955D02*
X84238714Y-133963527D01*
X84238714Y-133963527D02*
X84095857Y-133892098D01*
X84095857Y-133892098D02*
X83667285Y-133892098D01*
X83667285Y-133892098D02*
X83524428Y-133963527D01*
X83524428Y-133963527D02*
X83453000Y-134034955D01*
X83453000Y-134034955D02*
X83381571Y-134177812D01*
X83381571Y-134177812D02*
X83381571Y-134463527D01*
X83381571Y-134463527D02*
X83453000Y-134606384D01*
X83381571Y-133034955D02*
X83453000Y-133177812D01*
X83453000Y-133177812D02*
X83595857Y-133249241D01*
X83595857Y-133249241D02*
X84881571Y-133249241D01*
X84381571Y-131820670D02*
X83381571Y-131820670D01*
X84381571Y-132463527D02*
X83595857Y-132463527D01*
X83595857Y-132463527D02*
X83453000Y-132392098D01*
X83453000Y-132392098D02*
X83381571Y-132249241D01*
X83381571Y-132249241D02*
X83381571Y-132034955D01*
X83381571Y-132034955D02*
X83453000Y-131892098D01*
X83453000Y-131892098D02*
X83524428Y-131820670D01*
X83453000Y-130534955D02*
X83381571Y-130677812D01*
X83381571Y-130677812D02*
X83381571Y-130963527D01*
X83381571Y-130963527D02*
X83453000Y-131106384D01*
X83453000Y-131106384D02*
X83595857Y-131177812D01*
X83595857Y-131177812D02*
X84167285Y-131177812D01*
X84167285Y-131177812D02*
X84310142Y-131106384D01*
X84310142Y-131106384D02*
X84381571Y-130963527D01*
X84381571Y-130963527D02*
X84381571Y-130677812D01*
X84381571Y-130677812D02*
X84310142Y-130534955D01*
X84310142Y-130534955D02*
X84167285Y-130463527D01*
X84167285Y-130463527D02*
X84024428Y-130463527D01*
X84024428Y-130463527D02*
X83881571Y-131177812D01*
X123512241Y-112087428D02*
X123155098Y-113087428D01*
X123155098Y-113087428D02*
X122797955Y-112087428D01*
X121583670Y-113016000D02*
X121726527Y-113087428D01*
X121726527Y-113087428D02*
X122012241Y-113087428D01*
X122012241Y-113087428D02*
X122155098Y-113016000D01*
X122155098Y-113016000D02*
X122226527Y-112944571D01*
X122226527Y-112944571D02*
X122297955Y-112801714D01*
X122297955Y-112801714D02*
X122297955Y-112373142D01*
X122297955Y-112373142D02*
X122226527Y-112230285D01*
X122226527Y-112230285D02*
X122155098Y-112158857D01*
X122155098Y-112158857D02*
X122012241Y-112087428D01*
X122012241Y-112087428D02*
X121726527Y-112087428D01*
X121726527Y-112087428D02*
X121583670Y-112158857D01*
X120297956Y-113016000D02*
X120440813Y-113087428D01*
X120440813Y-113087428D02*
X120726527Y-113087428D01*
X120726527Y-113087428D02*
X120869384Y-113016000D01*
X120869384Y-113016000D02*
X120940813Y-112944571D01*
X120940813Y-112944571D02*
X121012241Y-112801714D01*
X121012241Y-112801714D02*
X121012241Y-112373142D01*
X121012241Y-112373142D02*
X120940813Y-112230285D01*
X120940813Y-112230285D02*
X120869384Y-112158857D01*
X120869384Y-112158857D02*
X120726527Y-112087428D01*
X120726527Y-112087428D02*
X120440813Y-112087428D01*
X120440813Y-112087428D02*
X120297956Y-112158857D01*
X155619527Y-119072428D02*
X155619527Y-120286714D01*
X155619527Y-120286714D02*
X155690955Y-120429571D01*
X155690955Y-120429571D02*
X155762384Y-120501000D01*
X155762384Y-120501000D02*
X155905241Y-120572428D01*
X155905241Y-120572428D02*
X156119527Y-120572428D01*
X156119527Y-120572428D02*
X156262384Y-120501000D01*
X155619527Y-120001000D02*
X155762384Y-120072428D01*
X155762384Y-120072428D02*
X156048098Y-120072428D01*
X156048098Y-120072428D02*
X156190955Y-120001000D01*
X156190955Y-120001000D02*
X156262384Y-119929571D01*
X156262384Y-119929571D02*
X156333812Y-119786714D01*
X156333812Y-119786714D02*
X156333812Y-119358142D01*
X156333812Y-119358142D02*
X156262384Y-119215285D01*
X156262384Y-119215285D02*
X156190955Y-119143857D01*
X156190955Y-119143857D02*
X156048098Y-119072428D01*
X156048098Y-119072428D02*
X155762384Y-119072428D01*
X155762384Y-119072428D02*
X155619527Y-119143857D01*
X154905241Y-119072428D02*
X154905241Y-120072428D01*
X154905241Y-119215285D02*
X154833812Y-119143857D01*
X154833812Y-119143857D02*
X154690955Y-119072428D01*
X154690955Y-119072428D02*
X154476669Y-119072428D01*
X154476669Y-119072428D02*
X154333812Y-119143857D01*
X154333812Y-119143857D02*
X154262384Y-119286714D01*
X154262384Y-119286714D02*
X154262384Y-120072428D01*
X152905241Y-120072428D02*
X152905241Y-118572428D01*
X152905241Y-120001000D02*
X153048098Y-120072428D01*
X153048098Y-120072428D02*
X153333812Y-120072428D01*
X153333812Y-120072428D02*
X153476669Y-120001000D01*
X153476669Y-120001000D02*
X153548098Y-119929571D01*
X153548098Y-119929571D02*
X153619526Y-119786714D01*
X153619526Y-119786714D02*
X153619526Y-119358142D01*
X153619526Y-119358142D02*
X153548098Y-119215285D01*
X153548098Y-119215285D02*
X153476669Y-119143857D01*
X153476669Y-119143857D02*
X153333812Y-119072428D01*
X153333812Y-119072428D02*
X153048098Y-119072428D01*
X153048098Y-119072428D02*
X152905241Y-119143857D01*
X122726527Y-119187428D02*
X122726527Y-120401714D01*
X122726527Y-120401714D02*
X122797955Y-120544571D01*
X122797955Y-120544571D02*
X122869384Y-120616000D01*
X122869384Y-120616000D02*
X123012241Y-120687428D01*
X123012241Y-120687428D02*
X123226527Y-120687428D01*
X123226527Y-120687428D02*
X123369384Y-120616000D01*
X122726527Y-120116000D02*
X122869384Y-120187428D01*
X122869384Y-120187428D02*
X123155098Y-120187428D01*
X123155098Y-120187428D02*
X123297955Y-120116000D01*
X123297955Y-120116000D02*
X123369384Y-120044571D01*
X123369384Y-120044571D02*
X123440812Y-119901714D01*
X123440812Y-119901714D02*
X123440812Y-119473142D01*
X123440812Y-119473142D02*
X123369384Y-119330285D01*
X123369384Y-119330285D02*
X123297955Y-119258857D01*
X123297955Y-119258857D02*
X123155098Y-119187428D01*
X123155098Y-119187428D02*
X122869384Y-119187428D01*
X122869384Y-119187428D02*
X122726527Y-119258857D01*
X122012241Y-119187428D02*
X122012241Y-120187428D01*
X122012241Y-119330285D02*
X121940812Y-119258857D01*
X121940812Y-119258857D02*
X121797955Y-119187428D01*
X121797955Y-119187428D02*
X121583669Y-119187428D01*
X121583669Y-119187428D02*
X121440812Y-119258857D01*
X121440812Y-119258857D02*
X121369384Y-119401714D01*
X121369384Y-119401714D02*
X121369384Y-120187428D01*
X120012241Y-120187428D02*
X120012241Y-118687428D01*
X120012241Y-120116000D02*
X120155098Y-120187428D01*
X120155098Y-120187428D02*
X120440812Y-120187428D01*
X120440812Y-120187428D02*
X120583669Y-120116000D01*
X120583669Y-120116000D02*
X120655098Y-120044571D01*
X120655098Y-120044571D02*
X120726526Y-119901714D01*
X120726526Y-119901714D02*
X120726526Y-119473142D01*
X120726526Y-119473142D02*
X120655098Y-119330285D01*
X120655098Y-119330285D02*
X120583669Y-119258857D01*
X120583669Y-119258857D02*
X120440812Y-119187428D01*
X120440812Y-119187428D02*
X120155098Y-119187428D01*
X120155098Y-119187428D02*
X120012241Y-119258857D01*
X88461571Y-134606384D02*
X89461571Y-134606384D01*
X89175857Y-134606384D02*
X89318714Y-134534955D01*
X89318714Y-134534955D02*
X89390142Y-134463527D01*
X89390142Y-134463527D02*
X89461571Y-134320669D01*
X89461571Y-134320669D02*
X89461571Y-134177812D01*
X88533000Y-133106384D02*
X88461571Y-133249241D01*
X88461571Y-133249241D02*
X88461571Y-133534956D01*
X88461571Y-133534956D02*
X88533000Y-133677813D01*
X88533000Y-133677813D02*
X88675857Y-133749241D01*
X88675857Y-133749241D02*
X89247285Y-133749241D01*
X89247285Y-133749241D02*
X89390142Y-133677813D01*
X89390142Y-133677813D02*
X89461571Y-133534956D01*
X89461571Y-133534956D02*
X89461571Y-133249241D01*
X89461571Y-133249241D02*
X89390142Y-133106384D01*
X89390142Y-133106384D02*
X89247285Y-133034956D01*
X89247285Y-133034956D02*
X89104428Y-133034956D01*
X89104428Y-133034956D02*
X88961571Y-133749241D01*
X88461571Y-131749242D02*
X89961571Y-131749242D01*
X88533000Y-131749242D02*
X88461571Y-131892099D01*
X88461571Y-131892099D02*
X88461571Y-132177813D01*
X88461571Y-132177813D02*
X88533000Y-132320670D01*
X88533000Y-132320670D02*
X88604428Y-132392099D01*
X88604428Y-132392099D02*
X88747285Y-132463527D01*
X88747285Y-132463527D02*
X89175857Y-132463527D01*
X89175857Y-132463527D02*
X89318714Y-132392099D01*
X89318714Y-132392099D02*
X89390142Y-132320670D01*
X89390142Y-132320670D02*
X89461571Y-132177813D01*
X89461571Y-132177813D02*
X89461571Y-131892099D01*
X89461571Y-131892099D02*
X89390142Y-131749242D01*
X80841571Y-134606384D02*
X82341571Y-134606384D01*
X80841571Y-133963527D02*
X81627285Y-133963527D01*
X81627285Y-133963527D02*
X81770142Y-134034955D01*
X81770142Y-134034955D02*
X81841571Y-134177812D01*
X81841571Y-134177812D02*
X81841571Y-134392098D01*
X81841571Y-134392098D02*
X81770142Y-134534955D01*
X81770142Y-134534955D02*
X81698714Y-134606384D01*
X80913000Y-133320669D02*
X80841571Y-133177812D01*
X80841571Y-133177812D02*
X80841571Y-132892098D01*
X80841571Y-132892098D02*
X80913000Y-132749241D01*
X80913000Y-132749241D02*
X81055857Y-132677812D01*
X81055857Y-132677812D02*
X81127285Y-132677812D01*
X81127285Y-132677812D02*
X81270142Y-132749241D01*
X81270142Y-132749241D02*
X81341571Y-132892098D01*
X81341571Y-132892098D02*
X81341571Y-133106384D01*
X81341571Y-133106384D02*
X81413000Y-133249241D01*
X81413000Y-133249241D02*
X81555857Y-133320669D01*
X81555857Y-133320669D02*
X81627285Y-133320669D01*
X81627285Y-133320669D02*
X81770142Y-133249241D01*
X81770142Y-133249241D02*
X81841571Y-133106384D01*
X81841571Y-133106384D02*
X81841571Y-132892098D01*
X81841571Y-132892098D02*
X81770142Y-132749241D01*
X81841571Y-132177812D02*
X80841571Y-131820669D01*
X81841571Y-131463526D02*
X80841571Y-131820669D01*
X80841571Y-131820669D02*
X80484428Y-131963526D01*
X80484428Y-131963526D02*
X80413000Y-132034955D01*
X80413000Y-132034955D02*
X80341571Y-132177812D01*
X81841571Y-130892098D02*
X80841571Y-130892098D01*
X81698714Y-130892098D02*
X81770142Y-130820669D01*
X81770142Y-130820669D02*
X81841571Y-130677812D01*
X81841571Y-130677812D02*
X81841571Y-130463526D01*
X81841571Y-130463526D02*
X81770142Y-130320669D01*
X81770142Y-130320669D02*
X81627285Y-130249241D01*
X81627285Y-130249241D02*
X80841571Y-130249241D01*
X80913000Y-128892098D02*
X80841571Y-129034955D01*
X80841571Y-129034955D02*
X80841571Y-129320669D01*
X80841571Y-129320669D02*
X80913000Y-129463526D01*
X80913000Y-129463526D02*
X80984428Y-129534955D01*
X80984428Y-129534955D02*
X81127285Y-129606383D01*
X81127285Y-129606383D02*
X81555857Y-129606383D01*
X81555857Y-129606383D02*
X81698714Y-129534955D01*
X81698714Y-129534955D02*
X81770142Y-129463526D01*
X81770142Y-129463526D02*
X81841571Y-129320669D01*
X81841571Y-129320669D02*
X81841571Y-129034955D01*
X81841571Y-129034955D02*
X81770142Y-128892098D01*
D13*
X149403142Y-111565328D02*
X149045999Y-112565328D01*
X149045999Y-112565328D02*
X148688856Y-111565328D01*
X147545999Y-112493900D02*
X147688856Y-112565328D01*
X147688856Y-112565328D02*
X147974571Y-112565328D01*
X147974571Y-112565328D02*
X148117428Y-112493900D01*
X148117428Y-112493900D02*
X148188856Y-112351042D01*
X148188856Y-112351042D02*
X148188856Y-111779614D01*
X148188856Y-111779614D02*
X148117428Y-111636757D01*
X148117428Y-111636757D02*
X147974571Y-111565328D01*
X147974571Y-111565328D02*
X147688856Y-111565328D01*
X147688856Y-111565328D02*
X147545999Y-111636757D01*
X147545999Y-111636757D02*
X147474571Y-111779614D01*
X147474571Y-111779614D02*
X147474571Y-111922471D01*
X147474571Y-111922471D02*
X148188856Y-112065328D01*
X146831714Y-112565328D02*
X146831714Y-111565328D01*
X146831714Y-111851042D02*
X146760285Y-111708185D01*
X146760285Y-111708185D02*
X146688857Y-111636757D01*
X146688857Y-111636757D02*
X146545999Y-111565328D01*
X146545999Y-111565328D02*
X146403142Y-111565328D01*
X145903143Y-112422471D02*
X145831714Y-112493900D01*
X145831714Y-112493900D02*
X145903143Y-112565328D01*
X145903143Y-112565328D02*
X145974571Y-112493900D01*
X145974571Y-112493900D02*
X145903143Y-112422471D01*
X145903143Y-112422471D02*
X145903143Y-112565328D01*
X145903143Y-111636757D02*
X145831714Y-111708185D01*
X145831714Y-111708185D02*
X145903143Y-111779614D01*
X145903143Y-111779614D02*
X145974571Y-111708185D01*
X145974571Y-111708185D02*
X145903143Y-111636757D01*
X145903143Y-111636757D02*
X145903143Y-111779614D01*
X144403142Y-112565328D02*
X145260285Y-112565328D01*
X144831714Y-112565328D02*
X144831714Y-111065328D01*
X144831714Y-111065328D02*
X144974571Y-111279614D01*
X144974571Y-111279614D02*
X145117428Y-111422471D01*
X145117428Y-111422471D02*
X145260285Y-111493900D01*
X143760286Y-112422471D02*
X143688857Y-112493900D01*
X143688857Y-112493900D02*
X143760286Y-112565328D01*
X143760286Y-112565328D02*
X143831714Y-112493900D01*
X143831714Y-112493900D02*
X143760286Y-112422471D01*
X143760286Y-112422471D02*
X143760286Y-112565328D01*
X142760285Y-111065328D02*
X142617428Y-111065328D01*
X142617428Y-111065328D02*
X142474571Y-111136757D01*
X142474571Y-111136757D02*
X142403143Y-111208185D01*
X142403143Y-111208185D02*
X142331714Y-111351042D01*
X142331714Y-111351042D02*
X142260285Y-111636757D01*
X142260285Y-111636757D02*
X142260285Y-111993900D01*
X142260285Y-111993900D02*
X142331714Y-112279614D01*
X142331714Y-112279614D02*
X142403143Y-112422471D01*
X142403143Y-112422471D02*
X142474571Y-112493900D01*
X142474571Y-112493900D02*
X142617428Y-112565328D01*
X142617428Y-112565328D02*
X142760285Y-112565328D01*
X142760285Y-112565328D02*
X142903143Y-112493900D01*
X142903143Y-112493900D02*
X142974571Y-112422471D01*
X142974571Y-112422471D02*
X143046000Y-112279614D01*
X143046000Y-112279614D02*
X143117428Y-111993900D01*
X143117428Y-111993900D02*
X143117428Y-111636757D01*
X143117428Y-111636757D02*
X143046000Y-111351042D01*
X143046000Y-111351042D02*
X142974571Y-111208185D01*
X142974571Y-111208185D02*
X142903143Y-111136757D01*
X142903143Y-111136757D02*
X142760285Y-111065328D01*
D12*
X123440812Y-116566000D02*
X123297955Y-116637428D01*
X123297955Y-116637428D02*
X123012241Y-116637428D01*
X123012241Y-116637428D02*
X122869384Y-116566000D01*
X122869384Y-116566000D02*
X122797955Y-116423142D01*
X122797955Y-116423142D02*
X122797955Y-116351714D01*
X122797955Y-116351714D02*
X122869384Y-116208857D01*
X122869384Y-116208857D02*
X123012241Y-116137428D01*
X123012241Y-116137428D02*
X123226527Y-116137428D01*
X123226527Y-116137428D02*
X123369384Y-116066000D01*
X123369384Y-116066000D02*
X123440812Y-115923142D01*
X123440812Y-115923142D02*
X123440812Y-115851714D01*
X123440812Y-115851714D02*
X123369384Y-115708857D01*
X123369384Y-115708857D02*
X123226527Y-115637428D01*
X123226527Y-115637428D02*
X123012241Y-115637428D01*
X123012241Y-115637428D02*
X122869384Y-115708857D01*
X122297955Y-115637428D02*
X122012241Y-116637428D01*
X122012241Y-116637428D02*
X121726526Y-115923142D01*
X121726526Y-115923142D02*
X121440812Y-116637428D01*
X121440812Y-116637428D02*
X121155098Y-115637428D01*
X120583669Y-116637428D02*
X120583669Y-115637428D01*
X120583669Y-115137428D02*
X120655097Y-115208857D01*
X120655097Y-115208857D02*
X120583669Y-115280285D01*
X120583669Y-115280285D02*
X120512240Y-115208857D01*
X120512240Y-115208857D02*
X120583669Y-115137428D01*
X120583669Y-115137428D02*
X120583669Y-115280285D01*
X119655097Y-116637428D02*
X119797954Y-116566000D01*
X119797954Y-116566000D02*
X119869383Y-116494571D01*
X119869383Y-116494571D02*
X119940811Y-116351714D01*
X119940811Y-116351714D02*
X119940811Y-115923142D01*
X119940811Y-115923142D02*
X119869383Y-115780285D01*
X119869383Y-115780285D02*
X119797954Y-115708857D01*
X119797954Y-115708857D02*
X119655097Y-115637428D01*
X119655097Y-115637428D02*
X119440811Y-115637428D01*
X119440811Y-115637428D02*
X119297954Y-115708857D01*
X119297954Y-115708857D02*
X119226526Y-115780285D01*
X119226526Y-115780285D02*
X119155097Y-115923142D01*
X119155097Y-115923142D02*
X119155097Y-116351714D01*
X119155097Y-116351714D02*
X119226526Y-116494571D01*
X119226526Y-116494571D02*
X119297954Y-116566000D01*
X119297954Y-116566000D02*
X119440811Y-116637428D01*
X119440811Y-116637428D02*
X119655097Y-116637428D01*
D13*
X156396328Y-98246857D02*
X157396328Y-98604000D01*
X157396328Y-98604000D02*
X156396328Y-98961143D01*
X157324900Y-100104000D02*
X157396328Y-99961143D01*
X157396328Y-99961143D02*
X157396328Y-99675429D01*
X157396328Y-99675429D02*
X157324900Y-99532571D01*
X157324900Y-99532571D02*
X157182042Y-99461143D01*
X157182042Y-99461143D02*
X156610614Y-99461143D01*
X156610614Y-99461143D02*
X156467757Y-99532571D01*
X156467757Y-99532571D02*
X156396328Y-99675429D01*
X156396328Y-99675429D02*
X156396328Y-99961143D01*
X156396328Y-99961143D02*
X156467757Y-100104000D01*
X156467757Y-100104000D02*
X156610614Y-100175429D01*
X156610614Y-100175429D02*
X156753471Y-100175429D01*
X156753471Y-100175429D02*
X156896328Y-99461143D01*
X157396328Y-100818285D02*
X156396328Y-100818285D01*
X156682042Y-100818285D02*
X156539185Y-100889714D01*
X156539185Y-100889714D02*
X156467757Y-100961143D01*
X156467757Y-100961143D02*
X156396328Y-101104000D01*
X156396328Y-101104000D02*
X156396328Y-101246857D01*
X157253471Y-101746856D02*
X157324900Y-101818285D01*
X157324900Y-101818285D02*
X157396328Y-101746856D01*
X157396328Y-101746856D02*
X157324900Y-101675428D01*
X157324900Y-101675428D02*
X157253471Y-101746856D01*
X157253471Y-101746856D02*
X157396328Y-101746856D01*
X156467757Y-101746856D02*
X156539185Y-101818285D01*
X156539185Y-101818285D02*
X156610614Y-101746856D01*
X156610614Y-101746856D02*
X156539185Y-101675428D01*
X156539185Y-101675428D02*
X156467757Y-101746856D01*
X156467757Y-101746856D02*
X156610614Y-101746856D01*
X157396328Y-103246857D02*
X157396328Y-102389714D01*
X157396328Y-102818285D02*
X155896328Y-102818285D01*
X155896328Y-102818285D02*
X156110614Y-102675428D01*
X156110614Y-102675428D02*
X156253471Y-102532571D01*
X156253471Y-102532571D02*
X156324900Y-102389714D01*
X157253471Y-103889713D02*
X157324900Y-103961142D01*
X157324900Y-103961142D02*
X157396328Y-103889713D01*
X157396328Y-103889713D02*
X157324900Y-103818285D01*
X157324900Y-103818285D02*
X157253471Y-103889713D01*
X157253471Y-103889713D02*
X157396328Y-103889713D01*
X155896328Y-104889714D02*
X155896328Y-105032571D01*
X155896328Y-105032571D02*
X155967757Y-105175428D01*
X155967757Y-105175428D02*
X156039185Y-105246857D01*
X156039185Y-105246857D02*
X156182042Y-105318285D01*
X156182042Y-105318285D02*
X156467757Y-105389714D01*
X156467757Y-105389714D02*
X156824900Y-105389714D01*
X156824900Y-105389714D02*
X157110614Y-105318285D01*
X157110614Y-105318285D02*
X157253471Y-105246857D01*
X157253471Y-105246857D02*
X157324900Y-105175428D01*
X157324900Y-105175428D02*
X157396328Y-105032571D01*
X157396328Y-105032571D02*
X157396328Y-104889714D01*
X157396328Y-104889714D02*
X157324900Y-104746857D01*
X157324900Y-104746857D02*
X157253471Y-104675428D01*
X157253471Y-104675428D02*
X157110614Y-104603999D01*
X157110614Y-104603999D02*
X156824900Y-104532571D01*
X156824900Y-104532571D02*
X156467757Y-104532571D01*
X156467757Y-104532571D02*
X156182042Y-104603999D01*
X156182042Y-104603999D02*
X156039185Y-104675428D01*
X156039185Y-104675428D02*
X155967757Y-104746857D01*
X155967757Y-104746857D02*
X155896328Y-104889714D01*
D12*
X92001571Y-133963527D02*
X90787285Y-133963527D01*
X90787285Y-133963527D02*
X90644428Y-134034955D01*
X90644428Y-134034955D02*
X90573000Y-134106384D01*
X90573000Y-134106384D02*
X90501571Y-134249241D01*
X90501571Y-134249241D02*
X90501571Y-134463527D01*
X90501571Y-134463527D02*
X90573000Y-134606384D01*
X91073000Y-133963527D02*
X91001571Y-134106384D01*
X91001571Y-134106384D02*
X91001571Y-134392098D01*
X91001571Y-134392098D02*
X91073000Y-134534955D01*
X91073000Y-134534955D02*
X91144428Y-134606384D01*
X91144428Y-134606384D02*
X91287285Y-134677812D01*
X91287285Y-134677812D02*
X91715857Y-134677812D01*
X91715857Y-134677812D02*
X91858714Y-134606384D01*
X91858714Y-134606384D02*
X91930142Y-134534955D01*
X91930142Y-134534955D02*
X92001571Y-134392098D01*
X92001571Y-134392098D02*
X92001571Y-134106384D01*
X92001571Y-134106384D02*
X91930142Y-133963527D01*
X92001571Y-133249241D02*
X91001571Y-133249241D01*
X91858714Y-133249241D02*
X91930142Y-133177812D01*
X91930142Y-133177812D02*
X92001571Y-133034955D01*
X92001571Y-133034955D02*
X92001571Y-132820669D01*
X92001571Y-132820669D02*
X91930142Y-132677812D01*
X91930142Y-132677812D02*
X91787285Y-132606384D01*
X91787285Y-132606384D02*
X91001571Y-132606384D01*
X91001571Y-131249241D02*
X92501571Y-131249241D01*
X91073000Y-131249241D02*
X91001571Y-131392098D01*
X91001571Y-131392098D02*
X91001571Y-131677812D01*
X91001571Y-131677812D02*
X91073000Y-131820669D01*
X91073000Y-131820669D02*
X91144428Y-131892098D01*
X91144428Y-131892098D02*
X91287285Y-131963526D01*
X91287285Y-131963526D02*
X91715857Y-131963526D01*
X91715857Y-131963526D02*
X91858714Y-131892098D01*
X91858714Y-131892098D02*
X91930142Y-131820669D01*
X91930142Y-131820669D02*
X92001571Y-131677812D01*
X92001571Y-131677812D02*
X92001571Y-131392098D01*
X92001571Y-131392098D02*
X91930142Y-131249241D01*
D13*
X115494142Y-111819328D02*
X115136999Y-112819328D01*
X115136999Y-112819328D02*
X114779856Y-111819328D01*
X113636999Y-112747900D02*
X113779856Y-112819328D01*
X113779856Y-112819328D02*
X114065571Y-112819328D01*
X114065571Y-112819328D02*
X114208428Y-112747900D01*
X114208428Y-112747900D02*
X114279856Y-112605042D01*
X114279856Y-112605042D02*
X114279856Y-112033614D01*
X114279856Y-112033614D02*
X114208428Y-111890757D01*
X114208428Y-111890757D02*
X114065571Y-111819328D01*
X114065571Y-111819328D02*
X113779856Y-111819328D01*
X113779856Y-111819328D02*
X113636999Y-111890757D01*
X113636999Y-111890757D02*
X113565571Y-112033614D01*
X113565571Y-112033614D02*
X113565571Y-112176471D01*
X113565571Y-112176471D02*
X114279856Y-112319328D01*
X112922714Y-112819328D02*
X112922714Y-111819328D01*
X112922714Y-112105042D02*
X112851285Y-111962185D01*
X112851285Y-111962185D02*
X112779857Y-111890757D01*
X112779857Y-111890757D02*
X112636999Y-111819328D01*
X112636999Y-111819328D02*
X112494142Y-111819328D01*
X111994143Y-112676471D02*
X111922714Y-112747900D01*
X111922714Y-112747900D02*
X111994143Y-112819328D01*
X111994143Y-112819328D02*
X112065571Y-112747900D01*
X112065571Y-112747900D02*
X111994143Y-112676471D01*
X111994143Y-112676471D02*
X111994143Y-112819328D01*
X111994143Y-111890757D02*
X111922714Y-111962185D01*
X111922714Y-111962185D02*
X111994143Y-112033614D01*
X111994143Y-112033614D02*
X112065571Y-111962185D01*
X112065571Y-111962185D02*
X111994143Y-111890757D01*
X111994143Y-111890757D02*
X111994143Y-112033614D01*
X110494142Y-112819328D02*
X111351285Y-112819328D01*
X110922714Y-112819328D02*
X110922714Y-111319328D01*
X110922714Y-111319328D02*
X111065571Y-111533614D01*
X111065571Y-111533614D02*
X111208428Y-111676471D01*
X111208428Y-111676471D02*
X111351285Y-111747900D01*
X109851286Y-112676471D02*
X109779857Y-112747900D01*
X109779857Y-112747900D02*
X109851286Y-112819328D01*
X109851286Y-112819328D02*
X109922714Y-112747900D01*
X109922714Y-112747900D02*
X109851286Y-112676471D01*
X109851286Y-112676471D02*
X109851286Y-112819328D01*
X108851285Y-111319328D02*
X108708428Y-111319328D01*
X108708428Y-111319328D02*
X108565571Y-111390757D01*
X108565571Y-111390757D02*
X108494143Y-111462185D01*
X108494143Y-111462185D02*
X108422714Y-111605042D01*
X108422714Y-111605042D02*
X108351285Y-111890757D01*
X108351285Y-111890757D02*
X108351285Y-112247900D01*
X108351285Y-112247900D02*
X108422714Y-112533614D01*
X108422714Y-112533614D02*
X108494143Y-112676471D01*
X108494143Y-112676471D02*
X108565571Y-112747900D01*
X108565571Y-112747900D02*
X108708428Y-112819328D01*
X108708428Y-112819328D02*
X108851285Y-112819328D01*
X108851285Y-112819328D02*
X108994143Y-112747900D01*
X108994143Y-112747900D02*
X109065571Y-112676471D01*
X109065571Y-112676471D02*
X109137000Y-112533614D01*
X109137000Y-112533614D02*
X109208428Y-112247900D01*
X109208428Y-112247900D02*
X109208428Y-111890757D01*
X109208428Y-111890757D02*
X109137000Y-111605042D01*
X109137000Y-111605042D02*
X109065571Y-111462185D01*
X109065571Y-111462185D02*
X108994143Y-111390757D01*
X108994143Y-111390757D02*
X108851285Y-111319328D01*
D12*
X156333812Y-116451000D02*
X156190955Y-116522428D01*
X156190955Y-116522428D02*
X155905241Y-116522428D01*
X155905241Y-116522428D02*
X155762384Y-116451000D01*
X155762384Y-116451000D02*
X155690955Y-116308142D01*
X155690955Y-116308142D02*
X155690955Y-116236714D01*
X155690955Y-116236714D02*
X155762384Y-116093857D01*
X155762384Y-116093857D02*
X155905241Y-116022428D01*
X155905241Y-116022428D02*
X156119527Y-116022428D01*
X156119527Y-116022428D02*
X156262384Y-115951000D01*
X156262384Y-115951000D02*
X156333812Y-115808142D01*
X156333812Y-115808142D02*
X156333812Y-115736714D01*
X156333812Y-115736714D02*
X156262384Y-115593857D01*
X156262384Y-115593857D02*
X156119527Y-115522428D01*
X156119527Y-115522428D02*
X155905241Y-115522428D01*
X155905241Y-115522428D02*
X155762384Y-115593857D01*
X155190955Y-115522428D02*
X154905241Y-116522428D01*
X154905241Y-116522428D02*
X154619526Y-115808142D01*
X154619526Y-115808142D02*
X154333812Y-116522428D01*
X154333812Y-116522428D02*
X154048098Y-115522428D01*
X153476669Y-116522428D02*
X153476669Y-115522428D01*
X153476669Y-115022428D02*
X153548097Y-115093857D01*
X153548097Y-115093857D02*
X153476669Y-115165285D01*
X153476669Y-115165285D02*
X153405240Y-115093857D01*
X153405240Y-115093857D02*
X153476669Y-115022428D01*
X153476669Y-115022428D02*
X153476669Y-115165285D01*
X152548097Y-116522428D02*
X152690954Y-116451000D01*
X152690954Y-116451000D02*
X152762383Y-116379571D01*
X152762383Y-116379571D02*
X152833811Y-116236714D01*
X152833811Y-116236714D02*
X152833811Y-115808142D01*
X152833811Y-115808142D02*
X152762383Y-115665285D01*
X152762383Y-115665285D02*
X152690954Y-115593857D01*
X152690954Y-115593857D02*
X152548097Y-115522428D01*
X152548097Y-115522428D02*
X152333811Y-115522428D01*
X152333811Y-115522428D02*
X152190954Y-115593857D01*
X152190954Y-115593857D02*
X152119526Y-115665285D01*
X152119526Y-115665285D02*
X152048097Y-115808142D01*
X152048097Y-115808142D02*
X152048097Y-116236714D01*
X152048097Y-116236714D02*
X152119526Y-116379571D01*
X152119526Y-116379571D02*
X152190954Y-116451000D01*
X152190954Y-116451000D02*
X152333811Y-116522428D01*
X152333811Y-116522428D02*
X152548097Y-116522428D01*
D13*
X80950142Y-111692328D02*
X80592999Y-112692328D01*
X80592999Y-112692328D02*
X80235856Y-111692328D01*
X79092999Y-112620900D02*
X79235856Y-112692328D01*
X79235856Y-112692328D02*
X79521571Y-112692328D01*
X79521571Y-112692328D02*
X79664428Y-112620900D01*
X79664428Y-112620900D02*
X79735856Y-112478042D01*
X79735856Y-112478042D02*
X79735856Y-111906614D01*
X79735856Y-111906614D02*
X79664428Y-111763757D01*
X79664428Y-111763757D02*
X79521571Y-111692328D01*
X79521571Y-111692328D02*
X79235856Y-111692328D01*
X79235856Y-111692328D02*
X79092999Y-111763757D01*
X79092999Y-111763757D02*
X79021571Y-111906614D01*
X79021571Y-111906614D02*
X79021571Y-112049471D01*
X79021571Y-112049471D02*
X79735856Y-112192328D01*
X78378714Y-112692328D02*
X78378714Y-111692328D01*
X78378714Y-111978042D02*
X78307285Y-111835185D01*
X78307285Y-111835185D02*
X78235857Y-111763757D01*
X78235857Y-111763757D02*
X78092999Y-111692328D01*
X78092999Y-111692328D02*
X77950142Y-111692328D01*
X77450143Y-112549471D02*
X77378714Y-112620900D01*
X77378714Y-112620900D02*
X77450143Y-112692328D01*
X77450143Y-112692328D02*
X77521571Y-112620900D01*
X77521571Y-112620900D02*
X77450143Y-112549471D01*
X77450143Y-112549471D02*
X77450143Y-112692328D01*
X77450143Y-111763757D02*
X77378714Y-111835185D01*
X77378714Y-111835185D02*
X77450143Y-111906614D01*
X77450143Y-111906614D02*
X77521571Y-111835185D01*
X77521571Y-111835185D02*
X77450143Y-111763757D01*
X77450143Y-111763757D02*
X77450143Y-111906614D01*
X75950142Y-112692328D02*
X76807285Y-112692328D01*
X76378714Y-112692328D02*
X76378714Y-111192328D01*
X76378714Y-111192328D02*
X76521571Y-111406614D01*
X76521571Y-111406614D02*
X76664428Y-111549471D01*
X76664428Y-111549471D02*
X76807285Y-111620900D01*
X75307286Y-112549471D02*
X75235857Y-112620900D01*
X75235857Y-112620900D02*
X75307286Y-112692328D01*
X75307286Y-112692328D02*
X75378714Y-112620900D01*
X75378714Y-112620900D02*
X75307286Y-112549471D01*
X75307286Y-112549471D02*
X75307286Y-112692328D01*
X74307285Y-111192328D02*
X74164428Y-111192328D01*
X74164428Y-111192328D02*
X74021571Y-111263757D01*
X74021571Y-111263757D02*
X73950143Y-111335185D01*
X73950143Y-111335185D02*
X73878714Y-111478042D01*
X73878714Y-111478042D02*
X73807285Y-111763757D01*
X73807285Y-111763757D02*
X73807285Y-112120900D01*
X73807285Y-112120900D02*
X73878714Y-112406614D01*
X73878714Y-112406614D02*
X73950143Y-112549471D01*
X73950143Y-112549471D02*
X74021571Y-112620900D01*
X74021571Y-112620900D02*
X74164428Y-112692328D01*
X74164428Y-112692328D02*
X74307285Y-112692328D01*
X74307285Y-112692328D02*
X74450143Y-112620900D01*
X74450143Y-112620900D02*
X74521571Y-112549471D01*
X74521571Y-112549471D02*
X74593000Y-112406614D01*
X74593000Y-112406614D02*
X74664428Y-112120900D01*
X74664428Y-112120900D02*
X74664428Y-111763757D01*
X74664428Y-111763757D02*
X74593000Y-111478042D01*
X74593000Y-111478042D02*
X74521571Y-111335185D01*
X74521571Y-111335185D02*
X74450143Y-111263757D01*
X74450143Y-111263757D02*
X74307285Y-111192328D01*
D10*
X63438066Y-117014819D02*
X63914256Y-117014819D01*
X63914256Y-117014819D02*
X63914256Y-116014819D01*
X63152351Y-116110057D02*
X63104732Y-116062438D01*
X63104732Y-116062438D02*
X63009494Y-116014819D01*
X63009494Y-116014819D02*
X62771399Y-116014819D01*
X62771399Y-116014819D02*
X62676161Y-116062438D01*
X62676161Y-116062438D02*
X62628542Y-116110057D01*
X62628542Y-116110057D02*
X62580923Y-116205295D01*
X62580923Y-116205295D02*
X62580923Y-116300533D01*
X62580923Y-116300533D02*
X62628542Y-116443390D01*
X62628542Y-116443390D02*
X63199970Y-117014819D01*
X63199970Y-117014819D02*
X62580923Y-117014819D01*
X120953019Y-122807433D02*
X120953019Y-122331243D01*
X120953019Y-122331243D02*
X119953019Y-122331243D01*
X120953019Y-123664576D02*
X120953019Y-123093148D01*
X120953019Y-123378862D02*
X119953019Y-123378862D01*
X119953019Y-123378862D02*
X120095876Y-123283624D01*
X120095876Y-123283624D02*
X120191114Y-123188386D01*
X120191114Y-123188386D02*
X120238733Y-123093148D01*
X154979666Y-128241619D02*
X155455856Y-128241619D01*
X155455856Y-128241619D02*
X155455856Y-127241619D01*
X154741570Y-127241619D02*
X154122523Y-127241619D01*
X154122523Y-127241619D02*
X154455856Y-127622571D01*
X154455856Y-127622571D02*
X154312999Y-127622571D01*
X154312999Y-127622571D02*
X154217761Y-127670190D01*
X154217761Y-127670190D02*
X154170142Y-127717809D01*
X154170142Y-127717809D02*
X154122523Y-127813047D01*
X154122523Y-127813047D02*
X154122523Y-128051142D01*
X154122523Y-128051142D02*
X154170142Y-128146380D01*
X154170142Y-128146380D02*
X154217761Y-128194000D01*
X154217761Y-128194000D02*
X154312999Y-128241619D01*
X154312999Y-128241619D02*
X154598713Y-128241619D01*
X154598713Y-128241619D02*
X154693951Y-128194000D01*
X154693951Y-128194000D02*
X154741570Y-128146380D01*
D14*
X156886400Y-81996400D02*
X159571400Y-81996400D01*
X159571400Y-81996400D02*
X159571400Y-83916400D01*
X159571400Y-83916400D02*
X156886400Y-83916400D01*
X156886400Y-79964400D02*
X159571400Y-79964400D01*
X159571400Y-79964400D02*
X159571400Y-81884400D01*
X159571400Y-81884400D02*
X156886400Y-81884400D01*
X125791000Y-116834000D02*
G75*
G02*
X123891000Y-116834000I-950000J0D01*
G01*
X123891000Y-116834000D02*
G75*
G02*
X125791000Y-116834000I950000J0D01*
G01*
X154678000Y-91130400D02*
X153678000Y-91130400D01*
X154678000Y-93070400D02*
X153678000Y-93070400D01*
X64830758Y-111118500D02*
X64356242Y-111118500D01*
X64830758Y-112163500D02*
X64356242Y-112163500D01*
X66293300Y-115870981D02*
X66293300Y-115589819D01*
X67313300Y-115870981D02*
X67313300Y-115589819D01*
X158684000Y-116719000D02*
G75*
G02*
X156784000Y-116719000I-950000J0D01*
G01*
X156784000Y-116719000D02*
G75*
G02*
X158684000Y-116719000I950000J0D01*
G01*
X125791000Y-113284000D02*
G75*
G02*
X123891000Y-113284000I-950000J0D01*
G01*
X123891000Y-113284000D02*
G75*
G02*
X125791000Y-113284000I950000J0D01*
G01*
X106340000Y-115075581D02*
X106340000Y-114794419D01*
X107360000Y-115075581D02*
X107360000Y-114794419D01*
X156886400Y-84028400D02*
X159571400Y-84028400D01*
X159571400Y-84028400D02*
X159571400Y-85948400D01*
X159571400Y-85948400D02*
X156886400Y-85948400D01*
X105610370Y-128734419D02*
X105809181Y-128933230D01*
X106331619Y-128013170D02*
X106530430Y-128211981D01*
X140764540Y-52208900D02*
X141239056Y-52208900D01*
X140764540Y-53253900D02*
X141239056Y-53253900D01*
X85583500Y-127618258D02*
X85583500Y-127143742D01*
X86628500Y-127618258D02*
X86628500Y-127143742D01*
X121220619Y-121702100D02*
X121501781Y-121702100D01*
X121220619Y-122722100D02*
X121501781Y-122722100D01*
X140764540Y-53732899D02*
X141239056Y-53732899D01*
X140764540Y-54777899D02*
X141239056Y-54777899D01*
X100098570Y-129964581D02*
X100297381Y-129765770D01*
X100819819Y-130685830D02*
X101018630Y-130487019D01*
X124575119Y-127337600D02*
X124856281Y-127337600D01*
X124575119Y-128357600D02*
X124856281Y-128357600D01*
X81633600Y-123076581D02*
X81633600Y-122795419D01*
X82653600Y-123076581D02*
X82653600Y-122795419D01*
X156886400Y-92181800D02*
X159571400Y-92181800D01*
X159571400Y-92181800D02*
X159571400Y-94101800D01*
X159571400Y-94101800D02*
X156886400Y-94101800D01*
X156886400Y-90149800D02*
X159571400Y-90149800D01*
X159571400Y-90149800D02*
X159571400Y-92069800D01*
X159571400Y-92069800D02*
X156886400Y-92069800D01*
X158684000Y-120269000D02*
G75*
G02*
X156784000Y-120269000I-950000J0D01*
G01*
X156784000Y-120269000D02*
G75*
G02*
X158684000Y-120269000I950000J0D01*
G01*
X124978900Y-124608358D02*
X124978900Y-124133842D01*
X126023900Y-124608358D02*
X126023900Y-124133842D01*
X158684000Y-113169000D02*
G75*
G02*
X156784000Y-113169000I-950000J0D01*
G01*
X156784000Y-113169000D02*
G75*
G02*
X158684000Y-113169000I950000J0D01*
G01*
X153541000Y-127064381D02*
X153541000Y-126783219D01*
X154561000Y-127064381D02*
X154561000Y-126783219D01*
X156886400Y-77907000D02*
X159571400Y-77907000D01*
X159571400Y-77907000D02*
X159571400Y-79827000D01*
X159571400Y-79827000D02*
X156886400Y-79827000D01*
X140764541Y-55256900D02*
X141239057Y-55256900D01*
X140764541Y-56301900D02*
X141239057Y-56301900D01*
X116805942Y-132065500D02*
X117280458Y-132065500D01*
X116805942Y-133110500D02*
X117280458Y-133110500D01*
X63671022Y-117550000D02*
X62871778Y-117550000D01*
X63671022Y-118670000D02*
X62871778Y-118670000D01*
X156210000Y-125988800D02*
X155610000Y-125988800D01*
X156210000Y-125988800D02*
X156810000Y-125988800D01*
X156210000Y-127858800D02*
X155610000Y-127858800D01*
X156210000Y-127858800D02*
X156810000Y-127858800D01*
X157850000Y-126663800D02*
X157520000Y-126423800D01*
X157850000Y-126183800D01*
X157850000Y-126663800D01*
G36*
X157850000Y-126663800D02*
G01*
X157520000Y-126423800D01*
X157850000Y-126183800D01*
X157850000Y-126663800D01*
G37*
D12*
X144973800Y-62188200D02*
X144973800Y-60338200D01*
X144973800Y-62188200D02*
X144973800Y-62978200D01*
X144973800Y-62978200D02*
X147073800Y-62978200D01*
X147023800Y-50228200D02*
X154183800Y-50228200D01*
X147073800Y-62978200D02*
X147073800Y-62988200D01*
X147073800Y-65468200D02*
X147073800Y-62978200D01*
X154243800Y-65468200D02*
X147073800Y-65468200D01*
X159973800Y-50248200D02*
X157033800Y-50248200D01*
X159973800Y-50248200D02*
X159973800Y-65488200D01*
X159973800Y-65488200D02*
X156983800Y-65488200D01*
X145773800Y-60578200D02*
G75*
G02*
X145673800Y-60578200I-50000J0D01*
G01*
X145673800Y-60578200D02*
G75*
G02*
X145773800Y-60578200I50000J0D01*
G01*
D15*
X128725200Y-124058601D02*
X129725200Y-124058600D01*
X128725200Y-124958600D02*
X128725200Y-124058601D01*
D14*
X64593500Y-114770000D02*
X63993500Y-114770000D01*
X64593500Y-114770000D02*
X65193500Y-114770000D01*
X64593500Y-116640000D02*
X63993500Y-116640000D01*
X64593500Y-116640000D02*
X65193500Y-116640000D01*
X66233500Y-115445000D02*
X65903499Y-115205000D01*
X66233500Y-114965000D01*
X66233500Y-115445000D01*
G36*
X66233500Y-115445000D02*
G01*
X65903499Y-115205000D01*
X66233500Y-114965000D01*
X66233500Y-115445000D01*
G37*
X132376142Y-128433300D02*
X132850658Y-128433300D01*
X132376142Y-129478300D02*
X132850658Y-129478300D01*
X107007370Y-131234581D02*
X107206181Y-131035770D01*
X107728619Y-131955830D02*
X107927430Y-131757019D01*
X96346742Y-131913100D02*
X96821258Y-131913100D01*
X96346742Y-132958100D02*
X96821258Y-132958100D01*
X130542419Y-122619000D02*
X130823581Y-122619000D01*
X130542419Y-123639000D02*
X130823581Y-123639000D01*
X154948658Y-74890100D02*
X154474142Y-74890100D01*
X154948658Y-75935100D02*
X154474142Y-75935100D01*
X110406581Y-128013170D02*
X110207770Y-128211981D01*
X111127830Y-128734419D02*
X110929019Y-128933230D01*
X98410500Y-132960342D02*
X98410500Y-133434858D01*
X99455500Y-132960342D02*
X99455500Y-133434858D01*
X154678000Y-82850000D02*
X153678000Y-82850000D01*
X154678000Y-84790000D02*
X153678000Y-84790000D01*
X110076381Y-133702770D02*
X109877570Y-133901581D01*
X110797630Y-134424019D02*
X110598819Y-134622830D01*
X118933700Y-133112742D02*
X118933700Y-133587258D01*
X119978700Y-133112742D02*
X119978700Y-133587258D01*
X156886400Y-86085800D02*
X159571400Y-86085800D01*
X159571400Y-86085800D02*
X159571400Y-88005800D01*
X159571400Y-88005800D02*
X156886400Y-88005800D01*
X118388200Y-123373722D02*
X118388200Y-122574478D01*
X119508200Y-123373722D02*
X119508200Y-122574478D01*
X64356242Y-112769501D02*
X64830758Y-112769501D01*
X64356242Y-113814501D02*
X64830758Y-113814501D01*
X108653981Y-132229570D02*
X108455170Y-132428381D01*
X109375230Y-132950819D02*
X109176419Y-133149630D01*
X140758142Y-58989699D02*
X141232658Y-58989699D01*
X140758142Y-60034699D02*
X141232658Y-60034699D01*
X157986000Y-127064381D02*
X157986000Y-126783219D01*
X159006000Y-127064381D02*
X159006000Y-126783219D01*
X118326781Y-130401600D02*
X118045619Y-130401600D01*
X118326781Y-131421600D02*
X118045619Y-131421600D01*
X140758141Y-60513698D02*
X141232657Y-60513698D01*
X140758141Y-61558698D02*
X141232657Y-61558698D01*
X155718742Y-123861300D02*
X156193258Y-123861300D01*
X155718742Y-124906300D02*
X156193258Y-124906300D01*
X120342000Y-124333000D02*
X120342000Y-123733000D01*
X120342000Y-124333000D02*
X120342000Y-124933000D01*
X122212000Y-124333000D02*
X122212000Y-123733000D01*
X122212000Y-124333000D02*
X122212000Y-124933000D01*
X122017000Y-125973000D02*
X121537000Y-125973000D01*
X121777000Y-125642999D01*
X122017000Y-125973000D01*
G36*
X122017000Y-125973000D02*
G01*
X121537000Y-125973000D01*
X121777000Y-125642999D01*
X122017000Y-125973000D01*
G37*
X154678000Y-87134599D02*
X153678000Y-87134599D01*
X154678000Y-89074599D02*
X153678000Y-89074599D01*
X123477000Y-131173500D02*
X123477000Y-129173500D01*
X125697000Y-131173500D02*
X125697000Y-129173500D01*
X125597000Y-131693500D02*
X125597000Y-131413500D01*
X125877000Y-131413500D01*
X125597000Y-131693500D01*
G36*
X125597000Y-131693500D02*
G01*
X125597000Y-131413500D01*
X125877000Y-131413500D01*
X125597000Y-131693500D01*
G37*
X102066000Y-111613000D02*
X100116000Y-111613000D01*
X102066000Y-111613000D02*
X104016000Y-111613000D01*
X102066000Y-116733000D02*
X100116000Y-116733000D01*
X102066000Y-116733000D02*
X104016000Y-116733000D01*
X104766000Y-111708000D02*
X104526000Y-111378000D01*
X105006000Y-111378000D01*
X104766000Y-111708000D01*
G36*
X104766000Y-111708000D02*
G01*
X104526000Y-111378000D01*
X105006000Y-111378000D01*
X104766000Y-111708000D01*
G37*
X140764541Y-50684901D02*
X141239057Y-50684901D01*
X140764541Y-51729901D02*
X141239057Y-51729901D01*
X132005753Y-118158660D02*
X132712860Y-117451553D01*
X133377540Y-119530447D02*
X134084647Y-118823340D01*
X83805500Y-127618258D02*
X83805500Y-127143742D01*
X84850500Y-127618258D02*
X84850500Y-127143742D01*
X135721000Y-111359000D02*
X133771000Y-111359000D01*
X135721000Y-111359000D02*
X137671000Y-111359000D01*
X135721000Y-116479000D02*
X133771000Y-116479000D01*
X135721000Y-116479000D02*
X137671000Y-116479000D01*
X138421000Y-111454000D02*
X138181000Y-111124000D01*
X138661000Y-111124000D01*
X138421000Y-111454000D01*
G36*
X138421000Y-111454000D02*
G01*
X138181000Y-111124000D01*
X138661000Y-111124000D01*
X138421000Y-111454000D01*
G37*
X155212622Y-128776800D02*
X154413378Y-128776800D01*
X155212622Y-129896800D02*
X154413378Y-129896800D01*
X107845570Y-127972419D02*
X108044381Y-128171230D01*
X108566819Y-127251170D02*
X108765630Y-127449981D01*
X139783000Y-114694581D02*
X139783000Y-114413419D01*
X140803000Y-114694581D02*
X140803000Y-114413419D01*
X61975300Y-115870981D02*
X61975300Y-115589819D01*
X62995300Y-115870981D02*
X62995300Y-115589819D01*
X140758142Y-57465700D02*
X141232658Y-57465700D01*
X140758142Y-58510700D02*
X141232658Y-58510700D01*
X156193258Y-122210300D02*
X155718742Y-122210300D01*
X156193258Y-123255300D02*
X155718742Y-123255300D01*
X125791000Y-120384000D02*
G75*
G02*
X123891000Y-120384000I-950000J0D01*
G01*
X123891000Y-120384000D02*
G75*
G02*
X125791000Y-120384000I950000J0D01*
G01*
X121119018Y-126045500D02*
X121400180Y-126045500D01*
X121119018Y-127065500D02*
X121400180Y-127065500D01*
X156886400Y-88117800D02*
X159571400Y-88117800D01*
X159571400Y-88117800D02*
X159571400Y-90037800D01*
X159571400Y-90037800D02*
X156886400Y-90037800D01*
X124830881Y-132011200D02*
X124549719Y-132011200D01*
X124830881Y-133031200D02*
X124549719Y-133031200D01*
X123327901Y-124133842D02*
X123327901Y-124608358D01*
X124372901Y-124133842D02*
X124372901Y-124608358D01*
X83102001Y-120710500D02*
X83102000Y-118510501D01*
X83102001Y-120710500D02*
X83102000Y-122910499D01*
X89871999Y-120710500D02*
X89872000Y-118510501D01*
X89871999Y-120710500D02*
X89872000Y-122910499D01*
X83562000Y-116850500D02*
X83322000Y-116520501D01*
X83802000Y-116520500D01*
X83562000Y-116850500D01*
G36*
X83562000Y-116850500D02*
G01*
X83322000Y-116520501D01*
X83802000Y-116520500D01*
X83562000Y-116850500D01*
G37*
X154678000Y-78913000D02*
X153678000Y-78913000D01*
X154678000Y-80853000D02*
X153678000Y-80853000D01*
X81659000Y-120028581D02*
X81659000Y-119747419D01*
X82679000Y-120028581D02*
X82679000Y-119747419D01*
%LPC*%
D16*
X129413000Y-111633000D03*
D17*
X129413000Y-114173000D03*
X129413000Y-116713000D03*
X129413000Y-119253000D03*
D16*
X95758000Y-111633000D03*
D17*
X95758000Y-114173000D03*
X95758000Y-116713000D03*
X95758000Y-119253000D03*
D16*
X68072000Y-69977000D03*
D17*
X65532000Y-69977000D03*
X68072000Y-72517000D03*
X65532000Y-72517000D03*
X68072000Y-75057000D03*
X65532000Y-75057000D03*
X68072000Y-77597000D03*
X65532000Y-77597000D03*
X68072000Y-80137000D03*
X65532000Y-80137000D03*
X68072000Y-82677000D03*
X65532000Y-82677000D03*
D18*
X154907600Y-69643200D03*
X154907600Y-63863200D03*
D19*
X154427600Y-71073200D03*
D20*
X158597600Y-71073200D03*
D19*
X154427600Y-62433200D03*
D20*
X158597600Y-62433200D03*
D21*
X71755000Y-45085000D03*
X71755000Y-42545000D03*
X74295000Y-45085000D03*
X74295000Y-42545000D03*
X76835000Y-45085000D03*
X76835000Y-42545000D03*
X79375000Y-45085000D03*
X79375000Y-42545000D03*
X81915000Y-45085000D03*
X81915000Y-42545000D03*
X84455000Y-45085000D03*
X84455000Y-42545000D03*
X86995000Y-45085000D03*
X86995000Y-42545000D03*
X89535000Y-45085000D03*
X89535000Y-42545000D03*
X92075000Y-45085000D03*
X92075000Y-42545000D03*
X94615000Y-45085000D03*
X94615000Y-42545000D03*
X97155000Y-45085000D03*
X97155000Y-42545000D03*
X99695000Y-45085000D03*
X99695000Y-42545000D03*
X102235000Y-45085000D03*
X102235000Y-42545000D03*
X104775000Y-45085000D03*
X104775000Y-42545000D03*
X107315000Y-45085000D03*
X107315000Y-42545000D03*
X109855000Y-45085000D03*
X109855000Y-42545000D03*
X112395000Y-45085000D03*
X112395000Y-42545000D03*
X114935000Y-45085000D03*
X114935000Y-42545000D03*
X117475000Y-45085000D03*
X117475000Y-42545000D03*
X120015000Y-45085000D03*
X120015000Y-42545000D03*
X122555000Y-45085000D03*
X122555000Y-42545000D03*
X125095000Y-45085000D03*
X125095000Y-42545000D03*
X127635000Y-45085000D03*
X127635000Y-42545000D03*
X130175000Y-45085000D03*
X130175000Y-42545000D03*
X132715000Y-45085000D03*
X132715000Y-42545000D03*
X135255000Y-45085000D03*
X135255000Y-42545000D03*
X137795000Y-45085000D03*
X137795000Y-42545000D03*
X140335000Y-45085000D03*
X140335000Y-42545000D03*
X142875000Y-45085000D03*
X142875000Y-42545000D03*
X145415000Y-45085000D03*
X145415000Y-42545000D03*
X147955000Y-45085000D03*
X147955000Y-42545000D03*
X150495000Y-45085000D03*
X150495000Y-42545000D03*
X71755000Y-106045000D03*
X71755000Y-103505000D03*
X74295000Y-106045000D03*
X74295000Y-103505000D03*
X76835000Y-106045000D03*
X76835000Y-103505000D03*
X79375000Y-106045000D03*
X79375000Y-103505000D03*
X81915000Y-106045000D03*
X81915000Y-103505000D03*
X84455000Y-106045000D03*
X84455000Y-103505000D03*
X86995000Y-106045000D03*
X86995000Y-103505000D03*
X89535000Y-106045000D03*
X89535000Y-103505000D03*
X92075000Y-106045000D03*
X92075000Y-103505000D03*
X94615000Y-106045000D03*
X94615000Y-103505000D03*
X97155000Y-106045000D03*
X97155000Y-103505000D03*
X99695000Y-106045000D03*
X99695000Y-103505000D03*
X102235000Y-106045000D03*
X102235000Y-103505000D03*
X104775000Y-106045000D03*
X104775000Y-103505000D03*
X107315000Y-106045000D03*
X107315000Y-103505000D03*
X109855000Y-106045000D03*
X109855000Y-103505000D03*
X112395000Y-106045000D03*
X112395000Y-103505000D03*
X114935000Y-106045000D03*
X114935000Y-103505000D03*
X117475000Y-106045000D03*
X117475000Y-103505000D03*
X120015000Y-106045000D03*
X120015000Y-103505000D03*
X122555000Y-106045000D03*
X122555000Y-103505000D03*
X125095000Y-106045000D03*
X125095000Y-103505000D03*
X127635000Y-106045000D03*
X127635000Y-103505000D03*
X130175000Y-106045000D03*
X130175000Y-103505000D03*
X132715000Y-106045000D03*
X132715000Y-103505000D03*
X135255000Y-106045000D03*
X135255000Y-103505000D03*
X137795000Y-106045000D03*
X137795000Y-103505000D03*
X140335000Y-106045000D03*
X140335000Y-103505000D03*
X142875000Y-106045000D03*
X142875000Y-103505000D03*
X145415000Y-106045000D03*
X145415000Y-103505000D03*
X147955000Y-106045000D03*
X147955000Y-103505000D03*
X150495000Y-106045000D03*
X150495000Y-103505000D03*
D16*
X116967000Y-136525000D03*
D17*
X119507000Y-136525000D03*
X122046999Y-136525000D03*
D16*
X68072000Y-92862000D03*
D17*
X65532000Y-92862000D03*
X68072000Y-95402000D03*
X65532000Y-95402000D03*
X68072000Y-97942000D03*
X65532000Y-97942000D03*
X68072000Y-100482000D03*
X65532000Y-100482000D03*
X68072000Y-103022000D03*
X65532000Y-103022000D03*
X68072000Y-105562000D03*
X65532000Y-105562000D03*
D16*
X78740000Y-136525000D03*
D17*
X81280000Y-136525000D03*
X83819999Y-136525000D03*
X86360000Y-136525000D03*
X88900000Y-136525000D03*
X91440000Y-136525000D03*
D16*
X96393000Y-136525000D03*
D17*
X98933000Y-136525000D03*
X101472999Y-136525000D03*
D16*
X131983000Y-133965000D03*
D17*
X131983000Y-136505000D03*
X134523000Y-133965000D03*
X134523000Y-136505000D03*
X137062999Y-133965000D03*
X137063000Y-136505000D03*
X139603000Y-133965000D03*
X139603000Y-136505000D03*
X142143000Y-133965000D03*
X142143000Y-136505000D03*
X144683000Y-133965000D03*
X144683000Y-136505000D03*
X147223000Y-133965000D03*
X147223000Y-136505000D03*
X149763001Y-133965000D03*
X149763000Y-136505000D03*
X152303000Y-133965000D03*
X152303000Y-136505000D03*
X154843000Y-133965000D03*
X154843000Y-136505000D03*
D18*
X154901001Y-54071000D03*
X154901001Y-48291000D03*
D19*
X154421001Y-55501000D03*
D20*
X158591001Y-55501000D03*
D19*
X154421001Y-46861000D03*
D20*
X158591001Y-46861000D03*
D22*
X158823900Y-82956400D03*
X156948900Y-82956400D03*
X158823900Y-80924400D03*
X156948900Y-80924400D03*
D23*
X124841000Y-116834000D03*
D24*
X153278000Y-92600399D03*
X153278000Y-91600401D03*
X155078000Y-91600401D03*
X155078000Y-92600399D03*
D25*
X65418500Y-111641000D03*
X63768500Y-111641000D03*
D26*
X66803300Y-116505400D03*
X66803300Y-114955400D03*
D23*
X157734000Y-116719000D03*
X124841000Y-113284000D03*
D26*
X106850000Y-115710000D03*
X106850000Y-114160000D03*
D22*
X158823900Y-84988400D03*
X156948900Y-84988400D03*
D27*
X105522392Y-127925192D03*
X106618408Y-129021208D03*
D28*
X140176798Y-52731400D03*
X141826798Y-52731400D03*
D29*
X86106000Y-126556000D03*
X86106000Y-128206000D03*
D30*
X120586200Y-122212100D03*
X122136200Y-122212100D03*
D28*
X140176798Y-54255399D03*
X141826798Y-54255399D03*
D31*
X101106608Y-129677792D03*
X100010592Y-130773808D03*
D30*
X123940700Y-127847600D03*
X125490700Y-127847600D03*
D32*
X82143600Y-122161000D03*
X82143600Y-123711000D03*
D22*
X158823900Y-93141800D03*
X156948900Y-93141800D03*
X158823900Y-91109800D03*
X156948900Y-91109800D03*
D23*
X157734000Y-120269000D03*
D33*
X125501400Y-125196100D03*
X125501400Y-123546100D03*
D23*
X157734000Y-113169000D03*
D26*
X154051000Y-127698800D03*
X154051000Y-126148800D03*
D22*
X158823900Y-78867000D03*
X156948900Y-78867000D03*
D28*
X140176799Y-55779400D03*
X141826799Y-55779400D03*
D25*
X117868200Y-132588000D03*
X116218200Y-132588000D03*
D34*
X64333900Y-118110000D03*
X62208900Y-118110000D03*
D35*
X156922500Y-126423800D03*
X156922500Y-126923800D03*
X156922500Y-127423800D03*
X155497500Y-127423800D03*
X155497500Y-126923800D03*
X155497500Y-126423800D03*
D36*
X155973800Y-52538200D03*
X155973800Y-60538200D03*
D37*
X144973800Y-59738200D03*
X144973800Y-58638200D03*
X144973800Y-57538200D03*
X144973800Y-56438200D03*
X144973800Y-55338200D03*
X144973800Y-54238200D03*
X144973800Y-53138200D03*
X144973800Y-52038200D03*
X144973800Y-50938200D03*
D38*
X155573800Y-49738200D03*
D39*
X145973800Y-49738200D03*
D40*
X145973800Y-64338200D03*
D38*
X155573800Y-65238200D03*
D41*
X129675199Y-125008600D03*
X131775201Y-125008600D03*
X131775201Y-126908600D03*
X129675199Y-126908600D03*
D35*
X65306000Y-115205000D03*
X65306001Y-115705000D03*
X65306000Y-116205000D03*
X63881000Y-116205000D03*
X63880999Y-115705000D03*
X63881000Y-115205000D03*
D28*
X131788400Y-128955800D03*
X133438400Y-128955800D03*
D42*
X106919392Y-132043808D03*
X108015408Y-130947792D03*
D25*
X97409000Y-132435600D03*
X95759000Y-132435600D03*
D30*
X129908000Y-123129000D03*
X131458000Y-123129000D03*
D25*
X155536400Y-75412600D03*
X153886400Y-75412600D03*
D31*
X111215808Y-127925192D03*
X110119792Y-129021208D03*
D33*
X98933000Y-134022600D03*
X98933000Y-132372600D03*
D24*
X153278000Y-84319999D03*
X153278000Y-83320001D03*
X155078000Y-83320001D03*
X155078000Y-84319999D03*
D31*
X110885608Y-133614792D03*
X109789592Y-134710808D03*
D33*
X119456200Y-134175000D03*
X119456200Y-132525000D03*
D22*
X158823900Y-87045800D03*
X156948900Y-87045800D03*
D43*
X118948200Y-124036600D03*
X118948200Y-121911600D03*
D28*
X63768500Y-113292001D03*
X65418500Y-113292001D03*
D31*
X109463208Y-132141592D03*
X108367192Y-133237608D03*
D28*
X140170400Y-59512199D03*
X141820400Y-59512199D03*
D26*
X158496000Y-127698800D03*
X158496000Y-126148800D03*
D30*
X117411200Y-130911600D03*
X118961200Y-130911600D03*
D28*
X140170399Y-61036198D03*
X141820399Y-61036198D03*
X155131000Y-124383800D03*
X156781000Y-124383800D03*
D44*
X121777000Y-125045500D03*
X121277000Y-125045501D03*
X120777000Y-125045500D03*
X120777000Y-123620500D03*
X121277000Y-123620499D03*
X121777000Y-123620500D03*
D24*
X153278000Y-88604598D03*
X153278000Y-87604600D03*
X155078000Y-87604600D03*
X155078000Y-88604598D03*
D45*
X125237000Y-131061000D03*
X124587000Y-131061000D03*
X123937000Y-131061000D03*
X123937000Y-129286000D03*
X124587000Y-129286000D03*
X125237000Y-129286000D03*
D46*
X124587000Y-130173500D03*
D47*
X104691000Y-112268000D03*
X104691000Y-113538000D03*
X104691000Y-114808000D03*
X104691000Y-116078000D03*
X99441000Y-116078000D03*
X99441000Y-114808000D03*
X99441000Y-113538000D03*
X99441000Y-112268000D03*
D28*
X140176799Y-51207401D03*
X141826799Y-51207401D03*
D48*
X133328043Y-117501051D03*
X134035149Y-118208157D03*
X132762357Y-119480949D03*
X132055251Y-118773843D03*
D29*
X84328000Y-126556000D03*
X84328000Y-128206000D03*
D47*
X138346000Y-112014000D03*
X138346000Y-113284000D03*
X138346000Y-114554000D03*
X138346000Y-115824000D03*
X133096000Y-115824000D03*
X133096000Y-114554000D03*
X133096000Y-113284000D03*
X133096000Y-112014000D03*
D34*
X155875500Y-129336800D03*
X153750500Y-129336800D03*
D27*
X107757592Y-127163192D03*
X108853608Y-128259208D03*
D26*
X140293000Y-115329000D03*
X140293000Y-113779000D03*
X62485300Y-116505400D03*
X62485300Y-114955400D03*
D28*
X140170400Y-57988200D03*
X141820400Y-57988200D03*
D25*
X156781000Y-122732800D03*
X155131000Y-122732800D03*
D23*
X124841000Y-120384000D03*
D30*
X120484599Y-126555500D03*
X122034599Y-126555500D03*
D22*
X158823900Y-89077800D03*
X156948900Y-89077800D03*
D49*
X125465300Y-132521200D03*
X123915300Y-132521200D03*
D29*
X123850401Y-123546100D03*
X123850401Y-125196100D03*
D50*
X83562000Y-117848000D03*
X84212000Y-117848000D03*
X84862000Y-117848000D03*
X85512000Y-117848000D03*
X86162000Y-117848000D03*
X86812000Y-117848000D03*
X87462000Y-117848000D03*
X88112000Y-117848000D03*
X88762000Y-117848000D03*
X89412000Y-117848000D03*
X89412000Y-123573000D03*
X88762000Y-123573000D03*
X88112000Y-123573000D03*
X87462000Y-123573000D03*
X86812000Y-123573000D03*
X86162000Y-123573000D03*
X85512000Y-123573000D03*
X84862000Y-123573000D03*
X84212000Y-123573000D03*
X83562000Y-123573000D03*
D24*
X153278000Y-80382999D03*
X153278000Y-79383001D03*
X155078000Y-79383001D03*
X155078000Y-80382999D03*
D32*
X82169000Y-119113000D03*
X82169000Y-120663000D03*
%LPD*%
M02*
