G04 #@! TF.GenerationSoftware,KiCad,Pcbnew,9.0.2-2.fc42*
G04 #@! TF.CreationDate,2025-07-11T19:52:54+03:00*
G04 #@! TF.ProjectId,QMTECH_XC7A100T-Expantion-Board,514d5445-4348-45f5-9843-374131303054,rev?*
G04 #@! TF.SameCoordinates,Original*
G04 #@! TF.FileFunction,Legend,Top*
G04 #@! TF.FilePolarity,Positive*
%FSLAX46Y46*%
G04 Gerber Fmt 4.6, Leading zero omitted, Abs format (unit mm)*
G04 Created by KiCad (PCBNEW 9.0.2-2.fc42) date 2025-07-11 19:52:54*
%MOMM*%
%LPD*%
G01*
G04 APERTURE LIST*
G04 Aperture macros list*
%AMRoundRect*
0 Rectangle with rounded corners*
0 $1 Rounding radius*
0 $2 $3 $4 $5 $6 $7 $8 $9 X,Y pos of 4 corners*
0 Add a 4 corners polygon primitive as box body*
4,1,4,$2,$3,$4,$5,$6,$7,$8,$9,$2,$3,0*
0 Add four circle primitives for the rounded corners*
1,1,$1+$1,$2,$3*
1,1,$1+$1,$4,$5*
1,1,$1+$1,$6,$7*
1,1,$1+$1,$8,$9*
0 Add four rect primitives between the rounded corners*
20,1,$1+$1,$2,$3,$4,$5,0*
20,1,$1+$1,$4,$5,$6,$7,0*
20,1,$1+$1,$6,$7,$8,$9,0*
20,1,$1+$1,$8,$9,$2,$3,0*%
%AMRotRect*
0 Rectangle, with rotation*
0 The origin of the aperture is its center*
0 $1 length*
0 $2 width*
0 $3 Rotation angle, in degrees counterclockwise*
0 Add horizontal line*
21,1,$1,$2,0,0,$3*%
%AMFreePoly0*
4,1,21,1.372500,0.787500,0.862500,0.787500,0.862500,0.532500,1.372500,0.532500,1.372500,0.127500,0.862500,0.127500,0.862500,-0.127500,1.372500,-0.127500,1.372500,-0.532500,0.862500,-0.532500,0.862500,-0.787500,1.372500,-0.787500,1.372500,-1.195000,0.612500,-1.195000,0.612500,-1.117500,-0.862500,-1.117500,-0.862500,1.117500,0.612500,1.117500,0.612500,1.195000,1.372500,1.195000,
1.372500,0.787500,1.372500,0.787500,$1*%
%AMFreePoly1*
4,1,39,0.500000,-0.750000,0.000000,-0.750000,0.000000,-0.749213,-0.028035,-0.749213,-0.083753,-0.742936,-0.138418,-0.730459,-0.191342,-0.711940,-0.241859,-0.687612,-0.289336,-0.657780,-0.333173,-0.622821,-0.372821,-0.583173,-0.407780,-0.539336,-0.437612,-0.491859,-0.461940,-0.441342,-0.480459,-0.388418,-0.492936,-0.333753,-0.499213,-0.278035,-0.499213,-0.250000,-0.500000,-0.250000,-0.500000,0.250000,
-0.499213,0.250000,-0.499213,0.278035,-0.492936,0.333753,-0.480459,0.388418,-0.461940,0.441342,-0.437612,0.491859,-0.407780,0.539336,-0.372821,0.583173,-0.333173,0.622821,-0.289336,0.657780,-0.241859,0.687612,-0.191342,0.711940,-0.138418,0.730459,-0.083753,0.742936,-0.028035,0.749213,0.000000,0.749213,0.000000,0.750000,0.500000,0.750000,0.500000,-0.750000,0.500000,-0.750000,
$1*%
%AMFreePoly2*
4,1,39,0.000000,0.749213,0.028035,0.749213,0.083753,0.742936,0.138418,0.730459,0.191342,0.711940,0.241859,0.687612,0.289336,0.657780,0.333173,0.622821,0.372821,0.583173,0.407780,0.539336,0.437612,0.491859,0.461940,0.441342,0.480459,0.388418,0.492936,0.333753,0.499213,0.278035,0.499213,0.250000,0.500000,0.250000,0.500000,-0.250000,0.499213,-0.250000,0.499213,-0.278035,
0.492936,-0.333753,0.480459,-0.388418,0.461940,-0.441342,0.437612,-0.491859,0.407780,-0.539336,0.372821,-0.583173,0.333173,-0.622821,0.289336,-0.657780,0.241859,-0.687612,0.191342,-0.711940,0.138418,-0.730459,0.083753,-0.742936,0.028035,-0.749213,0.000000,-0.749213,0.000000,-0.750000,-0.500000,-0.750000,-0.500000,0.750000,0.000000,0.750000,0.000000,0.749213,0.000000,0.749213,
$1*%
G04 Aperture macros list end*
%ADD10C,0.300000*%
%ADD11C,0.150000*%
%ADD12C,0.350000*%
%ADD13C,0.250000*%
%ADD14C,0.120000*%
%ADD15C,0.100000*%
%ADD16R,1.700000X1.700000*%
%ADD17C,1.700000*%
%ADD18R,0.500000X0.800000*%
%ADD19RoundRect,0.225000X0.250000X-0.225000X0.250000X0.225000X-0.250000X0.225000X-0.250000X-0.225000X0*%
%ADD20R,0.400000X0.800000*%
%ADD21R,0.300000X1.800000*%
%ADD22R,2.000000X1.500000*%
%ADD23RoundRect,0.243750X0.243750X0.456250X-0.243750X0.456250X-0.243750X-0.456250X0.243750X-0.456250X0*%
%ADD24RoundRect,0.200000X0.275000X-0.200000X0.275000X0.200000X-0.275000X0.200000X-0.275000X-0.200000X0*%
%ADD25RoundRect,0.200000X-0.200000X-0.275000X0.200000X-0.275000X0.200000X0.275000X-0.200000X0.275000X0*%
%ADD26RoundRect,0.200000X-0.275000X0.200000X-0.275000X-0.200000X0.275000X-0.200000X0.275000X0.200000X0*%
%ADD27R,0.650000X0.800000*%
%ADD28RoundRect,0.225000X-0.225000X-0.250000X0.225000X-0.250000X0.225000X0.250000X-0.225000X0.250000X0*%
%ADD29R,0.450000X0.600000*%
%ADD30RoundRect,0.200000X0.200000X0.275000X-0.200000X0.275000X-0.200000X-0.275000X0.200000X-0.275000X0*%
%ADD31RoundRect,0.100000X-0.100000X0.637500X-0.100000X-0.637500X0.100000X-0.637500X0.100000X0.637500X0*%
%ADD32R,1.800000X0.300000*%
%ADD33R,1.500000X2.000000*%
%ADD34RoundRect,0.225000X0.225000X0.250000X-0.225000X0.250000X-0.225000X-0.250000X0.225000X-0.250000X0*%
%ADD35R,0.625000X0.250000*%
%ADD36R,0.700000X0.450000*%
%ADD37R,0.575000X0.450000*%
%ADD38C,0.600000*%
%ADD39R,1.160000X0.600000*%
%ADD40R,1.160000X0.300000*%
%ADD41O,2.000000X0.900000*%
%ADD42O,1.700000X0.900000*%
%ADD43RoundRect,0.225000X0.017678X-0.335876X0.335876X-0.017678X-0.017678X0.335876X-0.335876X0.017678X0*%
%ADD44C,1.524000*%
%ADD45RoundRect,0.062500X0.362500X0.062500X-0.362500X0.062500X-0.362500X-0.062500X0.362500X-0.062500X0*%
%ADD46R,1.650000X2.380000*%
%ADD47RoundRect,0.225000X-0.250000X0.225000X-0.250000X-0.225000X0.250000X-0.225000X0.250000X0.225000X0*%
%ADD48R,0.800000X0.650000*%
%ADD49R,0.990000X0.405000*%
%ADD50FreePoly0,180.000000*%
%ADD51R,1.200000X1.400000*%
%ADD52FreePoly1,0.000000*%
%ADD53FreePoly2,0.000000*%
%ADD54RoundRect,0.150000X-0.150000X0.825000X-0.150000X-0.825000X0.150000X-0.825000X0.150000X0.825000X0*%
%ADD55RoundRect,0.250000X-0.312500X-1.450000X0.312500X-1.450000X0.312500X1.450000X-0.312500X1.450000X0*%
%ADD56RotRect,0.800000X0.300000X135.000000*%
%ADD57RotRect,0.800000X0.300000X225.000000*%
%ADD58RotRect,0.800000X0.300000X315.000000*%
%ADD59RotRect,0.800000X0.300000X45.000000*%
%ADD60RotRect,3.600000X3.600000X135.000000*%
%ADD61C,0.800000*%
G04 APERTURE END LIST*
D10*
X65100199Y-43179999D02*
X64363600Y-43916598D01*
X122961400Y-113283997D02*
X122961400Y-110464600D01*
X65100199Y-43179999D02*
X64363600Y-42443400D01*
D11*
X93345000Y-109220000D02*
X93345000Y-110870000D01*
X93345000Y-111470000D02*
X93345000Y-113120000D01*
X93345000Y-113720000D02*
X93345000Y-115370000D01*
X93345000Y-115970000D02*
X93345000Y-117620000D01*
X93345000Y-118220000D02*
X93345000Y-119870000D01*
X93345000Y-120470000D02*
X93345000Y-122120000D01*
X93345000Y-122720000D02*
X93345000Y-124370000D01*
X93345000Y-124970000D02*
X93345000Y-126620000D01*
X93345000Y-127220000D02*
X93345000Y-128870000D01*
X93345000Y-129470000D02*
X93345000Y-131120000D01*
X93345000Y-131720000D02*
X93345000Y-133370000D01*
X93345000Y-133970000D02*
X93345000Y-135620000D01*
X93345000Y-136220000D02*
X93345000Y-137870000D01*
D10*
X158749999Y-101168199D02*
X158013400Y-100431600D01*
X89611200Y-113436400D02*
X88874601Y-112699801D01*
X155422600Y-110497400D02*
X156159199Y-111233999D01*
X158749999Y-101168199D02*
X158013400Y-101904798D01*
X155422600Y-113316797D02*
X155422600Y-110497400D01*
X89611200Y-110617002D02*
X89611200Y-113436400D01*
D11*
X60960000Y-109220000D02*
X62610000Y-109220000D01*
X63210000Y-109220000D02*
X64860000Y-109220000D01*
X65460000Y-109220000D02*
X67110000Y-109220000D01*
X67710000Y-109220000D02*
X69360000Y-109220000D01*
X69960000Y-109220000D02*
X71610000Y-109220000D01*
X72210000Y-109220000D02*
X73860000Y-109220000D01*
X74460000Y-109220000D02*
X76110000Y-109220000D01*
X76710000Y-109220000D02*
X78360000Y-109220000D01*
X78960000Y-109220000D02*
X80610000Y-109220000D01*
X81210000Y-109220000D02*
X82860000Y-109220000D01*
X83460000Y-109220000D02*
X85110000Y-109220000D01*
X85710000Y-109220000D02*
X87360000Y-109220000D01*
X87960000Y-109220000D02*
X89610000Y-109220000D01*
X90210000Y-109220000D02*
X91860000Y-109220000D01*
X92460000Y-109220000D02*
X94110000Y-109220000D01*
X94710000Y-109220000D02*
X96360000Y-109220000D01*
X96960000Y-109220000D02*
X98610000Y-109220000D01*
X99210000Y-109220000D02*
X100860000Y-109220000D01*
X101460000Y-109220000D02*
X103110000Y-109220000D01*
X103710000Y-109220000D02*
X105360000Y-109220000D01*
X105960000Y-109220000D02*
X107610000Y-109220000D01*
X108210000Y-109220000D02*
X109860000Y-109220000D01*
X110460000Y-109220000D02*
X112110000Y-109220000D01*
X112710000Y-109220000D02*
X114360000Y-109220000D01*
X114960000Y-109220000D02*
X116610000Y-109220000D01*
X117210000Y-109220000D02*
X118860000Y-109220000D01*
X119460000Y-109220000D02*
X121110000Y-109220000D01*
X121710000Y-109220000D02*
X123360000Y-109220000D01*
X123960000Y-109220000D02*
X125610000Y-109220000D01*
X126210000Y-109220000D02*
X127860000Y-109220000D01*
X128460000Y-109220000D02*
X130110000Y-109220000D01*
X130710000Y-109220000D02*
X132360000Y-109220000D01*
X132960000Y-109220000D02*
X134610000Y-109220000D01*
X135210000Y-109220000D02*
X136860000Y-109220000D01*
X137460000Y-109220000D02*
X139110000Y-109220000D01*
X139710000Y-109220000D02*
X141360000Y-109220000D01*
X141960000Y-109220000D02*
X143610000Y-109220000D01*
X144210000Y-109220000D02*
X145860000Y-109220000D01*
X146460000Y-109220000D02*
X148110000Y-109220000D01*
X148710000Y-109220000D02*
X150360000Y-109220000D01*
X150960000Y-109220000D02*
X152610000Y-109220000D01*
X153210000Y-109220000D02*
X154860000Y-109220000D01*
X155460000Y-109220000D02*
X157110000Y-109220000D01*
X157710000Y-109220000D02*
X159360000Y-109220000D01*
X159960000Y-109220000D02*
X160020000Y-109220000D01*
D10*
X122961400Y-110464600D02*
X122224801Y-111201199D01*
X155930601Y-101168199D02*
X158749999Y-101168199D01*
D11*
X127000000Y-109220000D02*
X127000000Y-110870000D01*
X127000000Y-111470000D02*
X127000000Y-113120000D01*
X127000000Y-113720000D02*
X127000000Y-115370000D01*
X127000000Y-115970000D02*
X127000000Y-117620000D01*
X127000000Y-118220000D02*
X127000000Y-119870000D01*
X127000000Y-120470000D02*
X127000000Y-122120000D01*
X127000000Y-122720000D02*
X127000000Y-124370000D01*
X127000000Y-124970000D02*
X127000000Y-126620000D01*
X127000000Y-127220000D02*
X127000000Y-128870000D01*
X127000000Y-129470000D02*
X127000000Y-131120000D01*
X127000000Y-131720000D02*
X127000000Y-133370000D01*
X127000000Y-133970000D02*
X127000000Y-135620000D01*
X127000000Y-136220000D02*
X127000000Y-137870000D01*
D10*
X89611200Y-113436400D02*
X90347799Y-112699801D01*
X122961400Y-110464600D02*
X123697999Y-111201199D01*
X62280801Y-43179999D02*
X65100199Y-43179999D01*
X155422600Y-110497400D02*
X154686001Y-111233999D01*
D12*
X124151390Y-117959215D02*
X124151390Y-118911596D01*
X123579961Y-117768739D02*
X125579961Y-118435405D01*
X125579961Y-118435405D02*
X123579961Y-119102072D01*
X123579961Y-119768739D02*
X125579961Y-119768739D01*
X125579961Y-119768739D02*
X125579961Y-120244929D01*
X125579961Y-120244929D02*
X125484723Y-120530644D01*
X125484723Y-120530644D02*
X125294247Y-120721120D01*
X125294247Y-120721120D02*
X125103771Y-120816358D01*
X125103771Y-120816358D02*
X124722819Y-120911596D01*
X124722819Y-120911596D02*
X124437104Y-120911596D01*
X124437104Y-120911596D02*
X124056152Y-120816358D01*
X124056152Y-120816358D02*
X123865676Y-120721120D01*
X123865676Y-120721120D02*
X123675200Y-120530644D01*
X123675200Y-120530644D02*
X123579961Y-120244929D01*
X123579961Y-120244929D02*
X123579961Y-119768739D01*
X125579961Y-121483025D02*
X123579961Y-122149691D01*
X123579961Y-122149691D02*
X125579961Y-122816358D01*
X125579961Y-123292549D02*
X125579961Y-124625882D01*
X125579961Y-124625882D02*
X123579961Y-123768739D01*
X123579961Y-126435406D02*
X123579961Y-125292549D01*
X123579961Y-125863977D02*
X125579961Y-125863977D01*
X125579961Y-125863977D02*
X125294247Y-125673501D01*
X125294247Y-125673501D02*
X125103771Y-125483025D01*
X125103771Y-125483025D02*
X125008533Y-125292549D01*
X124722819Y-127578263D02*
X124818057Y-127387787D01*
X124818057Y-127387787D02*
X124913295Y-127292549D01*
X124913295Y-127292549D02*
X125103771Y-127197311D01*
X125103771Y-127197311D02*
X125199009Y-127197311D01*
X125199009Y-127197311D02*
X125389485Y-127292549D01*
X125389485Y-127292549D02*
X125484723Y-127387787D01*
X125484723Y-127387787D02*
X125579961Y-127578263D01*
X125579961Y-127578263D02*
X125579961Y-127959216D01*
X125579961Y-127959216D02*
X125484723Y-128149692D01*
X125484723Y-128149692D02*
X125389485Y-128244930D01*
X125389485Y-128244930D02*
X125199009Y-128340168D01*
X125199009Y-128340168D02*
X125103771Y-128340168D01*
X125103771Y-128340168D02*
X124913295Y-128244930D01*
X124913295Y-128244930D02*
X124818057Y-128149692D01*
X124818057Y-128149692D02*
X124722819Y-127959216D01*
X124722819Y-127959216D02*
X124722819Y-127578263D01*
X124722819Y-127578263D02*
X124627580Y-127387787D01*
X124627580Y-127387787D02*
X124532342Y-127292549D01*
X124532342Y-127292549D02*
X124341866Y-127197311D01*
X124341866Y-127197311D02*
X123960914Y-127197311D01*
X123960914Y-127197311D02*
X123770438Y-127292549D01*
X123770438Y-127292549D02*
X123675200Y-127387787D01*
X123675200Y-127387787D02*
X123579961Y-127578263D01*
X123579961Y-127578263D02*
X123579961Y-127959216D01*
X123579961Y-127959216D02*
X123675200Y-128149692D01*
X123675200Y-128149692D02*
X123770438Y-128244930D01*
X123770438Y-128244930D02*
X123960914Y-128340168D01*
X123960914Y-128340168D02*
X124341866Y-128340168D01*
X124341866Y-128340168D02*
X124532342Y-128244930D01*
X124532342Y-128244930D02*
X124627580Y-128149692D01*
X124627580Y-128149692D02*
X124722819Y-127959216D01*
X125579961Y-129578263D02*
X125579961Y-129768740D01*
X125579961Y-129768740D02*
X125484723Y-129959216D01*
X125484723Y-129959216D02*
X125389485Y-130054454D01*
X125389485Y-130054454D02*
X125199009Y-130149692D01*
X125199009Y-130149692D02*
X124818057Y-130244930D01*
X124818057Y-130244930D02*
X124341866Y-130244930D01*
X124341866Y-130244930D02*
X123960914Y-130149692D01*
X123960914Y-130149692D02*
X123770438Y-130054454D01*
X123770438Y-130054454D02*
X123675200Y-129959216D01*
X123675200Y-129959216D02*
X123579961Y-129768740D01*
X123579961Y-129768740D02*
X123579961Y-129578263D01*
X123579961Y-129578263D02*
X123675200Y-129387787D01*
X123675200Y-129387787D02*
X123770438Y-129292549D01*
X123770438Y-129292549D02*
X123960914Y-129197311D01*
X123960914Y-129197311D02*
X124341866Y-129102073D01*
X124341866Y-129102073D02*
X124818057Y-129102073D01*
X124818057Y-129102073D02*
X125199009Y-129197311D01*
X125199009Y-129197311D02*
X125389485Y-129292549D01*
X125389485Y-129292549D02*
X125484723Y-129387787D01*
X125484723Y-129387787D02*
X125579961Y-129578263D01*
D13*
X99498428Y-133963527D02*
X98712714Y-133963527D01*
X98712714Y-133963527D02*
X98569857Y-134034955D01*
X98569857Y-134034955D02*
X98498428Y-134177812D01*
X98498428Y-134177812D02*
X98498428Y-134463527D01*
X98498428Y-134463527D02*
X98569857Y-134606384D01*
X99427000Y-133963527D02*
X99498428Y-134106384D01*
X99498428Y-134106384D02*
X99498428Y-134463527D01*
X99498428Y-134463527D02*
X99427000Y-134606384D01*
X99427000Y-134606384D02*
X99284142Y-134677812D01*
X99284142Y-134677812D02*
X99141285Y-134677812D01*
X99141285Y-134677812D02*
X98998428Y-134606384D01*
X98998428Y-134606384D02*
X98927000Y-134463527D01*
X98927000Y-134463527D02*
X98927000Y-134106384D01*
X98927000Y-134106384D02*
X98855571Y-133963527D01*
X99498428Y-133249241D02*
X98498428Y-133249241D01*
X97998428Y-133249241D02*
X98069857Y-133320669D01*
X98069857Y-133320669D02*
X98141285Y-133249241D01*
X98141285Y-133249241D02*
X98069857Y-133177812D01*
X98069857Y-133177812D02*
X97998428Y-133249241D01*
X97998428Y-133249241D02*
X98141285Y-133249241D01*
X98498428Y-132534955D02*
X99498428Y-132534955D01*
X98641285Y-132534955D02*
X98569857Y-132463526D01*
X98569857Y-132463526D02*
X98498428Y-132320669D01*
X98498428Y-132320669D02*
X98498428Y-132106383D01*
X98498428Y-132106383D02*
X98569857Y-131963526D01*
X98569857Y-131963526D02*
X98712714Y-131892098D01*
X98712714Y-131892098D02*
X99498428Y-131892098D01*
X99498428Y-130392097D02*
X99498428Y-131249240D01*
X99498428Y-130820669D02*
X97998428Y-130820669D01*
X97998428Y-130820669D02*
X98212714Y-130963526D01*
X98212714Y-130963526D02*
X98355571Y-131106383D01*
X98355571Y-131106383D02*
X98427000Y-131249240D01*
G36*
X156331410Y-73539481D02*
G01*
X156343820Y-73551892D01*
X156369171Y-73602593D01*
X156369171Y-73686433D01*
X156343819Y-73737136D01*
X156324888Y-73756068D01*
X156274187Y-73781419D01*
X156047743Y-73781419D01*
X156047743Y-73507609D01*
X156235793Y-73507609D01*
X156331410Y-73539481D01*
G37*
G36*
X156277269Y-73056769D02*
G01*
X156296201Y-73075702D01*
X156321552Y-73126403D01*
X156321552Y-73162624D01*
X156296201Y-73213325D01*
X156277269Y-73232258D01*
X156226568Y-73257609D01*
X156047743Y-73257609D01*
X156047743Y-73031419D01*
X156226568Y-73031419D01*
X156277269Y-73056769D01*
G37*
G36*
X158998077Y-73063291D02*
G01*
X159058105Y-73123319D01*
X159090516Y-73188142D01*
X159131076Y-73350379D01*
X159131076Y-73462458D01*
X159090516Y-73624694D01*
X159058106Y-73689515D01*
X158998076Y-73749546D01*
X158902460Y-73781419D01*
X158809648Y-73781419D01*
X158809648Y-73031419D01*
X158902460Y-73031419D01*
X158998077Y-73063291D01*
G37*
G36*
X158086793Y-73056769D02*
G01*
X158105725Y-73075702D01*
X158131076Y-73126403D01*
X158131076Y-73210243D01*
X158105725Y-73260944D01*
X158086793Y-73279877D01*
X158036092Y-73305228D01*
X157809648Y-73305228D01*
X157809648Y-73031419D01*
X158036092Y-73031419D01*
X158086793Y-73056769D01*
G37*
G36*
X159506076Y-74156419D02*
G01*
X153672743Y-74156419D01*
X153672743Y-72906419D01*
X153797743Y-72906419D01*
X153797743Y-73715942D01*
X153798345Y-73728194D01*
X153799210Y-73732547D01*
X153799526Y-73736982D01*
X153801595Y-73744539D01*
X153803125Y-73752228D01*
X153804826Y-73756336D01*
X153805999Y-73760616D01*
X153810940Y-73771844D01*
X153858558Y-73867081D01*
X153859736Y-73869173D01*
X153860121Y-73870103D01*
X153860998Y-73871416D01*
X153864576Y-73877771D01*
X153869384Y-73883966D01*
X153873735Y-73890478D01*
X153878622Y-73895869D01*
X153879600Y-73897130D01*
X153880367Y-73897795D01*
X153881973Y-73899567D01*
X153929592Y-73947187D01*
X153931364Y-73948793D01*
X153932031Y-73949562D01*
X153933292Y-73950540D01*
X153938681Y-73955425D01*
X153945192Y-73959776D01*
X153951390Y-73964586D01*
X153957733Y-73968156D01*
X153959055Y-73969040D01*
X153959991Y-73969427D01*
X153962079Y-73970603D01*
X154057317Y-74018222D01*
X154068545Y-74023163D01*
X154072824Y-74024335D01*
X154076933Y-74026037D01*
X154084621Y-74027566D01*
X154092179Y-74029636D01*
X154096613Y-74029951D01*
X154100967Y-74030817D01*
X154113219Y-74031419D01*
X154303695Y-74031419D01*
X154315947Y-74030817D01*
X154320300Y-74029951D01*
X154324735Y-74029636D01*
X154332292Y-74027566D01*
X154339981Y-74026037D01*
X154344089Y-74024335D01*
X154348369Y-74023163D01*
X154359597Y-74018222D01*
X154454834Y-73970604D01*
X154456925Y-73969426D01*
X154457859Y-73969040D01*
X154459178Y-73968158D01*
X154465524Y-73964586D01*
X154471721Y-73959776D01*
X154478233Y-73955425D01*
X154483621Y-73950540D01*
X154484883Y-73949562D01*
X154485549Y-73948793D01*
X154487322Y-73947187D01*
X154534941Y-73899568D01*
X154536549Y-73897792D01*
X154537314Y-73897130D01*
X154538288Y-73895874D01*
X154543179Y-73890478D01*
X154547531Y-73883964D01*
X154552338Y-73877771D01*
X154555910Y-73871425D01*
X154556793Y-73870104D01*
X154557180Y-73869168D01*
X154558355Y-73867082D01*
X154605974Y-73771844D01*
X154610915Y-73760616D01*
X154612087Y-73756336D01*
X154613789Y-73752228D01*
X154615318Y-73744539D01*
X154617388Y-73736982D01*
X154617703Y-73732547D01*
X154618569Y-73728194D01*
X154619171Y-73715942D01*
X154619171Y-73096895D01*
X154797743Y-73096895D01*
X154797743Y-73192133D01*
X154798345Y-73204385D01*
X154799210Y-73208738D01*
X154799526Y-73213173D01*
X154801595Y-73220730D01*
X154803125Y-73228419D01*
X154804826Y-73232527D01*
X154805999Y-73236807D01*
X154810940Y-73248035D01*
X154858558Y-73343272D01*
X154859732Y-73345359D01*
X154860121Y-73346296D01*
X154861005Y-73347619D01*
X154864576Y-73353962D01*
X154869382Y-73360155D01*
X154873736Y-73366670D01*
X154878621Y-73372060D01*
X154879600Y-73373321D01*
X154880367Y-73373986D01*
X154881974Y-73375759D01*
X154929592Y-73423378D01*
X154931368Y-73424988D01*
X154932031Y-73425752D01*
X154933284Y-73426725D01*
X154938681Y-73431616D01*
X154945197Y-73435969D01*
X154951390Y-73440776D01*
X154957738Y-73444349D01*
X154959056Y-73445230D01*
X154959988Y-73445616D01*
X154962079Y-73446793D01*
X155057317Y-73494412D01*
X155068545Y-73499353D01*
X155069896Y-73499723D01*
X155071162Y-73500321D01*
X155082902Y-73503877D01*
X155260068Y-73548168D01*
X155324888Y-73580578D01*
X155343820Y-73599511D01*
X155369171Y-73650212D01*
X155369171Y-73686433D01*
X155343819Y-73737136D01*
X155324888Y-73756068D01*
X155274187Y-73781419D01*
X155085886Y-73781419D01*
X154962271Y-73740215D01*
X154950458Y-73736911D01*
X154926146Y-73733846D01*
X154901703Y-73735583D01*
X154878069Y-73742056D01*
X154856152Y-73753015D01*
X154836794Y-73768038D01*
X154820738Y-73786550D01*
X154808603Y-73807839D01*
X154800854Y-73831085D01*
X154797789Y-73855397D01*
X154799526Y-73879840D01*
X154805999Y-73903474D01*
X154816958Y-73925391D01*
X154831981Y-73944749D01*
X154850493Y-73960805D01*
X154871782Y-73972940D01*
X154883215Y-73977385D01*
X155026071Y-74025004D01*
X155028377Y-74025649D01*
X155029314Y-74026037D01*
X155030874Y-74026347D01*
X155037885Y-74028308D01*
X155045662Y-74029288D01*
X155053348Y-74030817D01*
X155060621Y-74031174D01*
X155062197Y-74031373D01*
X155063205Y-74031301D01*
X155065600Y-74031419D01*
X155303695Y-74031419D01*
X155315947Y-74030817D01*
X155320300Y-74029951D01*
X155324735Y-74029636D01*
X155332292Y-74027566D01*
X155339981Y-74026037D01*
X155344089Y-74024335D01*
X155348369Y-74023163D01*
X155359597Y-74018222D01*
X155454834Y-73970604D01*
X155456925Y-73969426D01*
X155457859Y-73969040D01*
X155459178Y-73968158D01*
X155465524Y-73964586D01*
X155471721Y-73959776D01*
X155478233Y-73955425D01*
X155483621Y-73950540D01*
X155484883Y-73949562D01*
X155485549Y-73948793D01*
X155487322Y-73947187D01*
X155534941Y-73899568D01*
X155536549Y-73897792D01*
X155537314Y-73897130D01*
X155538288Y-73895874D01*
X155543179Y-73890478D01*
X155547531Y-73883964D01*
X155552338Y-73877771D01*
X155555910Y-73871425D01*
X155556793Y-73870104D01*
X155557180Y-73869168D01*
X155558355Y-73867082D01*
X155605974Y-73771844D01*
X155610915Y-73760616D01*
X155612087Y-73756336D01*
X155613789Y-73752228D01*
X155615318Y-73744539D01*
X155617388Y-73736982D01*
X155617703Y-73732547D01*
X155618569Y-73728194D01*
X155619171Y-73715942D01*
X155619171Y-73620704D01*
X155618569Y-73608452D01*
X155617703Y-73604098D01*
X155617388Y-73599664D01*
X155615318Y-73592106D01*
X155613789Y-73584418D01*
X155612087Y-73580309D01*
X155610915Y-73576030D01*
X155605974Y-73564802D01*
X155558355Y-73469564D01*
X155557178Y-73467473D01*
X155556792Y-73466541D01*
X155555911Y-73465223D01*
X155552338Y-73458875D01*
X155547531Y-73452682D01*
X155543178Y-73446166D01*
X155538287Y-73440769D01*
X155537314Y-73439516D01*
X155536550Y-73438853D01*
X155534940Y-73437077D01*
X155487321Y-73389459D01*
X155485548Y-73387852D01*
X155484883Y-73387085D01*
X155483622Y-73386106D01*
X155478232Y-73381221D01*
X155471717Y-73376867D01*
X155465524Y-73372061D01*
X155459181Y-73368490D01*
X155457858Y-73367606D01*
X155456921Y-73367217D01*
X155454834Y-73366043D01*
X155359597Y-73318425D01*
X155348369Y-73313484D01*
X155347017Y-73313113D01*
X155345752Y-73312516D01*
X155334012Y-73308960D01*
X155156847Y-73264668D01*
X155092026Y-73232258D01*
X155073093Y-73213326D01*
X155047743Y-73162625D01*
X155047743Y-73126403D01*
X155073093Y-73075701D01*
X155092026Y-73056769D01*
X155142728Y-73031419D01*
X155331031Y-73031419D01*
X155454642Y-73072623D01*
X155466456Y-73075927D01*
X155490768Y-73078992D01*
X155515211Y-73077254D01*
X155538844Y-73070782D01*
X155560761Y-73059823D01*
X155580120Y-73044800D01*
X155596175Y-73026288D01*
X155608310Y-73004999D01*
X155616059Y-72981753D01*
X155619125Y-72957440D01*
X155617387Y-72932998D01*
X155610915Y-72909364D01*
X155609442Y-72906419D01*
X155797743Y-72906419D01*
X155797743Y-73906419D01*
X155798345Y-73918671D01*
X155803125Y-73942705D01*
X155812503Y-73965344D01*
X155826117Y-73985718D01*
X155843444Y-74003045D01*
X155863818Y-74016659D01*
X155886457Y-74026037D01*
X155910491Y-74030817D01*
X155922743Y-74031419D01*
X156303695Y-74031419D01*
X156315947Y-74030817D01*
X156320300Y-74029951D01*
X156324735Y-74029636D01*
X156332292Y-74027566D01*
X156339981Y-74026037D01*
X156344089Y-74024335D01*
X156348369Y-74023163D01*
X156359597Y-74018222D01*
X156454834Y-73970604D01*
X156456925Y-73969426D01*
X156457859Y-73969040D01*
X156459178Y-73968158D01*
X156465524Y-73964586D01*
X156471721Y-73959776D01*
X156478233Y-73955425D01*
X156483621Y-73950540D01*
X156484883Y-73949562D01*
X156485549Y-73948793D01*
X156487322Y-73947187D01*
X156534941Y-73899568D01*
X156536549Y-73897792D01*
X156537314Y-73897130D01*
X156538288Y-73895874D01*
X156543179Y-73890478D01*
X156547531Y-73883964D01*
X156552338Y-73877771D01*
X156555910Y-73871425D01*
X156556793Y-73870104D01*
X156557180Y-73869168D01*
X156558355Y-73867082D01*
X156605974Y-73771844D01*
X156610915Y-73760616D01*
X156612087Y-73756336D01*
X156613789Y-73752228D01*
X156615318Y-73744539D01*
X156617388Y-73736982D01*
X156617703Y-73732547D01*
X156618569Y-73728194D01*
X156619171Y-73715942D01*
X156619171Y-73573085D01*
X156618569Y-73560833D01*
X156617703Y-73556479D01*
X156617388Y-73552045D01*
X156615318Y-73544487D01*
X156613789Y-73536799D01*
X156612087Y-73532690D01*
X156610915Y-73528411D01*
X156605974Y-73517183D01*
X156558355Y-73421945D01*
X156557178Y-73419854D01*
X156556792Y-73418922D01*
X156555911Y-73417604D01*
X156552338Y-73411256D01*
X156547531Y-73405063D01*
X156543178Y-73398547D01*
X156538287Y-73393150D01*
X156537314Y-73391897D01*
X156536550Y-73391234D01*
X156534940Y-73389458D01*
X156502413Y-73356932D01*
X156504719Y-73353962D01*
X156508292Y-73347613D01*
X156509173Y-73346296D01*
X156509559Y-73345363D01*
X156510736Y-73343273D01*
X156558355Y-73248035D01*
X156563296Y-73236807D01*
X156564468Y-73232527D01*
X156566170Y-73228419D01*
X156567699Y-73220730D01*
X156569769Y-73213173D01*
X156570084Y-73208738D01*
X156570950Y-73204385D01*
X156571552Y-73192133D01*
X156571552Y-73096895D01*
X156570950Y-73084643D01*
X156570084Y-73080289D01*
X156569769Y-73075855D01*
X156567699Y-73068297D01*
X156566170Y-73060609D01*
X156564468Y-73056500D01*
X156563296Y-73052221D01*
X156558355Y-73040993D01*
X156510736Y-72945755D01*
X156509559Y-72943664D01*
X156509173Y-72942732D01*
X156508292Y-72941414D01*
X156504719Y-72935066D01*
X156499912Y-72928873D01*
X156495559Y-72922357D01*
X156490668Y-72916960D01*
X156489695Y-72915707D01*
X156488931Y-72915044D01*
X156487321Y-72913268D01*
X156480472Y-72906419D01*
X157559648Y-72906419D01*
X157559648Y-73906419D01*
X157560250Y-73918671D01*
X157565030Y-73942705D01*
X157574408Y-73965344D01*
X157588022Y-73985718D01*
X157605349Y-74003045D01*
X157625723Y-74016659D01*
X157648362Y-74026037D01*
X157672396Y-74030817D01*
X157696900Y-74030817D01*
X157720934Y-74026037D01*
X157743573Y-74016659D01*
X157763947Y-74003045D01*
X157781274Y-73985718D01*
X157794888Y-73965344D01*
X157804266Y-73942705D01*
X157809046Y-73918671D01*
X157809648Y-73906419D01*
X157809648Y-73555228D01*
X158065600Y-73555228D01*
X158077852Y-73554626D01*
X158082205Y-73553760D01*
X158086640Y-73553445D01*
X158094197Y-73551375D01*
X158101886Y-73549846D01*
X158105994Y-73548144D01*
X158110274Y-73546972D01*
X158121502Y-73542031D01*
X158216739Y-73494413D01*
X158218826Y-73493238D01*
X158219763Y-73492850D01*
X158221086Y-73491965D01*
X158227429Y-73488395D01*
X158233622Y-73483588D01*
X158240137Y-73479235D01*
X158245527Y-73474349D01*
X158246788Y-73473371D01*
X158247453Y-73472603D01*
X158249226Y-73470997D01*
X158296845Y-73423379D01*
X158298455Y-73421602D01*
X158299219Y-73420940D01*
X158300192Y-73419686D01*
X158305083Y-73414290D01*
X158309436Y-73407773D01*
X158314243Y-73401581D01*
X158317816Y-73395232D01*
X158318697Y-73393915D01*
X158319083Y-73392982D01*
X158320260Y-73390892D01*
X158367879Y-73295654D01*
X158372820Y-73284426D01*
X158373992Y-73280146D01*
X158375694Y-73276038D01*
X158377223Y-73268349D01*
X158379293Y-73260792D01*
X158379608Y-73256357D01*
X158380474Y-73252004D01*
X158381076Y-73239752D01*
X158381076Y-73096895D01*
X158380474Y-73084643D01*
X158379608Y-73080289D01*
X158379293Y-73075855D01*
X158377223Y-73068297D01*
X158375694Y-73060609D01*
X158373992Y-73056500D01*
X158372820Y-73052221D01*
X158367879Y-73040993D01*
X158320260Y-72945755D01*
X158319083Y-72943664D01*
X158318697Y-72942732D01*
X158317816Y-72941414D01*
X158314243Y-72935066D01*
X158309436Y-72928873D01*
X158305083Y-72922357D01*
X158300192Y-72916960D01*
X158299219Y-72915707D01*
X158298455Y-72915044D01*
X158296845Y-72913268D01*
X158289996Y-72906419D01*
X158559648Y-72906419D01*
X158559648Y-73906419D01*
X158560250Y-73918671D01*
X158565030Y-73942705D01*
X158574408Y-73965344D01*
X158588022Y-73985718D01*
X158605349Y-74003045D01*
X158625723Y-74016659D01*
X158648362Y-74026037D01*
X158672396Y-74030817D01*
X158684648Y-74031419D01*
X158922743Y-74031419D01*
X158925137Y-74031301D01*
X158926146Y-74031373D01*
X158927721Y-74031174D01*
X158934995Y-74030817D01*
X158942680Y-74029288D01*
X158950458Y-74028308D01*
X158957466Y-74026347D01*
X158959029Y-74026037D01*
X158959967Y-74025648D01*
X158962271Y-74025004D01*
X159105128Y-73977386D01*
X159116561Y-73972940D01*
X159120419Y-73970740D01*
X159124525Y-73969040D01*
X159131040Y-73964686D01*
X159137850Y-73960805D01*
X159141206Y-73957894D01*
X159144900Y-73955426D01*
X159153989Y-73947188D01*
X159249227Y-73851949D01*
X159250835Y-73850173D01*
X159251600Y-73849511D01*
X159252574Y-73848255D01*
X159257465Y-73842859D01*
X159261817Y-73836345D01*
X159266624Y-73830152D01*
X159270196Y-73823806D01*
X159271079Y-73822485D01*
X159271466Y-73821549D01*
X159272641Y-73819463D01*
X159320260Y-73724225D01*
X159325201Y-73712997D01*
X159325571Y-73711645D01*
X159326169Y-73710380D01*
X159329725Y-73698640D01*
X159377344Y-73508164D01*
X159379731Y-73496132D01*
X159379879Y-73493089D01*
X159380474Y-73490099D01*
X159381076Y-73477847D01*
X159381076Y-73334990D01*
X159380474Y-73322738D01*
X159379879Y-73319747D01*
X159379731Y-73316705D01*
X159377344Y-73304673D01*
X159329725Y-73114197D01*
X159326169Y-73102457D01*
X159325571Y-73101191D01*
X159325201Y-73099840D01*
X159320260Y-73088612D01*
X159272641Y-72993374D01*
X159271467Y-72991290D01*
X159271079Y-72990351D01*
X159270192Y-72989024D01*
X159266624Y-72982685D01*
X159261817Y-72976491D01*
X159257464Y-72969977D01*
X159252578Y-72964586D01*
X159251600Y-72963326D01*
X159250832Y-72962660D01*
X159249226Y-72960888D01*
X159153988Y-72865650D01*
X159144899Y-72857412D01*
X159141207Y-72854945D01*
X159137850Y-72852033D01*
X159131045Y-72848154D01*
X159124525Y-72843797D01*
X159120414Y-72842094D01*
X159116561Y-72839898D01*
X159105128Y-72835452D01*
X158962271Y-72787834D01*
X158959967Y-72787189D01*
X158959029Y-72786801D01*
X158957466Y-72786490D01*
X158950458Y-72784530D01*
X158942680Y-72783549D01*
X158934995Y-72782021D01*
X158927721Y-72781663D01*
X158926146Y-72781465D01*
X158925137Y-72781536D01*
X158922743Y-72781419D01*
X158684648Y-72781419D01*
X158672396Y-72782021D01*
X158648362Y-72786801D01*
X158625723Y-72796179D01*
X158605349Y-72809793D01*
X158588022Y-72827120D01*
X158574408Y-72847494D01*
X158565030Y-72870133D01*
X158560250Y-72894167D01*
X158559648Y-72906419D01*
X158289996Y-72906419D01*
X158249226Y-72865650D01*
X158247453Y-72864043D01*
X158246788Y-72863276D01*
X158245527Y-72862297D01*
X158240137Y-72857412D01*
X158233622Y-72853058D01*
X158227429Y-72848252D01*
X158221086Y-72844681D01*
X158219763Y-72843797D01*
X158218826Y-72843408D01*
X158216739Y-72842234D01*
X158121502Y-72794616D01*
X158110274Y-72789675D01*
X158105994Y-72788502D01*
X158101886Y-72786801D01*
X158094197Y-72785271D01*
X158086640Y-72783202D01*
X158082205Y-72782886D01*
X158077852Y-72782021D01*
X158065600Y-72781419D01*
X157684648Y-72781419D01*
X157672396Y-72782021D01*
X157648362Y-72786801D01*
X157625723Y-72796179D01*
X157605349Y-72809793D01*
X157588022Y-72827120D01*
X157574408Y-72847494D01*
X157565030Y-72870133D01*
X157560250Y-72894167D01*
X157559648Y-72906419D01*
X156480472Y-72906419D01*
X156439702Y-72865650D01*
X156437929Y-72864043D01*
X156437264Y-72863276D01*
X156436003Y-72862297D01*
X156430613Y-72857412D01*
X156424098Y-72853058D01*
X156417905Y-72848252D01*
X156411562Y-72844681D01*
X156410239Y-72843797D01*
X156409302Y-72843408D01*
X156407215Y-72842234D01*
X156311978Y-72794616D01*
X156300750Y-72789675D01*
X156296470Y-72788502D01*
X156292362Y-72786801D01*
X156284673Y-72785271D01*
X156277116Y-72783202D01*
X156272681Y-72782886D01*
X156268328Y-72782021D01*
X156256076Y-72781419D01*
X155922743Y-72781419D01*
X155910491Y-72782021D01*
X155886457Y-72786801D01*
X155863818Y-72796179D01*
X155843444Y-72809793D01*
X155826117Y-72827120D01*
X155812503Y-72847494D01*
X155803125Y-72870133D01*
X155798345Y-72894167D01*
X155797743Y-72906419D01*
X155609442Y-72906419D01*
X155599956Y-72887447D01*
X155584933Y-72868089D01*
X155566421Y-72852033D01*
X155545132Y-72839898D01*
X155533699Y-72835452D01*
X155390842Y-72787834D01*
X155388538Y-72787189D01*
X155387600Y-72786801D01*
X155386037Y-72786490D01*
X155379029Y-72784530D01*
X155371251Y-72783549D01*
X155363566Y-72782021D01*
X155356292Y-72781663D01*
X155354717Y-72781465D01*
X155353708Y-72781536D01*
X155351314Y-72781419D01*
X155113219Y-72781419D01*
X155100967Y-72782021D01*
X155096613Y-72782886D01*
X155092179Y-72783202D01*
X155084621Y-72785271D01*
X155076933Y-72786801D01*
X155072824Y-72788502D01*
X155068545Y-72789675D01*
X155057317Y-72794616D01*
X154962079Y-72842235D01*
X154959988Y-72843411D01*
X154959056Y-72843798D01*
X154957738Y-72844678D01*
X154951390Y-72848252D01*
X154945197Y-72853058D01*
X154938681Y-72857412D01*
X154933284Y-72862302D01*
X154932031Y-72863276D01*
X154931368Y-72864039D01*
X154929592Y-72865650D01*
X154881974Y-72913269D01*
X154880367Y-72915041D01*
X154879600Y-72915707D01*
X154878621Y-72916967D01*
X154873736Y-72922358D01*
X154869382Y-72928872D01*
X154864576Y-72935066D01*
X154861005Y-72941408D01*
X154860121Y-72942732D01*
X154859732Y-72943668D01*
X154858558Y-72945756D01*
X154810940Y-73040993D01*
X154805999Y-73052221D01*
X154804826Y-73056500D01*
X154803125Y-73060609D01*
X154801595Y-73068297D01*
X154799526Y-73075855D01*
X154799210Y-73080289D01*
X154798345Y-73084643D01*
X154797743Y-73096895D01*
X154619171Y-73096895D01*
X154619171Y-72906419D01*
X154618569Y-72894167D01*
X154613789Y-72870133D01*
X154604411Y-72847494D01*
X154590797Y-72827120D01*
X154573470Y-72809793D01*
X154553096Y-72796179D01*
X154530457Y-72786801D01*
X154506423Y-72782021D01*
X154481919Y-72782021D01*
X154457885Y-72786801D01*
X154435246Y-72796179D01*
X154414872Y-72809793D01*
X154397545Y-72827120D01*
X154383931Y-72847494D01*
X154374553Y-72870133D01*
X154369773Y-72894167D01*
X154369171Y-72906419D01*
X154369171Y-73686433D01*
X154343819Y-73737136D01*
X154324888Y-73756068D01*
X154274187Y-73781419D01*
X154142728Y-73781419D01*
X154092026Y-73756068D01*
X154073094Y-73737136D01*
X154047743Y-73686434D01*
X154047743Y-72906419D01*
X154047141Y-72894167D01*
X154042361Y-72870133D01*
X154032983Y-72847494D01*
X154019369Y-72827120D01*
X154002042Y-72809793D01*
X153981668Y-72796179D01*
X153959029Y-72786801D01*
X153934995Y-72782021D01*
X153910491Y-72782021D01*
X153886457Y-72786801D01*
X153863818Y-72796179D01*
X153843444Y-72809793D01*
X153826117Y-72827120D01*
X153812503Y-72847494D01*
X153803125Y-72870133D01*
X153798345Y-72894167D01*
X153797743Y-72906419D01*
X153672743Y-72906419D01*
X153672743Y-72656419D01*
X159506076Y-72656419D01*
X159506076Y-74156419D01*
G37*
D12*
X131084605Y-129740838D02*
X131465558Y-129740838D01*
X131465558Y-129740838D02*
X131656034Y-129836076D01*
X131656034Y-129836076D02*
X131846510Y-130026552D01*
X131846510Y-130026552D02*
X131941748Y-130407504D01*
X131941748Y-130407504D02*
X131941748Y-131074171D01*
X131941748Y-131074171D02*
X131846510Y-131455123D01*
X131846510Y-131455123D02*
X131656034Y-131645600D01*
X131656034Y-131645600D02*
X131465558Y-131740838D01*
X131465558Y-131740838D02*
X131084605Y-131740838D01*
X131084605Y-131740838D02*
X130894129Y-131645600D01*
X130894129Y-131645600D02*
X130703653Y-131455123D01*
X130703653Y-131455123D02*
X130608415Y-131074171D01*
X130608415Y-131074171D02*
X130608415Y-130407504D01*
X130608415Y-130407504D02*
X130703653Y-130026552D01*
X130703653Y-130026552D02*
X130894129Y-129836076D01*
X130894129Y-129836076D02*
X131084605Y-129740838D01*
X132513177Y-129740838D02*
X133179843Y-131740838D01*
X133179843Y-131740838D02*
X133846510Y-129740838D01*
X134322701Y-129740838D02*
X135656034Y-129740838D01*
X135656034Y-129740838D02*
X134798891Y-131740838D01*
X136227463Y-129740838D02*
X137560796Y-129740838D01*
X137560796Y-129740838D02*
X136703653Y-131740838D01*
X138227463Y-129931314D02*
X138322701Y-129836076D01*
X138322701Y-129836076D02*
X138513177Y-129740838D01*
X138513177Y-129740838D02*
X138989368Y-129740838D01*
X138989368Y-129740838D02*
X139179844Y-129836076D01*
X139179844Y-129836076D02*
X139275082Y-129931314D01*
X139275082Y-129931314D02*
X139370320Y-130121790D01*
X139370320Y-130121790D02*
X139370320Y-130312266D01*
X139370320Y-130312266D02*
X139275082Y-130597980D01*
X139275082Y-130597980D02*
X138132225Y-131740838D01*
X138132225Y-131740838D02*
X139370320Y-131740838D01*
X141179844Y-129740838D02*
X140227463Y-129740838D01*
X140227463Y-129740838D02*
X140132225Y-130693219D01*
X140132225Y-130693219D02*
X140227463Y-130597980D01*
X140227463Y-130597980D02*
X140417939Y-130502742D01*
X140417939Y-130502742D02*
X140894130Y-130502742D01*
X140894130Y-130502742D02*
X141084606Y-130597980D01*
X141084606Y-130597980D02*
X141179844Y-130693219D01*
X141179844Y-130693219D02*
X141275082Y-130883695D01*
X141275082Y-130883695D02*
X141275082Y-131359885D01*
X141275082Y-131359885D02*
X141179844Y-131550361D01*
X141179844Y-131550361D02*
X141084606Y-131645600D01*
X141084606Y-131645600D02*
X140894130Y-131740838D01*
X140894130Y-131740838D02*
X140417939Y-131740838D01*
X140417939Y-131740838D02*
X140227463Y-131645600D01*
X140227463Y-131645600D02*
X140132225Y-131550361D01*
D13*
X115905428Y-133892098D02*
X115905428Y-134606384D01*
X115905428Y-134606384D02*
X116619714Y-134677812D01*
X116619714Y-134677812D02*
X116548285Y-134606384D01*
X116548285Y-134606384D02*
X116476857Y-134463527D01*
X116476857Y-134463527D02*
X116476857Y-134106384D01*
X116476857Y-134106384D02*
X116548285Y-133963527D01*
X116548285Y-133963527D02*
X116619714Y-133892098D01*
X116619714Y-133892098D02*
X116762571Y-133820669D01*
X116762571Y-133820669D02*
X117119714Y-133820669D01*
X117119714Y-133820669D02*
X117262571Y-133892098D01*
X117262571Y-133892098D02*
X117334000Y-133963527D01*
X117334000Y-133963527D02*
X117405428Y-134106384D01*
X117405428Y-134106384D02*
X117405428Y-134463527D01*
X117405428Y-134463527D02*
X117334000Y-134606384D01*
X117334000Y-134606384D02*
X117262571Y-134677812D01*
X116405428Y-133320670D02*
X117405428Y-132963527D01*
X117405428Y-132963527D02*
X116405428Y-132606384D01*
X121485428Y-133963527D02*
X122699714Y-133963527D01*
X122699714Y-133963527D02*
X122842571Y-134034955D01*
X122842571Y-134034955D02*
X122914000Y-134106384D01*
X122914000Y-134106384D02*
X122985428Y-134249241D01*
X122985428Y-134249241D02*
X122985428Y-134463527D01*
X122985428Y-134463527D02*
X122914000Y-134606384D01*
X122414000Y-133963527D02*
X122485428Y-134106384D01*
X122485428Y-134106384D02*
X122485428Y-134392098D01*
X122485428Y-134392098D02*
X122414000Y-134534955D01*
X122414000Y-134534955D02*
X122342571Y-134606384D01*
X122342571Y-134606384D02*
X122199714Y-134677812D01*
X122199714Y-134677812D02*
X121771142Y-134677812D01*
X121771142Y-134677812D02*
X121628285Y-134606384D01*
X121628285Y-134606384D02*
X121556857Y-134534955D01*
X121556857Y-134534955D02*
X121485428Y-134392098D01*
X121485428Y-134392098D02*
X121485428Y-134106384D01*
X121485428Y-134106384D02*
X121556857Y-133963527D01*
X121485428Y-133249241D02*
X122485428Y-133249241D01*
X121628285Y-133249241D02*
X121556857Y-133177812D01*
X121556857Y-133177812D02*
X121485428Y-133034955D01*
X121485428Y-133034955D02*
X121485428Y-132820669D01*
X121485428Y-132820669D02*
X121556857Y-132677812D01*
X121556857Y-132677812D02*
X121699714Y-132606384D01*
X121699714Y-132606384D02*
X122485428Y-132606384D01*
X122485428Y-131249241D02*
X120985428Y-131249241D01*
X122414000Y-131249241D02*
X122485428Y-131392098D01*
X122485428Y-131392098D02*
X122485428Y-131677812D01*
X122485428Y-131677812D02*
X122414000Y-131820669D01*
X122414000Y-131820669D02*
X122342571Y-131892098D01*
X122342571Y-131892098D02*
X122199714Y-131963526D01*
X122199714Y-131963526D02*
X121771142Y-131963526D01*
X121771142Y-131963526D02*
X121628285Y-131892098D01*
X121628285Y-131892098D02*
X121556857Y-131820669D01*
X121556857Y-131820669D02*
X121485428Y-131677812D01*
X121485428Y-131677812D02*
X121485428Y-131392098D01*
X121485428Y-131392098D02*
X121556857Y-131249241D01*
X101038428Y-133963527D02*
X102252714Y-133963527D01*
X102252714Y-133963527D02*
X102395571Y-134034955D01*
X102395571Y-134034955D02*
X102467000Y-134106384D01*
X102467000Y-134106384D02*
X102538428Y-134249241D01*
X102538428Y-134249241D02*
X102538428Y-134463527D01*
X102538428Y-134463527D02*
X102467000Y-134606384D01*
X101967000Y-133963527D02*
X102038428Y-134106384D01*
X102038428Y-134106384D02*
X102038428Y-134392098D01*
X102038428Y-134392098D02*
X101967000Y-134534955D01*
X101967000Y-134534955D02*
X101895571Y-134606384D01*
X101895571Y-134606384D02*
X101752714Y-134677812D01*
X101752714Y-134677812D02*
X101324142Y-134677812D01*
X101324142Y-134677812D02*
X101181285Y-134606384D01*
X101181285Y-134606384D02*
X101109857Y-134534955D01*
X101109857Y-134534955D02*
X101038428Y-134392098D01*
X101038428Y-134392098D02*
X101038428Y-134106384D01*
X101038428Y-134106384D02*
X101109857Y-133963527D01*
X101038428Y-133249241D02*
X102038428Y-133249241D01*
X101181285Y-133249241D02*
X101109857Y-133177812D01*
X101109857Y-133177812D02*
X101038428Y-133034955D01*
X101038428Y-133034955D02*
X101038428Y-132820669D01*
X101038428Y-132820669D02*
X101109857Y-132677812D01*
X101109857Y-132677812D02*
X101252714Y-132606384D01*
X101252714Y-132606384D02*
X102038428Y-132606384D01*
X102038428Y-131249241D02*
X100538428Y-131249241D01*
X101967000Y-131249241D02*
X102038428Y-131392098D01*
X102038428Y-131392098D02*
X102038428Y-131677812D01*
X102038428Y-131677812D02*
X101967000Y-131820669D01*
X101967000Y-131820669D02*
X101895571Y-131892098D01*
X101895571Y-131892098D02*
X101752714Y-131963526D01*
X101752714Y-131963526D02*
X101324142Y-131963526D01*
X101324142Y-131963526D02*
X101181285Y-131892098D01*
X101181285Y-131892098D02*
X101109857Y-131820669D01*
X101109857Y-131820669D02*
X101038428Y-131677812D01*
X101038428Y-131677812D02*
X101038428Y-131392098D01*
X101038428Y-131392098D02*
X101109857Y-131249241D01*
X119945428Y-133963527D02*
X119159714Y-133963527D01*
X119159714Y-133963527D02*
X119016857Y-134034955D01*
X119016857Y-134034955D02*
X118945428Y-134177812D01*
X118945428Y-134177812D02*
X118945428Y-134463527D01*
X118945428Y-134463527D02*
X119016857Y-134606384D01*
X119874000Y-133963527D02*
X119945428Y-134106384D01*
X119945428Y-134106384D02*
X119945428Y-134463527D01*
X119945428Y-134463527D02*
X119874000Y-134606384D01*
X119874000Y-134606384D02*
X119731142Y-134677812D01*
X119731142Y-134677812D02*
X119588285Y-134677812D01*
X119588285Y-134677812D02*
X119445428Y-134606384D01*
X119445428Y-134606384D02*
X119374000Y-134463527D01*
X119374000Y-134463527D02*
X119374000Y-134106384D01*
X119374000Y-134106384D02*
X119302571Y-133963527D01*
X119945428Y-133249241D02*
X118945428Y-133249241D01*
X118445428Y-133249241D02*
X118516857Y-133320669D01*
X118516857Y-133320669D02*
X118588285Y-133249241D01*
X118588285Y-133249241D02*
X118516857Y-133177812D01*
X118516857Y-133177812D02*
X118445428Y-133249241D01*
X118445428Y-133249241D02*
X118588285Y-133249241D01*
X118945428Y-132534955D02*
X119945428Y-132534955D01*
X119088285Y-132534955D02*
X119016857Y-132463526D01*
X119016857Y-132463526D02*
X118945428Y-132320669D01*
X118945428Y-132320669D02*
X118945428Y-132106383D01*
X118945428Y-132106383D02*
X119016857Y-131963526D01*
X119016857Y-131963526D02*
X119159714Y-131892098D01*
X119159714Y-131892098D02*
X119945428Y-131892098D01*
X118588285Y-131249240D02*
X118516857Y-131177812D01*
X118516857Y-131177812D02*
X118445428Y-131034955D01*
X118445428Y-131034955D02*
X118445428Y-130677812D01*
X118445428Y-130677812D02*
X118516857Y-130534955D01*
X118516857Y-130534955D02*
X118588285Y-130463526D01*
X118588285Y-130463526D02*
X118731142Y-130392097D01*
X118731142Y-130392097D02*
X118874000Y-130392097D01*
X118874000Y-130392097D02*
X119088285Y-130463526D01*
X119088285Y-130463526D02*
X119945428Y-131320669D01*
X119945428Y-131320669D02*
X119945428Y-130392097D01*
X156918428Y-135257241D02*
X157918428Y-134900098D01*
X157918428Y-134900098D02*
X156918428Y-134542955D01*
X157847000Y-133328670D02*
X157918428Y-133471527D01*
X157918428Y-133471527D02*
X157918428Y-133757241D01*
X157918428Y-133757241D02*
X157847000Y-133900098D01*
X157847000Y-133900098D02*
X157775571Y-133971527D01*
X157775571Y-133971527D02*
X157632714Y-134042955D01*
X157632714Y-134042955D02*
X157204142Y-134042955D01*
X157204142Y-134042955D02*
X157061285Y-133971527D01*
X157061285Y-133971527D02*
X156989857Y-133900098D01*
X156989857Y-133900098D02*
X156918428Y-133757241D01*
X156918428Y-133757241D02*
X156918428Y-133471527D01*
X156918428Y-133471527D02*
X156989857Y-133328670D01*
X157847000Y-132042956D02*
X157918428Y-132185813D01*
X157918428Y-132185813D02*
X157918428Y-132471527D01*
X157918428Y-132471527D02*
X157847000Y-132614384D01*
X157847000Y-132614384D02*
X157775571Y-132685813D01*
X157775571Y-132685813D02*
X157632714Y-132757241D01*
X157632714Y-132757241D02*
X157204142Y-132757241D01*
X157204142Y-132757241D02*
X157061285Y-132685813D01*
X157061285Y-132685813D02*
X156989857Y-132614384D01*
X156989857Y-132614384D02*
X156918428Y-132471527D01*
X156918428Y-132471527D02*
X156918428Y-132185813D01*
X156918428Y-132185813D02*
X156989857Y-132042956D01*
X95458428Y-133892098D02*
X95458428Y-134606384D01*
X95458428Y-134606384D02*
X96172714Y-134677812D01*
X96172714Y-134677812D02*
X96101285Y-134606384D01*
X96101285Y-134606384D02*
X96029857Y-134463527D01*
X96029857Y-134463527D02*
X96029857Y-134106384D01*
X96029857Y-134106384D02*
X96101285Y-133963527D01*
X96101285Y-133963527D02*
X96172714Y-133892098D01*
X96172714Y-133892098D02*
X96315571Y-133820669D01*
X96315571Y-133820669D02*
X96672714Y-133820669D01*
X96672714Y-133820669D02*
X96815571Y-133892098D01*
X96815571Y-133892098D02*
X96887000Y-133963527D01*
X96887000Y-133963527D02*
X96958428Y-134106384D01*
X96958428Y-134106384D02*
X96958428Y-134463527D01*
X96958428Y-134463527D02*
X96887000Y-134606384D01*
X96887000Y-134606384D02*
X96815571Y-134677812D01*
X95958428Y-133320670D02*
X96958428Y-132963527D01*
X96958428Y-132963527D02*
X95958428Y-132606384D01*
X108733473Y-136201428D02*
X108733473Y-135415714D01*
X108733473Y-135415714D02*
X108662044Y-135272857D01*
X108662044Y-135272857D02*
X108519187Y-135201428D01*
X108519187Y-135201428D02*
X108233473Y-135201428D01*
X108233473Y-135201428D02*
X108090615Y-135272857D01*
X108733473Y-136130000D02*
X108590615Y-136201428D01*
X108590615Y-136201428D02*
X108233473Y-136201428D01*
X108233473Y-136201428D02*
X108090615Y-136130000D01*
X108090615Y-136130000D02*
X108019187Y-135987142D01*
X108019187Y-135987142D02*
X108019187Y-135844285D01*
X108019187Y-135844285D02*
X108090615Y-135701428D01*
X108090615Y-135701428D02*
X108233473Y-135630000D01*
X108233473Y-135630000D02*
X108590615Y-135630000D01*
X108590615Y-135630000D02*
X108733473Y-135558571D01*
X110090616Y-136201428D02*
X110090616Y-134701428D01*
X110090616Y-136130000D02*
X109947758Y-136201428D01*
X109947758Y-136201428D02*
X109662044Y-136201428D01*
X109662044Y-136201428D02*
X109519187Y-136130000D01*
X109519187Y-136130000D02*
X109447758Y-136058571D01*
X109447758Y-136058571D02*
X109376330Y-135915714D01*
X109376330Y-135915714D02*
X109376330Y-135487142D01*
X109376330Y-135487142D02*
X109447758Y-135344285D01*
X109447758Y-135344285D02*
X109519187Y-135272857D01*
X109519187Y-135272857D02*
X109662044Y-135201428D01*
X109662044Y-135201428D02*
X109947758Y-135201428D01*
X109947758Y-135201428D02*
X110090616Y-135272857D01*
X111447759Y-136201428D02*
X111447759Y-134701428D01*
X111447759Y-136130000D02*
X111304901Y-136201428D01*
X111304901Y-136201428D02*
X111019187Y-136201428D01*
X111019187Y-136201428D02*
X110876330Y-136130000D01*
X110876330Y-136130000D02*
X110804901Y-136058571D01*
X110804901Y-136058571D02*
X110733473Y-135915714D01*
X110733473Y-135915714D02*
X110733473Y-135487142D01*
X110733473Y-135487142D02*
X110804901Y-135344285D01*
X110804901Y-135344285D02*
X110876330Y-135272857D01*
X110876330Y-135272857D02*
X111019187Y-135201428D01*
X111019187Y-135201428D02*
X111304901Y-135201428D01*
X111304901Y-135201428D02*
X111447759Y-135272857D01*
X112162044Y-136201428D02*
X112162044Y-135201428D01*
X112162044Y-135487142D02*
X112233473Y-135344285D01*
X112233473Y-135344285D02*
X112304902Y-135272857D01*
X112304902Y-135272857D02*
X112447759Y-135201428D01*
X112447759Y-135201428D02*
X112590616Y-135201428D01*
D12*
X64569161Y-114034939D02*
X62569161Y-114701605D01*
X62569161Y-114701605D02*
X64569161Y-115368272D01*
X64473923Y-117082558D02*
X64569161Y-116892082D01*
X64569161Y-116892082D02*
X64569161Y-116606368D01*
X64569161Y-116606368D02*
X64473923Y-116320653D01*
X64473923Y-116320653D02*
X64283447Y-116130177D01*
X64283447Y-116130177D02*
X64092971Y-116034939D01*
X64092971Y-116034939D02*
X63712019Y-115939701D01*
X63712019Y-115939701D02*
X63426304Y-115939701D01*
X63426304Y-115939701D02*
X63045352Y-116034939D01*
X63045352Y-116034939D02*
X62854876Y-116130177D01*
X62854876Y-116130177D02*
X62664400Y-116320653D01*
X62664400Y-116320653D02*
X62569161Y-116606368D01*
X62569161Y-116606368D02*
X62569161Y-116796844D01*
X62569161Y-116796844D02*
X62664400Y-117082558D01*
X62664400Y-117082558D02*
X62759638Y-117177796D01*
X62759638Y-117177796D02*
X63426304Y-117177796D01*
X63426304Y-117177796D02*
X63426304Y-116796844D01*
X63140590Y-117939701D02*
X63140590Y-118892082D01*
X62569161Y-117749225D02*
X64569161Y-118415891D01*
X64569161Y-118415891D02*
X62569161Y-119082558D01*
D13*
G36*
X156749314Y-44946104D02*
G01*
X156619980Y-44946104D01*
X156684646Y-44752103D01*
X156749314Y-44946104D01*
G37*
G36*
X157753459Y-44507169D02*
G01*
X157772391Y-44526102D01*
X157797742Y-44576803D01*
X157797742Y-44660643D01*
X157772391Y-44711344D01*
X157753459Y-44730277D01*
X157702758Y-44755628D01*
X157476314Y-44755628D01*
X157476314Y-44481819D01*
X157702758Y-44481819D01*
X157753459Y-44507169D01*
G37*
G36*
X159029283Y-45606819D02*
G01*
X154244171Y-45606819D01*
X154244171Y-44356819D01*
X154369171Y-44356819D01*
X154369171Y-45166342D01*
X154369773Y-45178594D01*
X154370638Y-45182947D01*
X154370954Y-45187382D01*
X154373023Y-45194939D01*
X154374553Y-45202628D01*
X154376254Y-45206736D01*
X154377427Y-45211016D01*
X154382368Y-45222244D01*
X154429986Y-45317481D01*
X154431164Y-45319573D01*
X154431549Y-45320503D01*
X154432426Y-45321816D01*
X154436004Y-45328171D01*
X154440812Y-45334366D01*
X154445163Y-45340878D01*
X154450050Y-45346269D01*
X154451028Y-45347530D01*
X154451795Y-45348195D01*
X154453401Y-45349967D01*
X154501020Y-45397587D01*
X154502792Y-45399193D01*
X154503459Y-45399962D01*
X154504720Y-45400940D01*
X154510109Y-45405825D01*
X154516620Y-45410176D01*
X154522818Y-45414986D01*
X154529161Y-45418556D01*
X154530483Y-45419440D01*
X154531419Y-45419827D01*
X154533507Y-45421003D01*
X154628745Y-45468622D01*
X154639973Y-45473563D01*
X154644252Y-45474735D01*
X154648361Y-45476437D01*
X154656049Y-45477966D01*
X154663607Y-45480036D01*
X154668041Y-45480351D01*
X154672395Y-45481217D01*
X154684647Y-45481819D01*
X154875123Y-45481819D01*
X154887375Y-45481217D01*
X154891728Y-45480351D01*
X154896163Y-45480036D01*
X154903720Y-45477966D01*
X154911409Y-45476437D01*
X154915517Y-45474735D01*
X154919797Y-45473563D01*
X154931025Y-45468622D01*
X155026262Y-45421004D01*
X155028353Y-45419826D01*
X155029287Y-45419440D01*
X155030606Y-45418558D01*
X155036952Y-45414986D01*
X155043149Y-45410176D01*
X155049661Y-45405825D01*
X155055049Y-45400940D01*
X155056311Y-45399962D01*
X155056977Y-45399193D01*
X155058750Y-45397587D01*
X155106369Y-45349968D01*
X155107977Y-45348192D01*
X155108742Y-45347530D01*
X155109716Y-45346274D01*
X155114607Y-45340878D01*
X155118959Y-45334364D01*
X155123766Y-45328171D01*
X155127338Y-45321825D01*
X155128221Y-45320504D01*
X155128608Y-45319568D01*
X155129783Y-45317482D01*
X155177402Y-45222244D01*
X155182343Y-45211016D01*
X155183515Y-45206736D01*
X155185217Y-45202628D01*
X155186746Y-45194939D01*
X155188816Y-45187382D01*
X155189131Y-45182947D01*
X155189997Y-45178594D01*
X155190599Y-45166342D01*
X155190599Y-44547295D01*
X155369171Y-44547295D01*
X155369171Y-44642533D01*
X155369773Y-44654785D01*
X155370638Y-44659138D01*
X155370954Y-44663573D01*
X155373023Y-44671130D01*
X155374553Y-44678819D01*
X155376254Y-44682927D01*
X155377427Y-44687207D01*
X155382368Y-44698435D01*
X155429986Y-44793672D01*
X155431160Y-44795759D01*
X155431549Y-44796696D01*
X155432433Y-44798019D01*
X155436004Y-44804362D01*
X155440810Y-44810555D01*
X155445164Y-44817070D01*
X155450049Y-44822460D01*
X155451028Y-44823721D01*
X155451795Y-44824386D01*
X155453402Y-44826159D01*
X155501020Y-44873778D01*
X155502796Y-44875388D01*
X155503459Y-44876152D01*
X155504712Y-44877125D01*
X155510109Y-44882016D01*
X155516625Y-44886369D01*
X155522818Y-44891176D01*
X155529166Y-44894749D01*
X155530484Y-44895630D01*
X155531416Y-44896016D01*
X155533507Y-44897193D01*
X155628745Y-44944812D01*
X155639973Y-44949753D01*
X155641324Y-44950123D01*
X155642590Y-44950721D01*
X155654330Y-44954277D01*
X155831496Y-44998568D01*
X155896316Y-45030978D01*
X155915248Y-45049911D01*
X155940599Y-45100612D01*
X155940599Y-45136833D01*
X155915247Y-45187536D01*
X155896316Y-45206468D01*
X155845615Y-45231819D01*
X155657314Y-45231819D01*
X155533699Y-45190615D01*
X155521886Y-45187311D01*
X155497574Y-45184246D01*
X155473131Y-45185983D01*
X155449497Y-45192456D01*
X155427580Y-45203415D01*
X155408222Y-45218438D01*
X155392166Y-45236950D01*
X155380031Y-45258239D01*
X155372282Y-45281485D01*
X155369217Y-45305797D01*
X155370954Y-45330240D01*
X155377427Y-45353874D01*
X155388386Y-45375791D01*
X155403409Y-45395149D01*
X155421921Y-45411205D01*
X155443210Y-45423340D01*
X155454643Y-45427785D01*
X155597499Y-45475404D01*
X155599805Y-45476049D01*
X155600742Y-45476437D01*
X155602302Y-45476747D01*
X155609313Y-45478708D01*
X155617090Y-45479688D01*
X155624776Y-45481217D01*
X155632049Y-45481574D01*
X155633625Y-45481773D01*
X155634633Y-45481701D01*
X155637028Y-45481819D01*
X155875123Y-45481819D01*
X155887375Y-45481217D01*
X155891728Y-45480351D01*
X155896163Y-45480036D01*
X155903720Y-45477966D01*
X155911409Y-45476437D01*
X155915517Y-45474735D01*
X155919797Y-45473563D01*
X155931025Y-45468622D01*
X156026262Y-45421004D01*
X156028353Y-45419826D01*
X156029287Y-45419440D01*
X156030606Y-45418558D01*
X156036952Y-45414986D01*
X156043149Y-45410176D01*
X156049661Y-45405825D01*
X156055049Y-45400940D01*
X156056311Y-45399962D01*
X156056977Y-45399193D01*
X156058750Y-45397587D01*
X156102921Y-45353416D01*
X156226360Y-45353416D01*
X156228097Y-45377859D01*
X156234570Y-45401493D01*
X156245529Y-45423410D01*
X156260552Y-45442768D01*
X156279064Y-45458824D01*
X156300353Y-45470959D01*
X156323599Y-45478708D01*
X156347911Y-45481773D01*
X156372354Y-45480036D01*
X156395988Y-45473563D01*
X156417905Y-45462604D01*
X156437263Y-45447581D01*
X156453319Y-45429069D01*
X156465454Y-45407780D01*
X156469899Y-45396347D01*
X156536647Y-45196104D01*
X156832647Y-45196104D01*
X156899394Y-45396347D01*
X156903840Y-45407780D01*
X156915975Y-45429069D01*
X156932031Y-45447581D01*
X156951389Y-45462604D01*
X156973306Y-45473563D01*
X156996940Y-45480035D01*
X157021382Y-45481773D01*
X157045695Y-45478707D01*
X157068941Y-45470958D01*
X157090230Y-45458824D01*
X157108742Y-45442768D01*
X157123765Y-45423410D01*
X157134724Y-45401492D01*
X157141196Y-45377859D01*
X157142934Y-45353416D01*
X157139869Y-45329104D01*
X157136565Y-45317290D01*
X156816408Y-44356819D01*
X157226314Y-44356819D01*
X157226314Y-45356819D01*
X157226916Y-45369071D01*
X157231696Y-45393105D01*
X157241074Y-45415744D01*
X157254688Y-45436118D01*
X157272015Y-45453445D01*
X157292389Y-45467059D01*
X157315028Y-45476437D01*
X157339062Y-45481217D01*
X157363566Y-45481217D01*
X157387600Y-45476437D01*
X157410239Y-45467059D01*
X157430613Y-45453445D01*
X157447940Y-45436118D01*
X157461554Y-45415744D01*
X157470932Y-45393105D01*
X157475712Y-45369071D01*
X157476314Y-45356819D01*
X157476314Y-45005628D01*
X157524327Y-45005628D01*
X157820338Y-45428502D01*
X157827857Y-45438194D01*
X157845556Y-45455142D01*
X157866221Y-45468311D01*
X157889058Y-45477195D01*
X157913189Y-45481453D01*
X157937687Y-45480923D01*
X157961612Y-45475623D01*
X157984042Y-45465756D01*
X158004117Y-45451704D01*
X158021065Y-45434005D01*
X158034234Y-45413340D01*
X158043118Y-45390503D01*
X158047376Y-45366372D01*
X158046846Y-45341874D01*
X158041546Y-45317950D01*
X158031679Y-45295519D01*
X158025146Y-45285136D01*
X157811934Y-44980547D01*
X157883405Y-44944813D01*
X157885492Y-44943638D01*
X157886429Y-44943250D01*
X157887752Y-44942365D01*
X157894095Y-44938795D01*
X157900288Y-44933988D01*
X157906803Y-44929635D01*
X157912193Y-44924749D01*
X157913454Y-44923771D01*
X157914119Y-44923003D01*
X157915892Y-44921397D01*
X157963511Y-44873779D01*
X157965121Y-44872002D01*
X157965885Y-44871340D01*
X157966858Y-44870086D01*
X157971749Y-44864690D01*
X157976102Y-44858173D01*
X157980909Y-44851981D01*
X157984482Y-44845632D01*
X157985363Y-44844315D01*
X157985749Y-44843382D01*
X157986926Y-44841292D01*
X158034545Y-44746054D01*
X158039486Y-44734826D01*
X158040658Y-44730546D01*
X158042360Y-44726438D01*
X158043889Y-44718749D01*
X158045959Y-44711192D01*
X158046274Y-44706757D01*
X158047140Y-44702404D01*
X158047742Y-44690152D01*
X158047742Y-44547295D01*
X158047140Y-44535043D01*
X158046274Y-44530689D01*
X158045959Y-44526255D01*
X158043889Y-44518697D01*
X158042360Y-44511009D01*
X158040658Y-44506900D01*
X158039486Y-44502621D01*
X158034545Y-44491393D01*
X157986926Y-44396155D01*
X157985749Y-44394064D01*
X157985363Y-44393132D01*
X157984482Y-44391814D01*
X157980909Y-44385466D01*
X157976102Y-44379273D01*
X157971749Y-44372757D01*
X157966858Y-44367360D01*
X157965885Y-44366107D01*
X157965121Y-44365444D01*
X157963511Y-44363668D01*
X157944410Y-44344567D01*
X158084059Y-44344567D01*
X158084059Y-44369071D01*
X158088839Y-44393105D01*
X158098217Y-44415744D01*
X158111831Y-44436118D01*
X158129158Y-44453445D01*
X158149532Y-44467059D01*
X158172171Y-44476437D01*
X158196205Y-44481217D01*
X158208457Y-44481819D01*
X158369171Y-44481819D01*
X158369171Y-45356819D01*
X158369773Y-45369071D01*
X158374553Y-45393105D01*
X158383931Y-45415744D01*
X158397545Y-45436118D01*
X158414872Y-45453445D01*
X158435246Y-45467059D01*
X158457885Y-45476437D01*
X158481919Y-45481217D01*
X158506423Y-45481217D01*
X158530457Y-45476437D01*
X158553096Y-45467059D01*
X158573470Y-45453445D01*
X158590797Y-45436118D01*
X158604411Y-45415744D01*
X158613789Y-45393105D01*
X158618569Y-45369071D01*
X158619171Y-45356819D01*
X158619171Y-44481819D01*
X158779885Y-44481819D01*
X158792137Y-44481217D01*
X158816171Y-44476437D01*
X158838810Y-44467059D01*
X158859184Y-44453445D01*
X158876511Y-44436118D01*
X158890125Y-44415744D01*
X158899503Y-44393105D01*
X158904283Y-44369071D01*
X158904283Y-44344567D01*
X158899503Y-44320533D01*
X158890125Y-44297894D01*
X158876511Y-44277520D01*
X158859184Y-44260193D01*
X158838810Y-44246579D01*
X158816171Y-44237201D01*
X158792137Y-44232421D01*
X158779885Y-44231819D01*
X158208457Y-44231819D01*
X158196205Y-44232421D01*
X158172171Y-44237201D01*
X158149532Y-44246579D01*
X158129158Y-44260193D01*
X158111831Y-44277520D01*
X158098217Y-44297894D01*
X158088839Y-44320533D01*
X158084059Y-44344567D01*
X157944410Y-44344567D01*
X157915892Y-44316050D01*
X157914119Y-44314443D01*
X157913454Y-44313676D01*
X157912193Y-44312697D01*
X157906803Y-44307812D01*
X157900288Y-44303458D01*
X157894095Y-44298652D01*
X157887752Y-44295081D01*
X157886429Y-44294197D01*
X157885492Y-44293808D01*
X157883405Y-44292634D01*
X157788168Y-44245016D01*
X157776940Y-44240075D01*
X157772660Y-44238902D01*
X157768552Y-44237201D01*
X157760863Y-44235671D01*
X157753306Y-44233602D01*
X157748871Y-44233286D01*
X157744518Y-44232421D01*
X157732266Y-44231819D01*
X157351314Y-44231819D01*
X157339062Y-44232421D01*
X157315028Y-44237201D01*
X157292389Y-44246579D01*
X157272015Y-44260193D01*
X157254688Y-44277520D01*
X157241074Y-44297894D01*
X157231696Y-44320533D01*
X157226916Y-44344567D01*
X157226314Y-44356819D01*
X156816408Y-44356819D01*
X156803232Y-44317291D01*
X156801770Y-44313532D01*
X156801391Y-44312146D01*
X156800674Y-44310713D01*
X156798787Y-44305858D01*
X156794390Y-44298145D01*
X156790432Y-44290228D01*
X156788344Y-44287537D01*
X156786652Y-44284569D01*
X156780838Y-44277866D01*
X156775409Y-44270870D01*
X156772831Y-44268634D01*
X156770596Y-44266057D01*
X156763599Y-44260627D01*
X156756897Y-44254814D01*
X156753928Y-44253122D01*
X156751238Y-44251034D01*
X156743309Y-44247069D01*
X156735608Y-44242680D01*
X156732376Y-44241602D01*
X156729321Y-44240075D01*
X156720756Y-44237729D01*
X156712362Y-44234931D01*
X156708984Y-44234505D01*
X156705687Y-44233602D01*
X156696834Y-44232972D01*
X156688049Y-44231865D01*
X156684647Y-44232106D01*
X156681244Y-44231865D01*
X156672440Y-44232974D01*
X156663607Y-44233603D01*
X156660321Y-44234502D01*
X156656932Y-44234930D01*
X156648514Y-44237736D01*
X156639973Y-44240075D01*
X156636923Y-44241599D01*
X156633686Y-44242679D01*
X156625975Y-44247073D01*
X156618056Y-44251034D01*
X156615365Y-44253121D01*
X156612397Y-44254814D01*
X156605694Y-44260627D01*
X156598698Y-44266057D01*
X156596462Y-44268634D01*
X156593885Y-44270870D01*
X156588455Y-44277866D01*
X156582642Y-44284569D01*
X156580949Y-44287537D01*
X156578862Y-44290228D01*
X156574901Y-44298147D01*
X156570507Y-44305858D01*
X156568618Y-44310713D01*
X156567903Y-44312145D01*
X156567523Y-44313529D01*
X156566061Y-44317291D01*
X156232729Y-45317291D01*
X156229425Y-45329104D01*
X156226360Y-45353416D01*
X156102921Y-45353416D01*
X156106369Y-45349968D01*
X156107977Y-45348192D01*
X156108742Y-45347530D01*
X156109716Y-45346274D01*
X156114607Y-45340878D01*
X156118959Y-45334364D01*
X156123766Y-45328171D01*
X156127338Y-45321825D01*
X156128221Y-45320504D01*
X156128608Y-45319568D01*
X156129783Y-45317482D01*
X156177402Y-45222244D01*
X156182343Y-45211016D01*
X156183515Y-45206736D01*
X156185217Y-45202628D01*
X156186746Y-45194939D01*
X156188816Y-45187382D01*
X156189131Y-45182947D01*
X156189997Y-45178594D01*
X156190599Y-45166342D01*
X156190599Y-45071104D01*
X156189997Y-45058852D01*
X156189131Y-45054498D01*
X156188816Y-45050064D01*
X156186746Y-45042506D01*
X156185217Y-45034818D01*
X156183515Y-45030709D01*
X156182343Y-45026430D01*
X156177402Y-45015202D01*
X156129783Y-44919964D01*
X156128606Y-44917873D01*
X156128220Y-44916941D01*
X156127339Y-44915623D01*
X156123766Y-44909275D01*
X156118959Y-44903082D01*
X156114606Y-44896566D01*
X156109715Y-44891169D01*
X156108742Y-44889916D01*
X156107978Y-44889253D01*
X156106368Y-44887477D01*
X156058749Y-44839859D01*
X156056976Y-44838252D01*
X156056311Y-44837485D01*
X156055050Y-44836506D01*
X156049660Y-44831621D01*
X156043145Y-44827267D01*
X156036952Y-44822461D01*
X156030609Y-44818890D01*
X156029286Y-44818006D01*
X156028349Y-44817617D01*
X156026262Y-44816443D01*
X155931025Y-44768825D01*
X155919797Y-44763884D01*
X155918445Y-44763513D01*
X155917180Y-44762916D01*
X155905440Y-44759360D01*
X155728275Y-44715068D01*
X155663454Y-44682658D01*
X155644521Y-44663726D01*
X155619171Y-44613025D01*
X155619171Y-44576803D01*
X155644521Y-44526101D01*
X155663454Y-44507169D01*
X155714156Y-44481819D01*
X155902459Y-44481819D01*
X156026070Y-44523023D01*
X156037884Y-44526327D01*
X156062196Y-44529392D01*
X156086639Y-44527654D01*
X156110272Y-44521182D01*
X156132189Y-44510223D01*
X156151548Y-44495200D01*
X156167603Y-44476688D01*
X156179738Y-44455399D01*
X156187487Y-44432153D01*
X156190553Y-44407840D01*
X156188815Y-44383398D01*
X156182343Y-44359764D01*
X156171384Y-44337847D01*
X156156361Y-44318489D01*
X156137849Y-44302433D01*
X156116560Y-44290298D01*
X156105127Y-44285852D01*
X155962270Y-44238234D01*
X155959966Y-44237589D01*
X155959028Y-44237201D01*
X155957465Y-44236890D01*
X155950457Y-44234930D01*
X155942679Y-44233949D01*
X155934994Y-44232421D01*
X155927720Y-44232063D01*
X155926145Y-44231865D01*
X155925136Y-44231936D01*
X155922742Y-44231819D01*
X155684647Y-44231819D01*
X155672395Y-44232421D01*
X155668041Y-44233286D01*
X155663607Y-44233602D01*
X155656049Y-44235671D01*
X155648361Y-44237201D01*
X155644252Y-44238902D01*
X155639973Y-44240075D01*
X155628745Y-44245016D01*
X155533507Y-44292635D01*
X155531416Y-44293811D01*
X155530484Y-44294198D01*
X155529166Y-44295078D01*
X155522818Y-44298652D01*
X155516625Y-44303458D01*
X155510109Y-44307812D01*
X155504712Y-44312702D01*
X155503459Y-44313676D01*
X155502796Y-44314439D01*
X155501020Y-44316050D01*
X155453402Y-44363669D01*
X155451795Y-44365441D01*
X155451028Y-44366107D01*
X155450049Y-44367367D01*
X155445164Y-44372758D01*
X155440810Y-44379272D01*
X155436004Y-44385466D01*
X155432433Y-44391808D01*
X155431549Y-44393132D01*
X155431160Y-44394068D01*
X155429986Y-44396156D01*
X155382368Y-44491393D01*
X155377427Y-44502621D01*
X155376254Y-44506900D01*
X155374553Y-44511009D01*
X155373023Y-44518697D01*
X155370954Y-44526255D01*
X155370638Y-44530689D01*
X155369773Y-44535043D01*
X155369171Y-44547295D01*
X155190599Y-44547295D01*
X155190599Y-44356819D01*
X155189997Y-44344567D01*
X155185217Y-44320533D01*
X155175839Y-44297894D01*
X155162225Y-44277520D01*
X155144898Y-44260193D01*
X155124524Y-44246579D01*
X155101885Y-44237201D01*
X155077851Y-44232421D01*
X155053347Y-44232421D01*
X155029313Y-44237201D01*
X155006674Y-44246579D01*
X154986300Y-44260193D01*
X154968973Y-44277520D01*
X154955359Y-44297894D01*
X154945981Y-44320533D01*
X154941201Y-44344567D01*
X154940599Y-44356819D01*
X154940599Y-45136833D01*
X154915247Y-45187536D01*
X154896316Y-45206468D01*
X154845615Y-45231819D01*
X154714156Y-45231819D01*
X154663454Y-45206468D01*
X154644522Y-45187536D01*
X154619171Y-45136834D01*
X154619171Y-44356819D01*
X154618569Y-44344567D01*
X154613789Y-44320533D01*
X154604411Y-44297894D01*
X154590797Y-44277520D01*
X154573470Y-44260193D01*
X154553096Y-44246579D01*
X154530457Y-44237201D01*
X154506423Y-44232421D01*
X154481919Y-44232421D01*
X154457885Y-44237201D01*
X154435246Y-44246579D01*
X154414872Y-44260193D01*
X154397545Y-44277520D01*
X154383931Y-44297894D01*
X154374553Y-44320533D01*
X154369773Y-44344567D01*
X154369171Y-44356819D01*
X154244171Y-44356819D01*
X154244171Y-44106819D01*
X159029283Y-44106819D01*
X159029283Y-45606819D01*
G37*
D14*
X128033000Y-110253000D02*
X129413000Y-110253000D01*
X128033000Y-111633000D02*
X128033000Y-110253000D01*
X128033000Y-112903000D02*
X128033000Y-120633000D01*
X128033000Y-112903000D02*
X130793000Y-112903000D01*
X128033000Y-120633000D02*
X130793000Y-120633000D01*
X130793000Y-112903000D02*
X130793000Y-120633000D01*
X98123401Y-118675200D02*
X98123401Y-117675200D01*
X100063401Y-118675200D02*
X100063401Y-117675200D01*
X90295000Y-124219581D02*
X90295000Y-123938419D01*
X91315000Y-124219581D02*
X91315000Y-123938419D01*
X68781200Y-126530981D02*
X68781200Y-126249819D01*
X69801200Y-126530981D02*
X69801200Y-126249819D01*
X72342000Y-129156000D02*
X72342000Y-130156000D01*
X75702000Y-129156000D02*
X75702000Y-130156000D01*
X131747800Y-71108181D02*
X131747800Y-70827019D01*
X132767800Y-71108181D02*
X132767800Y-70827019D01*
D13*
X66345000Y-109335000D02*
X66345000Y-111505000D01*
X66345000Y-109335000D02*
X87745000Y-109335000D01*
X66345000Y-113475000D02*
X66345000Y-114345000D01*
X66345000Y-114345000D02*
X68415000Y-114345000D01*
X85675000Y-114345000D02*
X87745000Y-114345000D01*
X87745000Y-109335000D02*
X87745000Y-111505000D01*
X87745000Y-113475000D02*
X87745000Y-114345000D01*
X68285000Y-115365000D02*
G75*
G02*
X68025000Y-115365000I-130000J0D01*
G01*
X68025000Y-115365000D02*
G75*
G02*
X68285000Y-115365000I130000J0D01*
G01*
D14*
X101317000Y-119245000D02*
X101317000Y-118245000D01*
X104677000Y-119245000D02*
X104677000Y-118245000D01*
X80058800Y-121552581D02*
X80058800Y-121271419D01*
X81078800Y-121552581D02*
X81078800Y-121271419D01*
X73472800Y-137535800D02*
X76157799Y-137535800D01*
X76157799Y-135615800D02*
X73472800Y-135615800D01*
X76157799Y-137535800D02*
X76157799Y-135615800D01*
X143114500Y-71585858D02*
X143114500Y-71111342D01*
X144159500Y-71585858D02*
X144159500Y-71111342D01*
X65668000Y-131442000D02*
X65668000Y-132442000D01*
X69028000Y-131442000D02*
X69028000Y-132442000D01*
X108855742Y-136891500D02*
X109330258Y-136891500D01*
X108855742Y-137936500D02*
X109330258Y-137936500D01*
X90612700Y-127550142D02*
X90612700Y-128024658D01*
X91657700Y-127550142D02*
X91657700Y-128024658D01*
X76603000Y-132585000D02*
X76603000Y-133585000D01*
X79963000Y-132585000D02*
X79963000Y-133585000D01*
D11*
X157252200Y-110497400D02*
X159052200Y-110497400D01*
X157252200Y-113097400D02*
X157252200Y-110497400D01*
X157252200Y-113097400D02*
X158652200Y-113097400D01*
X159052200Y-110497400D02*
X159052200Y-112697400D01*
D14*
X134529300Y-67301342D02*
X134529300Y-67775858D01*
X135574300Y-67301342D02*
X135574300Y-67775858D01*
X112254419Y-122045000D02*
X112535581Y-122045000D01*
X112254419Y-123065000D02*
X112535581Y-123065000D01*
X105066220Y-122451400D02*
X105347380Y-122451400D01*
X105066220Y-123471400D02*
X105347380Y-123471400D01*
X61693000Y-131442000D02*
X61693000Y-132442000D01*
X65053000Y-131442000D02*
X65053000Y-132442000D01*
D13*
X100171000Y-109285000D02*
X100171000Y-111455000D01*
X100171000Y-109285000D02*
X121571000Y-109285000D01*
X100171000Y-113425000D02*
X100171000Y-114295000D01*
X100171000Y-114295000D02*
X102241000Y-114295000D01*
X119501000Y-114295000D02*
X121571000Y-114295000D01*
X121571000Y-109285000D02*
X121571000Y-111455000D01*
X121571000Y-113425000D02*
X121571000Y-114295000D01*
X102111000Y-115315000D02*
G75*
G02*
X101851000Y-115315000I-130000J0D01*
G01*
X101851000Y-115315000D02*
G75*
G02*
X102111000Y-115315000I130000J0D01*
G01*
D15*
X144684000Y-72070000D02*
X145384000Y-72070000D01*
X144684001Y-71420000D02*
X144684000Y-72070000D01*
X145384000Y-72070000D02*
X145383999Y-71420000D01*
D14*
X90295000Y-121171581D02*
X90295000Y-120890419D01*
X91315000Y-121171581D02*
X91315000Y-120890419D01*
X94378000Y-110253000D02*
X95758000Y-110253000D01*
X94378000Y-111633000D02*
X94378000Y-110253000D01*
X94378000Y-112903000D02*
X94378000Y-120633000D01*
X94378000Y-112903000D02*
X97138000Y-112903000D01*
X94378000Y-120633000D02*
X97138000Y-120633000D01*
X97138000Y-112903000D02*
X97138000Y-120633000D01*
X105400000Y-119245000D02*
X105400000Y-118245000D01*
X108760000Y-119245000D02*
X108760000Y-118245000D01*
X157895058Y-114031500D02*
X157420542Y-114031500D01*
X157895058Y-115076500D02*
X157420542Y-115076500D01*
X72815001Y-123698000D02*
X72815000Y-121498001D01*
X72815001Y-123698000D02*
X72815000Y-125897999D01*
X79584999Y-123698000D02*
X79585000Y-121498001D01*
X79584999Y-123698000D02*
X79585000Y-125897999D01*
X79365000Y-119508001D02*
X79125000Y-119838000D01*
X78885000Y-119508000D01*
X79365000Y-119508001D01*
G36*
X79365000Y-119508001D02*
G01*
X79125000Y-119838000D01*
X78885000Y-119508000D01*
X79365000Y-119508001D01*
G37*
D13*
X61201500Y-45053000D02*
X63371500Y-45053000D01*
X61201500Y-66453000D02*
X61201500Y-45053000D01*
X61201500Y-66453000D02*
X63371500Y-66453000D01*
X65341500Y-45053000D02*
X66211500Y-45053000D01*
X65341500Y-66453000D02*
X66211500Y-66453000D01*
X66211500Y-47123000D02*
X66211500Y-45053000D01*
X66211500Y-66453000D02*
X66211500Y-64383000D01*
X67361500Y-64643000D02*
G75*
G02*
X67101500Y-64643000I-130000J0D01*
G01*
X67101500Y-64643000D02*
G75*
G02*
X67361500Y-64643000I130000J0D01*
G01*
D14*
X69606900Y-133442942D02*
X69606900Y-133917458D01*
X70651900Y-133442942D02*
X70651900Y-133917458D01*
X142913981Y-68527200D02*
X142632819Y-68527200D01*
X142913981Y-69547200D02*
X142632819Y-69547200D01*
X134280000Y-119880000D02*
X134280000Y-118880000D01*
X137640000Y-119880000D02*
X137640000Y-118880000D01*
X55442000Y-68647000D02*
X55442000Y-84007000D01*
X55442000Y-68647000D02*
X64072000Y-68647000D01*
X55442000Y-68767000D02*
X64072000Y-68767000D01*
X55442000Y-68885095D02*
X64072000Y-68885095D01*
X55442000Y-69003190D02*
X64072000Y-69003190D01*
X55442000Y-69121285D02*
X64072000Y-69121285D01*
X55442000Y-69239380D02*
X64072000Y-69239380D01*
X55442000Y-69357475D02*
X64072000Y-69357475D01*
X55442000Y-69475570D02*
X64072000Y-69475570D01*
X55442000Y-69593665D02*
X64072000Y-69593665D01*
X55442000Y-69711760D02*
X64072000Y-69711760D01*
X55442000Y-69829855D02*
X64072000Y-69829855D01*
X55442000Y-69947950D02*
X64072000Y-69947950D01*
X55442000Y-70066045D02*
X64072000Y-70066045D01*
X55442000Y-70184140D02*
X64072000Y-70184140D01*
X55442000Y-70302235D02*
X64072000Y-70302235D01*
X55442000Y-70420330D02*
X64072000Y-70420330D01*
X55442000Y-70538425D02*
X64072000Y-70538425D01*
X55442000Y-70656520D02*
X64072000Y-70656520D01*
X55442000Y-70774615D02*
X64072000Y-70774615D01*
X55442000Y-70892710D02*
X64072000Y-70892710D01*
X55442000Y-71010805D02*
X64072000Y-71010805D01*
X55442000Y-71128900D02*
X64072000Y-71128900D01*
X55442000Y-71247000D02*
X64072000Y-71247000D01*
X55442000Y-73787000D02*
X64072000Y-73787000D01*
X55442000Y-76327000D02*
X64072000Y-76327000D01*
X55442000Y-78867000D02*
X64072000Y-78867000D01*
X55442000Y-81407000D02*
X64072000Y-81407000D01*
X55442000Y-84007000D02*
X64072000Y-84007000D01*
X64072000Y-68647000D02*
X64072000Y-84007000D01*
X64072000Y-69617000D02*
X64482000Y-69617000D01*
X64072000Y-70337000D02*
X64482000Y-70337000D01*
X64072000Y-72157000D02*
X64482000Y-72157000D01*
X64072000Y-72877000D02*
X64482000Y-72877000D01*
X64072000Y-74697000D02*
X64482000Y-74697000D01*
X64072000Y-75417000D02*
X64482000Y-75417000D01*
X64072000Y-77237000D02*
X64482000Y-77237000D01*
X64072000Y-77957000D02*
X64482000Y-77957000D01*
X64072000Y-79777000D02*
X64482000Y-79777000D01*
X64072000Y-80497000D02*
X64482000Y-80497000D01*
X64072000Y-82317000D02*
X64482000Y-82317000D01*
X64072000Y-83037000D02*
X64482000Y-83037000D01*
X66582000Y-69617000D02*
X66962000Y-69617000D01*
X66582000Y-70337000D02*
X66962000Y-70337000D01*
X66582000Y-72157000D02*
X67022000Y-72157000D01*
X66582000Y-72877000D02*
X67022000Y-72877000D01*
X66582000Y-74697000D02*
X67022000Y-74697000D01*
X66582000Y-75417000D02*
X67022000Y-75417000D01*
X66582000Y-77237000D02*
X67022000Y-77237000D01*
X66582000Y-77957000D02*
X67022000Y-77957000D01*
X66582000Y-79777000D02*
X67022000Y-79777000D01*
X66582000Y-80497000D02*
X67022000Y-80497000D01*
X66582000Y-82317000D02*
X67022000Y-82317000D01*
X66582000Y-83037000D02*
X67022000Y-83037000D01*
X68072000Y-68647000D02*
X69182000Y-68647000D01*
X69182000Y-68647000D02*
X69182000Y-69977000D01*
X115033000Y-119245000D02*
X115033000Y-118245000D01*
X118393000Y-119245000D02*
X118393000Y-118245000D01*
X69606900Y-130344142D02*
X69606900Y-130818658D01*
X70651900Y-130344142D02*
X70651900Y-130818658D01*
X145200899Y-66033800D02*
X146200899Y-66033800D01*
X145200899Y-68753800D02*
X146200899Y-68753800D01*
X146590899Y-68983800D02*
X146590899Y-68703800D01*
X146870899Y-68703800D01*
X146590899Y-68983800D01*
G36*
X146590899Y-68983800D02*
G01*
X146590899Y-68703800D01*
X146870899Y-68703800D01*
X146590899Y-68983800D01*
G37*
X155687600Y-62283200D02*
X157487600Y-62283200D01*
X155687600Y-71223200D02*
X157487600Y-71223200D01*
X161197600Y-62283200D02*
X159737600Y-62283200D01*
X161197600Y-62283200D02*
X161197600Y-71223200D01*
X161197600Y-71223200D02*
X159737600Y-71223200D01*
X79957200Y-124600581D02*
X79957200Y-124319419D01*
X80977200Y-124600581D02*
X80977200Y-124319419D01*
X104608978Y-126571773D02*
X104807789Y-126372962D01*
X105330227Y-127293022D02*
X105529038Y-127094211D01*
X83061001Y-123375500D02*
X83061000Y-121175501D01*
X83061001Y-123375500D02*
X83061000Y-125575499D01*
X89830999Y-123375500D02*
X89831000Y-121175501D01*
X89830999Y-123375500D02*
X89831000Y-125575499D01*
X89611000Y-119185501D02*
X89371000Y-119515500D01*
X89131000Y-119185500D01*
X89611000Y-119185501D01*
G36*
X89611000Y-119185501D02*
G01*
X89371000Y-119515500D01*
X89131000Y-119185500D01*
X89611000Y-119185501D01*
G37*
X61639001Y-125730000D02*
X61639000Y-123530001D01*
X61639001Y-125730000D02*
X61639000Y-127929999D01*
X68408999Y-125730000D02*
X68409000Y-123530001D01*
X68408999Y-125730000D02*
X68409000Y-127929999D01*
X68189000Y-121540001D02*
X67949000Y-121870000D01*
X67709000Y-121540000D01*
X68189000Y-121540001D01*
G36*
X68189000Y-121540001D02*
G01*
X67949000Y-121870000D01*
X67709000Y-121540000D01*
X68189000Y-121540001D01*
G37*
X65649000Y-134882000D02*
X65649000Y-135882000D01*
X69009000Y-134882000D02*
X69009000Y-135882000D01*
X139671000Y-119891000D02*
X139671000Y-118891000D01*
X143031000Y-119891000D02*
X143031000Y-118891000D01*
D13*
X154768500Y-77615800D02*
X154768500Y-79685800D01*
X154768500Y-96945800D02*
X154768500Y-99015800D01*
X155638500Y-77615800D02*
X154768500Y-77615800D01*
X155638500Y-99015800D02*
X154768500Y-99015800D01*
X159778500Y-77615800D02*
X157608500Y-77615800D01*
X159778500Y-77615800D02*
X159778500Y-99015800D01*
X159778500Y-99015800D02*
X157608500Y-99015800D01*
X153878500Y-79425800D02*
G75*
G02*
X153618500Y-79425800I-130000J0D01*
G01*
X153618500Y-79425800D02*
G75*
G02*
X153878500Y-79425800I130000J0D01*
G01*
D14*
X124722658Y-114006100D02*
X124248142Y-114006100D01*
X124722658Y-115051100D02*
X124248142Y-115051100D01*
X86731000Y-132099000D02*
X86731000Y-133099000D01*
X90091000Y-132099000D02*
X90091000Y-133099000D01*
X82648000Y-128659000D02*
X82648000Y-129659000D01*
X86008000Y-128659000D02*
X86008000Y-129659000D01*
X150156142Y-46975500D02*
X150630658Y-46975500D01*
X150156142Y-48020500D02*
X150630658Y-48020500D01*
D15*
X69215000Y-40005000D02*
X153035000Y-40005000D01*
X153035000Y-108585000D01*
X69215000Y-108585000D01*
X69215000Y-40005000D01*
D14*
X141962000Y-64811000D02*
X138962000Y-64811000D01*
X141962000Y-68031000D02*
X138962000Y-68031000D01*
X142512000Y-68201000D02*
X142512000Y-67721000D01*
X142992000Y-67721000D01*
X142512000Y-68201000D01*
G36*
X142512000Y-68201000D02*
G01*
X142512000Y-67721000D01*
X142992000Y-67721000D01*
X142512000Y-68201000D01*
G37*
X138214981Y-54836600D02*
X137933819Y-54836600D01*
X138214981Y-55856600D02*
X137933819Y-55856600D01*
X106932000Y-123582819D02*
X106932000Y-123863981D01*
X107952000Y-123582819D02*
X107952000Y-123863981D01*
X90612700Y-130648942D02*
X90612700Y-131123458D01*
X91657700Y-130648942D02*
X91657700Y-131123458D01*
X133343400Y-71108181D02*
X133343400Y-70827019D01*
X134363400Y-71108181D02*
X134363400Y-70827019D01*
X70755742Y-136129500D02*
X71230258Y-136129500D01*
X70755742Y-137174500D02*
X71230258Y-137174500D01*
X114552000Y-125730581D02*
X114552000Y-125449419D01*
X115572000Y-125730581D02*
X115572000Y-125449419D01*
D11*
X156967400Y-74842800D02*
X159167400Y-74842800D01*
X156967400Y-76642800D02*
X156967400Y-74842800D01*
X159567400Y-76642800D02*
X156967400Y-76642800D01*
X159567400Y-76642800D02*
X159567400Y-75242800D01*
D14*
X137011000Y-70914600D02*
X137011000Y-70729600D01*
X137011000Y-73999600D02*
X137011000Y-73814600D01*
X140281000Y-70729600D02*
X137011000Y-70729600D01*
X140281000Y-70914600D02*
X140281000Y-70729600D01*
X140281000Y-73999600D02*
X137011000Y-73999600D01*
X140281000Y-73999600D02*
X140281000Y-73814600D01*
X140601000Y-74224600D02*
X140601000Y-73824600D01*
X141001000Y-73824599D01*
X140601000Y-74224600D01*
G36*
X140601000Y-74224600D02*
G01*
X140601000Y-73824600D01*
X141001000Y-73824599D01*
X140601000Y-74224600D01*
G37*
X115587000Y-137905000D02*
X115587001Y-136525000D01*
X116967000Y-137904999D02*
X115587000Y-137905000D01*
X118237000Y-135145000D02*
X123427000Y-135145000D01*
X118237000Y-137905000D02*
X118237000Y-135145000D01*
X118237000Y-137905000D02*
X123427000Y-137905000D01*
X123427000Y-137905000D02*
X123427000Y-135145000D01*
D13*
X132175000Y-109207500D02*
X132175000Y-111377500D01*
X132175000Y-109207500D02*
X153575000Y-109207500D01*
X132175000Y-113347500D02*
X132175000Y-114217500D01*
X132175000Y-114217500D02*
X134245000Y-114217500D01*
X151505000Y-114217500D02*
X153575000Y-114217500D01*
X153575000Y-109207500D02*
X153575000Y-111377500D01*
X153575000Y-113347500D02*
X153575000Y-114217500D01*
X134115000Y-115237500D02*
G75*
G02*
X133855000Y-115237500I-130000J0D01*
G01*
X133855000Y-115237500D02*
G75*
G02*
X134115000Y-115237500I130000J0D01*
G01*
D14*
X68832000Y-123533781D02*
X68832000Y-123252619D01*
X69852000Y-123533781D02*
X69852000Y-123252619D01*
X110783000Y-127646000D02*
X114083000Y-127646000D01*
X114083000Y-127646000D02*
X114083000Y-123646000D01*
X86712000Y-128670000D02*
X86712000Y-129670000D01*
X90072000Y-128670000D02*
X90072000Y-129670000D01*
X105444058Y-123962900D02*
X104969542Y-123962900D01*
X105444058Y-125007900D02*
X104969542Y-125007900D01*
X82648000Y-132088000D02*
X82648000Y-133088000D01*
X86008000Y-132088000D02*
X86008000Y-133088000D01*
X80503500Y-128032742D02*
X80503500Y-128507258D01*
X81548500Y-128032742D02*
X81548500Y-128507258D01*
X55442000Y-91532000D02*
X55442000Y-106892000D01*
X55442000Y-91532000D02*
X64072000Y-91532000D01*
X55442000Y-91652000D02*
X64072000Y-91652000D01*
X55442000Y-91770095D02*
X64072000Y-91770095D01*
X55442000Y-91888190D02*
X64072000Y-91888190D01*
X55442000Y-92006285D02*
X64072000Y-92006285D01*
X55442000Y-92124380D02*
X64072000Y-92124380D01*
X55442000Y-92242475D02*
X64072000Y-92242475D01*
X55442000Y-92360570D02*
X64072000Y-92360570D01*
X55442000Y-92478665D02*
X64072000Y-92478665D01*
X55442000Y-92596760D02*
X64072000Y-92596760D01*
X55442000Y-92714855D02*
X64072000Y-92714855D01*
X55442000Y-92832950D02*
X64072000Y-92832950D01*
X55442000Y-92951045D02*
X64072000Y-92951045D01*
X55442000Y-93069140D02*
X64072000Y-93069140D01*
X55442000Y-93187235D02*
X64072000Y-93187235D01*
X55442000Y-93305330D02*
X64072000Y-93305330D01*
X55442000Y-93423425D02*
X64072000Y-93423425D01*
X55442000Y-93541520D02*
X64072000Y-93541520D01*
X55442000Y-93659615D02*
X64072000Y-93659615D01*
X55442000Y-93777710D02*
X64072000Y-93777710D01*
X55442000Y-93895805D02*
X64072000Y-93895805D01*
X55442000Y-94013900D02*
X64072000Y-94013900D01*
X55442000Y-94132000D02*
X64072000Y-94132000D01*
X55442000Y-96672000D02*
X64072000Y-96672000D01*
X55442000Y-99212000D02*
X64072000Y-99212000D01*
X55442000Y-101752000D02*
X64072000Y-101752000D01*
X55442000Y-104292000D02*
X64072000Y-104292000D01*
X55442000Y-106892000D02*
X64072000Y-106892000D01*
X64072000Y-91532000D02*
X64072000Y-106892000D01*
X64072000Y-92502000D02*
X64482000Y-92502000D01*
X64072000Y-93222000D02*
X64482000Y-93222000D01*
X64072000Y-95042000D02*
X64482000Y-95042000D01*
X64072000Y-95762000D02*
X64482000Y-95762000D01*
X64072000Y-97582000D02*
X64482000Y-97582000D01*
X64072000Y-98302000D02*
X64482000Y-98302000D01*
X64072000Y-100122000D02*
X64482000Y-100122000D01*
X64072000Y-100842000D02*
X64482000Y-100842000D01*
X64072000Y-102662000D02*
X64482000Y-102662000D01*
X64072000Y-103382000D02*
X64482000Y-103382000D01*
X64072000Y-105202000D02*
X64482000Y-105202000D01*
X64072000Y-105922000D02*
X64482000Y-105922000D01*
X66582000Y-92502000D02*
X66962000Y-92502000D01*
X66582000Y-93222000D02*
X66962000Y-93222000D01*
X66582000Y-95042000D02*
X67022000Y-95042000D01*
X66582000Y-95762000D02*
X67022000Y-95762000D01*
X66582000Y-97582000D02*
X67022000Y-97582000D01*
X66582000Y-98302000D02*
X67022000Y-98302000D01*
X66582000Y-100122000D02*
X67022000Y-100122000D01*
X66582000Y-100842000D02*
X67022000Y-100842000D01*
X66582000Y-102662000D02*
X67022000Y-102662000D01*
X66582000Y-103382000D02*
X67022000Y-103382000D01*
X66582000Y-105202000D02*
X67022000Y-105202000D01*
X66582000Y-105922000D02*
X67022000Y-105922000D01*
X68072000Y-91532000D02*
X69182000Y-91532000D01*
X69182000Y-91532000D02*
X69182000Y-92862000D01*
X149867500Y-48564700D02*
X150867500Y-48564700D01*
X149867500Y-51284700D02*
X150867500Y-51284700D01*
X151257500Y-51514700D02*
X151257500Y-51234700D01*
X151537500Y-51234700D01*
X151257500Y-51514700D01*
G36*
X151257500Y-51514700D02*
G01*
X151257500Y-51234700D01*
X151537500Y-51234700D01*
X151257500Y-51514700D01*
G37*
X104376000Y-137206000D02*
X104376000Y-136606000D01*
X105076000Y-135906000D02*
X106476000Y-135906000D01*
X106476000Y-137906000D02*
X105076000Y-137906000D01*
X107176000Y-136606000D02*
X107176000Y-137206000D01*
X104376000Y-136606000D02*
G75*
G02*
X105076000Y-135906000I699999J1D01*
G01*
X105076000Y-137906000D02*
G75*
G02*
X104376000Y-137206000I-1J699999D01*
G01*
X106476000Y-135906000D02*
G75*
G02*
X107176000Y-136606000I0J-700000D01*
G01*
X107176000Y-137206000D02*
G75*
G02*
X106476000Y-137906000I-700000J0D01*
G01*
X76603000Y-129156000D02*
X76603000Y-130156000D01*
X79963000Y-129156000D02*
X79963000Y-130156000D01*
X150232342Y-52182500D02*
X150706858Y-52182500D01*
X150232342Y-53227500D02*
X150706858Y-53227500D01*
X129170200Y-50419000D02*
X129170200Y-48469000D01*
X129170200Y-50419000D02*
X129170200Y-52369000D01*
X139290200Y-50419000D02*
X139290200Y-48469000D01*
X139290200Y-50419000D02*
X139290200Y-52369000D01*
X139565200Y-47959000D02*
X139235200Y-47719000D01*
X139565200Y-47479000D01*
X139565200Y-47959000D01*
G36*
X139565200Y-47959000D02*
G01*
X139235200Y-47719000D01*
X139565200Y-47479000D01*
X139565200Y-47959000D01*
G37*
X77360000Y-137905000D02*
X77360001Y-136525000D01*
X78740000Y-137904999D02*
X77360000Y-137905000D01*
X80010000Y-135145000D02*
X92820000Y-135145000D01*
X80010000Y-137905000D02*
X80010000Y-135145000D01*
X80010000Y-137905000D02*
X92820000Y-137905000D01*
X92820000Y-137905000D02*
X92820000Y-135145000D01*
D11*
X124398200Y-110434600D02*
X126198200Y-110434600D01*
X124398200Y-113034600D02*
X124398200Y-110434600D01*
X124398200Y-113034600D02*
X125798200Y-113034600D01*
X126198200Y-110434600D02*
X126198200Y-112634600D01*
D14*
X148215848Y-70680000D02*
X150988352Y-70680000D01*
X148215848Y-74100000D02*
X150988352Y-74100000D01*
X143735000Y-119880000D02*
X143735000Y-118880000D01*
X147095000Y-119880000D02*
X147095000Y-118880000D01*
X95013000Y-137905000D02*
X95013001Y-136525000D01*
X96393000Y-137904999D02*
X95013000Y-137905000D01*
X97663000Y-135145000D02*
X102853000Y-135145000D01*
X97663000Y-137905000D02*
X97663000Y-135145000D01*
X97663000Y-137905000D02*
X102853000Y-137905000D01*
X102853000Y-137905000D02*
X102853000Y-135145000D01*
X141488900Y-71560658D02*
X141488900Y-71086142D01*
X142533900Y-71560658D02*
X142533900Y-71086142D01*
X130653000Y-132635000D02*
X131983000Y-132635000D01*
X130653000Y-133965000D02*
X130653000Y-132635000D01*
X130653000Y-135235001D02*
X133253000Y-135235000D01*
X130653000Y-137835000D02*
X130653000Y-135235001D01*
X130653000Y-137835000D02*
X156173000Y-137835000D01*
X133253000Y-135235000D02*
X133253001Y-132635000D01*
X133253001Y-132635000D02*
X156173000Y-132635000D01*
X156173000Y-137835000D02*
X156173000Y-132635000D01*
X147729000Y-119869000D02*
X147729000Y-118869000D01*
X151089000Y-119869000D02*
X151089000Y-118869000D01*
X80503500Y-131143742D02*
X80503500Y-131618258D01*
X81548500Y-131143742D02*
X81548500Y-131618258D01*
X72342000Y-132574000D02*
X72342000Y-133574000D01*
X75702000Y-132574000D02*
X75702000Y-133574000D01*
X155681001Y-46711000D02*
X157481001Y-46711000D01*
X155681001Y-55651000D02*
X157481001Y-55651000D01*
X161191001Y-46711000D02*
X159731001Y-46711000D01*
X161191001Y-46711000D02*
X161191001Y-55651000D01*
X161191001Y-55651000D02*
X159731001Y-55651000D01*
X136129500Y-67750058D02*
X136129500Y-67275542D01*
X137174500Y-67750058D02*
X137174500Y-67275542D01*
D13*
X104685862Y-130025670D02*
X104947492Y-129764040D01*
X104940421Y-130280228D02*
X104685862Y-130025670D01*
X107959766Y-126751766D02*
X108221396Y-126490136D01*
X108221396Y-126490136D02*
X108475954Y-126744695D01*
X108221396Y-133561204D02*
X107959766Y-133299574D01*
X108483026Y-133299574D02*
X108221396Y-133561204D01*
X111495300Y-129764040D02*
X111756930Y-130025670D01*
X111756930Y-130025670D02*
X111495300Y-130287300D01*
X108888797Y-133801620D02*
G75*
G02*
X108628797Y-133801620I-130000J0D01*
G01*
X108628797Y-133801620D02*
G75*
G02*
X108888797Y-133801620I130000J0D01*
G01*
D14*
X134948200Y-71121181D02*
X134948200Y-70840019D01*
X135968200Y-71121181D02*
X135968200Y-70840019D01*
X110969000Y-119245000D02*
X110969000Y-118245000D01*
X114329000Y-119245000D02*
X114329000Y-118245000D01*
X61693000Y-134871000D02*
X61693000Y-135871000D01*
X65053000Y-134871000D02*
X65053000Y-135871000D01*
%LPC*%
G36*
X105626000Y-136156000D02*
G01*
X105926000Y-136156000D01*
X105926000Y-137656000D01*
X105626000Y-137656000D01*
X105626000Y-136156000D01*
G37*
D16*
X129413000Y-111633000D03*
D17*
X129413000Y-114173000D03*
X129413000Y-116713000D03*
X129413000Y-119253000D03*
D18*
X99593400Y-117275200D03*
X98593402Y-117275200D03*
X98593402Y-119075200D03*
X99593400Y-119075200D03*
D19*
X90805000Y-124854000D03*
X90805000Y-123304000D03*
X69291200Y-127165400D03*
X69291200Y-125615400D03*
D18*
X72822000Y-130556000D03*
D20*
X73622000Y-130556000D03*
X74422000Y-130556000D03*
D18*
X75222000Y-130556000D03*
X75222000Y-128756000D03*
D20*
X74422000Y-128756000D03*
X73622000Y-128756000D03*
D18*
X72822000Y-128756000D03*
D19*
X132257800Y-71742600D03*
X132257800Y-70192600D03*
D21*
X68795000Y-114935000D03*
X69295000Y-114935000D03*
X69795000Y-114935000D03*
X70295000Y-114935000D03*
X70795000Y-114935000D03*
X71295000Y-114935000D03*
X71795000Y-114935000D03*
X72295000Y-114935000D03*
X72795000Y-114935000D03*
X73295000Y-114935000D03*
X73795000Y-114935000D03*
X74295000Y-114935000D03*
X74795000Y-114935000D03*
X75295000Y-114935000D03*
X75795000Y-114935000D03*
X76295000Y-114935000D03*
X76795000Y-114935000D03*
X77295000Y-114935000D03*
X77795000Y-114935000D03*
X78295000Y-114935000D03*
X78795000Y-114935000D03*
X79295000Y-114935000D03*
X79795000Y-114935000D03*
X80295000Y-114935000D03*
X80795000Y-114935000D03*
X81295000Y-114935000D03*
X81795000Y-114935000D03*
X82295000Y-114935000D03*
X82795000Y-114935000D03*
X83295000Y-114935000D03*
X83795000Y-114935000D03*
X84295000Y-114935000D03*
X84795000Y-114935000D03*
X85295000Y-114935000D03*
D22*
X86995000Y-112495000D03*
X67095000Y-112495000D03*
D18*
X104197000Y-117845000D03*
D20*
X103397000Y-117845000D03*
X102597000Y-117845000D03*
D18*
X101797000Y-117845000D03*
X101797000Y-119645000D03*
D20*
X102597000Y-119645000D03*
X103397000Y-119645000D03*
D18*
X104197000Y-119645000D03*
D19*
X80568800Y-122187000D03*
X80568800Y-120637000D03*
D23*
X75410301Y-136575800D03*
X73535299Y-136575800D03*
D24*
X143637000Y-72173600D03*
X143637000Y-70523600D03*
D18*
X66148000Y-132842000D03*
D20*
X66948000Y-132842000D03*
X67748000Y-132842000D03*
D18*
X68548000Y-132842000D03*
X68548000Y-131042000D03*
D20*
X67748000Y-131042000D03*
X66948000Y-131042000D03*
D18*
X66148000Y-131042000D03*
D25*
X108268000Y-137414000D03*
X109918000Y-137414000D03*
D26*
X91135200Y-126962400D03*
X91135200Y-128612400D03*
D18*
X77083000Y-133985000D03*
D20*
X77883000Y-133985000D03*
X78683000Y-133985000D03*
D18*
X79483000Y-133985000D03*
X79483000Y-132185000D03*
D20*
X78683000Y-132185000D03*
X77883000Y-132185000D03*
D18*
X77083000Y-132185000D03*
D27*
X158572200Y-112547400D03*
X157732200Y-112547400D03*
X157732200Y-111047400D03*
X158572200Y-111047400D03*
D26*
X135051800Y-66713600D03*
X135051800Y-68363600D03*
D28*
X111620000Y-122555000D03*
X113170000Y-122555000D03*
X104431800Y-122961400D03*
X105981800Y-122961400D03*
D18*
X62173000Y-132842000D03*
D20*
X62973000Y-132842000D03*
X63773000Y-132842000D03*
D18*
X64573000Y-132842000D03*
X64573000Y-131042000D03*
D20*
X63773000Y-131042000D03*
X62973000Y-131042000D03*
D18*
X62173000Y-131042000D03*
D21*
X102621000Y-114885000D03*
X103121000Y-114885000D03*
X103621000Y-114885000D03*
X104121000Y-114885000D03*
X104621000Y-114885000D03*
X105121000Y-114885000D03*
X105621000Y-114885000D03*
X106121000Y-114885000D03*
X106621000Y-114885000D03*
X107121000Y-114885000D03*
X107621000Y-114885000D03*
X108121000Y-114885000D03*
X108621000Y-114885000D03*
X109121000Y-114885000D03*
X109621000Y-114885000D03*
X110121000Y-114885000D03*
X110621000Y-114885000D03*
X111121000Y-114885000D03*
X111621000Y-114885000D03*
X112121000Y-114885000D03*
X112621000Y-114885000D03*
X113121000Y-114885000D03*
X113621000Y-114885000D03*
X114121000Y-114885000D03*
X114621000Y-114885000D03*
X115121000Y-114885000D03*
X115621000Y-114885000D03*
X116121000Y-114885000D03*
X116621000Y-114885000D03*
X117121000Y-114885000D03*
X117621000Y-114885000D03*
X118121000Y-114885000D03*
X118621000Y-114885000D03*
X119121000Y-114885000D03*
D22*
X120821000Y-112445000D03*
X100921000Y-112445000D03*
D29*
X145034000Y-71670000D03*
X145034000Y-70570000D03*
D19*
X90805000Y-121806000D03*
X90805000Y-120256000D03*
D16*
X95758000Y-111633000D03*
D17*
X95758000Y-114173000D03*
X95758000Y-116713000D03*
X95758000Y-119253000D03*
D18*
X108280000Y-117845000D03*
D20*
X107480000Y-117845000D03*
X106680000Y-117845000D03*
D18*
X105880000Y-117845000D03*
X105880000Y-119645000D03*
D20*
X106680000Y-119645000D03*
X107480000Y-119645000D03*
D18*
X108280000Y-119645000D03*
D30*
X158482800Y-114554000D03*
X156832800Y-114554000D03*
D31*
X79125000Y-120835500D03*
X78475000Y-120835500D03*
X77825000Y-120835500D03*
X77175000Y-120835500D03*
X76525000Y-120835500D03*
X75875000Y-120835500D03*
X75225000Y-120835500D03*
X74575000Y-120835500D03*
X73925000Y-120835500D03*
X73275000Y-120835500D03*
X73275000Y-126560500D03*
X73925000Y-126560500D03*
X74575000Y-126560500D03*
X75225000Y-126560500D03*
X75875000Y-126560500D03*
X76525000Y-126560500D03*
X77175000Y-126560500D03*
X77825000Y-126560500D03*
X78475000Y-126560500D03*
X79125000Y-126560500D03*
D32*
X66801500Y-64003000D03*
X66801500Y-63503000D03*
X66801500Y-63003000D03*
X66801500Y-62503000D03*
X66801500Y-62003000D03*
X66801500Y-61503000D03*
X66801500Y-61003000D03*
X66801500Y-60503000D03*
X66801500Y-60003000D03*
X66801500Y-59503000D03*
X66801500Y-59003000D03*
X66801500Y-58503000D03*
X66801500Y-58003000D03*
X66801500Y-57503000D03*
X66801500Y-57003000D03*
X66801500Y-56503000D03*
X66801500Y-56003000D03*
X66801500Y-55503000D03*
X66801500Y-55003000D03*
X66801500Y-54503000D03*
X66801500Y-54003000D03*
X66801500Y-53503000D03*
X66801500Y-53003000D03*
X66801500Y-52503000D03*
X66801500Y-52003000D03*
X66801500Y-51503000D03*
X66801500Y-51003000D03*
X66801500Y-50503000D03*
X66801500Y-50003000D03*
X66801500Y-49503000D03*
X66801500Y-49003000D03*
X66801500Y-48503000D03*
X66801500Y-48003000D03*
X66801500Y-47503000D03*
D33*
X64361500Y-45803000D03*
X64361500Y-65703000D03*
D26*
X70129400Y-132855200D03*
X70129400Y-134505200D03*
D34*
X143548400Y-69037200D03*
X141998400Y-69037200D03*
D18*
X137160000Y-118480000D03*
D20*
X136360000Y-118480000D03*
X135560000Y-118480000D03*
D18*
X134760000Y-118480000D03*
X134760000Y-120280000D03*
D20*
X135560000Y-120280000D03*
X136360000Y-120280000D03*
D18*
X137160000Y-120280000D03*
D16*
X68072000Y-69977000D03*
D17*
X65532000Y-69977000D03*
X68072000Y-72517000D03*
X65532000Y-72517000D03*
X68072000Y-75057000D03*
X65532000Y-75057000D03*
X68072000Y-77597000D03*
X65532000Y-77597000D03*
X68072000Y-80137000D03*
X65532000Y-80137000D03*
X68072000Y-82677000D03*
X65532000Y-82677000D03*
D18*
X117913000Y-117845000D03*
D20*
X117113000Y-117845000D03*
X116313000Y-117845000D03*
D18*
X115513000Y-117845000D03*
X115513000Y-119645000D03*
D20*
X116313000Y-119645000D03*
X117113000Y-119645000D03*
D18*
X117913000Y-119645000D03*
D26*
X70129400Y-129756400D03*
X70129400Y-131406400D03*
D35*
X146088399Y-68393800D03*
X146088398Y-67893800D03*
D36*
X146050898Y-67393800D03*
D35*
X146088398Y-66893800D03*
X146088399Y-66393800D03*
X145313399Y-66393800D03*
X145313400Y-66893800D03*
D37*
X145288398Y-67393800D03*
D35*
X145313400Y-67893800D03*
X145313399Y-68393800D03*
D38*
X154907600Y-69643200D03*
X154907600Y-63863200D03*
D39*
X153847600Y-69953200D03*
X153847600Y-69153200D03*
D40*
X153847600Y-68003199D03*
X153847600Y-67003200D03*
X153847600Y-66503200D03*
X153847600Y-65503201D03*
D39*
X153847600Y-64353200D03*
X153847600Y-63553200D03*
X153847600Y-63553200D03*
X153847600Y-64353200D03*
D40*
X153847600Y-65003200D03*
X153847600Y-66003200D03*
X153847600Y-67503200D03*
X153847600Y-68503200D03*
D39*
X153847600Y-69153200D03*
X153847600Y-69953200D03*
D41*
X154427600Y-71073200D03*
D42*
X158597600Y-71073200D03*
D41*
X154427600Y-62433200D03*
D42*
X158597600Y-62433200D03*
D19*
X80467200Y-125235000D03*
X80467200Y-123685000D03*
D43*
X104521000Y-127381000D03*
X105617016Y-126284984D03*
D31*
X89371000Y-120513000D03*
X88721000Y-120513000D03*
X88071000Y-120513000D03*
X87421000Y-120513000D03*
X86771000Y-120513000D03*
X86121000Y-120513000D03*
X85471000Y-120513000D03*
X84821000Y-120513000D03*
X84171000Y-120513000D03*
X83521000Y-120513000D03*
X83521000Y-126238000D03*
X84171000Y-126238000D03*
X84821000Y-126238000D03*
X85471000Y-126238000D03*
X86121000Y-126238000D03*
X86771000Y-126238000D03*
X87421000Y-126238000D03*
X88071000Y-126238000D03*
X88721000Y-126238000D03*
X89371000Y-126238000D03*
X67949000Y-122867500D03*
X67299000Y-122867500D03*
X66649000Y-122867500D03*
X65999000Y-122867500D03*
X65349000Y-122867500D03*
X64699000Y-122867500D03*
X64049000Y-122867500D03*
X63399000Y-122867500D03*
X62749000Y-122867500D03*
X62099000Y-122867500D03*
X62099000Y-128592500D03*
X62749000Y-128592500D03*
X63399000Y-128592500D03*
X64049000Y-128592500D03*
X64699000Y-128592500D03*
X65349000Y-128592500D03*
X65999000Y-128592500D03*
X66649000Y-128592500D03*
X67299000Y-128592500D03*
X67949000Y-128592500D03*
D18*
X66129000Y-136282000D03*
D20*
X66929000Y-136282000D03*
X67729000Y-136282000D03*
D18*
X68529000Y-136282000D03*
X68529000Y-134482000D03*
D20*
X67729000Y-134482000D03*
X66929000Y-134482000D03*
D18*
X66129000Y-134482000D03*
X142551000Y-118491000D03*
D20*
X141751000Y-118491000D03*
X140951000Y-118491000D03*
D18*
X140151000Y-118491000D03*
X140151000Y-120291000D03*
D20*
X140951000Y-120291000D03*
X141751000Y-120291000D03*
D18*
X142551000Y-120291000D03*
D32*
X154178500Y-80065800D03*
X154178500Y-80565800D03*
X154178500Y-81065800D03*
X154178500Y-81565800D03*
X154178500Y-82065800D03*
X154178500Y-82565800D03*
X154178500Y-83065800D03*
X154178500Y-83565800D03*
X154178500Y-84065800D03*
X154178500Y-84565800D03*
X154178500Y-85065800D03*
X154178500Y-85565800D03*
X154178500Y-86065800D03*
X154178500Y-86565800D03*
X154178500Y-87065800D03*
X154178500Y-87565800D03*
X154178500Y-88065800D03*
X154178500Y-88565800D03*
X154178500Y-89065800D03*
X154178500Y-89565800D03*
X154178500Y-90065800D03*
X154178500Y-90565800D03*
X154178500Y-91065800D03*
X154178500Y-91565800D03*
X154178500Y-92065800D03*
X154178500Y-92565800D03*
X154178500Y-93065800D03*
X154178500Y-93565800D03*
X154178500Y-94065800D03*
X154178500Y-94565800D03*
X154178500Y-95065800D03*
X154178500Y-95565800D03*
X154178500Y-96065800D03*
X154178500Y-96565800D03*
D33*
X156618500Y-98265800D03*
X156618500Y-78365800D03*
D30*
X125310400Y-114528600D03*
X123660400Y-114528600D03*
D18*
X87211000Y-133499000D03*
D20*
X88011000Y-133499000D03*
X88811000Y-133499000D03*
D18*
X89611000Y-133499000D03*
X89611000Y-131699000D03*
D20*
X88811000Y-131699000D03*
X88011000Y-131699000D03*
D18*
X87211000Y-131699000D03*
X83128000Y-130059000D03*
D20*
X83928000Y-130059000D03*
X84728000Y-130059000D03*
D18*
X85528000Y-130059000D03*
X85528000Y-128259000D03*
D20*
X84728000Y-128259000D03*
X83928000Y-128259000D03*
D18*
X83128000Y-128259000D03*
D25*
X149568400Y-47498000D03*
X151218400Y-47498000D03*
D44*
X71755000Y-45085000D03*
X71755000Y-42545000D03*
X74295000Y-45085000D03*
X74295000Y-42545000D03*
X76835000Y-45085000D03*
X76835000Y-42545000D03*
X79375000Y-45085000D03*
X79375000Y-42545000D03*
X81915000Y-45085000D03*
X81915000Y-42545000D03*
X84455000Y-45085000D03*
X84455000Y-42545000D03*
X86995000Y-45085000D03*
X86995000Y-42545000D03*
X89535000Y-45085000D03*
X89535000Y-42545000D03*
X92075000Y-45085000D03*
X92075000Y-42545000D03*
X94615000Y-45085000D03*
X94615000Y-42545000D03*
X97155000Y-45085000D03*
X97155000Y-42545000D03*
X99695000Y-45085000D03*
X99695000Y-42545000D03*
X102235000Y-45085000D03*
X102235000Y-42545000D03*
X104775000Y-45085000D03*
X104775000Y-42545000D03*
X107315000Y-45085000D03*
X107315000Y-42545000D03*
X109855000Y-45085000D03*
X109855000Y-42545000D03*
X112395000Y-45085000D03*
X112395000Y-42545000D03*
X114935000Y-45085000D03*
X114935000Y-42545000D03*
X117475000Y-45085000D03*
X117475000Y-42545000D03*
X120015000Y-45085000D03*
X120015000Y-42545000D03*
X122555000Y-45085000D03*
X122555000Y-42545000D03*
X125095000Y-45085000D03*
X125095000Y-42545000D03*
X127635000Y-45085000D03*
X127635000Y-42545000D03*
X130175000Y-45085000D03*
X130175000Y-42545000D03*
X132715000Y-45085000D03*
X132715000Y-42545000D03*
X135255000Y-45085000D03*
X135255000Y-42545000D03*
X137795000Y-45085000D03*
X137795000Y-42545000D03*
X140335000Y-45085000D03*
X140335000Y-42545000D03*
X142875000Y-45085000D03*
X142875000Y-42545000D03*
X145415000Y-45085000D03*
X145415000Y-42545000D03*
X147955000Y-45085000D03*
X147955000Y-42545000D03*
X150495000Y-45085000D03*
X150495000Y-42545000D03*
X71755000Y-106045000D03*
X71755000Y-103505000D03*
X74295000Y-106045000D03*
X74295000Y-103505000D03*
X76835000Y-106045000D03*
X76835000Y-103505000D03*
X79375000Y-106045000D03*
X79375000Y-103505000D03*
X81915000Y-106045000D03*
X81915000Y-103505000D03*
X84455000Y-106045000D03*
X84455000Y-103505000D03*
X86995000Y-106045000D03*
X86995000Y-103505000D03*
X89535000Y-106045000D03*
X89535000Y-103505000D03*
X92075000Y-106045000D03*
X92075000Y-103505000D03*
X94615000Y-106045000D03*
X94615000Y-103505000D03*
X97155000Y-106045000D03*
X97155000Y-103505000D03*
X99695000Y-106045000D03*
X99695000Y-103505000D03*
X102235000Y-106045000D03*
X102235000Y-103505000D03*
X104775000Y-106045000D03*
X104775000Y-103505000D03*
X107315000Y-106045000D03*
X107315000Y-103505000D03*
X109855000Y-106045000D03*
X109855000Y-103505000D03*
X112395000Y-106045000D03*
X112395000Y-103505000D03*
X114935000Y-106045000D03*
X114935000Y-103505000D03*
X117475000Y-106045000D03*
X117475000Y-103505000D03*
X120015000Y-106045000D03*
X120015000Y-103505000D03*
X122555000Y-106045000D03*
X122555000Y-103505000D03*
X125095000Y-106045000D03*
X125095000Y-103505000D03*
X127635000Y-106045000D03*
X127635000Y-103505000D03*
X130175000Y-106045000D03*
X130175000Y-103505000D03*
X132715000Y-106045000D03*
X132715000Y-103505000D03*
X135255000Y-106045000D03*
X135255000Y-103505000D03*
X137795000Y-106045000D03*
X137795000Y-103505000D03*
X140335000Y-106045000D03*
X140335000Y-103505000D03*
X142875000Y-106045000D03*
X142875000Y-103505000D03*
X145415000Y-106045000D03*
X145415000Y-103505000D03*
X147955000Y-106045000D03*
X147955000Y-103505000D03*
X150495000Y-106045000D03*
X150495000Y-103505000D03*
D45*
X141912000Y-67421000D03*
X141912000Y-66921000D03*
X141912000Y-66421000D03*
X141912000Y-65921000D03*
X141912000Y-65421000D03*
X139012000Y-65421000D03*
X139012000Y-65921000D03*
X139012000Y-66421000D03*
X139012000Y-66921000D03*
X139012000Y-67421000D03*
D46*
X140462000Y-66421000D03*
D34*
X138849400Y-55346600D03*
X137299400Y-55346600D03*
D47*
X107442000Y-122948400D03*
X107442000Y-124498400D03*
D26*
X91135200Y-130061200D03*
X91135200Y-131711200D03*
D19*
X133853400Y-71742600D03*
X133853400Y-70192600D03*
D25*
X70168000Y-136652000D03*
X71818000Y-136652000D03*
D19*
X115062000Y-126365000D03*
X115062000Y-124815000D03*
D48*
X159017400Y-75322800D03*
X159017400Y-76162800D03*
X157517400Y-76162800D03*
X157517400Y-75322800D03*
D49*
X140081000Y-73354600D03*
X140081000Y-72694600D03*
X140081000Y-72034600D03*
X140081000Y-71374600D03*
D50*
X138088500Y-72364600D03*
D16*
X116967000Y-136525000D03*
D17*
X119507000Y-136525000D03*
X122046999Y-136525000D03*
D21*
X134625000Y-114807500D03*
X135125000Y-114807500D03*
X135625000Y-114807500D03*
X136125000Y-114807500D03*
X136625000Y-114807500D03*
X137125000Y-114807500D03*
X137625000Y-114807500D03*
X138125000Y-114807500D03*
X138625000Y-114807500D03*
X139125000Y-114807500D03*
X139625000Y-114807500D03*
X140125000Y-114807500D03*
X140625000Y-114807500D03*
X141125000Y-114807500D03*
X141625000Y-114807500D03*
X142125000Y-114807500D03*
X142625000Y-114807500D03*
X143125000Y-114807500D03*
X143625000Y-114807500D03*
X144125000Y-114807500D03*
X144625000Y-114807500D03*
X145125000Y-114807500D03*
X145625000Y-114807500D03*
X146125000Y-114807500D03*
X146625000Y-114807500D03*
X147125000Y-114807500D03*
X147625000Y-114807500D03*
X148125000Y-114807500D03*
X148625000Y-114807500D03*
X149125000Y-114807500D03*
X149625000Y-114807500D03*
X150125000Y-114807500D03*
X150625000Y-114807500D03*
X151125000Y-114807500D03*
D22*
X152825000Y-112367500D03*
X132925000Y-112367500D03*
D19*
X69342000Y-124168200D03*
X69342000Y-122618200D03*
D51*
X113233000Y-126746000D03*
X113233000Y-124546000D03*
X111633000Y-124546000D03*
X111633000Y-126746000D03*
D18*
X87192000Y-130070000D03*
D20*
X87992000Y-130070000D03*
X88792000Y-130070000D03*
D18*
X89592000Y-130070000D03*
X89592000Y-128270000D03*
D20*
X88792000Y-128270000D03*
X87992000Y-128270000D03*
D18*
X87192000Y-128270000D03*
D30*
X106031800Y-124485400D03*
X104381800Y-124485400D03*
D18*
X83128000Y-133488000D03*
D20*
X83928000Y-133488000D03*
X84728000Y-133488000D03*
D18*
X85528000Y-133488000D03*
X85528000Y-131688000D03*
D20*
X84728000Y-131688000D03*
X83928000Y-131688000D03*
D18*
X83128000Y-131688000D03*
D26*
X81026000Y-127445000D03*
X81026000Y-129095000D03*
D16*
X68072000Y-92862000D03*
D17*
X65532000Y-92862000D03*
X68072000Y-95402000D03*
X65532000Y-95402000D03*
X68072000Y-97942000D03*
X65532000Y-97942000D03*
X68072000Y-100482000D03*
X65532000Y-100482000D03*
X68072000Y-103022000D03*
X65532000Y-103022000D03*
X68072000Y-105562000D03*
X65532000Y-105562000D03*
D35*
X150755000Y-50924700D03*
X150754999Y-50424700D03*
D36*
X150717499Y-49924700D03*
D35*
X150754999Y-49424700D03*
X150755000Y-48924700D03*
X149980000Y-48924700D03*
X149980001Y-49424700D03*
D37*
X149954999Y-49924700D03*
D35*
X149980001Y-50424700D03*
X149980000Y-50924700D03*
D52*
X105126000Y-136906000D03*
D53*
X106426000Y-136906000D03*
D18*
X77083000Y-130556000D03*
D20*
X77883000Y-130556000D03*
X78683000Y-130556000D03*
D18*
X79483000Y-130556000D03*
X79483000Y-128756000D03*
D20*
X78683000Y-128756000D03*
X77883000Y-128756000D03*
D18*
X77083000Y-128756000D03*
D25*
X149644600Y-52705000D03*
X151294600Y-52705000D03*
D54*
X138675200Y-47944000D03*
X137405200Y-47944000D03*
X136135200Y-47944000D03*
X134865200Y-47944000D03*
X133595200Y-47944000D03*
X132325200Y-47944000D03*
X131055200Y-47944000D03*
X129785200Y-47944000D03*
X129785200Y-52894000D03*
X131055200Y-52894000D03*
X132325200Y-52894000D03*
X133595200Y-52894000D03*
X134865200Y-52894000D03*
X136135200Y-52894000D03*
X137405200Y-52894000D03*
X138675200Y-52894000D03*
D16*
X78740000Y-136525000D03*
D17*
X81280000Y-136525000D03*
X83819999Y-136525000D03*
X86360000Y-136525000D03*
X88900000Y-136525000D03*
X91440000Y-136525000D03*
D27*
X125718200Y-112484600D03*
X124878200Y-112484600D03*
X124878200Y-110984600D03*
X125718200Y-110984600D03*
D55*
X147464600Y-72390000D03*
X151739600Y-72390000D03*
D18*
X146615000Y-118480000D03*
D20*
X145815000Y-118480000D03*
X145015000Y-118480000D03*
D18*
X144215000Y-118480000D03*
X144215000Y-120280000D03*
D20*
X145015000Y-120280000D03*
X145815000Y-120280000D03*
D18*
X146615000Y-120280000D03*
D16*
X96393000Y-136525000D03*
D17*
X98933000Y-136525000D03*
X101472999Y-136525000D03*
D24*
X142011400Y-72148400D03*
X142011400Y-70498400D03*
D16*
X131983000Y-133965000D03*
D17*
X131983000Y-136505000D03*
X134523000Y-133965000D03*
X134523000Y-136505000D03*
X137062999Y-133965000D03*
X137063000Y-136505000D03*
X139603000Y-133965000D03*
X139603000Y-136505000D03*
X142143000Y-133965000D03*
X142143000Y-136505000D03*
X144683000Y-133965000D03*
X144683000Y-136505000D03*
X147223000Y-133965000D03*
X147223000Y-136505000D03*
X149763001Y-133965000D03*
X149763000Y-136505000D03*
X152303000Y-133965000D03*
X152303000Y-136505000D03*
X154843000Y-133965000D03*
X154843000Y-136505000D03*
D18*
X150609000Y-118469000D03*
D20*
X149809000Y-118469000D03*
X149009000Y-118469000D03*
D18*
X148209000Y-118469000D03*
X148209000Y-120269000D03*
D20*
X149009000Y-120269000D03*
X149809000Y-120269000D03*
D18*
X150609000Y-120269000D03*
D26*
X81026000Y-130556000D03*
X81026000Y-132206000D03*
D18*
X72822000Y-133974000D03*
D20*
X73622000Y-133974000D03*
X74422000Y-133974000D03*
D18*
X75222000Y-133974000D03*
X75222000Y-132174000D03*
D20*
X74422000Y-132174000D03*
X73622000Y-132174000D03*
D18*
X72822000Y-132174000D03*
D38*
X154901001Y-54071000D03*
X154901001Y-48291000D03*
D39*
X153841001Y-54381000D03*
X153841001Y-53581000D03*
D40*
X153841001Y-52430999D03*
X153841001Y-51431000D03*
X153841001Y-50931000D03*
X153841001Y-49931001D03*
D39*
X153841001Y-48781000D03*
X153841001Y-47981000D03*
X153841001Y-47981000D03*
X153841001Y-48781000D03*
D40*
X153841001Y-49431000D03*
X153841001Y-50431000D03*
X153841001Y-51931000D03*
X153841001Y-52931000D03*
D39*
X153841001Y-53581000D03*
X153841001Y-54381000D03*
D41*
X154421001Y-55501000D03*
D42*
X158591001Y-55501000D03*
D41*
X154421001Y-46861000D03*
D42*
X158591001Y-46861000D03*
D24*
X136652000Y-68337800D03*
X136652000Y-66687800D03*
D56*
X108751726Y-133030874D03*
X109105279Y-132677320D03*
X109458833Y-132323767D03*
X109812386Y-131970214D03*
X110165940Y-131616660D03*
X110519493Y-131263107D03*
X110873046Y-130909553D03*
X111226600Y-130556000D03*
D57*
X111226600Y-129495340D03*
X110873046Y-129141787D03*
X110519493Y-128788233D03*
X110165940Y-128434680D03*
X109812386Y-128081126D03*
X109458833Y-127727573D03*
X109105279Y-127374020D03*
X108751726Y-127020466D03*
D58*
X107691066Y-127020466D03*
X107337513Y-127374020D03*
X106983959Y-127727573D03*
X106630406Y-128081126D03*
X106276852Y-128434680D03*
X105923299Y-128788233D03*
X105569746Y-129141787D03*
X105216192Y-129495340D03*
D59*
X105216192Y-130556000D03*
X105569746Y-130909553D03*
X105923299Y-131263107D03*
X106276852Y-131616660D03*
X106630406Y-131970214D03*
X106983959Y-132323767D03*
X107337513Y-132677320D03*
X107691066Y-133030874D03*
D60*
X108221396Y-130025670D03*
D19*
X135458200Y-71755600D03*
X135458200Y-70205600D03*
D18*
X113849000Y-117845000D03*
D20*
X113049000Y-117845000D03*
X112249000Y-117845000D03*
D18*
X111449000Y-117845000D03*
X111449000Y-119645000D03*
D20*
X112249000Y-119645000D03*
X113049000Y-119645000D03*
D18*
X113849000Y-119645000D03*
X62173000Y-136271000D03*
D20*
X62973000Y-136271000D03*
X63773000Y-136271000D03*
D18*
X64573000Y-136271000D03*
X64573000Y-134471000D03*
D20*
X63773000Y-134471000D03*
X62973000Y-134471000D03*
D18*
X62173000Y-134471000D03*
D61*
X155973800Y-52538200D03*
X155973800Y-60538200D03*
%LPD*%
M02*
