%TF.GenerationSoftware,KiCad,Pcbnew,9.0.2-2.fc42*%
%TF.CreationDate,2025-07-11T19:53:28+03:00*%
%TF.ProjectId,QMTECH_XC7A100T-Expantion-Board,514d5445-4348-45f5-9843-374131303054,rev?*%
%TF.SameCoordinates,Original*%
%TF.FileFunction,Drillmap*%
%TF.FilePolarity,Positive*%
%FSLAX45Y45*%
G04 Gerber Fmt 4.5, Leading zero omitted, Abs format (unit mm)*
G04 Created by KiCad (PCBNEW 9.0.2-2.fc42) date 2025-07-11 19:53:28*
%MOMM*%
%LPD*%
G01*
G04 APERTURE LIST*
%ADD10C,0.100000*%
%ADD11C,0.200000*%
G04 APERTURE END LIST*
D10*
X15935960Y-4221480D02*
G75*
G02*
X15636240Y-4221480I-149860J0D01*
G01*
X15636240Y-4221480D02*
G75*
G02*
X15935960Y-4221480I149860J0D01*
G01*
X6096000Y-3991396D02*
X16002000Y-3991396D01*
X16002000Y-13843000D01*
X6096000Y-13843000D01*
X6096000Y-3991396D01*
D11*
D10*
X6187600Y-12174380D02*
X6207600Y-12194380D01*
X6207600Y-12174380D02*
X6187600Y-12194380D01*
X6200300Y-11966100D02*
X6220300Y-11986100D01*
X6220300Y-11966100D02*
X6200300Y-11986100D01*
X6202840Y-12100720D02*
X6222840Y-12120720D01*
X6222840Y-12100720D02*
X6202840Y-12120720D01*
X6213000Y-11712100D02*
X6233000Y-11732100D01*
X6233000Y-11712100D02*
X6213000Y-11732100D01*
X6225700Y-11892440D02*
X6245700Y-11912440D01*
X6245700Y-11892440D02*
X6225700Y-11912440D01*
X6271420Y-11160920D02*
X6291420Y-11180920D01*
X6291420Y-11160920D02*
X6271420Y-11180920D01*
X6279040Y-11968640D02*
X6299040Y-11988640D01*
X6299040Y-11968640D02*
X6279040Y-11988640D01*
X6281580Y-11315860D02*
X6301580Y-11335860D01*
X6301580Y-11315860D02*
X6281580Y-11335860D01*
X6289200Y-11394600D02*
X6309200Y-11414600D01*
X6309200Y-11394600D02*
X6289200Y-11414600D01*
X6306980Y-11882280D02*
X6326980Y-11902280D01*
X6326980Y-11882280D02*
X6306980Y-11902280D01*
X6342540Y-11453020D02*
X6362540Y-11473020D01*
X6362540Y-11453020D02*
X6342540Y-11473020D01*
X6431440Y-11422540D02*
X6451440Y-11442540D01*
X6451440Y-11422540D02*
X6431440Y-11442540D01*
X6449220Y-6225700D02*
X6469220Y-6245700D01*
X6469220Y-6225700D02*
X6449220Y-6245700D01*
X6451760Y-11493660D02*
X6471760Y-11513660D01*
X6471760Y-11493660D02*
X6451760Y-11513660D01*
X6520340Y-6210460D02*
X6540340Y-6230460D01*
X6540340Y-6210460D02*
X6520340Y-6230460D01*
X6569870Y-4710590D02*
X6589870Y-4730590D01*
X6589870Y-4710590D02*
X6569870Y-4730590D01*
X6601620Y-11547000D02*
X6621620Y-11567000D01*
X6621620Y-11547000D02*
X6601620Y-11567000D01*
X6682900Y-12702700D02*
X6702900Y-12722700D01*
X6702900Y-12702700D02*
X6682900Y-12722700D01*
X6728620Y-11549540D02*
X6748620Y-11569540D01*
X6748620Y-11549540D02*
X6728620Y-11569540D01*
X6792120Y-12496960D02*
X6812120Y-12516960D01*
X6812120Y-12496960D02*
X6792120Y-12516960D01*
X6792120Y-12705240D02*
X6812120Y-12725240D01*
X6812120Y-12705240D02*
X6792120Y-12725240D01*
X6794660Y-6375560D02*
X6814660Y-6395560D01*
X6814660Y-6375560D02*
X6794660Y-6395560D01*
X6802280Y-6248560D02*
X6822280Y-6268560D01*
X6822280Y-6248560D02*
X6802280Y-6268560D01*
X6812440Y-12598560D02*
X6832440Y-12618560D01*
X6832440Y-12598560D02*
X6812440Y-12618560D01*
X6853080Y-6314600D02*
X6873080Y-6334600D01*
X6873080Y-6314600D02*
X6853080Y-6334600D01*
X6858160Y-11252360D02*
X6878160Y-11272360D01*
X6878160Y-11252360D02*
X6858160Y-11272360D01*
X6865780Y-11379360D02*
X6885780Y-11399360D01*
X6885780Y-11379360D02*
X6865780Y-11399360D01*
X6893720Y-6380640D02*
X6913720Y-6400640D01*
X6913720Y-6380640D02*
X6893720Y-6400640D01*
X6901340Y-6253640D02*
X6921340Y-6273640D01*
X6921340Y-6253640D02*
X6901340Y-6273640D01*
X6920390Y-11309510D02*
X6940390Y-11329510D01*
X6940390Y-11309510D02*
X6920390Y-11329510D01*
X6926740Y-12949080D02*
X6946740Y-12969080D01*
X6946740Y-12949080D02*
X6926740Y-12969080D01*
X6975000Y-11244740D02*
X6995000Y-11264740D01*
X6995000Y-11244740D02*
X6975000Y-11264740D01*
X6985160Y-12314080D02*
X7005160Y-12334080D01*
X7005160Y-12314080D02*
X6985160Y-12334080D01*
X6987700Y-11351420D02*
X7007700Y-11371420D01*
X7007700Y-11351420D02*
X6987700Y-11371420D01*
X7000400Y-12486800D02*
X7020400Y-12506800D01*
X7020400Y-12486800D02*
X7000400Y-12506800D01*
X7020720Y-12253120D02*
X7040720Y-12273120D01*
X7040720Y-12253120D02*
X7020720Y-12273120D01*
X7030880Y-12380120D02*
X7050880Y-12400120D01*
X7050880Y-12380120D02*
X7030880Y-12400120D01*
X7030880Y-12568080D02*
X7050880Y-12588080D01*
X7050880Y-12568080D02*
X7030880Y-12588080D01*
X7074060Y-11343800D02*
X7094060Y-11363800D01*
X7094060Y-11343800D02*
X7074060Y-11363800D01*
X7076600Y-11249820D02*
X7096600Y-11269820D01*
X7096600Y-11249820D02*
X7076600Y-11269820D01*
X7310280Y-12179460D02*
X7330280Y-12199460D01*
X7330280Y-12179460D02*
X7310280Y-12199460D01*
X7310280Y-12255660D02*
X7330280Y-12275660D01*
X7330280Y-12255660D02*
X7310280Y-12275660D01*
X7632860Y-13647580D02*
X7652860Y-13667580D01*
X7652860Y-13647580D02*
X7632860Y-13667580D01*
X7813200Y-12499500D02*
X7833200Y-12519500D01*
X7833200Y-12499500D02*
X7813200Y-12519500D01*
X7899560Y-12222640D02*
X7919560Y-12242640D01*
X7919560Y-12222640D02*
X7899560Y-12242640D01*
X7909720Y-12364880D02*
X7929720Y-12384880D01*
X7929720Y-12364880D02*
X7909720Y-12384880D01*
X7914800Y-12527440D02*
X7934800Y-12547440D01*
X7934800Y-12527440D02*
X7914800Y-12547440D01*
X7955440Y-12461400D02*
X7975440Y-12481400D01*
X7975440Y-12461400D02*
X7955440Y-12481400D01*
X7960520Y-12283600D02*
X7980520Y-12303600D01*
X7980520Y-12283600D02*
X7960520Y-12303600D01*
X8082440Y-12662060D02*
X8102440Y-12682060D01*
X8102440Y-12662060D02*
X8082440Y-12682060D01*
X8123080Y-12115960D02*
X8143080Y-12135960D01*
X8143080Y-12115960D02*
X8123080Y-12135960D01*
X8133240Y-12039760D02*
X8153240Y-12059760D01*
X8153240Y-12039760D02*
X8133240Y-12059760D01*
X8133240Y-12395360D02*
X8153240Y-12415360D01*
X8153240Y-12395360D02*
X8133240Y-12415360D01*
X8138320Y-12298840D02*
X8158320Y-12318840D01*
X8158320Y-12298840D02*
X8138320Y-12318840D01*
X8283100Y-11331100D02*
X8303100Y-11351100D01*
X8303100Y-11331100D02*
X8283100Y-11351100D01*
X8283100Y-12169300D02*
X8303100Y-12189300D01*
X8303100Y-12169300D02*
X8283100Y-12189300D01*
X8295800Y-12270900D02*
X8315800Y-12290900D01*
X8315800Y-12270900D02*
X8295800Y-12290900D01*
X8305960Y-13421520D02*
X8325960Y-13441520D01*
X8325960Y-13421520D02*
X8305960Y-13441520D01*
X8346600Y-12220100D02*
X8366600Y-12240100D01*
X8366600Y-12220100D02*
X8346600Y-12240100D01*
X8435500Y-11331100D02*
X8455500Y-11351100D01*
X8455500Y-11331100D02*
X8435500Y-11351100D01*
X8448200Y-12169300D02*
X8468200Y-12189300D01*
X8468200Y-12169300D02*
X8448200Y-12189300D01*
X8524400Y-11242200D02*
X8544400Y-11262200D01*
X8544400Y-11242200D02*
X8524400Y-11262200D01*
X8524400Y-11348880D02*
X8544400Y-11368880D01*
X8544400Y-11348880D02*
X8524400Y-11368880D01*
X8829200Y-12474100D02*
X8849200Y-12494100D01*
X8849200Y-12474100D02*
X8829200Y-12494100D01*
X8930800Y-12476640D02*
X8950800Y-12496640D01*
X8950800Y-12476640D02*
X8930800Y-12496640D01*
X8940960Y-12166760D02*
X8960960Y-12186760D01*
X8960960Y-12166760D02*
X8940960Y-12186760D01*
X8976520Y-12227720D02*
X8996520Y-12247720D01*
X8996520Y-12227720D02*
X8976520Y-12247720D01*
X8986680Y-12519820D02*
X9006680Y-12539820D01*
X9006680Y-12519820D02*
X8986680Y-12539820D01*
X8996840Y-12415680D02*
X9016840Y-12435680D01*
X9016840Y-12415680D02*
X8996840Y-12435680D01*
X9009540Y-11816240D02*
X9029540Y-11836240D01*
X9029540Y-11816240D02*
X9009540Y-11836240D01*
X9095900Y-12613800D02*
X9115900Y-12633800D01*
X9115900Y-12613800D02*
X9095900Y-12633800D01*
X9149240Y-12075320D02*
X9169240Y-12095320D01*
X9169240Y-12075320D02*
X9149240Y-12095320D01*
X9154320Y-12268360D02*
X9174320Y-12288360D01*
X9174320Y-12268360D02*
X9154320Y-12288360D01*
X9159400Y-11994040D02*
X9179400Y-12014040D01*
X9179400Y-11994040D02*
X9159400Y-12014040D01*
X9184800Y-12334400D02*
X9204800Y-12354400D01*
X9204800Y-12334400D02*
X9184800Y-12354400D01*
X9189880Y-12151520D02*
X9209880Y-12171520D01*
X9209880Y-12151520D02*
X9189880Y-12171520D01*
X9550560Y-13314840D02*
X9570560Y-13334840D01*
X9570560Y-13314840D02*
X9550560Y-13334840D01*
X9700420Y-11849260D02*
X9720420Y-11869260D01*
X9720420Y-11849260D02*
X9700420Y-11869260D01*
X9774080Y-11996580D02*
X9794080Y-12016580D01*
X9794080Y-11996580D02*
X9774080Y-12016580D01*
X10053480Y-11729880D02*
X10073480Y-11749880D01*
X10073480Y-11729880D02*
X10053480Y-11749880D01*
X10177940Y-12037220D02*
X10197940Y-12057220D01*
X10197940Y-12037220D02*
X10177940Y-12057220D01*
X10249060Y-11265060D02*
X10269060Y-11285060D01*
X10269060Y-11265060D02*
X10249060Y-11285060D01*
X10249060Y-11353960D02*
X10269060Y-11373960D01*
X10269060Y-11353960D02*
X10249060Y-11373960D01*
X10302400Y-12867800D02*
X10322400Y-12887800D01*
X10322400Y-12867800D02*
X10302400Y-12887800D01*
X10373520Y-13121800D02*
X10393520Y-13141800D01*
X10393520Y-13121800D02*
X10373520Y-13141800D01*
X10383680Y-13048140D02*
X10403680Y-13068140D01*
X10403680Y-13048140D02*
X10383680Y-13068140D01*
X10454800Y-12989720D02*
X10474800Y-13009720D01*
X10474800Y-12989720D02*
X10454800Y-13009720D01*
X10470040Y-12822080D02*
X10490040Y-12842080D01*
X10490040Y-12822080D02*
X10470040Y-12842080D01*
X10495440Y-12268360D02*
X10515440Y-12288360D01*
X10515440Y-12268360D02*
X10495440Y-12288360D01*
X10541160Y-13236100D02*
X10561160Y-13256100D01*
X10561160Y-13236100D02*
X10541160Y-13256100D01*
X10597040Y-12971940D02*
X10617040Y-12991940D01*
X10617040Y-12971940D02*
X10597040Y-12991940D01*
X10607200Y-11635900D02*
X10627200Y-11655900D01*
X10627200Y-11635900D02*
X10607200Y-11655900D01*
X10632600Y-12702700D02*
X10652600Y-12722700D01*
X10652600Y-12702700D02*
X10632600Y-12722700D01*
X10637680Y-13276740D02*
X10657680Y-13296740D01*
X10657680Y-13276740D02*
X10637680Y-13296740D01*
X10642760Y-13030360D02*
X10662760Y-13050360D01*
X10662760Y-13030360D02*
X10642760Y-13050360D01*
X10650380Y-11341260D02*
X10670380Y-11361260D01*
X10670380Y-11341260D02*
X10650380Y-11361260D01*
X10660540Y-13548520D02*
X10680540Y-13568520D01*
X10680540Y-13548520D02*
X10660540Y-13568520D01*
X10683400Y-12639200D02*
X10703400Y-12659200D01*
X10703400Y-12639200D02*
X10683400Y-12659200D01*
X10726580Y-13040520D02*
X10746580Y-13060520D01*
X10746580Y-13040520D02*
X10726580Y-13060520D01*
X10731660Y-12336940D02*
X10751660Y-12356940D01*
X10751660Y-12336940D02*
X10731660Y-12356940D01*
X10734200Y-12964320D02*
X10754200Y-12984320D01*
X10754200Y-12964320D02*
X10734200Y-12984320D01*
X10845960Y-13411360D02*
X10865960Y-13431360D01*
X10865960Y-13411360D02*
X10845960Y-13431360D01*
X10912000Y-12898280D02*
X10932000Y-12918280D01*
X10932000Y-12898280D02*
X10912000Y-12918280D01*
X10912000Y-13375800D02*
X10932000Y-13395800D01*
X10932000Y-13375800D02*
X10912000Y-13395800D01*
X10970420Y-12956700D02*
X10990420Y-12976700D01*
X10990420Y-12956700D02*
X10970420Y-12976700D01*
X10978040Y-12423300D02*
X10998040Y-12443300D01*
X10998040Y-12423300D02*
X10978040Y-12443300D01*
X10988200Y-13284360D02*
X11008200Y-13304360D01*
X11008200Y-13284360D02*
X10988200Y-13304360D01*
X10990740Y-12682380D02*
X11010740Y-12702380D01*
X11010740Y-12682380D02*
X10990740Y-12702380D01*
X11018680Y-12245500D02*
X11038680Y-12265500D01*
X11038680Y-12245500D02*
X11018680Y-12265500D01*
X11140600Y-13418980D02*
X11160600Y-13438980D01*
X11160600Y-13418980D02*
X11140600Y-13438980D01*
X11155840Y-12100720D02*
X11175840Y-12120720D01*
X11175840Y-12100720D02*
X11155840Y-12120720D01*
X11211720Y-12169300D02*
X11231720Y-12189300D01*
X11231720Y-12169300D02*
X11211720Y-12189300D01*
X11307000Y-12329320D02*
X11327000Y-12349320D01*
X11327000Y-12329320D02*
X11307000Y-12349320D01*
X11353960Y-12796680D02*
X11373960Y-12816680D01*
X11373960Y-12796680D02*
X11353960Y-12816680D01*
X11412380Y-12444600D02*
X11432380Y-12464600D01*
X11432380Y-12444600D02*
X11412380Y-12464600D01*
X11425080Y-12225180D02*
X11445080Y-12245180D01*
X11445080Y-12225180D02*
X11425080Y-12245180D01*
X11538110Y-12711590D02*
X11558110Y-12731590D01*
X11558110Y-12711590D02*
X11538110Y-12731590D01*
X11558430Y-12358530D02*
X11578430Y-12378530D01*
X11578430Y-12358530D02*
X11558430Y-12378530D01*
X11580020Y-12537600D02*
X11600020Y-12557600D01*
X11600020Y-12537600D02*
X11580020Y-12557600D01*
X11661300Y-11285380D02*
X11681300Y-11305380D01*
X11681300Y-11285380D02*
X11661300Y-11305380D01*
X11663840Y-13319920D02*
X11683840Y-13339920D01*
X11683840Y-13319920D02*
X11663840Y-13339920D01*
X11686700Y-11353960D02*
X11706700Y-11373960D01*
X11706700Y-11353960D02*
X11686700Y-11373960D01*
X11765440Y-11338720D02*
X11785440Y-11358720D01*
X11785440Y-11338720D02*
X11765440Y-11358720D01*
X11767980Y-11242200D02*
X11787980Y-11262200D01*
X11787980Y-11242200D02*
X11767980Y-11262200D01*
X11831480Y-11287920D02*
X11851480Y-11307920D01*
X11851480Y-11287920D02*
X11831480Y-11307920D01*
X11889900Y-11343800D02*
X11909900Y-11363800D01*
X11909900Y-11343800D02*
X11889900Y-11363800D01*
X11897520Y-11247280D02*
X11917520Y-11267280D01*
X11917520Y-11247280D02*
X11897520Y-11267280D01*
X12042300Y-12105800D02*
X12062300Y-12125800D01*
X12062300Y-12105800D02*
X12042300Y-12125800D01*
X12090560Y-12027060D02*
X12110560Y-12047060D01*
X12110560Y-12027060D02*
X12090560Y-12047060D01*
X12105800Y-12143900D02*
X12125800Y-12163900D01*
X12125800Y-12143900D02*
X12105800Y-12163900D01*
X12148980Y-12077860D02*
X12168980Y-12097860D01*
X12168980Y-12077860D02*
X12148980Y-12097860D01*
X12156600Y-12842400D02*
X12176600Y-12862400D01*
X12176600Y-12842400D02*
X12156600Y-12862400D01*
X12164220Y-12583320D02*
X12184220Y-12603320D01*
X12184220Y-12583320D02*
X12164220Y-12603320D01*
X12217560Y-12781440D02*
X12237560Y-12801440D01*
X12237560Y-12781440D02*
X12217560Y-12801440D01*
X12230260Y-12875420D02*
X12250260Y-12895420D01*
X12250260Y-12875420D02*
X12230260Y-12895420D01*
X12240420Y-12334400D02*
X12260420Y-12354400D01*
X12260420Y-12334400D02*
X12240420Y-12354400D01*
X12245500Y-12418220D02*
X12265500Y-12438220D01*
X12265500Y-12418220D02*
X12245500Y-12438220D01*
X12309000Y-12283600D02*
X12329000Y-12303600D01*
X12329000Y-12283600D02*
X12309000Y-12303600D01*
X12357260Y-12700160D02*
X12377260Y-12720160D01*
X12377260Y-12700160D02*
X12357260Y-12720160D01*
X12362340Y-13147200D02*
X12382340Y-13167200D01*
X12382340Y-13147200D02*
X12362340Y-13167200D01*
X12369960Y-11092340D02*
X12389960Y-11112340D01*
X12389960Y-11092340D02*
X12369960Y-11112340D01*
X12375040Y-11226960D02*
X12395040Y-11246960D01*
X12395040Y-11226960D02*
X12375040Y-11246960D01*
X12428380Y-11458100D02*
X12448380Y-11478100D01*
X12448380Y-11458100D02*
X12428380Y-11478100D01*
X12430920Y-13170060D02*
X12450920Y-13190060D01*
X12450920Y-13170060D02*
X12430920Y-13190060D01*
X12433460Y-12669680D02*
X12453460Y-12689680D01*
X12453460Y-12669680D02*
X12433460Y-12689680D01*
X12509660Y-12669680D02*
X12529660Y-12689680D01*
X12529660Y-12669680D02*
X12509660Y-12689680D01*
X12537600Y-12268360D02*
X12557600Y-12288360D01*
X12557600Y-12268360D02*
X12537600Y-12288360D01*
X12568080Y-12984640D02*
X12588080Y-13004640D01*
X12588080Y-12984640D02*
X12568080Y-13004640D01*
X12573160Y-12700160D02*
X12593160Y-12720160D01*
X12593160Y-12700160D02*
X12573160Y-12720160D01*
X12583320Y-12855100D02*
X12603320Y-12875100D01*
X12603320Y-12855100D02*
X12583320Y-12875100D01*
X12829700Y-12118500D02*
X12849700Y-12138500D01*
X12849700Y-12118500D02*
X12829700Y-12138500D01*
X13187840Y-11943240D02*
X13207840Y-11963240D01*
X13207840Y-11943240D02*
X13187840Y-11963240D01*
X13200540Y-12385200D02*
X13220540Y-12405200D01*
X13220540Y-12385200D02*
X13200540Y-12405200D01*
X13218320Y-12306460D02*
X13238320Y-12326460D01*
X13238320Y-12306460D02*
X13218320Y-12326460D01*
X13251340Y-11887360D02*
X13271340Y-11907360D01*
X13271340Y-11887360D02*
X13251340Y-11907360D01*
X13264040Y-12481720D02*
X13284040Y-12501720D01*
X13284040Y-12481720D02*
X13264040Y-12501720D01*
X13294520Y-6952140D02*
X13314520Y-6972140D01*
X13314520Y-6952140D02*
X13294520Y-6972140D01*
X13297060Y-7035960D02*
X13317060Y-7055960D01*
X13317060Y-7035960D02*
X13297060Y-7055960D01*
X13332620Y-7269640D02*
X13352620Y-7289640D01*
X13352620Y-7269640D02*
X13332620Y-7289640D01*
X13380880Y-7340760D02*
X13400880Y-7360760D01*
X13400880Y-7340760D02*
X13380880Y-7360760D01*
X13416440Y-7274720D02*
X13436440Y-7294720D01*
X13436440Y-7274720D02*
X13416440Y-7294720D01*
X13444380Y-11249820D02*
X13464380Y-11269820D01*
X13464380Y-11249820D02*
X13444380Y-11269820D01*
X13444380Y-11346340D02*
X13464380Y-11366340D01*
X13464380Y-11346340D02*
X13444380Y-11366340D01*
X13452000Y-4920140D02*
X13472000Y-4940140D01*
X13472000Y-4920140D02*
X13452000Y-4940140D01*
X13457080Y-7033420D02*
X13477080Y-7053420D01*
X13477080Y-7033420D02*
X13457080Y-7053420D01*
X13459620Y-6954680D02*
X13479620Y-6974680D01*
X13479620Y-6954680D02*
X13459620Y-6974680D01*
X13477400Y-12105800D02*
X13497400Y-12125800D01*
X13497400Y-12105800D02*
X13477400Y-12125800D01*
X13487560Y-7328060D02*
X13507560Y-7348060D01*
X13507560Y-7328060D02*
X13487560Y-7348060D01*
X13507880Y-6578760D02*
X13527880Y-6598760D01*
X13527880Y-6578760D02*
X13507880Y-6598760D01*
X13525660Y-4925220D02*
X13545660Y-4945220D01*
X13545660Y-4925220D02*
X13525660Y-4945220D01*
X13540900Y-7272180D02*
X13560900Y-7292180D01*
X13560900Y-7272180D02*
X13540900Y-7292180D01*
X13566300Y-12105800D02*
X13586300Y-12125800D01*
X13586300Y-12105800D02*
X13566300Y-12125800D01*
X13591700Y-7343300D02*
X13611700Y-7363300D01*
X13611700Y-7343300D02*
X13591700Y-7363300D01*
X13612020Y-7262020D02*
X13632020Y-7282020D01*
X13632020Y-7262020D02*
X13612020Y-7282020D01*
X13662820Y-12108340D02*
X13682820Y-12128340D01*
X13682820Y-12108340D02*
X13662820Y-12128340D01*
X13718700Y-5445920D02*
X13738700Y-5465920D01*
X13738700Y-5445920D02*
X13718700Y-5465920D01*
X13775980Y-6568580D02*
X13795980Y-6588580D01*
X13795980Y-6568580D02*
X13775980Y-6588580D01*
X13787280Y-11681620D02*
X13807280Y-11701620D01*
X13807280Y-11681620D02*
X13787280Y-11701620D01*
X13798840Y-6690500D02*
X13818840Y-6710500D01*
X13818840Y-6690500D02*
X13798840Y-6710500D01*
X13822840Y-4678840D02*
X13842840Y-4698840D01*
X13842840Y-4678840D02*
X13822840Y-4698840D01*
X13850780Y-11638440D02*
X13870780Y-11658440D01*
X13870780Y-11638440D02*
X13850780Y-11658440D01*
X13863480Y-4602640D02*
X13883480Y-4622640D01*
X13883480Y-4602640D02*
X13863480Y-4622640D01*
X13909200Y-11684160D02*
X13929200Y-11704160D01*
X13929200Y-11684160D02*
X13909200Y-11704160D01*
X13914280Y-5392580D02*
X13934280Y-5412580D01*
X13934280Y-5392580D02*
X13914280Y-5412580D01*
X13919360Y-5283360D02*
X13939360Y-5303360D01*
X13939360Y-5283360D02*
X13919360Y-5303360D01*
X13980320Y-5344320D02*
X14000320Y-5364320D01*
X14000320Y-5344320D02*
X13980320Y-5364320D01*
X13998100Y-11303160D02*
X14018100Y-11323160D01*
X14018100Y-11303160D02*
X13998100Y-11323160D01*
X14089540Y-6893720D02*
X14109540Y-6913720D01*
X14109540Y-6893720D02*
X14089540Y-6913720D01*
X14366400Y-4930300D02*
X14386400Y-4950300D01*
X14386400Y-4930300D02*
X14366400Y-4950300D01*
X14368940Y-5430680D02*
X14388940Y-5450680D01*
X14388940Y-5430680D02*
X14368940Y-5450680D01*
X14401960Y-5006500D02*
X14421960Y-5026500D01*
X14421960Y-5006500D02*
X14401960Y-5026500D01*
X14462920Y-4940460D02*
X14482920Y-4960460D01*
X14482920Y-4940460D02*
X14462920Y-4960460D01*
X14465460Y-6726080D02*
X14485460Y-6746080D01*
X14485460Y-6726080D02*
X14465460Y-6746080D01*
X14546740Y-6987700D02*
X14566740Y-7007700D01*
X14566740Y-6987700D02*
X14546740Y-7007700D01*
X14549280Y-6317140D02*
X14569280Y-6337140D01*
X14569280Y-6317140D02*
X14549280Y-6337140D01*
X14584840Y-6240940D02*
X14604840Y-6260940D01*
X14604840Y-6240940D02*
X14584840Y-6260940D01*
X14620400Y-6312060D02*
X14640400Y-6332060D01*
X14640400Y-6312060D02*
X14620400Y-6332060D01*
X14633100Y-7640480D02*
X14653100Y-7660480D01*
X14653100Y-7640480D02*
X14633100Y-7660480D01*
X14673740Y-6728620D02*
X14693740Y-6748620D01*
X14693740Y-6728620D02*
X14673740Y-6748620D01*
X14755020Y-7714140D02*
X14775020Y-7734140D01*
X14775020Y-7714140D02*
X14755020Y-7734140D01*
X14785500Y-7592220D02*
X14805500Y-7612220D01*
X14805500Y-7592220D02*
X14785500Y-7612220D01*
X14831220Y-7820820D02*
X14851220Y-7840820D01*
X14851220Y-7820820D02*
X14831220Y-7840820D01*
X14859160Y-11272680D02*
X14879160Y-11292680D01*
X14879160Y-11272680D02*
X14859160Y-11292680D01*
X14864240Y-7701440D02*
X14884240Y-7721440D01*
X14884240Y-7701440D02*
X14864240Y-7721440D01*
X14889640Y-11341260D02*
X14909640Y-11361260D01*
X14909640Y-11341260D02*
X14889640Y-11361260D01*
X14930280Y-7818280D02*
X14950280Y-7838280D01*
X14950280Y-7818280D02*
X14930280Y-7838280D01*
X14963300Y-11328560D02*
X14983300Y-11348560D01*
X14983300Y-11328560D02*
X14963300Y-11348560D01*
X14970920Y-7912260D02*
X14990920Y-7932260D01*
X14990920Y-7912260D02*
X14970920Y-7932260D01*
X14973460Y-11242200D02*
X14993460Y-11262200D01*
X14993460Y-11242200D02*
X14973460Y-11262200D01*
X15026800Y-4734720D02*
X15046800Y-4754720D01*
X15046800Y-4734720D02*
X15026800Y-4754720D01*
X15036960Y-11290460D02*
X15056960Y-11310460D01*
X15056960Y-11290460D02*
X15036960Y-11310460D01*
X15039500Y-5273200D02*
X15059500Y-5293200D01*
X15059500Y-5273200D02*
X15039500Y-5293200D01*
X15044580Y-7897020D02*
X15064580Y-7917020D01*
X15064580Y-7897020D02*
X15044580Y-7917020D01*
X15077600Y-6548280D02*
X15097600Y-6568280D01*
X15097600Y-6548280D02*
X15077600Y-6568280D01*
X15090300Y-11336180D02*
X15110300Y-11356180D01*
X15110300Y-11336180D02*
X15090300Y-11356180D01*
X15095380Y-11237120D02*
X15115380Y-11257120D01*
X15115380Y-11237120D02*
X15095380Y-11257120D01*
X15169040Y-4943000D02*
X15189040Y-4963000D01*
X15189040Y-4943000D02*
X15169040Y-4963000D01*
X15230000Y-6787040D02*
X15250000Y-6807040D01*
X15250000Y-6787040D02*
X15230000Y-6807040D01*
X15260480Y-7996080D02*
X15280480Y-8016080D01*
X15280480Y-7996080D02*
X15260480Y-8016080D01*
X15423040Y-13088780D02*
X15443040Y-13108780D01*
X15443040Y-13088780D02*
X15423040Y-13108780D01*
X15433200Y-12265820D02*
X15453200Y-12285820D01*
X15453200Y-12265820D02*
X15433200Y-12285820D01*
X15448440Y-12504580D02*
X15468440Y-12524580D01*
X15468440Y-12504580D02*
X15448440Y-12524580D01*
X15471300Y-6642260D02*
X15491300Y-6662260D01*
X15491300Y-6642260D02*
X15471300Y-6662260D01*
X15473840Y-6748940D02*
X15493840Y-6768940D01*
X15493840Y-6748940D02*
X15473840Y-6768940D01*
X15473840Y-12583320D02*
X15493840Y-12603320D01*
X15493840Y-12583320D02*
X15473840Y-12603320D01*
X15473840Y-13037980D02*
X15493840Y-13057980D01*
X15493840Y-13037980D02*
X15473840Y-13057980D01*
X15476380Y-5085240D02*
X15496380Y-5105240D01*
X15496380Y-5085240D02*
X15476380Y-5105240D01*
X15476380Y-5197000D02*
X15496380Y-5217000D01*
X15496380Y-5197000D02*
X15476380Y-5217000D01*
X15484000Y-5273200D02*
X15504000Y-5293200D01*
X15504000Y-5273200D02*
X15484000Y-5293200D01*
X15491620Y-13111640D02*
X15511620Y-13131640D01*
X15511620Y-13111640D02*
X15491620Y-13131640D01*
X15527180Y-9578500D02*
X15547180Y-9598500D01*
X15547180Y-9578500D02*
X15527180Y-9598500D01*
X15534800Y-12517280D02*
X15554800Y-12537280D01*
X15554800Y-12517280D02*
X15534800Y-12537280D01*
X15542420Y-6766720D02*
X15562420Y-6786720D01*
X15562420Y-6766720D02*
X15542420Y-6786720D01*
X15547500Y-9507380D02*
X15567500Y-9527380D01*
X15567500Y-9507380D02*
X15547500Y-9527380D01*
X15557660Y-9426100D02*
X15577660Y-9446100D01*
X15577660Y-9426100D02*
X15557660Y-9446100D01*
X15560200Y-6627020D02*
X15580200Y-6647020D01*
X15580200Y-6627020D02*
X15560200Y-6647020D01*
X15600840Y-12570620D02*
X15620840Y-12590620D01*
X15620840Y-12570620D02*
X15600840Y-12590620D01*
X15603380Y-5115720D02*
X15623380Y-5135720D01*
X15623380Y-5115720D02*
X15603380Y-5135720D01*
X15603380Y-9626760D02*
X15623380Y-9646760D01*
X15623380Y-9626760D02*
X15603380Y-9646760D01*
X15611000Y-6721000D02*
X15631000Y-6741000D01*
X15631000Y-6721000D02*
X15611000Y-6741000D01*
X15628780Y-9410860D02*
X15648780Y-9430860D01*
X15648780Y-9410860D02*
X15628780Y-9430860D01*
X15633860Y-6637180D02*
X15653860Y-6657180D01*
X15653860Y-6637180D02*
X15633860Y-6657180D01*
X15633860Y-9517540D02*
X15653860Y-9537540D01*
X15653860Y-9517540D02*
X15633860Y-9537540D01*
X15677040Y-9578500D02*
X15697040Y-9598500D01*
X15697040Y-9578500D02*
X15677040Y-9598500D01*
X15677040Y-11216800D02*
X15697040Y-11236800D01*
X15697040Y-11216800D02*
X15677040Y-11236800D01*
X15682120Y-5034440D02*
X15702120Y-5054440D01*
X15702120Y-5034440D02*
X15682120Y-5054440D01*
X15684660Y-4932840D02*
X15704660Y-4952840D01*
X15704660Y-4932840D02*
X15684660Y-4952840D01*
X15707520Y-12811920D02*
X15727520Y-12831920D01*
X15727520Y-12811920D02*
X15707520Y-12831920D01*
X15740540Y-4983640D02*
X15760540Y-5003640D01*
X15760540Y-4983640D02*
X15740540Y-5003640D01*
X15753240Y-11493660D02*
X15773240Y-11513660D01*
X15773240Y-11493660D02*
X15753240Y-11513660D01*
X15758320Y-12745880D02*
X15778320Y-12765880D01*
X15778320Y-12745880D02*
X15758320Y-12765880D01*
X15768480Y-7856380D02*
X15788480Y-7876380D01*
X15788480Y-7856380D02*
X15768480Y-7876380D01*
X15768480Y-8082440D02*
X15788480Y-8102440D01*
X15788480Y-8082440D02*
X15768480Y-8102440D01*
X15768480Y-8491380D02*
X15788480Y-8511380D01*
X15788480Y-8491380D02*
X15768480Y-8511380D01*
X15768480Y-8694580D02*
X15788480Y-8714580D01*
X15788480Y-8694580D02*
X15768480Y-8714580D01*
X15768480Y-9100980D02*
X15788480Y-9120980D01*
X15788480Y-9100980D02*
X15768480Y-9120980D01*
X15771020Y-8285640D02*
X15791020Y-8305640D01*
X15791020Y-8285640D02*
X15771020Y-8305640D01*
X15771020Y-8897780D02*
X15791020Y-8917780D01*
X15791020Y-8897780D02*
X15771020Y-8917780D01*
X15771020Y-9304180D02*
X15791020Y-9324180D01*
X15791020Y-9304180D02*
X15771020Y-9324180D01*
X15788800Y-12839860D02*
X15808800Y-12859860D01*
X15808800Y-12839860D02*
X15788800Y-12859860D01*
X15854840Y-9464200D02*
X15874840Y-9484200D01*
X15874840Y-9464200D02*
X15854840Y-9484200D01*
X15880240Y-7457600D02*
X15900240Y-7477600D01*
X15900240Y-7457600D02*
X15880240Y-7477600D01*
X15887860Y-12669680D02*
X15907860Y-12689680D01*
X15907860Y-12669680D02*
X15887860Y-12689680D01*
X15905640Y-9598820D02*
X15925640Y-9618820D01*
X15925640Y-9598820D02*
X15905640Y-9618820D01*
X15905640Y-11920380D02*
X15925640Y-11940380D01*
X15925640Y-11920380D02*
X15905640Y-11940380D01*
X15908180Y-12557920D02*
X15928180Y-12577920D01*
X15928180Y-12557920D02*
X15908180Y-12577920D01*
X15928500Y-7673500D02*
X15948500Y-7693500D01*
X15948500Y-7673500D02*
X15928500Y-7693500D01*
X13998700Y-6548100D02*
G75*
G02*
X13978700Y-6548100I-10000J0D01*
G01*
X13978700Y-6548100D02*
G75*
G02*
X13998700Y-6548100I10000J0D01*
G01*
X13998700Y-6736100D02*
G75*
G02*
X13978700Y-6736100I-10000J0D01*
G01*
X13978700Y-6736100D02*
G75*
G02*
X13998700Y-6736100I10000J0D01*
G01*
X13998700Y-6642100D02*
G75*
G02*
X13978700Y-6642100I-10000J0D01*
G01*
X13978700Y-6642100D02*
G75*
G02*
X13998700Y-6642100I10000J0D01*
G01*
X14113700Y-6642100D02*
G75*
G02*
X14093700Y-6642100I-10000J0D01*
G01*
X14093700Y-6642100D02*
G75*
G02*
X14113700Y-6642100I10000J0D01*
G01*
X14113700Y-6548100D02*
G75*
G02*
X14093700Y-6548100I-10000J0D01*
G01*
X14093700Y-6548100D02*
G75*
G02*
X14113700Y-6548100I10000J0D01*
G01*
X14113700Y-6736100D02*
G75*
G02*
X14093700Y-6736100I-10000J0D01*
G01*
X14093700Y-6736100D02*
G75*
G02*
X14113700Y-6736100I10000J0D01*
G01*
X15442100Y-4656100D02*
X15442100Y-4716100D01*
X15412100Y-4686100D02*
X15472100Y-4686100D01*
X15497100Y-4656100D02*
X15387100Y-4656100D01*
X15387100Y-4716100D02*
G75*
G02*
X15387100Y-4656100I0J30000D01*
G01*
X15387100Y-4716100D02*
X15497100Y-4716100D01*
X15497100Y-4716100D02*
G75*
G03*
X15497100Y-4656100I0J30000D01*
G01*
X15442100Y-5520100D02*
X15442100Y-5580100D01*
X15412100Y-5550100D02*
X15472100Y-5550100D01*
X15497100Y-5520100D02*
X15387100Y-5520100D01*
X15387100Y-5580100D02*
G75*
G02*
X15387100Y-5520100I0J30000D01*
G01*
X15387100Y-5580100D02*
X15497100Y-5580100D01*
X15497100Y-5580100D02*
G75*
G03*
X15497100Y-5520100I0J30000D01*
G01*
X15442760Y-6213320D02*
X15442760Y-6273320D01*
X15412760Y-6243320D02*
X15472760Y-6243320D01*
X15497760Y-6213320D02*
X15387760Y-6213320D01*
X15387760Y-6273320D02*
G75*
G02*
X15387760Y-6213320I0J30000D01*
G01*
X15387760Y-6273320D02*
X15497760Y-6273320D01*
X15497760Y-6273320D02*
G75*
G03*
X15497760Y-6213320I0J30000D01*
G01*
X15442760Y-7077320D02*
X15442760Y-7137320D01*
X15412760Y-7107320D02*
X15472760Y-7107320D01*
X15497760Y-7077320D02*
X15387760Y-7077320D01*
X15387760Y-7137320D02*
G75*
G02*
X15387760Y-7077320I0J30000D01*
G01*
X15387760Y-7137320D02*
X15497760Y-7137320D01*
X15497760Y-7137320D02*
G75*
G03*
X15497760Y-7077320I0J30000D01*
G01*
X15859100Y-4656100D02*
X15859100Y-4716100D01*
X15829100Y-4686100D02*
X15889100Y-4686100D01*
X15899100Y-4656100D02*
X15819100Y-4656100D01*
X15819100Y-4716100D02*
G75*
G02*
X15819100Y-4656100I0J30000D01*
G01*
X15819100Y-4716100D02*
X15899100Y-4716100D01*
X15899100Y-4716100D02*
G75*
G03*
X15899100Y-4656100I0J30000D01*
G01*
X15859100Y-5520100D02*
X15859100Y-5580100D01*
X15829100Y-5550100D02*
X15889100Y-5550100D01*
X15899100Y-5520100D02*
X15819100Y-5520100D01*
X15819100Y-5580100D02*
G75*
G02*
X15819100Y-5520100I0J30000D01*
G01*
X15819100Y-5580100D02*
X15899100Y-5580100D01*
X15899100Y-5580100D02*
G75*
G03*
X15899100Y-5520100I0J30000D01*
G01*
X15859760Y-6213320D02*
X15859760Y-6273320D01*
X15829760Y-6243320D02*
X15889760Y-6243320D01*
X15899760Y-6213320D02*
X15819760Y-6213320D01*
X15819760Y-6273320D02*
G75*
G02*
X15819760Y-6213320I0J30000D01*
G01*
X15819760Y-6273320D02*
X15899760Y-6273320D01*
X15899760Y-6273320D02*
G75*
G03*
X15899760Y-6213320I0J30000D01*
G01*
X15859760Y-7077320D02*
X15859760Y-7137320D01*
X15829760Y-7107320D02*
X15889760Y-7107320D01*
X15899760Y-7077320D02*
X15819760Y-7077320D01*
X15819760Y-7137320D02*
G75*
G02*
X15819760Y-7077320I0J30000D01*
G01*
X15819760Y-7137320D02*
X15899760Y-7137320D01*
X15899760Y-7137320D02*
G75*
G03*
X15899760Y-7077320I0J30000D01*
G01*
X7202441Y-4281441D02*
X7202441Y-4227559D01*
X7148559Y-4227559D01*
X7148559Y-4281441D01*
X7202441Y-4281441D01*
X7202441Y-4535441D02*
X7202441Y-4481559D01*
X7148559Y-4481559D01*
X7148559Y-4535441D01*
X7202441Y-4535441D01*
X7202441Y-10377441D02*
X7202441Y-10323559D01*
X7148559Y-10323559D01*
X7148559Y-10377441D01*
X7202441Y-10377441D01*
X7202441Y-10631441D02*
X7202441Y-10577559D01*
X7148559Y-10577559D01*
X7148559Y-10631441D01*
X7202441Y-10631441D01*
X7456441Y-4281441D02*
X7456441Y-4227559D01*
X7402559Y-4227559D01*
X7402559Y-4281441D01*
X7456441Y-4281441D01*
X7456441Y-4535441D02*
X7456441Y-4481559D01*
X7402559Y-4481559D01*
X7402559Y-4535441D01*
X7456441Y-4535441D01*
X7456441Y-10377441D02*
X7456441Y-10323559D01*
X7402559Y-10323559D01*
X7402559Y-10377441D01*
X7456441Y-10377441D01*
X7456441Y-10631441D02*
X7456441Y-10577559D01*
X7402559Y-10577559D01*
X7402559Y-10631441D01*
X7456441Y-10631441D01*
X7710441Y-4281441D02*
X7710441Y-4227559D01*
X7656559Y-4227559D01*
X7656559Y-4281441D01*
X7710441Y-4281441D01*
X7710441Y-4535441D02*
X7710441Y-4481559D01*
X7656559Y-4481559D01*
X7656559Y-4535441D01*
X7710441Y-4535441D01*
X7710441Y-10377441D02*
X7710441Y-10323559D01*
X7656559Y-10323559D01*
X7656559Y-10377441D01*
X7710441Y-10377441D01*
X7710441Y-10631441D02*
X7710441Y-10577559D01*
X7656559Y-10577559D01*
X7656559Y-10631441D01*
X7710441Y-10631441D01*
X7964441Y-4281441D02*
X7964441Y-4227559D01*
X7910559Y-4227559D01*
X7910559Y-4281441D01*
X7964441Y-4281441D01*
X7964441Y-4535441D02*
X7964441Y-4481559D01*
X7910559Y-4481559D01*
X7910559Y-4535441D01*
X7964441Y-4535441D01*
X7964441Y-10377441D02*
X7964441Y-10323559D01*
X7910559Y-10323559D01*
X7910559Y-10377441D01*
X7964441Y-10377441D01*
X7964441Y-10631441D02*
X7964441Y-10577559D01*
X7910559Y-10577559D01*
X7910559Y-10631441D01*
X7964441Y-10631441D01*
X8218441Y-4281441D02*
X8218441Y-4227559D01*
X8164559Y-4227559D01*
X8164559Y-4281441D01*
X8218441Y-4281441D01*
X8218441Y-4535441D02*
X8218441Y-4481559D01*
X8164559Y-4481559D01*
X8164559Y-4535441D01*
X8218441Y-4535441D01*
X8218441Y-10377441D02*
X8218441Y-10323559D01*
X8164559Y-10323559D01*
X8164559Y-10377441D01*
X8218441Y-10377441D01*
X8218441Y-10631441D02*
X8218441Y-10577559D01*
X8164559Y-10577559D01*
X8164559Y-10631441D01*
X8218441Y-10631441D01*
X8472441Y-4281441D02*
X8472441Y-4227559D01*
X8418559Y-4227559D01*
X8418559Y-4281441D01*
X8472441Y-4281441D01*
X8472441Y-4535441D02*
X8472441Y-4481559D01*
X8418559Y-4481559D01*
X8418559Y-4535441D01*
X8472441Y-4535441D01*
X8472441Y-10377441D02*
X8472441Y-10323559D01*
X8418559Y-10323559D01*
X8418559Y-10377441D01*
X8472441Y-10377441D01*
X8472441Y-10631441D02*
X8472441Y-10577559D01*
X8418559Y-10577559D01*
X8418559Y-10631441D01*
X8472441Y-10631441D01*
X8726441Y-4281441D02*
X8726441Y-4227559D01*
X8672559Y-4227559D01*
X8672559Y-4281441D01*
X8726441Y-4281441D01*
X8726441Y-4535441D02*
X8726441Y-4481559D01*
X8672559Y-4481559D01*
X8672559Y-4535441D01*
X8726441Y-4535441D01*
X8726441Y-10377441D02*
X8726441Y-10323559D01*
X8672559Y-10323559D01*
X8672559Y-10377441D01*
X8726441Y-10377441D01*
X8726441Y-10631441D02*
X8726441Y-10577559D01*
X8672559Y-10577559D01*
X8672559Y-10631441D01*
X8726441Y-10631441D01*
X8980441Y-4281441D02*
X8980441Y-4227559D01*
X8926559Y-4227559D01*
X8926559Y-4281441D01*
X8980441Y-4281441D01*
X8980441Y-4535441D02*
X8980441Y-4481559D01*
X8926559Y-4481559D01*
X8926559Y-4535441D01*
X8980441Y-4535441D01*
X8980441Y-10377441D02*
X8980441Y-10323559D01*
X8926559Y-10323559D01*
X8926559Y-10377441D01*
X8980441Y-10377441D01*
X8980441Y-10631441D02*
X8980441Y-10577559D01*
X8926559Y-10577559D01*
X8926559Y-10631441D01*
X8980441Y-10631441D01*
X9234441Y-4281441D02*
X9234441Y-4227559D01*
X9180559Y-4227559D01*
X9180559Y-4281441D01*
X9234441Y-4281441D01*
X9234441Y-4535441D02*
X9234441Y-4481559D01*
X9180559Y-4481559D01*
X9180559Y-4535441D01*
X9234441Y-4535441D01*
X9234441Y-10377441D02*
X9234441Y-10323559D01*
X9180559Y-10323559D01*
X9180559Y-10377441D01*
X9234441Y-10377441D01*
X9234441Y-10631441D02*
X9234441Y-10577559D01*
X9180559Y-10577559D01*
X9180559Y-10631441D01*
X9234441Y-10631441D01*
X9488441Y-4281441D02*
X9488441Y-4227559D01*
X9434559Y-4227559D01*
X9434559Y-4281441D01*
X9488441Y-4281441D01*
X9488441Y-4535441D02*
X9488441Y-4481559D01*
X9434559Y-4481559D01*
X9434559Y-4535441D01*
X9488441Y-4535441D01*
X9488441Y-10377441D02*
X9488441Y-10323559D01*
X9434559Y-10323559D01*
X9434559Y-10377441D01*
X9488441Y-10377441D01*
X9488441Y-10631441D02*
X9488441Y-10577559D01*
X9434559Y-10577559D01*
X9434559Y-10631441D01*
X9488441Y-10631441D01*
X9742441Y-4281441D02*
X9742441Y-4227559D01*
X9688559Y-4227559D01*
X9688559Y-4281441D01*
X9742441Y-4281441D01*
X9742441Y-4535441D02*
X9742441Y-4481559D01*
X9688559Y-4481559D01*
X9688559Y-4535441D01*
X9742441Y-4535441D01*
X9742441Y-10377441D02*
X9742441Y-10323559D01*
X9688559Y-10323559D01*
X9688559Y-10377441D01*
X9742441Y-10377441D01*
X9742441Y-10631441D02*
X9742441Y-10577559D01*
X9688559Y-10577559D01*
X9688559Y-10631441D01*
X9742441Y-10631441D01*
X9996441Y-4281441D02*
X9996441Y-4227559D01*
X9942559Y-4227559D01*
X9942559Y-4281441D01*
X9996441Y-4281441D01*
X9996441Y-4535441D02*
X9996441Y-4481559D01*
X9942559Y-4481559D01*
X9942559Y-4535441D01*
X9996441Y-4535441D01*
X9996441Y-10377441D02*
X9996441Y-10323559D01*
X9942559Y-10323559D01*
X9942559Y-10377441D01*
X9996441Y-10377441D01*
X9996441Y-10631441D02*
X9996441Y-10577559D01*
X9942559Y-10577559D01*
X9942559Y-10631441D01*
X9996441Y-10631441D01*
X10250441Y-4281441D02*
X10250441Y-4227559D01*
X10196559Y-4227559D01*
X10196559Y-4281441D01*
X10250441Y-4281441D01*
X10250441Y-4535441D02*
X10250441Y-4481559D01*
X10196559Y-4481559D01*
X10196559Y-4535441D01*
X10250441Y-4535441D01*
X10250441Y-10377441D02*
X10250441Y-10323559D01*
X10196559Y-10323559D01*
X10196559Y-10377441D01*
X10250441Y-10377441D01*
X10250441Y-10631441D02*
X10250441Y-10577559D01*
X10196559Y-10577559D01*
X10196559Y-10631441D01*
X10250441Y-10631441D01*
X10504441Y-4281441D02*
X10504441Y-4227559D01*
X10450559Y-4227559D01*
X10450559Y-4281441D01*
X10504441Y-4281441D01*
X10504441Y-4535441D02*
X10504441Y-4481559D01*
X10450559Y-4481559D01*
X10450559Y-4535441D01*
X10504441Y-4535441D01*
X10504441Y-10377441D02*
X10504441Y-10323559D01*
X10450559Y-10323559D01*
X10450559Y-10377441D01*
X10504441Y-10377441D01*
X10504441Y-10631441D02*
X10504441Y-10577559D01*
X10450559Y-10577559D01*
X10450559Y-10631441D01*
X10504441Y-10631441D01*
X10758441Y-4281441D02*
X10758441Y-4227559D01*
X10704559Y-4227559D01*
X10704559Y-4281441D01*
X10758441Y-4281441D01*
X10758441Y-4535441D02*
X10758441Y-4481559D01*
X10704559Y-4481559D01*
X10704559Y-4535441D01*
X10758441Y-4535441D01*
X10758441Y-10377441D02*
X10758441Y-10323559D01*
X10704559Y-10323559D01*
X10704559Y-10377441D01*
X10758441Y-10377441D01*
X10758441Y-10631441D02*
X10758441Y-10577559D01*
X10704559Y-10577559D01*
X10704559Y-10631441D01*
X10758441Y-10631441D01*
X11012441Y-4281441D02*
X11012441Y-4227559D01*
X10958559Y-4227559D01*
X10958559Y-4281441D01*
X11012441Y-4281441D01*
X11012441Y-4535441D02*
X11012441Y-4481559D01*
X10958559Y-4481559D01*
X10958559Y-4535441D01*
X11012441Y-4535441D01*
X11012441Y-10377441D02*
X11012441Y-10323559D01*
X10958559Y-10323559D01*
X10958559Y-10377441D01*
X11012441Y-10377441D01*
X11012441Y-10631441D02*
X11012441Y-10577559D01*
X10958559Y-10577559D01*
X10958559Y-10631441D01*
X11012441Y-10631441D01*
X11266441Y-4281441D02*
X11266441Y-4227559D01*
X11212559Y-4227559D01*
X11212559Y-4281441D01*
X11266441Y-4281441D01*
X11266441Y-4535441D02*
X11266441Y-4481559D01*
X11212559Y-4481559D01*
X11212559Y-4535441D01*
X11266441Y-4535441D01*
X11266441Y-10377441D02*
X11266441Y-10323559D01*
X11212559Y-10323559D01*
X11212559Y-10377441D01*
X11266441Y-10377441D01*
X11266441Y-10631441D02*
X11266441Y-10577559D01*
X11212559Y-10577559D01*
X11212559Y-10631441D01*
X11266441Y-10631441D01*
X11520441Y-4281441D02*
X11520441Y-4227559D01*
X11466559Y-4227559D01*
X11466559Y-4281441D01*
X11520441Y-4281441D01*
X11520441Y-4535441D02*
X11520441Y-4481559D01*
X11466559Y-4481559D01*
X11466559Y-4535441D01*
X11520441Y-4535441D01*
X11520441Y-10377441D02*
X11520441Y-10323559D01*
X11466559Y-10323559D01*
X11466559Y-10377441D01*
X11520441Y-10377441D01*
X11520441Y-10631441D02*
X11520441Y-10577559D01*
X11466559Y-10577559D01*
X11466559Y-10631441D01*
X11520441Y-10631441D01*
X11774441Y-4281441D02*
X11774441Y-4227559D01*
X11720559Y-4227559D01*
X11720559Y-4281441D01*
X11774441Y-4281441D01*
X11774441Y-4535441D02*
X11774441Y-4481559D01*
X11720559Y-4481559D01*
X11720559Y-4535441D01*
X11774441Y-4535441D01*
X11774441Y-10377441D02*
X11774441Y-10323559D01*
X11720559Y-10323559D01*
X11720559Y-10377441D01*
X11774441Y-10377441D01*
X11774441Y-10631441D02*
X11774441Y-10577559D01*
X11720559Y-10577559D01*
X11720559Y-10631441D01*
X11774441Y-10631441D01*
X12028441Y-4281441D02*
X12028441Y-4227559D01*
X11974559Y-4227559D01*
X11974559Y-4281441D01*
X12028441Y-4281441D01*
X12028441Y-4535441D02*
X12028441Y-4481559D01*
X11974559Y-4481559D01*
X11974559Y-4535441D01*
X12028441Y-4535441D01*
X12028441Y-10377441D02*
X12028441Y-10323559D01*
X11974559Y-10323559D01*
X11974559Y-10377441D01*
X12028441Y-10377441D01*
X12028441Y-10631441D02*
X12028441Y-10577559D01*
X11974559Y-10577559D01*
X11974559Y-10631441D01*
X12028441Y-10631441D01*
X12282441Y-4281441D02*
X12282441Y-4227559D01*
X12228559Y-4227559D01*
X12228559Y-4281441D01*
X12282441Y-4281441D01*
X12282441Y-4535441D02*
X12282441Y-4481559D01*
X12228559Y-4481559D01*
X12228559Y-4535441D01*
X12282441Y-4535441D01*
X12282441Y-10377441D02*
X12282441Y-10323559D01*
X12228559Y-10323559D01*
X12228559Y-10377441D01*
X12282441Y-10377441D01*
X12282441Y-10631441D02*
X12282441Y-10577559D01*
X12228559Y-10577559D01*
X12228559Y-10631441D01*
X12282441Y-10631441D01*
X12536441Y-4281441D02*
X12536441Y-4227559D01*
X12482559Y-4227559D01*
X12482559Y-4281441D01*
X12536441Y-4281441D01*
X12536441Y-4535441D02*
X12536441Y-4481559D01*
X12482559Y-4481559D01*
X12482559Y-4535441D01*
X12536441Y-4535441D01*
X12536441Y-10377441D02*
X12536441Y-10323559D01*
X12482559Y-10323559D01*
X12482559Y-10377441D01*
X12536441Y-10377441D01*
X12536441Y-10631441D02*
X12536441Y-10577559D01*
X12482559Y-10577559D01*
X12482559Y-10631441D01*
X12536441Y-10631441D01*
X12790441Y-4281441D02*
X12790441Y-4227559D01*
X12736559Y-4227559D01*
X12736559Y-4281441D01*
X12790441Y-4281441D01*
X12790441Y-4535441D02*
X12790441Y-4481559D01*
X12736559Y-4481559D01*
X12736559Y-4535441D01*
X12790441Y-4535441D01*
X12790441Y-10377441D02*
X12790441Y-10323559D01*
X12736559Y-10323559D01*
X12736559Y-10377441D01*
X12790441Y-10377441D01*
X12790441Y-10631441D02*
X12790441Y-10577559D01*
X12736559Y-10577559D01*
X12736559Y-10631441D01*
X12790441Y-10631441D01*
X13044441Y-4281441D02*
X13044441Y-4227559D01*
X12990559Y-4227559D01*
X12990559Y-4281441D01*
X13044441Y-4281441D01*
X13044441Y-4535441D02*
X13044441Y-4481559D01*
X12990559Y-4481559D01*
X12990559Y-4535441D01*
X13044441Y-4535441D01*
X13044441Y-10377441D02*
X13044441Y-10323559D01*
X12990559Y-10323559D01*
X12990559Y-10377441D01*
X13044441Y-10377441D01*
X13044441Y-10631441D02*
X13044441Y-10577559D01*
X12990559Y-10577559D01*
X12990559Y-10631441D01*
X13044441Y-10631441D01*
X13298441Y-4281441D02*
X13298441Y-4227559D01*
X13244559Y-4227559D01*
X13244559Y-4281441D01*
X13298441Y-4281441D01*
X13298441Y-4535441D02*
X13298441Y-4481559D01*
X13244559Y-4481559D01*
X13244559Y-4535441D01*
X13298441Y-4535441D01*
X13298441Y-10377441D02*
X13298441Y-10323559D01*
X13244559Y-10323559D01*
X13244559Y-10377441D01*
X13298441Y-10377441D01*
X13298441Y-10631441D02*
X13298441Y-10577559D01*
X13244559Y-10577559D01*
X13244559Y-10631441D01*
X13298441Y-10631441D01*
X13552441Y-4281441D02*
X13552441Y-4227559D01*
X13498559Y-4227559D01*
X13498559Y-4281441D01*
X13552441Y-4281441D01*
X13552441Y-4535441D02*
X13552441Y-4481559D01*
X13498559Y-4481559D01*
X13498559Y-4535441D01*
X13552441Y-4535441D01*
X13552441Y-10377441D02*
X13552441Y-10323559D01*
X13498559Y-10323559D01*
X13498559Y-10377441D01*
X13552441Y-10377441D01*
X13552441Y-10631441D02*
X13552441Y-10577559D01*
X13498559Y-10577559D01*
X13498559Y-10631441D01*
X13552441Y-10631441D01*
X13806441Y-4281441D02*
X13806441Y-4227559D01*
X13752559Y-4227559D01*
X13752559Y-4281441D01*
X13806441Y-4281441D01*
X13806441Y-4535441D02*
X13806441Y-4481559D01*
X13752559Y-4481559D01*
X13752559Y-4535441D01*
X13806441Y-4535441D01*
X13806441Y-10377441D02*
X13806441Y-10323559D01*
X13752559Y-10323559D01*
X13752559Y-10377441D01*
X13806441Y-10377441D01*
X13806441Y-10631441D02*
X13806441Y-10577559D01*
X13752559Y-10577559D01*
X13752559Y-10631441D01*
X13806441Y-10631441D01*
X14060441Y-4281441D02*
X14060441Y-4227559D01*
X14006559Y-4227559D01*
X14006559Y-4281441D01*
X14060441Y-4281441D01*
X14060441Y-4535441D02*
X14060441Y-4481559D01*
X14006559Y-4481559D01*
X14006559Y-4535441D01*
X14060441Y-4535441D01*
X14060441Y-10377441D02*
X14060441Y-10323559D01*
X14006559Y-10323559D01*
X14006559Y-10377441D01*
X14060441Y-10377441D01*
X14060441Y-10631441D02*
X14060441Y-10577559D01*
X14006559Y-10577559D01*
X14006559Y-10631441D01*
X14060441Y-10631441D01*
X14314441Y-4281441D02*
X14314441Y-4227559D01*
X14260559Y-4227559D01*
X14260559Y-4281441D01*
X14314441Y-4281441D01*
X14314441Y-4535441D02*
X14314441Y-4481559D01*
X14260559Y-4481559D01*
X14260559Y-4535441D01*
X14314441Y-4535441D01*
X14314441Y-10377441D02*
X14314441Y-10323559D01*
X14260559Y-10323559D01*
X14260559Y-10377441D01*
X14314441Y-10377441D01*
X14314441Y-10631441D02*
X14314441Y-10577559D01*
X14260559Y-10577559D01*
X14260559Y-10631441D01*
X14314441Y-10631441D01*
X14568441Y-4281441D02*
X14568441Y-4227559D01*
X14514559Y-4227559D01*
X14514559Y-4281441D01*
X14568441Y-4281441D01*
X14568441Y-4535441D02*
X14568441Y-4481559D01*
X14514559Y-4481559D01*
X14514559Y-4535441D01*
X14568441Y-4535441D01*
X14568441Y-10377441D02*
X14568441Y-10323559D01*
X14514559Y-10323559D01*
X14514559Y-10377441D01*
X14568441Y-10377441D01*
X14568441Y-10631441D02*
X14568441Y-10577559D01*
X14514559Y-10577559D01*
X14514559Y-10631441D01*
X14568441Y-10631441D01*
X14822441Y-4281441D02*
X14822441Y-4227559D01*
X14768559Y-4227559D01*
X14768559Y-4281441D01*
X14822441Y-4281441D01*
X14822441Y-4535441D02*
X14822441Y-4481559D01*
X14768559Y-4481559D01*
X14768559Y-4535441D01*
X14822441Y-4535441D01*
X14822441Y-10377441D02*
X14822441Y-10323559D01*
X14768559Y-10323559D01*
X14768559Y-10377441D01*
X14822441Y-10377441D01*
X14822441Y-10631441D02*
X14822441Y-10577559D01*
X14768559Y-10577559D01*
X14768559Y-10631441D01*
X14822441Y-10631441D01*
X15076441Y-4281441D02*
X15076441Y-4227559D01*
X15022559Y-4227559D01*
X15022559Y-4281441D01*
X15076441Y-4281441D01*
X15076441Y-4535441D02*
X15076441Y-4481559D01*
X15022559Y-4481559D01*
X15022559Y-4535441D01*
X15076441Y-4535441D01*
X15076441Y-10377441D02*
X15076441Y-10323559D01*
X15022559Y-10323559D01*
X15022559Y-10377441D01*
X15076441Y-10377441D01*
X15076441Y-10631441D02*
X15076441Y-10577559D01*
X15022559Y-10577559D01*
X15022559Y-10631441D01*
X15076441Y-10631441D01*
X6553200Y-7047700D02*
X6603200Y-6997700D01*
X6553200Y-6947700D01*
X6503200Y-6997700D01*
X6553200Y-7047700D01*
X6553200Y-7301700D02*
X6603200Y-7251700D01*
X6553200Y-7201700D01*
X6503200Y-7251700D01*
X6553200Y-7301700D01*
X6553200Y-7555700D02*
X6603200Y-7505700D01*
X6553200Y-7455700D01*
X6503200Y-7505700D01*
X6553200Y-7555700D01*
X6553200Y-7809700D02*
X6603200Y-7759700D01*
X6553200Y-7709700D01*
X6503200Y-7759700D01*
X6553200Y-7809700D01*
X6553200Y-8063700D02*
X6603200Y-8013700D01*
X6553200Y-7963700D01*
X6503200Y-8013700D01*
X6553200Y-8063700D01*
X6553200Y-8317700D02*
X6603200Y-8267700D01*
X6553200Y-8217700D01*
X6503200Y-8267700D01*
X6553200Y-8317700D01*
X6553200Y-9336200D02*
X6603200Y-9286200D01*
X6553200Y-9236200D01*
X6503200Y-9286200D01*
X6553200Y-9336200D01*
X6553200Y-9590200D02*
X6603200Y-9540200D01*
X6553200Y-9490200D01*
X6503200Y-9540200D01*
X6553200Y-9590200D01*
X6553200Y-9844200D02*
X6603200Y-9794200D01*
X6553200Y-9744200D01*
X6503200Y-9794200D01*
X6553200Y-9844200D01*
X6553200Y-10098200D02*
X6603200Y-10048200D01*
X6553200Y-9998200D01*
X6503200Y-10048200D01*
X6553200Y-10098200D01*
X6553200Y-10352200D02*
X6603200Y-10302200D01*
X6553200Y-10252200D01*
X6503200Y-10302200D01*
X6553200Y-10352200D01*
X6553200Y-10606200D02*
X6603200Y-10556200D01*
X6553200Y-10506200D01*
X6503200Y-10556200D01*
X6553200Y-10606200D01*
X6807200Y-7047700D02*
X6857200Y-6997700D01*
X6807200Y-6947700D01*
X6757200Y-6997700D01*
X6807200Y-7047700D01*
X6807200Y-7301700D02*
X6857200Y-7251700D01*
X6807200Y-7201700D01*
X6757200Y-7251700D01*
X6807200Y-7301700D01*
X6807200Y-7555700D02*
X6857200Y-7505700D01*
X6807200Y-7455700D01*
X6757200Y-7505700D01*
X6807200Y-7555700D01*
X6807200Y-7809700D02*
X6857200Y-7759700D01*
X6807200Y-7709700D01*
X6757200Y-7759700D01*
X6807200Y-7809700D01*
X6807200Y-8063700D02*
X6857200Y-8013700D01*
X6807200Y-7963700D01*
X6757200Y-8013700D01*
X6807200Y-8063700D01*
X6807200Y-8317700D02*
X6857200Y-8267700D01*
X6807200Y-8217700D01*
X6757200Y-8267700D01*
X6807200Y-8317700D01*
X6807200Y-9336200D02*
X6857200Y-9286200D01*
X6807200Y-9236200D01*
X6757200Y-9286200D01*
X6807200Y-9336200D01*
X6807200Y-9590200D02*
X6857200Y-9540200D01*
X6807200Y-9490200D01*
X6757200Y-9540200D01*
X6807200Y-9590200D01*
X6807200Y-9844200D02*
X6857200Y-9794200D01*
X6807200Y-9744200D01*
X6757200Y-9794200D01*
X6807200Y-9844200D01*
X6807200Y-10098200D02*
X6857200Y-10048200D01*
X6807200Y-9998200D01*
X6757200Y-10048200D01*
X6807200Y-10098200D01*
X6807200Y-10352200D02*
X6857200Y-10302200D01*
X6807200Y-10252200D01*
X6757200Y-10302200D01*
X6807200Y-10352200D01*
X6807200Y-10606200D02*
X6857200Y-10556200D01*
X6807200Y-10506200D01*
X6757200Y-10556200D01*
X6807200Y-10606200D01*
X7874000Y-13702500D02*
X7924000Y-13652500D01*
X7874000Y-13602500D01*
X7824000Y-13652500D01*
X7874000Y-13702500D01*
X8128000Y-13702500D02*
X8178000Y-13652500D01*
X8128000Y-13602500D01*
X8078000Y-13652500D01*
X8128000Y-13702500D01*
X8382000Y-13702500D02*
X8432000Y-13652500D01*
X8382000Y-13602500D01*
X8332000Y-13652500D01*
X8382000Y-13702500D01*
X8636000Y-13702500D02*
X8686000Y-13652500D01*
X8636000Y-13602500D01*
X8586000Y-13652500D01*
X8636000Y-13702500D01*
X8890000Y-13702500D02*
X8940000Y-13652500D01*
X8890000Y-13602500D01*
X8840000Y-13652500D01*
X8890000Y-13702500D01*
X9144000Y-13702500D02*
X9194000Y-13652500D01*
X9144000Y-13602500D01*
X9094000Y-13652500D01*
X9144000Y-13702500D01*
X9575800Y-11213300D02*
X9625800Y-11163300D01*
X9575800Y-11113300D01*
X9525800Y-11163300D01*
X9575800Y-11213300D01*
X9575800Y-11467300D02*
X9625800Y-11417300D01*
X9575800Y-11367300D01*
X9525800Y-11417300D01*
X9575800Y-11467300D01*
X9575800Y-11721300D02*
X9625800Y-11671300D01*
X9575800Y-11621300D01*
X9525800Y-11671300D01*
X9575800Y-11721300D01*
X9575800Y-11975300D02*
X9625800Y-11925300D01*
X9575800Y-11875300D01*
X9525800Y-11925300D01*
X9575800Y-11975300D01*
X9639300Y-13702500D02*
X9689300Y-13652500D01*
X9639300Y-13602500D01*
X9589300Y-13652500D01*
X9639300Y-13702500D01*
X9893300Y-13702500D02*
X9943300Y-13652500D01*
X9893300Y-13602500D01*
X9843300Y-13652500D01*
X9893300Y-13702500D01*
X10147300Y-13702500D02*
X10197300Y-13652500D01*
X10147300Y-13602500D01*
X10097300Y-13652500D01*
X10147300Y-13702500D01*
X11696700Y-13702500D02*
X11746700Y-13652500D01*
X11696700Y-13602500D01*
X11646700Y-13652500D01*
X11696700Y-13702500D01*
X11950700Y-13702500D02*
X12000700Y-13652500D01*
X11950700Y-13602500D01*
X11900700Y-13652500D01*
X11950700Y-13702500D01*
X12204700Y-13702500D02*
X12254700Y-13652500D01*
X12204700Y-13602500D01*
X12154700Y-13652500D01*
X12204700Y-13702500D01*
X12941300Y-11213300D02*
X12991300Y-11163300D01*
X12941300Y-11113300D01*
X12891300Y-11163300D01*
X12941300Y-11213300D01*
X12941300Y-11467300D02*
X12991300Y-11417300D01*
X12941300Y-11367300D01*
X12891300Y-11417300D01*
X12941300Y-11467300D01*
X12941300Y-11721300D02*
X12991300Y-11671300D01*
X12941300Y-11621300D01*
X12891300Y-11671300D01*
X12941300Y-11721300D01*
X12941300Y-11975300D02*
X12991300Y-11925300D01*
X12941300Y-11875300D01*
X12891300Y-11925300D01*
X12941300Y-11975300D01*
X13198300Y-13446500D02*
X13248300Y-13396500D01*
X13198300Y-13346500D01*
X13148300Y-13396500D01*
X13198300Y-13446500D01*
X13198300Y-13700500D02*
X13248300Y-13650500D01*
X13198300Y-13600500D01*
X13148300Y-13650500D01*
X13198300Y-13700500D01*
X13452300Y-13446500D02*
X13502300Y-13396500D01*
X13452300Y-13346500D01*
X13402300Y-13396500D01*
X13452300Y-13446500D01*
X13452300Y-13700500D02*
X13502300Y-13650500D01*
X13452300Y-13600500D01*
X13402300Y-13650500D01*
X13452300Y-13700500D01*
X13706300Y-13446500D02*
X13756300Y-13396500D01*
X13706300Y-13346500D01*
X13656300Y-13396500D01*
X13706300Y-13446500D01*
X13706300Y-13700500D02*
X13756300Y-13650500D01*
X13706300Y-13600500D01*
X13656300Y-13650500D01*
X13706300Y-13700500D01*
X13960300Y-13446500D02*
X14010300Y-13396500D01*
X13960300Y-13346500D01*
X13910300Y-13396500D01*
X13960300Y-13446500D01*
X13960300Y-13700500D02*
X14010300Y-13650500D01*
X13960300Y-13600500D01*
X13910300Y-13650500D01*
X13960300Y-13700500D01*
X14214300Y-13446500D02*
X14264300Y-13396500D01*
X14214300Y-13346500D01*
X14164300Y-13396500D01*
X14214300Y-13446500D01*
X14214300Y-13700500D02*
X14264300Y-13650500D01*
X14214300Y-13600500D01*
X14164300Y-13650500D01*
X14214300Y-13700500D01*
X14468300Y-13446500D02*
X14518300Y-13396500D01*
X14468300Y-13346500D01*
X14418300Y-13396500D01*
X14468300Y-13446500D01*
X14468300Y-13700500D02*
X14518300Y-13650500D01*
X14468300Y-13600500D01*
X14418300Y-13650500D01*
X14468300Y-13700500D01*
X14722300Y-13446500D02*
X14772300Y-13396500D01*
X14722300Y-13346500D01*
X14672300Y-13396500D01*
X14722300Y-13446500D01*
X14722300Y-13700500D02*
X14772300Y-13650500D01*
X14722300Y-13600500D01*
X14672300Y-13650500D01*
X14722300Y-13700500D01*
X14976300Y-13700500D02*
X15026300Y-13650500D01*
X14976300Y-13600500D01*
X14926300Y-13650500D01*
X14976300Y-13700500D01*
X14976300Y-13446500D02*
X15026300Y-13396500D01*
X14976300Y-13346500D01*
X14926300Y-13396500D01*
X14976300Y-13446500D01*
X15230300Y-13446500D02*
X15280300Y-13396500D01*
X15230300Y-13346500D01*
X15180300Y-13396500D01*
X15230300Y-13446500D01*
X15230300Y-13700500D02*
X15280300Y-13650500D01*
X15230300Y-13600500D01*
X15180300Y-13650500D01*
X15230300Y-13700500D01*
X15484300Y-13446500D02*
X15534300Y-13396500D01*
X15484300Y-13346500D01*
X15434300Y-13396500D01*
X15484300Y-13446500D01*
X15484300Y-13700500D02*
X15534300Y-13650500D01*
X15484300Y-13600500D01*
X15434300Y-13650500D01*
X15484300Y-13700500D01*
D11*
X6351777Y-14159484D02*
X6351777Y-13959484D01*
X6351777Y-13959484D02*
X6399396Y-13959484D01*
X6399396Y-13959484D02*
X6427967Y-13969008D01*
X6427967Y-13969008D02*
X6447015Y-13988055D01*
X6447015Y-13988055D02*
X6456539Y-14007103D01*
X6456539Y-14007103D02*
X6466062Y-14045198D01*
X6466062Y-14045198D02*
X6466062Y-14073769D01*
X6466062Y-14073769D02*
X6456539Y-14111865D01*
X6456539Y-14111865D02*
X6447015Y-14130912D01*
X6447015Y-14130912D02*
X6427967Y-14149960D01*
X6427967Y-14149960D02*
X6399396Y-14159484D01*
X6399396Y-14159484D02*
X6351777Y-14159484D01*
X6551777Y-14159484D02*
X6551777Y-14026150D01*
X6551777Y-14064246D02*
X6561301Y-14045198D01*
X6561301Y-14045198D02*
X6570824Y-14035674D01*
X6570824Y-14035674D02*
X6589872Y-14026150D01*
X6589872Y-14026150D02*
X6608920Y-14026150D01*
X6675586Y-14159484D02*
X6675586Y-14026150D01*
X6675586Y-13959484D02*
X6666062Y-13969008D01*
X6666062Y-13969008D02*
X6675586Y-13978531D01*
X6675586Y-13978531D02*
X6685110Y-13969008D01*
X6685110Y-13969008D02*
X6675586Y-13959484D01*
X6675586Y-13959484D02*
X6675586Y-13978531D01*
X6799396Y-14159484D02*
X6780348Y-14149960D01*
X6780348Y-14149960D02*
X6770824Y-14130912D01*
X6770824Y-14130912D02*
X6770824Y-13959484D01*
X6904158Y-14159484D02*
X6885110Y-14149960D01*
X6885110Y-14149960D02*
X6875586Y-14130912D01*
X6875586Y-14130912D02*
X6875586Y-13959484D01*
X7132729Y-14159484D02*
X7132729Y-13959484D01*
X7132729Y-13959484D02*
X7199396Y-14102341D01*
X7199396Y-14102341D02*
X7266062Y-13959484D01*
X7266062Y-13959484D02*
X7266062Y-14159484D01*
X7447015Y-14159484D02*
X7447015Y-14054722D01*
X7447015Y-14054722D02*
X7437491Y-14035674D01*
X7437491Y-14035674D02*
X7418443Y-14026150D01*
X7418443Y-14026150D02*
X7380348Y-14026150D01*
X7380348Y-14026150D02*
X7361301Y-14035674D01*
X7447015Y-14149960D02*
X7427967Y-14159484D01*
X7427967Y-14159484D02*
X7380348Y-14159484D01*
X7380348Y-14159484D02*
X7361301Y-14149960D01*
X7361301Y-14149960D02*
X7351777Y-14130912D01*
X7351777Y-14130912D02*
X7351777Y-14111865D01*
X7351777Y-14111865D02*
X7361301Y-14092817D01*
X7361301Y-14092817D02*
X7380348Y-14083293D01*
X7380348Y-14083293D02*
X7427967Y-14083293D01*
X7427967Y-14083293D02*
X7447015Y-14073769D01*
X7542253Y-14026150D02*
X7542253Y-14226150D01*
X7542253Y-14035674D02*
X7561301Y-14026150D01*
X7561301Y-14026150D02*
X7599396Y-14026150D01*
X7599396Y-14026150D02*
X7618443Y-14035674D01*
X7618443Y-14035674D02*
X7627967Y-14045198D01*
X7627967Y-14045198D02*
X7637491Y-14064246D01*
X7637491Y-14064246D02*
X7637491Y-14121388D01*
X7637491Y-14121388D02*
X7627967Y-14140436D01*
X7627967Y-14140436D02*
X7618443Y-14149960D01*
X7618443Y-14149960D02*
X7599396Y-14159484D01*
X7599396Y-14159484D02*
X7561301Y-14159484D01*
X7561301Y-14159484D02*
X7542253Y-14149960D01*
X7723205Y-14140436D02*
X7732729Y-14149960D01*
X7732729Y-14149960D02*
X7723205Y-14159484D01*
X7723205Y-14159484D02*
X7713682Y-14149960D01*
X7713682Y-14149960D02*
X7723205Y-14140436D01*
X7723205Y-14140436D02*
X7723205Y-14159484D01*
X7723205Y-14035674D02*
X7732729Y-14045198D01*
X7732729Y-14045198D02*
X7723205Y-14054722D01*
X7723205Y-14054722D02*
X7713682Y-14045198D01*
X7713682Y-14045198D02*
X7723205Y-14035674D01*
X7723205Y-14035674D02*
X7723205Y-14054722D01*
D10*
X6071000Y-14478000D02*
X6091000Y-14498000D01*
X6091000Y-14478000D02*
X6071000Y-14498000D01*
D11*
X6389872Y-14379484D02*
X6408920Y-14379484D01*
X6408920Y-14379484D02*
X6427967Y-14389008D01*
X6427967Y-14389008D02*
X6437491Y-14398531D01*
X6437491Y-14398531D02*
X6447015Y-14417579D01*
X6447015Y-14417579D02*
X6456539Y-14455674D01*
X6456539Y-14455674D02*
X6456539Y-14503293D01*
X6456539Y-14503293D02*
X6447015Y-14541388D01*
X6447015Y-14541388D02*
X6437491Y-14560436D01*
X6437491Y-14560436D02*
X6427967Y-14569960D01*
X6427967Y-14569960D02*
X6408920Y-14579484D01*
X6408920Y-14579484D02*
X6389872Y-14579484D01*
X6389872Y-14579484D02*
X6370824Y-14569960D01*
X6370824Y-14569960D02*
X6361301Y-14560436D01*
X6361301Y-14560436D02*
X6351777Y-14541388D01*
X6351777Y-14541388D02*
X6342253Y-14503293D01*
X6342253Y-14503293D02*
X6342253Y-14455674D01*
X6342253Y-14455674D02*
X6351777Y-14417579D01*
X6351777Y-14417579D02*
X6361301Y-14398531D01*
X6361301Y-14398531D02*
X6370824Y-14389008D01*
X6370824Y-14389008D02*
X6389872Y-14379484D01*
X6542253Y-14560436D02*
X6551777Y-14569960D01*
X6551777Y-14569960D02*
X6542253Y-14579484D01*
X6542253Y-14579484D02*
X6532729Y-14569960D01*
X6532729Y-14569960D02*
X6542253Y-14560436D01*
X6542253Y-14560436D02*
X6542253Y-14579484D01*
X6627967Y-14398531D02*
X6637491Y-14389008D01*
X6637491Y-14389008D02*
X6656539Y-14379484D01*
X6656539Y-14379484D02*
X6704158Y-14379484D01*
X6704158Y-14379484D02*
X6723205Y-14389008D01*
X6723205Y-14389008D02*
X6732729Y-14398531D01*
X6732729Y-14398531D02*
X6742253Y-14417579D01*
X6742253Y-14417579D02*
X6742253Y-14436627D01*
X6742253Y-14436627D02*
X6732729Y-14465198D01*
X6732729Y-14465198D02*
X6618443Y-14579484D01*
X6618443Y-14579484D02*
X6742253Y-14579484D01*
X6866062Y-14379484D02*
X6885110Y-14379484D01*
X6885110Y-14379484D02*
X6904158Y-14389008D01*
X6904158Y-14389008D02*
X6913682Y-14398531D01*
X6913682Y-14398531D02*
X6923205Y-14417579D01*
X6923205Y-14417579D02*
X6932729Y-14455674D01*
X6932729Y-14455674D02*
X6932729Y-14503293D01*
X6932729Y-14503293D02*
X6923205Y-14541388D01*
X6923205Y-14541388D02*
X6913682Y-14560436D01*
X6913682Y-14560436D02*
X6904158Y-14569960D01*
X6904158Y-14569960D02*
X6885110Y-14579484D01*
X6885110Y-14579484D02*
X6866062Y-14579484D01*
X6866062Y-14579484D02*
X6847015Y-14569960D01*
X6847015Y-14569960D02*
X6837491Y-14560436D01*
X6837491Y-14560436D02*
X6827967Y-14541388D01*
X6827967Y-14541388D02*
X6818443Y-14503293D01*
X6818443Y-14503293D02*
X6818443Y-14455674D01*
X6818443Y-14455674D02*
X6827967Y-14417579D01*
X6827967Y-14417579D02*
X6837491Y-14398531D01*
X6837491Y-14398531D02*
X6847015Y-14389008D01*
X6847015Y-14389008D02*
X6866062Y-14379484D01*
X7056539Y-14379484D02*
X7075586Y-14379484D01*
X7075586Y-14379484D02*
X7094634Y-14389008D01*
X7094634Y-14389008D02*
X7104158Y-14398531D01*
X7104158Y-14398531D02*
X7113682Y-14417579D01*
X7113682Y-14417579D02*
X7123205Y-14455674D01*
X7123205Y-14455674D02*
X7123205Y-14503293D01*
X7123205Y-14503293D02*
X7113682Y-14541388D01*
X7113682Y-14541388D02*
X7104158Y-14560436D01*
X7104158Y-14560436D02*
X7094634Y-14569960D01*
X7094634Y-14569960D02*
X7075586Y-14579484D01*
X7075586Y-14579484D02*
X7056539Y-14579484D01*
X7056539Y-14579484D02*
X7037491Y-14569960D01*
X7037491Y-14569960D02*
X7027967Y-14560436D01*
X7027967Y-14560436D02*
X7018443Y-14541388D01*
X7018443Y-14541388D02*
X7008920Y-14503293D01*
X7008920Y-14503293D02*
X7008920Y-14455674D01*
X7008920Y-14455674D02*
X7018443Y-14417579D01*
X7018443Y-14417579D02*
X7027967Y-14398531D01*
X7027967Y-14398531D02*
X7037491Y-14389008D01*
X7037491Y-14389008D02*
X7056539Y-14379484D01*
X7208920Y-14579484D02*
X7208920Y-14446150D01*
X7208920Y-14465198D02*
X7218443Y-14455674D01*
X7218443Y-14455674D02*
X7237491Y-14446150D01*
X7237491Y-14446150D02*
X7266063Y-14446150D01*
X7266063Y-14446150D02*
X7285110Y-14455674D01*
X7285110Y-14455674D02*
X7294634Y-14474722D01*
X7294634Y-14474722D02*
X7294634Y-14579484D01*
X7294634Y-14474722D02*
X7304158Y-14455674D01*
X7304158Y-14455674D02*
X7323205Y-14446150D01*
X7323205Y-14446150D02*
X7351777Y-14446150D01*
X7351777Y-14446150D02*
X7370824Y-14455674D01*
X7370824Y-14455674D02*
X7380348Y-14474722D01*
X7380348Y-14474722D02*
X7380348Y-14579484D01*
X7475586Y-14579484D02*
X7475586Y-14446150D01*
X7475586Y-14465198D02*
X7485110Y-14455674D01*
X7485110Y-14455674D02*
X7504158Y-14446150D01*
X7504158Y-14446150D02*
X7532729Y-14446150D01*
X7532729Y-14446150D02*
X7551777Y-14455674D01*
X7551777Y-14455674D02*
X7561301Y-14474722D01*
X7561301Y-14474722D02*
X7561301Y-14579484D01*
X7561301Y-14474722D02*
X7570824Y-14455674D01*
X7570824Y-14455674D02*
X7589872Y-14446150D01*
X7589872Y-14446150D02*
X7618443Y-14446150D01*
X7618443Y-14446150D02*
X7637491Y-14455674D01*
X7637491Y-14455674D02*
X7647015Y-14474722D01*
X7647015Y-14474722D02*
X7647015Y-14579484D01*
X8037491Y-14369960D02*
X7866063Y-14627103D01*
X8294634Y-14379484D02*
X8313682Y-14379484D01*
X8313682Y-14379484D02*
X8332729Y-14389008D01*
X8332729Y-14389008D02*
X8342253Y-14398531D01*
X8342253Y-14398531D02*
X8351777Y-14417579D01*
X8351777Y-14417579D02*
X8361301Y-14455674D01*
X8361301Y-14455674D02*
X8361301Y-14503293D01*
X8361301Y-14503293D02*
X8351777Y-14541388D01*
X8351777Y-14541388D02*
X8342253Y-14560436D01*
X8342253Y-14560436D02*
X8332729Y-14569960D01*
X8332729Y-14569960D02*
X8313682Y-14579484D01*
X8313682Y-14579484D02*
X8294634Y-14579484D01*
X8294634Y-14579484D02*
X8275586Y-14569960D01*
X8275586Y-14569960D02*
X8266063Y-14560436D01*
X8266063Y-14560436D02*
X8256539Y-14541388D01*
X8256539Y-14541388D02*
X8247015Y-14503293D01*
X8247015Y-14503293D02*
X8247015Y-14455674D01*
X8247015Y-14455674D02*
X8256539Y-14417579D01*
X8256539Y-14417579D02*
X8266063Y-14398531D01*
X8266063Y-14398531D02*
X8275586Y-14389008D01*
X8275586Y-14389008D02*
X8294634Y-14379484D01*
X8447015Y-14560436D02*
X8456539Y-14569960D01*
X8456539Y-14569960D02*
X8447015Y-14579484D01*
X8447015Y-14579484D02*
X8437491Y-14569960D01*
X8437491Y-14569960D02*
X8447015Y-14560436D01*
X8447015Y-14560436D02*
X8447015Y-14579484D01*
X8580348Y-14379484D02*
X8599396Y-14379484D01*
X8599396Y-14379484D02*
X8618444Y-14389008D01*
X8618444Y-14389008D02*
X8627968Y-14398531D01*
X8627968Y-14398531D02*
X8637491Y-14417579D01*
X8637491Y-14417579D02*
X8647015Y-14455674D01*
X8647015Y-14455674D02*
X8647015Y-14503293D01*
X8647015Y-14503293D02*
X8637491Y-14541388D01*
X8637491Y-14541388D02*
X8627968Y-14560436D01*
X8627968Y-14560436D02*
X8618444Y-14569960D01*
X8618444Y-14569960D02*
X8599396Y-14579484D01*
X8599396Y-14579484D02*
X8580348Y-14579484D01*
X8580348Y-14579484D02*
X8561301Y-14569960D01*
X8561301Y-14569960D02*
X8551777Y-14560436D01*
X8551777Y-14560436D02*
X8542253Y-14541388D01*
X8542253Y-14541388D02*
X8532729Y-14503293D01*
X8532729Y-14503293D02*
X8532729Y-14455674D01*
X8532729Y-14455674D02*
X8542253Y-14417579D01*
X8542253Y-14417579D02*
X8551777Y-14398531D01*
X8551777Y-14398531D02*
X8561301Y-14389008D01*
X8561301Y-14389008D02*
X8580348Y-14379484D01*
X8770825Y-14379484D02*
X8789872Y-14379484D01*
X8789872Y-14379484D02*
X8808920Y-14389008D01*
X8808920Y-14389008D02*
X8818444Y-14398531D01*
X8818444Y-14398531D02*
X8827968Y-14417579D01*
X8827968Y-14417579D02*
X8837491Y-14455674D01*
X8837491Y-14455674D02*
X8837491Y-14503293D01*
X8837491Y-14503293D02*
X8827968Y-14541388D01*
X8827968Y-14541388D02*
X8818444Y-14560436D01*
X8818444Y-14560436D02*
X8808920Y-14569960D01*
X8808920Y-14569960D02*
X8789872Y-14579484D01*
X8789872Y-14579484D02*
X8770825Y-14579484D01*
X8770825Y-14579484D02*
X8751777Y-14569960D01*
X8751777Y-14569960D02*
X8742253Y-14560436D01*
X8742253Y-14560436D02*
X8732729Y-14541388D01*
X8732729Y-14541388D02*
X8723206Y-14503293D01*
X8723206Y-14503293D02*
X8723206Y-14455674D01*
X8723206Y-14455674D02*
X8732729Y-14417579D01*
X8732729Y-14417579D02*
X8742253Y-14398531D01*
X8742253Y-14398531D02*
X8751777Y-14389008D01*
X8751777Y-14389008D02*
X8770825Y-14379484D01*
X8904158Y-14379484D02*
X9037491Y-14379484D01*
X9037491Y-14379484D02*
X8951777Y-14579484D01*
X9123206Y-14579484D02*
X9161301Y-14579484D01*
X9161301Y-14579484D02*
X9180349Y-14569960D01*
X9180349Y-14569960D02*
X9189872Y-14560436D01*
X9189872Y-14560436D02*
X9208920Y-14531865D01*
X9208920Y-14531865D02*
X9218444Y-14493769D01*
X9218444Y-14493769D02*
X9218444Y-14417579D01*
X9218444Y-14417579D02*
X9208920Y-14398531D01*
X9208920Y-14398531D02*
X9199396Y-14389008D01*
X9199396Y-14389008D02*
X9180349Y-14379484D01*
X9180349Y-14379484D02*
X9142253Y-14379484D01*
X9142253Y-14379484D02*
X9123206Y-14389008D01*
X9123206Y-14389008D02*
X9113682Y-14398531D01*
X9113682Y-14398531D02*
X9104158Y-14417579D01*
X9104158Y-14417579D02*
X9104158Y-14465198D01*
X9104158Y-14465198D02*
X9113682Y-14484246D01*
X9113682Y-14484246D02*
X9123206Y-14493769D01*
X9123206Y-14493769D02*
X9142253Y-14503293D01*
X9142253Y-14503293D02*
X9180349Y-14503293D01*
X9180349Y-14503293D02*
X9199396Y-14493769D01*
X9199396Y-14493769D02*
X9208920Y-14484246D01*
X9208920Y-14484246D02*
X9218444Y-14465198D01*
X9294634Y-14379484D02*
X9294634Y-14417579D01*
X9370825Y-14379484D02*
X9370825Y-14417579D01*
X9666063Y-14655674D02*
X9656539Y-14646150D01*
X9656539Y-14646150D02*
X9637491Y-14617579D01*
X9637491Y-14617579D02*
X9627968Y-14598531D01*
X9627968Y-14598531D02*
X9618444Y-14569960D01*
X9618444Y-14569960D02*
X9608920Y-14522341D01*
X9608920Y-14522341D02*
X9608920Y-14484246D01*
X9608920Y-14484246D02*
X9618444Y-14436627D01*
X9618444Y-14436627D02*
X9627968Y-14408055D01*
X9627968Y-14408055D02*
X9637491Y-14389008D01*
X9637491Y-14389008D02*
X9656539Y-14360436D01*
X9656539Y-14360436D02*
X9666063Y-14350912D01*
X9732730Y-14398531D02*
X9742253Y-14389008D01*
X9742253Y-14389008D02*
X9761301Y-14379484D01*
X9761301Y-14379484D02*
X9808920Y-14379484D01*
X9808920Y-14379484D02*
X9827968Y-14389008D01*
X9827968Y-14389008D02*
X9837491Y-14398531D01*
X9837491Y-14398531D02*
X9847015Y-14417579D01*
X9847015Y-14417579D02*
X9847015Y-14436627D01*
X9847015Y-14436627D02*
X9837491Y-14465198D01*
X9837491Y-14465198D02*
X9723206Y-14579484D01*
X9723206Y-14579484D02*
X9847015Y-14579484D01*
X10018444Y-14379484D02*
X9980349Y-14379484D01*
X9980349Y-14379484D02*
X9961301Y-14389008D01*
X9961301Y-14389008D02*
X9951777Y-14398531D01*
X9951777Y-14398531D02*
X9932730Y-14427103D01*
X9932730Y-14427103D02*
X9923206Y-14465198D01*
X9923206Y-14465198D02*
X9923206Y-14541388D01*
X9923206Y-14541388D02*
X9932730Y-14560436D01*
X9932730Y-14560436D02*
X9942253Y-14569960D01*
X9942253Y-14569960D02*
X9961301Y-14579484D01*
X9961301Y-14579484D02*
X9999396Y-14579484D01*
X9999396Y-14579484D02*
X10018444Y-14569960D01*
X10018444Y-14569960D02*
X10027968Y-14560436D01*
X10027968Y-14560436D02*
X10037491Y-14541388D01*
X10037491Y-14541388D02*
X10037491Y-14493769D01*
X10037491Y-14493769D02*
X10027968Y-14474722D01*
X10027968Y-14474722D02*
X10018444Y-14465198D01*
X10018444Y-14465198D02*
X9999396Y-14455674D01*
X9999396Y-14455674D02*
X9961301Y-14455674D01*
X9961301Y-14455674D02*
X9942253Y-14465198D01*
X9942253Y-14465198D02*
X9932730Y-14474722D01*
X9932730Y-14474722D02*
X9923206Y-14493769D01*
X10104158Y-14379484D02*
X10237491Y-14379484D01*
X10237491Y-14379484D02*
X10151777Y-14579484D01*
X10466063Y-14579484D02*
X10466063Y-14379484D01*
X10551777Y-14579484D02*
X10551777Y-14474722D01*
X10551777Y-14474722D02*
X10542253Y-14455674D01*
X10542253Y-14455674D02*
X10523206Y-14446150D01*
X10523206Y-14446150D02*
X10494634Y-14446150D01*
X10494634Y-14446150D02*
X10475587Y-14455674D01*
X10475587Y-14455674D02*
X10466063Y-14465198D01*
X10675587Y-14579484D02*
X10656539Y-14569960D01*
X10656539Y-14569960D02*
X10647015Y-14560436D01*
X10647015Y-14560436D02*
X10637492Y-14541388D01*
X10637492Y-14541388D02*
X10637492Y-14484246D01*
X10637492Y-14484246D02*
X10647015Y-14465198D01*
X10647015Y-14465198D02*
X10656539Y-14455674D01*
X10656539Y-14455674D02*
X10675587Y-14446150D01*
X10675587Y-14446150D02*
X10704158Y-14446150D01*
X10704158Y-14446150D02*
X10723206Y-14455674D01*
X10723206Y-14455674D02*
X10732730Y-14465198D01*
X10732730Y-14465198D02*
X10742253Y-14484246D01*
X10742253Y-14484246D02*
X10742253Y-14541388D01*
X10742253Y-14541388D02*
X10732730Y-14560436D01*
X10732730Y-14560436D02*
X10723206Y-14569960D01*
X10723206Y-14569960D02*
X10704158Y-14579484D01*
X10704158Y-14579484D02*
X10675587Y-14579484D01*
X10856539Y-14579484D02*
X10837492Y-14569960D01*
X10837492Y-14569960D02*
X10827968Y-14550912D01*
X10827968Y-14550912D02*
X10827968Y-14379484D01*
X11008920Y-14569960D02*
X10989873Y-14579484D01*
X10989873Y-14579484D02*
X10951777Y-14579484D01*
X10951777Y-14579484D02*
X10932730Y-14569960D01*
X10932730Y-14569960D02*
X10923206Y-14550912D01*
X10923206Y-14550912D02*
X10923206Y-14474722D01*
X10923206Y-14474722D02*
X10932730Y-14455674D01*
X10932730Y-14455674D02*
X10951777Y-14446150D01*
X10951777Y-14446150D02*
X10989873Y-14446150D01*
X10989873Y-14446150D02*
X11008920Y-14455674D01*
X11008920Y-14455674D02*
X11018444Y-14474722D01*
X11018444Y-14474722D02*
X11018444Y-14493769D01*
X11018444Y-14493769D02*
X10923206Y-14512817D01*
X11094634Y-14569960D02*
X11113682Y-14579484D01*
X11113682Y-14579484D02*
X11151777Y-14579484D01*
X11151777Y-14579484D02*
X11170825Y-14569960D01*
X11170825Y-14569960D02*
X11180349Y-14550912D01*
X11180349Y-14550912D02*
X11180349Y-14541388D01*
X11180349Y-14541388D02*
X11170825Y-14522341D01*
X11170825Y-14522341D02*
X11151777Y-14512817D01*
X11151777Y-14512817D02*
X11123206Y-14512817D01*
X11123206Y-14512817D02*
X11104158Y-14503293D01*
X11104158Y-14503293D02*
X11094634Y-14484246D01*
X11094634Y-14484246D02*
X11094634Y-14474722D01*
X11094634Y-14474722D02*
X11104158Y-14455674D01*
X11104158Y-14455674D02*
X11123206Y-14446150D01*
X11123206Y-14446150D02*
X11151777Y-14446150D01*
X11151777Y-14446150D02*
X11170825Y-14455674D01*
X11247015Y-14655674D02*
X11256539Y-14646150D01*
X11256539Y-14646150D02*
X11275587Y-14617579D01*
X11275587Y-14617579D02*
X11285111Y-14598531D01*
X11285111Y-14598531D02*
X11294634Y-14569960D01*
X11294634Y-14569960D02*
X11304158Y-14522341D01*
X11304158Y-14522341D02*
X11304158Y-14484246D01*
X11304158Y-14484246D02*
X11294634Y-14436627D01*
X11294634Y-14436627D02*
X11285111Y-14408055D01*
X11285111Y-14408055D02*
X11275587Y-14389008D01*
X11275587Y-14389008D02*
X11256539Y-14360436D01*
X11256539Y-14360436D02*
X11247015Y-14350912D01*
D10*
X6091000Y-14752000D02*
G75*
G02*
X6071000Y-14752000I-10000J0D01*
G01*
X6071000Y-14752000D02*
G75*
G02*
X6091000Y-14752000I10000J0D01*
G01*
D11*
X6389872Y-14643484D02*
X6408920Y-14643484D01*
X6408920Y-14643484D02*
X6427967Y-14653008D01*
X6427967Y-14653008D02*
X6437491Y-14662531D01*
X6437491Y-14662531D02*
X6447015Y-14681579D01*
X6447015Y-14681579D02*
X6456539Y-14719674D01*
X6456539Y-14719674D02*
X6456539Y-14767293D01*
X6456539Y-14767293D02*
X6447015Y-14805388D01*
X6447015Y-14805388D02*
X6437491Y-14824436D01*
X6437491Y-14824436D02*
X6427967Y-14833960D01*
X6427967Y-14833960D02*
X6408920Y-14843484D01*
X6408920Y-14843484D02*
X6389872Y-14843484D01*
X6389872Y-14843484D02*
X6370824Y-14833960D01*
X6370824Y-14833960D02*
X6361301Y-14824436D01*
X6361301Y-14824436D02*
X6351777Y-14805388D01*
X6351777Y-14805388D02*
X6342253Y-14767293D01*
X6342253Y-14767293D02*
X6342253Y-14719674D01*
X6342253Y-14719674D02*
X6351777Y-14681579D01*
X6351777Y-14681579D02*
X6361301Y-14662531D01*
X6361301Y-14662531D02*
X6370824Y-14653008D01*
X6370824Y-14653008D02*
X6389872Y-14643484D01*
X6542253Y-14824436D02*
X6551777Y-14833960D01*
X6551777Y-14833960D02*
X6542253Y-14843484D01*
X6542253Y-14843484D02*
X6532729Y-14833960D01*
X6532729Y-14833960D02*
X6542253Y-14824436D01*
X6542253Y-14824436D02*
X6542253Y-14843484D01*
X6627967Y-14662531D02*
X6637491Y-14653008D01*
X6637491Y-14653008D02*
X6656539Y-14643484D01*
X6656539Y-14643484D02*
X6704158Y-14643484D01*
X6704158Y-14643484D02*
X6723205Y-14653008D01*
X6723205Y-14653008D02*
X6732729Y-14662531D01*
X6732729Y-14662531D02*
X6742253Y-14681579D01*
X6742253Y-14681579D02*
X6742253Y-14700627D01*
X6742253Y-14700627D02*
X6732729Y-14729198D01*
X6732729Y-14729198D02*
X6618443Y-14843484D01*
X6618443Y-14843484D02*
X6742253Y-14843484D01*
X6866062Y-14643484D02*
X6885110Y-14643484D01*
X6885110Y-14643484D02*
X6904158Y-14653008D01*
X6904158Y-14653008D02*
X6913682Y-14662531D01*
X6913682Y-14662531D02*
X6923205Y-14681579D01*
X6923205Y-14681579D02*
X6932729Y-14719674D01*
X6932729Y-14719674D02*
X6932729Y-14767293D01*
X6932729Y-14767293D02*
X6923205Y-14805388D01*
X6923205Y-14805388D02*
X6913682Y-14824436D01*
X6913682Y-14824436D02*
X6904158Y-14833960D01*
X6904158Y-14833960D02*
X6885110Y-14843484D01*
X6885110Y-14843484D02*
X6866062Y-14843484D01*
X6866062Y-14843484D02*
X6847015Y-14833960D01*
X6847015Y-14833960D02*
X6837491Y-14824436D01*
X6837491Y-14824436D02*
X6827967Y-14805388D01*
X6827967Y-14805388D02*
X6818443Y-14767293D01*
X6818443Y-14767293D02*
X6818443Y-14719674D01*
X6818443Y-14719674D02*
X6827967Y-14681579D01*
X6827967Y-14681579D02*
X6837491Y-14662531D01*
X6837491Y-14662531D02*
X6847015Y-14653008D01*
X6847015Y-14653008D02*
X6866062Y-14643484D01*
X7056539Y-14643484D02*
X7075586Y-14643484D01*
X7075586Y-14643484D02*
X7094634Y-14653008D01*
X7094634Y-14653008D02*
X7104158Y-14662531D01*
X7104158Y-14662531D02*
X7113682Y-14681579D01*
X7113682Y-14681579D02*
X7123205Y-14719674D01*
X7123205Y-14719674D02*
X7123205Y-14767293D01*
X7123205Y-14767293D02*
X7113682Y-14805388D01*
X7113682Y-14805388D02*
X7104158Y-14824436D01*
X7104158Y-14824436D02*
X7094634Y-14833960D01*
X7094634Y-14833960D02*
X7075586Y-14843484D01*
X7075586Y-14843484D02*
X7056539Y-14843484D01*
X7056539Y-14843484D02*
X7037491Y-14833960D01*
X7037491Y-14833960D02*
X7027967Y-14824436D01*
X7027967Y-14824436D02*
X7018443Y-14805388D01*
X7018443Y-14805388D02*
X7008920Y-14767293D01*
X7008920Y-14767293D02*
X7008920Y-14719674D01*
X7008920Y-14719674D02*
X7018443Y-14681579D01*
X7018443Y-14681579D02*
X7027967Y-14662531D01*
X7027967Y-14662531D02*
X7037491Y-14653008D01*
X7037491Y-14653008D02*
X7056539Y-14643484D01*
X7208920Y-14843484D02*
X7208920Y-14710150D01*
X7208920Y-14729198D02*
X7218443Y-14719674D01*
X7218443Y-14719674D02*
X7237491Y-14710150D01*
X7237491Y-14710150D02*
X7266063Y-14710150D01*
X7266063Y-14710150D02*
X7285110Y-14719674D01*
X7285110Y-14719674D02*
X7294634Y-14738722D01*
X7294634Y-14738722D02*
X7294634Y-14843484D01*
X7294634Y-14738722D02*
X7304158Y-14719674D01*
X7304158Y-14719674D02*
X7323205Y-14710150D01*
X7323205Y-14710150D02*
X7351777Y-14710150D01*
X7351777Y-14710150D02*
X7370824Y-14719674D01*
X7370824Y-14719674D02*
X7380348Y-14738722D01*
X7380348Y-14738722D02*
X7380348Y-14843484D01*
X7475586Y-14843484D02*
X7475586Y-14710150D01*
X7475586Y-14729198D02*
X7485110Y-14719674D01*
X7485110Y-14719674D02*
X7504158Y-14710150D01*
X7504158Y-14710150D02*
X7532729Y-14710150D01*
X7532729Y-14710150D02*
X7551777Y-14719674D01*
X7551777Y-14719674D02*
X7561301Y-14738722D01*
X7561301Y-14738722D02*
X7561301Y-14843484D01*
X7561301Y-14738722D02*
X7570824Y-14719674D01*
X7570824Y-14719674D02*
X7589872Y-14710150D01*
X7589872Y-14710150D02*
X7618443Y-14710150D01*
X7618443Y-14710150D02*
X7637491Y-14719674D01*
X7637491Y-14719674D02*
X7647015Y-14738722D01*
X7647015Y-14738722D02*
X7647015Y-14843484D01*
X8037491Y-14633960D02*
X7866063Y-14891103D01*
X8294634Y-14643484D02*
X8313682Y-14643484D01*
X8313682Y-14643484D02*
X8332729Y-14653008D01*
X8332729Y-14653008D02*
X8342253Y-14662531D01*
X8342253Y-14662531D02*
X8351777Y-14681579D01*
X8351777Y-14681579D02*
X8361301Y-14719674D01*
X8361301Y-14719674D02*
X8361301Y-14767293D01*
X8361301Y-14767293D02*
X8351777Y-14805388D01*
X8351777Y-14805388D02*
X8342253Y-14824436D01*
X8342253Y-14824436D02*
X8332729Y-14833960D01*
X8332729Y-14833960D02*
X8313682Y-14843484D01*
X8313682Y-14843484D02*
X8294634Y-14843484D01*
X8294634Y-14843484D02*
X8275586Y-14833960D01*
X8275586Y-14833960D02*
X8266063Y-14824436D01*
X8266063Y-14824436D02*
X8256539Y-14805388D01*
X8256539Y-14805388D02*
X8247015Y-14767293D01*
X8247015Y-14767293D02*
X8247015Y-14719674D01*
X8247015Y-14719674D02*
X8256539Y-14681579D01*
X8256539Y-14681579D02*
X8266063Y-14662531D01*
X8266063Y-14662531D02*
X8275586Y-14653008D01*
X8275586Y-14653008D02*
X8294634Y-14643484D01*
X8447015Y-14824436D02*
X8456539Y-14833960D01*
X8456539Y-14833960D02*
X8447015Y-14843484D01*
X8447015Y-14843484D02*
X8437491Y-14833960D01*
X8437491Y-14833960D02*
X8447015Y-14824436D01*
X8447015Y-14824436D02*
X8447015Y-14843484D01*
X8580348Y-14643484D02*
X8599396Y-14643484D01*
X8599396Y-14643484D02*
X8618444Y-14653008D01*
X8618444Y-14653008D02*
X8627968Y-14662531D01*
X8627968Y-14662531D02*
X8637491Y-14681579D01*
X8637491Y-14681579D02*
X8647015Y-14719674D01*
X8647015Y-14719674D02*
X8647015Y-14767293D01*
X8647015Y-14767293D02*
X8637491Y-14805388D01*
X8637491Y-14805388D02*
X8627968Y-14824436D01*
X8627968Y-14824436D02*
X8618444Y-14833960D01*
X8618444Y-14833960D02*
X8599396Y-14843484D01*
X8599396Y-14843484D02*
X8580348Y-14843484D01*
X8580348Y-14843484D02*
X8561301Y-14833960D01*
X8561301Y-14833960D02*
X8551777Y-14824436D01*
X8551777Y-14824436D02*
X8542253Y-14805388D01*
X8542253Y-14805388D02*
X8532729Y-14767293D01*
X8532729Y-14767293D02*
X8532729Y-14719674D01*
X8532729Y-14719674D02*
X8542253Y-14681579D01*
X8542253Y-14681579D02*
X8551777Y-14662531D01*
X8551777Y-14662531D02*
X8561301Y-14653008D01*
X8561301Y-14653008D02*
X8580348Y-14643484D01*
X8770825Y-14643484D02*
X8789872Y-14643484D01*
X8789872Y-14643484D02*
X8808920Y-14653008D01*
X8808920Y-14653008D02*
X8818444Y-14662531D01*
X8818444Y-14662531D02*
X8827968Y-14681579D01*
X8827968Y-14681579D02*
X8837491Y-14719674D01*
X8837491Y-14719674D02*
X8837491Y-14767293D01*
X8837491Y-14767293D02*
X8827968Y-14805388D01*
X8827968Y-14805388D02*
X8818444Y-14824436D01*
X8818444Y-14824436D02*
X8808920Y-14833960D01*
X8808920Y-14833960D02*
X8789872Y-14843484D01*
X8789872Y-14843484D02*
X8770825Y-14843484D01*
X8770825Y-14843484D02*
X8751777Y-14833960D01*
X8751777Y-14833960D02*
X8742253Y-14824436D01*
X8742253Y-14824436D02*
X8732729Y-14805388D01*
X8732729Y-14805388D02*
X8723206Y-14767293D01*
X8723206Y-14767293D02*
X8723206Y-14719674D01*
X8723206Y-14719674D02*
X8732729Y-14681579D01*
X8732729Y-14681579D02*
X8742253Y-14662531D01*
X8742253Y-14662531D02*
X8751777Y-14653008D01*
X8751777Y-14653008D02*
X8770825Y-14643484D01*
X8904158Y-14643484D02*
X9037491Y-14643484D01*
X9037491Y-14643484D02*
X8951777Y-14843484D01*
X9123206Y-14843484D02*
X9161301Y-14843484D01*
X9161301Y-14843484D02*
X9180349Y-14833960D01*
X9180349Y-14833960D02*
X9189872Y-14824436D01*
X9189872Y-14824436D02*
X9208920Y-14795865D01*
X9208920Y-14795865D02*
X9218444Y-14757769D01*
X9218444Y-14757769D02*
X9218444Y-14681579D01*
X9218444Y-14681579D02*
X9208920Y-14662531D01*
X9208920Y-14662531D02*
X9199396Y-14653008D01*
X9199396Y-14653008D02*
X9180349Y-14643484D01*
X9180349Y-14643484D02*
X9142253Y-14643484D01*
X9142253Y-14643484D02*
X9123206Y-14653008D01*
X9123206Y-14653008D02*
X9113682Y-14662531D01*
X9113682Y-14662531D02*
X9104158Y-14681579D01*
X9104158Y-14681579D02*
X9104158Y-14729198D01*
X9104158Y-14729198D02*
X9113682Y-14748246D01*
X9113682Y-14748246D02*
X9123206Y-14757769D01*
X9123206Y-14757769D02*
X9142253Y-14767293D01*
X9142253Y-14767293D02*
X9180349Y-14767293D01*
X9180349Y-14767293D02*
X9199396Y-14757769D01*
X9199396Y-14757769D02*
X9208920Y-14748246D01*
X9208920Y-14748246D02*
X9218444Y-14729198D01*
X9294634Y-14643484D02*
X9294634Y-14681579D01*
X9370825Y-14643484D02*
X9370825Y-14681579D01*
X9666063Y-14919674D02*
X9656539Y-14910150D01*
X9656539Y-14910150D02*
X9637491Y-14881579D01*
X9637491Y-14881579D02*
X9627968Y-14862531D01*
X9627968Y-14862531D02*
X9618444Y-14833960D01*
X9618444Y-14833960D02*
X9608920Y-14786341D01*
X9608920Y-14786341D02*
X9608920Y-14748246D01*
X9608920Y-14748246D02*
X9618444Y-14700627D01*
X9618444Y-14700627D02*
X9627968Y-14672055D01*
X9627968Y-14672055D02*
X9637491Y-14653008D01*
X9637491Y-14653008D02*
X9656539Y-14624436D01*
X9656539Y-14624436D02*
X9666063Y-14614912D01*
X9827968Y-14643484D02*
X9789872Y-14643484D01*
X9789872Y-14643484D02*
X9770825Y-14653008D01*
X9770825Y-14653008D02*
X9761301Y-14662531D01*
X9761301Y-14662531D02*
X9742253Y-14691103D01*
X9742253Y-14691103D02*
X9732730Y-14729198D01*
X9732730Y-14729198D02*
X9732730Y-14805388D01*
X9732730Y-14805388D02*
X9742253Y-14824436D01*
X9742253Y-14824436D02*
X9751777Y-14833960D01*
X9751777Y-14833960D02*
X9770825Y-14843484D01*
X9770825Y-14843484D02*
X9808920Y-14843484D01*
X9808920Y-14843484D02*
X9827968Y-14833960D01*
X9827968Y-14833960D02*
X9837491Y-14824436D01*
X9837491Y-14824436D02*
X9847015Y-14805388D01*
X9847015Y-14805388D02*
X9847015Y-14757769D01*
X9847015Y-14757769D02*
X9837491Y-14738722D01*
X9837491Y-14738722D02*
X9827968Y-14729198D01*
X9827968Y-14729198D02*
X9808920Y-14719674D01*
X9808920Y-14719674D02*
X9770825Y-14719674D01*
X9770825Y-14719674D02*
X9751777Y-14729198D01*
X9751777Y-14729198D02*
X9742253Y-14738722D01*
X9742253Y-14738722D02*
X9732730Y-14757769D01*
X10085111Y-14843484D02*
X10085111Y-14643484D01*
X10170825Y-14843484D02*
X10170825Y-14738722D01*
X10170825Y-14738722D02*
X10161301Y-14719674D01*
X10161301Y-14719674D02*
X10142253Y-14710150D01*
X10142253Y-14710150D02*
X10113682Y-14710150D01*
X10113682Y-14710150D02*
X10094634Y-14719674D01*
X10094634Y-14719674D02*
X10085111Y-14729198D01*
X10294634Y-14843484D02*
X10275587Y-14833960D01*
X10275587Y-14833960D02*
X10266063Y-14824436D01*
X10266063Y-14824436D02*
X10256539Y-14805388D01*
X10256539Y-14805388D02*
X10256539Y-14748246D01*
X10256539Y-14748246D02*
X10266063Y-14729198D01*
X10266063Y-14729198D02*
X10275587Y-14719674D01*
X10275587Y-14719674D02*
X10294634Y-14710150D01*
X10294634Y-14710150D02*
X10323206Y-14710150D01*
X10323206Y-14710150D02*
X10342253Y-14719674D01*
X10342253Y-14719674D02*
X10351777Y-14729198D01*
X10351777Y-14729198D02*
X10361301Y-14748246D01*
X10361301Y-14748246D02*
X10361301Y-14805388D01*
X10361301Y-14805388D02*
X10351777Y-14824436D01*
X10351777Y-14824436D02*
X10342253Y-14833960D01*
X10342253Y-14833960D02*
X10323206Y-14843484D01*
X10323206Y-14843484D02*
X10294634Y-14843484D01*
X10475587Y-14843484D02*
X10456539Y-14833960D01*
X10456539Y-14833960D02*
X10447015Y-14814912D01*
X10447015Y-14814912D02*
X10447015Y-14643484D01*
X10627968Y-14833960D02*
X10608920Y-14843484D01*
X10608920Y-14843484D02*
X10570825Y-14843484D01*
X10570825Y-14843484D02*
X10551777Y-14833960D01*
X10551777Y-14833960D02*
X10542253Y-14814912D01*
X10542253Y-14814912D02*
X10542253Y-14738722D01*
X10542253Y-14738722D02*
X10551777Y-14719674D01*
X10551777Y-14719674D02*
X10570825Y-14710150D01*
X10570825Y-14710150D02*
X10608920Y-14710150D01*
X10608920Y-14710150D02*
X10627968Y-14719674D01*
X10627968Y-14719674D02*
X10637492Y-14738722D01*
X10637492Y-14738722D02*
X10637492Y-14757769D01*
X10637492Y-14757769D02*
X10542253Y-14776817D01*
X10713682Y-14833960D02*
X10732730Y-14843484D01*
X10732730Y-14843484D02*
X10770825Y-14843484D01*
X10770825Y-14843484D02*
X10789873Y-14833960D01*
X10789873Y-14833960D02*
X10799396Y-14814912D01*
X10799396Y-14814912D02*
X10799396Y-14805388D01*
X10799396Y-14805388D02*
X10789873Y-14786341D01*
X10789873Y-14786341D02*
X10770825Y-14776817D01*
X10770825Y-14776817D02*
X10742253Y-14776817D01*
X10742253Y-14776817D02*
X10723206Y-14767293D01*
X10723206Y-14767293D02*
X10713682Y-14748246D01*
X10713682Y-14748246D02*
X10713682Y-14738722D01*
X10713682Y-14738722D02*
X10723206Y-14719674D01*
X10723206Y-14719674D02*
X10742253Y-14710150D01*
X10742253Y-14710150D02*
X10770825Y-14710150D01*
X10770825Y-14710150D02*
X10789873Y-14719674D01*
X10866063Y-14919674D02*
X10875587Y-14910150D01*
X10875587Y-14910150D02*
X10894634Y-14881579D01*
X10894634Y-14881579D02*
X10904158Y-14862531D01*
X10904158Y-14862531D02*
X10913682Y-14833960D01*
X10913682Y-14833960D02*
X10923206Y-14786341D01*
X10923206Y-14786341D02*
X10923206Y-14748246D01*
X10923206Y-14748246D02*
X10913682Y-14700627D01*
X10913682Y-14700627D02*
X10904158Y-14672055D01*
X10904158Y-14672055D02*
X10894634Y-14653008D01*
X10894634Y-14653008D02*
X10875587Y-14624436D01*
X10875587Y-14624436D02*
X10866063Y-14614912D01*
D10*
X6061000Y-14986000D02*
X6061000Y-15046000D01*
X6031000Y-15016000D02*
X6091000Y-15016000D01*
D11*
X6389872Y-14907484D02*
X6408920Y-14907484D01*
X6408920Y-14907484D02*
X6427967Y-14917008D01*
X6427967Y-14917008D02*
X6437491Y-14926531D01*
X6437491Y-14926531D02*
X6447015Y-14945579D01*
X6447015Y-14945579D02*
X6456539Y-14983674D01*
X6456539Y-14983674D02*
X6456539Y-15031293D01*
X6456539Y-15031293D02*
X6447015Y-15069388D01*
X6447015Y-15069388D02*
X6437491Y-15088436D01*
X6437491Y-15088436D02*
X6427967Y-15097960D01*
X6427967Y-15097960D02*
X6408920Y-15107484D01*
X6408920Y-15107484D02*
X6389872Y-15107484D01*
X6389872Y-15107484D02*
X6370824Y-15097960D01*
X6370824Y-15097960D02*
X6361301Y-15088436D01*
X6361301Y-15088436D02*
X6351777Y-15069388D01*
X6351777Y-15069388D02*
X6342253Y-15031293D01*
X6342253Y-15031293D02*
X6342253Y-14983674D01*
X6342253Y-14983674D02*
X6351777Y-14945579D01*
X6351777Y-14945579D02*
X6361301Y-14926531D01*
X6361301Y-14926531D02*
X6370824Y-14917008D01*
X6370824Y-14917008D02*
X6389872Y-14907484D01*
X6542253Y-15088436D02*
X6551777Y-15097960D01*
X6551777Y-15097960D02*
X6542253Y-15107484D01*
X6542253Y-15107484D02*
X6532729Y-15097960D01*
X6532729Y-15097960D02*
X6542253Y-15088436D01*
X6542253Y-15088436D02*
X6542253Y-15107484D01*
X6723205Y-14907484D02*
X6685110Y-14907484D01*
X6685110Y-14907484D02*
X6666062Y-14917008D01*
X6666062Y-14917008D02*
X6656539Y-14926531D01*
X6656539Y-14926531D02*
X6637491Y-14955103D01*
X6637491Y-14955103D02*
X6627967Y-14993198D01*
X6627967Y-14993198D02*
X6627967Y-15069388D01*
X6627967Y-15069388D02*
X6637491Y-15088436D01*
X6637491Y-15088436D02*
X6647015Y-15097960D01*
X6647015Y-15097960D02*
X6666062Y-15107484D01*
X6666062Y-15107484D02*
X6704158Y-15107484D01*
X6704158Y-15107484D02*
X6723205Y-15097960D01*
X6723205Y-15097960D02*
X6732729Y-15088436D01*
X6732729Y-15088436D02*
X6742253Y-15069388D01*
X6742253Y-15069388D02*
X6742253Y-15021769D01*
X6742253Y-15021769D02*
X6732729Y-15002722D01*
X6732729Y-15002722D02*
X6723205Y-14993198D01*
X6723205Y-14993198D02*
X6704158Y-14983674D01*
X6704158Y-14983674D02*
X6666062Y-14983674D01*
X6666062Y-14983674D02*
X6647015Y-14993198D01*
X6647015Y-14993198D02*
X6637491Y-15002722D01*
X6637491Y-15002722D02*
X6627967Y-15021769D01*
X6866062Y-14907484D02*
X6885110Y-14907484D01*
X6885110Y-14907484D02*
X6904158Y-14917008D01*
X6904158Y-14917008D02*
X6913682Y-14926531D01*
X6913682Y-14926531D02*
X6923205Y-14945579D01*
X6923205Y-14945579D02*
X6932729Y-14983674D01*
X6932729Y-14983674D02*
X6932729Y-15031293D01*
X6932729Y-15031293D02*
X6923205Y-15069388D01*
X6923205Y-15069388D02*
X6913682Y-15088436D01*
X6913682Y-15088436D02*
X6904158Y-15097960D01*
X6904158Y-15097960D02*
X6885110Y-15107484D01*
X6885110Y-15107484D02*
X6866062Y-15107484D01*
X6866062Y-15107484D02*
X6847015Y-15097960D01*
X6847015Y-15097960D02*
X6837491Y-15088436D01*
X6837491Y-15088436D02*
X6827967Y-15069388D01*
X6827967Y-15069388D02*
X6818443Y-15031293D01*
X6818443Y-15031293D02*
X6818443Y-14983674D01*
X6818443Y-14983674D02*
X6827967Y-14945579D01*
X6827967Y-14945579D02*
X6837491Y-14926531D01*
X6837491Y-14926531D02*
X6847015Y-14917008D01*
X6847015Y-14917008D02*
X6866062Y-14907484D01*
X7056539Y-14907484D02*
X7075586Y-14907484D01*
X7075586Y-14907484D02*
X7094634Y-14917008D01*
X7094634Y-14917008D02*
X7104158Y-14926531D01*
X7104158Y-14926531D02*
X7113682Y-14945579D01*
X7113682Y-14945579D02*
X7123205Y-14983674D01*
X7123205Y-14983674D02*
X7123205Y-15031293D01*
X7123205Y-15031293D02*
X7113682Y-15069388D01*
X7113682Y-15069388D02*
X7104158Y-15088436D01*
X7104158Y-15088436D02*
X7094634Y-15097960D01*
X7094634Y-15097960D02*
X7075586Y-15107484D01*
X7075586Y-15107484D02*
X7056539Y-15107484D01*
X7056539Y-15107484D02*
X7037491Y-15097960D01*
X7037491Y-15097960D02*
X7027967Y-15088436D01*
X7027967Y-15088436D02*
X7018443Y-15069388D01*
X7018443Y-15069388D02*
X7008920Y-15031293D01*
X7008920Y-15031293D02*
X7008920Y-14983674D01*
X7008920Y-14983674D02*
X7018443Y-14945579D01*
X7018443Y-14945579D02*
X7027967Y-14926531D01*
X7027967Y-14926531D02*
X7037491Y-14917008D01*
X7037491Y-14917008D02*
X7056539Y-14907484D01*
X7208920Y-15107484D02*
X7208920Y-14974150D01*
X7208920Y-14993198D02*
X7218443Y-14983674D01*
X7218443Y-14983674D02*
X7237491Y-14974150D01*
X7237491Y-14974150D02*
X7266063Y-14974150D01*
X7266063Y-14974150D02*
X7285110Y-14983674D01*
X7285110Y-14983674D02*
X7294634Y-15002722D01*
X7294634Y-15002722D02*
X7294634Y-15107484D01*
X7294634Y-15002722D02*
X7304158Y-14983674D01*
X7304158Y-14983674D02*
X7323205Y-14974150D01*
X7323205Y-14974150D02*
X7351777Y-14974150D01*
X7351777Y-14974150D02*
X7370824Y-14983674D01*
X7370824Y-14983674D02*
X7380348Y-15002722D01*
X7380348Y-15002722D02*
X7380348Y-15107484D01*
X7475586Y-15107484D02*
X7475586Y-14974150D01*
X7475586Y-14993198D02*
X7485110Y-14983674D01*
X7485110Y-14983674D02*
X7504158Y-14974150D01*
X7504158Y-14974150D02*
X7532729Y-14974150D01*
X7532729Y-14974150D02*
X7551777Y-14983674D01*
X7551777Y-14983674D02*
X7561301Y-15002722D01*
X7561301Y-15002722D02*
X7561301Y-15107484D01*
X7561301Y-15002722D02*
X7570824Y-14983674D01*
X7570824Y-14983674D02*
X7589872Y-14974150D01*
X7589872Y-14974150D02*
X7618443Y-14974150D01*
X7618443Y-14974150D02*
X7637491Y-14983674D01*
X7637491Y-14983674D02*
X7647015Y-15002722D01*
X7647015Y-15002722D02*
X7647015Y-15107484D01*
X8037491Y-14897960D02*
X7866063Y-15155103D01*
X8294634Y-14907484D02*
X8313682Y-14907484D01*
X8313682Y-14907484D02*
X8332729Y-14917008D01*
X8332729Y-14917008D02*
X8342253Y-14926531D01*
X8342253Y-14926531D02*
X8351777Y-14945579D01*
X8351777Y-14945579D02*
X8361301Y-14983674D01*
X8361301Y-14983674D02*
X8361301Y-15031293D01*
X8361301Y-15031293D02*
X8351777Y-15069388D01*
X8351777Y-15069388D02*
X8342253Y-15088436D01*
X8342253Y-15088436D02*
X8332729Y-15097960D01*
X8332729Y-15097960D02*
X8313682Y-15107484D01*
X8313682Y-15107484D02*
X8294634Y-15107484D01*
X8294634Y-15107484D02*
X8275586Y-15097960D01*
X8275586Y-15097960D02*
X8266063Y-15088436D01*
X8266063Y-15088436D02*
X8256539Y-15069388D01*
X8256539Y-15069388D02*
X8247015Y-15031293D01*
X8247015Y-15031293D02*
X8247015Y-14983674D01*
X8247015Y-14983674D02*
X8256539Y-14945579D01*
X8256539Y-14945579D02*
X8266063Y-14926531D01*
X8266063Y-14926531D02*
X8275586Y-14917008D01*
X8275586Y-14917008D02*
X8294634Y-14907484D01*
X8447015Y-15088436D02*
X8456539Y-15097960D01*
X8456539Y-15097960D02*
X8447015Y-15107484D01*
X8447015Y-15107484D02*
X8437491Y-15097960D01*
X8437491Y-15097960D02*
X8447015Y-15088436D01*
X8447015Y-15088436D02*
X8447015Y-15107484D01*
X8580348Y-14907484D02*
X8599396Y-14907484D01*
X8599396Y-14907484D02*
X8618444Y-14917008D01*
X8618444Y-14917008D02*
X8627968Y-14926531D01*
X8627968Y-14926531D02*
X8637491Y-14945579D01*
X8637491Y-14945579D02*
X8647015Y-14983674D01*
X8647015Y-14983674D02*
X8647015Y-15031293D01*
X8647015Y-15031293D02*
X8637491Y-15069388D01*
X8637491Y-15069388D02*
X8627968Y-15088436D01*
X8627968Y-15088436D02*
X8618444Y-15097960D01*
X8618444Y-15097960D02*
X8599396Y-15107484D01*
X8599396Y-15107484D02*
X8580348Y-15107484D01*
X8580348Y-15107484D02*
X8561301Y-15097960D01*
X8561301Y-15097960D02*
X8551777Y-15088436D01*
X8551777Y-15088436D02*
X8542253Y-15069388D01*
X8542253Y-15069388D02*
X8532729Y-15031293D01*
X8532729Y-15031293D02*
X8532729Y-14983674D01*
X8532729Y-14983674D02*
X8542253Y-14945579D01*
X8542253Y-14945579D02*
X8551777Y-14926531D01*
X8551777Y-14926531D02*
X8561301Y-14917008D01*
X8561301Y-14917008D02*
X8580348Y-14907484D01*
X8723206Y-14926531D02*
X8732729Y-14917008D01*
X8732729Y-14917008D02*
X8751777Y-14907484D01*
X8751777Y-14907484D02*
X8799396Y-14907484D01*
X8799396Y-14907484D02*
X8818444Y-14917008D01*
X8818444Y-14917008D02*
X8827968Y-14926531D01*
X8827968Y-14926531D02*
X8837491Y-14945579D01*
X8837491Y-14945579D02*
X8837491Y-14964627D01*
X8837491Y-14964627D02*
X8827968Y-14993198D01*
X8827968Y-14993198D02*
X8713682Y-15107484D01*
X8713682Y-15107484D02*
X8837491Y-15107484D01*
X8904158Y-14907484D02*
X9027968Y-14907484D01*
X9027968Y-14907484D02*
X8961301Y-14983674D01*
X8961301Y-14983674D02*
X8989872Y-14983674D01*
X8989872Y-14983674D02*
X9008920Y-14993198D01*
X9008920Y-14993198D02*
X9018444Y-15002722D01*
X9018444Y-15002722D02*
X9027968Y-15021769D01*
X9027968Y-15021769D02*
X9027968Y-15069388D01*
X9027968Y-15069388D02*
X9018444Y-15088436D01*
X9018444Y-15088436D02*
X9008920Y-15097960D01*
X9008920Y-15097960D02*
X8989872Y-15107484D01*
X8989872Y-15107484D02*
X8932729Y-15107484D01*
X8932729Y-15107484D02*
X8913682Y-15097960D01*
X8913682Y-15097960D02*
X8904158Y-15088436D01*
X9199396Y-14907484D02*
X9161301Y-14907484D01*
X9161301Y-14907484D02*
X9142253Y-14917008D01*
X9142253Y-14917008D02*
X9132729Y-14926531D01*
X9132729Y-14926531D02*
X9113682Y-14955103D01*
X9113682Y-14955103D02*
X9104158Y-14993198D01*
X9104158Y-14993198D02*
X9104158Y-15069388D01*
X9104158Y-15069388D02*
X9113682Y-15088436D01*
X9113682Y-15088436D02*
X9123206Y-15097960D01*
X9123206Y-15097960D02*
X9142253Y-15107484D01*
X9142253Y-15107484D02*
X9180349Y-15107484D01*
X9180349Y-15107484D02*
X9199396Y-15097960D01*
X9199396Y-15097960D02*
X9208920Y-15088436D01*
X9208920Y-15088436D02*
X9218444Y-15069388D01*
X9218444Y-15069388D02*
X9218444Y-15021769D01*
X9218444Y-15021769D02*
X9208920Y-15002722D01*
X9208920Y-15002722D02*
X9199396Y-14993198D01*
X9199396Y-14993198D02*
X9180349Y-14983674D01*
X9180349Y-14983674D02*
X9142253Y-14983674D01*
X9142253Y-14983674D02*
X9123206Y-14993198D01*
X9123206Y-14993198D02*
X9113682Y-15002722D01*
X9113682Y-15002722D02*
X9104158Y-15021769D01*
X9294634Y-14907484D02*
X9294634Y-14945579D01*
X9370825Y-14907484D02*
X9370825Y-14945579D01*
X9666063Y-15183674D02*
X9656539Y-15174150D01*
X9656539Y-15174150D02*
X9637491Y-15145579D01*
X9637491Y-15145579D02*
X9627968Y-15126531D01*
X9627968Y-15126531D02*
X9618444Y-15097960D01*
X9618444Y-15097960D02*
X9608920Y-15050341D01*
X9608920Y-15050341D02*
X9608920Y-15012246D01*
X9608920Y-15012246D02*
X9618444Y-14964627D01*
X9618444Y-14964627D02*
X9627968Y-14936055D01*
X9627968Y-14936055D02*
X9637491Y-14917008D01*
X9637491Y-14917008D02*
X9656539Y-14888436D01*
X9656539Y-14888436D02*
X9666063Y-14878912D01*
X9780349Y-14907484D02*
X9799396Y-14907484D01*
X9799396Y-14907484D02*
X9818444Y-14917008D01*
X9818444Y-14917008D02*
X9827968Y-14926531D01*
X9827968Y-14926531D02*
X9837491Y-14945579D01*
X9837491Y-14945579D02*
X9847015Y-14983674D01*
X9847015Y-14983674D02*
X9847015Y-15031293D01*
X9847015Y-15031293D02*
X9837491Y-15069388D01*
X9837491Y-15069388D02*
X9827968Y-15088436D01*
X9827968Y-15088436D02*
X9818444Y-15097960D01*
X9818444Y-15097960D02*
X9799396Y-15107484D01*
X9799396Y-15107484D02*
X9780349Y-15107484D01*
X9780349Y-15107484D02*
X9761301Y-15097960D01*
X9761301Y-15097960D02*
X9751777Y-15088436D01*
X9751777Y-15088436D02*
X9742253Y-15069388D01*
X9742253Y-15069388D02*
X9732730Y-15031293D01*
X9732730Y-15031293D02*
X9732730Y-14983674D01*
X9732730Y-14983674D02*
X9742253Y-14945579D01*
X9742253Y-14945579D02*
X9751777Y-14926531D01*
X9751777Y-14926531D02*
X9761301Y-14917008D01*
X9761301Y-14917008D02*
X9780349Y-14907484D01*
X10085111Y-15107484D02*
X10085111Y-14907484D01*
X10170825Y-15107484D02*
X10170825Y-15002722D01*
X10170825Y-15002722D02*
X10161301Y-14983674D01*
X10161301Y-14983674D02*
X10142253Y-14974150D01*
X10142253Y-14974150D02*
X10113682Y-14974150D01*
X10113682Y-14974150D02*
X10094634Y-14983674D01*
X10094634Y-14983674D02*
X10085111Y-14993198D01*
X10294634Y-15107484D02*
X10275587Y-15097960D01*
X10275587Y-15097960D02*
X10266063Y-15088436D01*
X10266063Y-15088436D02*
X10256539Y-15069388D01*
X10256539Y-15069388D02*
X10256539Y-15012246D01*
X10256539Y-15012246D02*
X10266063Y-14993198D01*
X10266063Y-14993198D02*
X10275587Y-14983674D01*
X10275587Y-14983674D02*
X10294634Y-14974150D01*
X10294634Y-14974150D02*
X10323206Y-14974150D01*
X10323206Y-14974150D02*
X10342253Y-14983674D01*
X10342253Y-14983674D02*
X10351777Y-14993198D01*
X10351777Y-14993198D02*
X10361301Y-15012246D01*
X10361301Y-15012246D02*
X10361301Y-15069388D01*
X10361301Y-15069388D02*
X10351777Y-15088436D01*
X10351777Y-15088436D02*
X10342253Y-15097960D01*
X10342253Y-15097960D02*
X10323206Y-15107484D01*
X10323206Y-15107484D02*
X10294634Y-15107484D01*
X10475587Y-15107484D02*
X10456539Y-15097960D01*
X10456539Y-15097960D02*
X10447015Y-15078912D01*
X10447015Y-15078912D02*
X10447015Y-14907484D01*
X10627968Y-15097960D02*
X10608920Y-15107484D01*
X10608920Y-15107484D02*
X10570825Y-15107484D01*
X10570825Y-15107484D02*
X10551777Y-15097960D01*
X10551777Y-15097960D02*
X10542253Y-15078912D01*
X10542253Y-15078912D02*
X10542253Y-15002722D01*
X10542253Y-15002722D02*
X10551777Y-14983674D01*
X10551777Y-14983674D02*
X10570825Y-14974150D01*
X10570825Y-14974150D02*
X10608920Y-14974150D01*
X10608920Y-14974150D02*
X10627968Y-14983674D01*
X10627968Y-14983674D02*
X10637492Y-15002722D01*
X10637492Y-15002722D02*
X10637492Y-15021769D01*
X10637492Y-15021769D02*
X10542253Y-15040817D01*
X10713682Y-15097960D02*
X10732730Y-15107484D01*
X10732730Y-15107484D02*
X10770825Y-15107484D01*
X10770825Y-15107484D02*
X10789873Y-15097960D01*
X10789873Y-15097960D02*
X10799396Y-15078912D01*
X10799396Y-15078912D02*
X10799396Y-15069388D01*
X10799396Y-15069388D02*
X10789873Y-15050341D01*
X10789873Y-15050341D02*
X10770825Y-15040817D01*
X10770825Y-15040817D02*
X10742253Y-15040817D01*
X10742253Y-15040817D02*
X10723206Y-15031293D01*
X10723206Y-15031293D02*
X10713682Y-15012246D01*
X10713682Y-15012246D02*
X10713682Y-15002722D01*
X10713682Y-15002722D02*
X10723206Y-14983674D01*
X10723206Y-14983674D02*
X10742253Y-14974150D01*
X10742253Y-14974150D02*
X10770825Y-14974150D01*
X10770825Y-14974150D02*
X10789873Y-14983674D01*
X11037492Y-15031293D02*
X11189873Y-15031293D01*
X11113682Y-15107484D02*
X11113682Y-14955103D01*
X11466063Y-14993198D02*
X11447015Y-14983674D01*
X11447015Y-14983674D02*
X11437492Y-14974150D01*
X11437492Y-14974150D02*
X11427968Y-14955103D01*
X11427968Y-14955103D02*
X11427968Y-14945579D01*
X11427968Y-14945579D02*
X11437492Y-14926531D01*
X11437492Y-14926531D02*
X11447015Y-14917008D01*
X11447015Y-14917008D02*
X11466063Y-14907484D01*
X11466063Y-14907484D02*
X11504158Y-14907484D01*
X11504158Y-14907484D02*
X11523206Y-14917008D01*
X11523206Y-14917008D02*
X11532730Y-14926531D01*
X11532730Y-14926531D02*
X11542253Y-14945579D01*
X11542253Y-14945579D02*
X11542253Y-14955103D01*
X11542253Y-14955103D02*
X11532730Y-14974150D01*
X11532730Y-14974150D02*
X11523206Y-14983674D01*
X11523206Y-14983674D02*
X11504158Y-14993198D01*
X11504158Y-14993198D02*
X11466063Y-14993198D01*
X11466063Y-14993198D02*
X11447015Y-15002722D01*
X11447015Y-15002722D02*
X11437492Y-15012246D01*
X11437492Y-15012246D02*
X11427968Y-15031293D01*
X11427968Y-15031293D02*
X11427968Y-15069388D01*
X11427968Y-15069388D02*
X11437492Y-15088436D01*
X11437492Y-15088436D02*
X11447015Y-15097960D01*
X11447015Y-15097960D02*
X11466063Y-15107484D01*
X11466063Y-15107484D02*
X11504158Y-15107484D01*
X11504158Y-15107484D02*
X11523206Y-15097960D01*
X11523206Y-15097960D02*
X11532730Y-15088436D01*
X11532730Y-15088436D02*
X11542253Y-15069388D01*
X11542253Y-15069388D02*
X11542253Y-15031293D01*
X11542253Y-15031293D02*
X11532730Y-15012246D01*
X11532730Y-15012246D02*
X11523206Y-15002722D01*
X11523206Y-15002722D02*
X11504158Y-14993198D01*
X11770825Y-15097960D02*
X11789873Y-15107484D01*
X11789873Y-15107484D02*
X11827968Y-15107484D01*
X11827968Y-15107484D02*
X11847015Y-15097960D01*
X11847015Y-15097960D02*
X11856539Y-15078912D01*
X11856539Y-15078912D02*
X11856539Y-15069388D01*
X11856539Y-15069388D02*
X11847015Y-15050341D01*
X11847015Y-15050341D02*
X11827968Y-15040817D01*
X11827968Y-15040817D02*
X11799396Y-15040817D01*
X11799396Y-15040817D02*
X11780349Y-15031293D01*
X11780349Y-15031293D02*
X11770825Y-15012246D01*
X11770825Y-15012246D02*
X11770825Y-15002722D01*
X11770825Y-15002722D02*
X11780349Y-14983674D01*
X11780349Y-14983674D02*
X11799396Y-14974150D01*
X11799396Y-14974150D02*
X11827968Y-14974150D01*
X11827968Y-14974150D02*
X11847015Y-14983674D01*
X11970825Y-15107484D02*
X11951777Y-15097960D01*
X11951777Y-15097960D02*
X11942254Y-15078912D01*
X11942254Y-15078912D02*
X11942254Y-14907484D01*
X12075587Y-15107484D02*
X12056539Y-15097960D01*
X12056539Y-15097960D02*
X12047015Y-15088436D01*
X12047015Y-15088436D02*
X12037492Y-15069388D01*
X12037492Y-15069388D02*
X12037492Y-15012246D01*
X12037492Y-15012246D02*
X12047015Y-14993198D01*
X12047015Y-14993198D02*
X12056539Y-14983674D01*
X12056539Y-14983674D02*
X12075587Y-14974150D01*
X12075587Y-14974150D02*
X12104158Y-14974150D01*
X12104158Y-14974150D02*
X12123206Y-14983674D01*
X12123206Y-14983674D02*
X12132730Y-14993198D01*
X12132730Y-14993198D02*
X12142254Y-15012246D01*
X12142254Y-15012246D02*
X12142254Y-15069388D01*
X12142254Y-15069388D02*
X12132730Y-15088436D01*
X12132730Y-15088436D02*
X12123206Y-15097960D01*
X12123206Y-15097960D02*
X12104158Y-15107484D01*
X12104158Y-15107484D02*
X12075587Y-15107484D01*
X12199396Y-14974150D02*
X12275587Y-14974150D01*
X12227968Y-14907484D02*
X12227968Y-15078912D01*
X12227968Y-15078912D02*
X12237492Y-15097960D01*
X12237492Y-15097960D02*
X12256539Y-15107484D01*
X12256539Y-15107484D02*
X12275587Y-15107484D01*
X12332730Y-15097960D02*
X12351777Y-15107484D01*
X12351777Y-15107484D02*
X12389873Y-15107484D01*
X12389873Y-15107484D02*
X12408920Y-15097960D01*
X12408920Y-15097960D02*
X12418444Y-15078912D01*
X12418444Y-15078912D02*
X12418444Y-15069388D01*
X12418444Y-15069388D02*
X12408920Y-15050341D01*
X12408920Y-15050341D02*
X12389873Y-15040817D01*
X12389873Y-15040817D02*
X12361301Y-15040817D01*
X12361301Y-15040817D02*
X12342254Y-15031293D01*
X12342254Y-15031293D02*
X12332730Y-15012246D01*
X12332730Y-15012246D02*
X12332730Y-15002722D01*
X12332730Y-15002722D02*
X12342254Y-14983674D01*
X12342254Y-14983674D02*
X12361301Y-14974150D01*
X12361301Y-14974150D02*
X12389873Y-14974150D01*
X12389873Y-14974150D02*
X12408920Y-14983674D01*
X12485111Y-15183674D02*
X12494635Y-15174150D01*
X12494635Y-15174150D02*
X12513682Y-15145579D01*
X12513682Y-15145579D02*
X12523206Y-15126531D01*
X12523206Y-15126531D02*
X12532730Y-15097960D01*
X12532730Y-15097960D02*
X12542254Y-15050341D01*
X12542254Y-15050341D02*
X12542254Y-15012246D01*
X12542254Y-15012246D02*
X12532730Y-14964627D01*
X12532730Y-14964627D02*
X12523206Y-14936055D01*
X12523206Y-14936055D02*
X12513682Y-14917008D01*
X12513682Y-14917008D02*
X12494635Y-14888436D01*
X12494635Y-14888436D02*
X12485111Y-14878912D01*
D10*
X6079841Y-15306941D02*
X6079841Y-15253059D01*
X6025959Y-15253059D01*
X6025959Y-15306941D01*
X6079841Y-15306941D01*
D11*
X6389872Y-15171484D02*
X6408920Y-15171484D01*
X6408920Y-15171484D02*
X6427967Y-15181008D01*
X6427967Y-15181008D02*
X6437491Y-15190531D01*
X6437491Y-15190531D02*
X6447015Y-15209579D01*
X6447015Y-15209579D02*
X6456539Y-15247674D01*
X6456539Y-15247674D02*
X6456539Y-15295293D01*
X6456539Y-15295293D02*
X6447015Y-15333388D01*
X6447015Y-15333388D02*
X6437491Y-15352436D01*
X6437491Y-15352436D02*
X6427967Y-15361960D01*
X6427967Y-15361960D02*
X6408920Y-15371484D01*
X6408920Y-15371484D02*
X6389872Y-15371484D01*
X6389872Y-15371484D02*
X6370824Y-15361960D01*
X6370824Y-15361960D02*
X6361301Y-15352436D01*
X6361301Y-15352436D02*
X6351777Y-15333388D01*
X6351777Y-15333388D02*
X6342253Y-15295293D01*
X6342253Y-15295293D02*
X6342253Y-15247674D01*
X6342253Y-15247674D02*
X6351777Y-15209579D01*
X6351777Y-15209579D02*
X6361301Y-15190531D01*
X6361301Y-15190531D02*
X6370824Y-15181008D01*
X6370824Y-15181008D02*
X6389872Y-15171484D01*
X6542253Y-15352436D02*
X6551777Y-15361960D01*
X6551777Y-15361960D02*
X6542253Y-15371484D01*
X6542253Y-15371484D02*
X6532729Y-15361960D01*
X6532729Y-15361960D02*
X6542253Y-15352436D01*
X6542253Y-15352436D02*
X6542253Y-15371484D01*
X6618443Y-15171484D02*
X6751777Y-15171484D01*
X6751777Y-15171484D02*
X6666062Y-15371484D01*
X6913682Y-15171484D02*
X6875586Y-15171484D01*
X6875586Y-15171484D02*
X6856539Y-15181008D01*
X6856539Y-15181008D02*
X6847015Y-15190531D01*
X6847015Y-15190531D02*
X6827967Y-15219103D01*
X6827967Y-15219103D02*
X6818443Y-15257198D01*
X6818443Y-15257198D02*
X6818443Y-15333388D01*
X6818443Y-15333388D02*
X6827967Y-15352436D01*
X6827967Y-15352436D02*
X6837491Y-15361960D01*
X6837491Y-15361960D02*
X6856539Y-15371484D01*
X6856539Y-15371484D02*
X6894634Y-15371484D01*
X6894634Y-15371484D02*
X6913682Y-15361960D01*
X6913682Y-15361960D02*
X6923205Y-15352436D01*
X6923205Y-15352436D02*
X6932729Y-15333388D01*
X6932729Y-15333388D02*
X6932729Y-15285769D01*
X6932729Y-15285769D02*
X6923205Y-15266722D01*
X6923205Y-15266722D02*
X6913682Y-15257198D01*
X6913682Y-15257198D02*
X6894634Y-15247674D01*
X6894634Y-15247674D02*
X6856539Y-15247674D01*
X6856539Y-15247674D02*
X6837491Y-15257198D01*
X6837491Y-15257198D02*
X6827967Y-15266722D01*
X6827967Y-15266722D02*
X6818443Y-15285769D01*
X7008920Y-15190531D02*
X7018443Y-15181008D01*
X7018443Y-15181008D02*
X7037491Y-15171484D01*
X7037491Y-15171484D02*
X7085110Y-15171484D01*
X7085110Y-15171484D02*
X7104158Y-15181008D01*
X7104158Y-15181008D02*
X7113682Y-15190531D01*
X7113682Y-15190531D02*
X7123205Y-15209579D01*
X7123205Y-15209579D02*
X7123205Y-15228627D01*
X7123205Y-15228627D02*
X7113682Y-15257198D01*
X7113682Y-15257198D02*
X6999396Y-15371484D01*
X6999396Y-15371484D02*
X7123205Y-15371484D01*
X7208920Y-15371484D02*
X7208920Y-15238150D01*
X7208920Y-15257198D02*
X7218443Y-15247674D01*
X7218443Y-15247674D02*
X7237491Y-15238150D01*
X7237491Y-15238150D02*
X7266063Y-15238150D01*
X7266063Y-15238150D02*
X7285110Y-15247674D01*
X7285110Y-15247674D02*
X7294634Y-15266722D01*
X7294634Y-15266722D02*
X7294634Y-15371484D01*
X7294634Y-15266722D02*
X7304158Y-15247674D01*
X7304158Y-15247674D02*
X7323205Y-15238150D01*
X7323205Y-15238150D02*
X7351777Y-15238150D01*
X7351777Y-15238150D02*
X7370824Y-15247674D01*
X7370824Y-15247674D02*
X7380348Y-15266722D01*
X7380348Y-15266722D02*
X7380348Y-15371484D01*
X7475586Y-15371484D02*
X7475586Y-15238150D01*
X7475586Y-15257198D02*
X7485110Y-15247674D01*
X7485110Y-15247674D02*
X7504158Y-15238150D01*
X7504158Y-15238150D02*
X7532729Y-15238150D01*
X7532729Y-15238150D02*
X7551777Y-15247674D01*
X7551777Y-15247674D02*
X7561301Y-15266722D01*
X7561301Y-15266722D02*
X7561301Y-15371484D01*
X7561301Y-15266722D02*
X7570824Y-15247674D01*
X7570824Y-15247674D02*
X7589872Y-15238150D01*
X7589872Y-15238150D02*
X7618443Y-15238150D01*
X7618443Y-15238150D02*
X7637491Y-15247674D01*
X7637491Y-15247674D02*
X7647015Y-15266722D01*
X7647015Y-15266722D02*
X7647015Y-15371484D01*
X8037491Y-15161960D02*
X7866063Y-15419103D01*
X8294634Y-15171484D02*
X8313682Y-15171484D01*
X8313682Y-15171484D02*
X8332729Y-15181008D01*
X8332729Y-15181008D02*
X8342253Y-15190531D01*
X8342253Y-15190531D02*
X8351777Y-15209579D01*
X8351777Y-15209579D02*
X8361301Y-15247674D01*
X8361301Y-15247674D02*
X8361301Y-15295293D01*
X8361301Y-15295293D02*
X8351777Y-15333388D01*
X8351777Y-15333388D02*
X8342253Y-15352436D01*
X8342253Y-15352436D02*
X8332729Y-15361960D01*
X8332729Y-15361960D02*
X8313682Y-15371484D01*
X8313682Y-15371484D02*
X8294634Y-15371484D01*
X8294634Y-15371484D02*
X8275586Y-15361960D01*
X8275586Y-15361960D02*
X8266063Y-15352436D01*
X8266063Y-15352436D02*
X8256539Y-15333388D01*
X8256539Y-15333388D02*
X8247015Y-15295293D01*
X8247015Y-15295293D02*
X8247015Y-15247674D01*
X8247015Y-15247674D02*
X8256539Y-15209579D01*
X8256539Y-15209579D02*
X8266063Y-15190531D01*
X8266063Y-15190531D02*
X8275586Y-15181008D01*
X8275586Y-15181008D02*
X8294634Y-15171484D01*
X8447015Y-15352436D02*
X8456539Y-15361960D01*
X8456539Y-15361960D02*
X8447015Y-15371484D01*
X8447015Y-15371484D02*
X8437491Y-15361960D01*
X8437491Y-15361960D02*
X8447015Y-15352436D01*
X8447015Y-15352436D02*
X8447015Y-15371484D01*
X8580348Y-15171484D02*
X8599396Y-15171484D01*
X8599396Y-15171484D02*
X8618444Y-15181008D01*
X8618444Y-15181008D02*
X8627968Y-15190531D01*
X8627968Y-15190531D02*
X8637491Y-15209579D01*
X8637491Y-15209579D02*
X8647015Y-15247674D01*
X8647015Y-15247674D02*
X8647015Y-15295293D01*
X8647015Y-15295293D02*
X8637491Y-15333388D01*
X8637491Y-15333388D02*
X8627968Y-15352436D01*
X8627968Y-15352436D02*
X8618444Y-15361960D01*
X8618444Y-15361960D02*
X8599396Y-15371484D01*
X8599396Y-15371484D02*
X8580348Y-15371484D01*
X8580348Y-15371484D02*
X8561301Y-15361960D01*
X8561301Y-15361960D02*
X8551777Y-15352436D01*
X8551777Y-15352436D02*
X8542253Y-15333388D01*
X8542253Y-15333388D02*
X8532729Y-15295293D01*
X8532729Y-15295293D02*
X8532729Y-15247674D01*
X8532729Y-15247674D02*
X8542253Y-15209579D01*
X8542253Y-15209579D02*
X8551777Y-15190531D01*
X8551777Y-15190531D02*
X8561301Y-15181008D01*
X8561301Y-15181008D02*
X8580348Y-15171484D01*
X8713682Y-15171484D02*
X8837491Y-15171484D01*
X8837491Y-15171484D02*
X8770825Y-15247674D01*
X8770825Y-15247674D02*
X8799396Y-15247674D01*
X8799396Y-15247674D02*
X8818444Y-15257198D01*
X8818444Y-15257198D02*
X8827968Y-15266722D01*
X8827968Y-15266722D02*
X8837491Y-15285769D01*
X8837491Y-15285769D02*
X8837491Y-15333388D01*
X8837491Y-15333388D02*
X8827968Y-15352436D01*
X8827968Y-15352436D02*
X8818444Y-15361960D01*
X8818444Y-15361960D02*
X8799396Y-15371484D01*
X8799396Y-15371484D02*
X8742253Y-15371484D01*
X8742253Y-15371484D02*
X8723206Y-15361960D01*
X8723206Y-15361960D02*
X8713682Y-15352436D01*
X8961301Y-15171484D02*
X8980349Y-15171484D01*
X8980349Y-15171484D02*
X8999396Y-15181008D01*
X8999396Y-15181008D02*
X9008920Y-15190531D01*
X9008920Y-15190531D02*
X9018444Y-15209579D01*
X9018444Y-15209579D02*
X9027968Y-15247674D01*
X9027968Y-15247674D02*
X9027968Y-15295293D01*
X9027968Y-15295293D02*
X9018444Y-15333388D01*
X9018444Y-15333388D02*
X9008920Y-15352436D01*
X9008920Y-15352436D02*
X8999396Y-15361960D01*
X8999396Y-15361960D02*
X8980349Y-15371484D01*
X8980349Y-15371484D02*
X8961301Y-15371484D01*
X8961301Y-15371484D02*
X8942253Y-15361960D01*
X8942253Y-15361960D02*
X8932729Y-15352436D01*
X8932729Y-15352436D02*
X8923206Y-15333388D01*
X8923206Y-15333388D02*
X8913682Y-15295293D01*
X8913682Y-15295293D02*
X8913682Y-15247674D01*
X8913682Y-15247674D02*
X8923206Y-15209579D01*
X8923206Y-15209579D02*
X8932729Y-15190531D01*
X8932729Y-15190531D02*
X8942253Y-15181008D01*
X8942253Y-15181008D02*
X8961301Y-15171484D01*
X9151777Y-15171484D02*
X9170825Y-15171484D01*
X9170825Y-15171484D02*
X9189872Y-15181008D01*
X9189872Y-15181008D02*
X9199396Y-15190531D01*
X9199396Y-15190531D02*
X9208920Y-15209579D01*
X9208920Y-15209579D02*
X9218444Y-15247674D01*
X9218444Y-15247674D02*
X9218444Y-15295293D01*
X9218444Y-15295293D02*
X9208920Y-15333388D01*
X9208920Y-15333388D02*
X9199396Y-15352436D01*
X9199396Y-15352436D02*
X9189872Y-15361960D01*
X9189872Y-15361960D02*
X9170825Y-15371484D01*
X9170825Y-15371484D02*
X9151777Y-15371484D01*
X9151777Y-15371484D02*
X9132729Y-15361960D01*
X9132729Y-15361960D02*
X9123206Y-15352436D01*
X9123206Y-15352436D02*
X9113682Y-15333388D01*
X9113682Y-15333388D02*
X9104158Y-15295293D01*
X9104158Y-15295293D02*
X9104158Y-15247674D01*
X9104158Y-15247674D02*
X9113682Y-15209579D01*
X9113682Y-15209579D02*
X9123206Y-15190531D01*
X9123206Y-15190531D02*
X9132729Y-15181008D01*
X9132729Y-15181008D02*
X9151777Y-15171484D01*
X9294634Y-15171484D02*
X9294634Y-15209579D01*
X9370825Y-15171484D02*
X9370825Y-15209579D01*
X9666063Y-15447674D02*
X9656539Y-15438150D01*
X9656539Y-15438150D02*
X9637491Y-15409579D01*
X9637491Y-15409579D02*
X9627968Y-15390531D01*
X9627968Y-15390531D02*
X9618444Y-15361960D01*
X9618444Y-15361960D02*
X9608920Y-15314341D01*
X9608920Y-15314341D02*
X9608920Y-15276246D01*
X9608920Y-15276246D02*
X9618444Y-15228627D01*
X9618444Y-15228627D02*
X9627968Y-15200055D01*
X9627968Y-15200055D02*
X9637491Y-15181008D01*
X9637491Y-15181008D02*
X9656539Y-15152436D01*
X9656539Y-15152436D02*
X9666063Y-15142912D01*
X9847015Y-15371484D02*
X9732730Y-15371484D01*
X9789872Y-15371484D02*
X9789872Y-15171484D01*
X9789872Y-15171484D02*
X9770825Y-15200055D01*
X9770825Y-15200055D02*
X9751777Y-15219103D01*
X9751777Y-15219103D02*
X9732730Y-15228627D01*
X9923206Y-15190531D02*
X9932730Y-15181008D01*
X9932730Y-15181008D02*
X9951777Y-15171484D01*
X9951777Y-15171484D02*
X9999396Y-15171484D01*
X9999396Y-15171484D02*
X10018444Y-15181008D01*
X10018444Y-15181008D02*
X10027968Y-15190531D01*
X10027968Y-15190531D02*
X10037491Y-15209579D01*
X10037491Y-15209579D02*
X10037491Y-15228627D01*
X10037491Y-15228627D02*
X10027968Y-15257198D01*
X10027968Y-15257198D02*
X9913682Y-15371484D01*
X9913682Y-15371484D02*
X10037491Y-15371484D01*
X10151777Y-15257198D02*
X10132730Y-15247674D01*
X10132730Y-15247674D02*
X10123206Y-15238150D01*
X10123206Y-15238150D02*
X10113682Y-15219103D01*
X10113682Y-15219103D02*
X10113682Y-15209579D01*
X10113682Y-15209579D02*
X10123206Y-15190531D01*
X10123206Y-15190531D02*
X10132730Y-15181008D01*
X10132730Y-15181008D02*
X10151777Y-15171484D01*
X10151777Y-15171484D02*
X10189872Y-15171484D01*
X10189872Y-15171484D02*
X10208920Y-15181008D01*
X10208920Y-15181008D02*
X10218444Y-15190531D01*
X10218444Y-15190531D02*
X10227968Y-15209579D01*
X10227968Y-15209579D02*
X10227968Y-15219103D01*
X10227968Y-15219103D02*
X10218444Y-15238150D01*
X10218444Y-15238150D02*
X10208920Y-15247674D01*
X10208920Y-15247674D02*
X10189872Y-15257198D01*
X10189872Y-15257198D02*
X10151777Y-15257198D01*
X10151777Y-15257198D02*
X10132730Y-15266722D01*
X10132730Y-15266722D02*
X10123206Y-15276246D01*
X10123206Y-15276246D02*
X10113682Y-15295293D01*
X10113682Y-15295293D02*
X10113682Y-15333388D01*
X10113682Y-15333388D02*
X10123206Y-15352436D01*
X10123206Y-15352436D02*
X10132730Y-15361960D01*
X10132730Y-15361960D02*
X10151777Y-15371484D01*
X10151777Y-15371484D02*
X10189872Y-15371484D01*
X10189872Y-15371484D02*
X10208920Y-15361960D01*
X10208920Y-15361960D02*
X10218444Y-15352436D01*
X10218444Y-15352436D02*
X10227968Y-15333388D01*
X10227968Y-15333388D02*
X10227968Y-15295293D01*
X10227968Y-15295293D02*
X10218444Y-15276246D01*
X10218444Y-15276246D02*
X10208920Y-15266722D01*
X10208920Y-15266722D02*
X10189872Y-15257198D01*
X10466063Y-15371484D02*
X10466063Y-15171484D01*
X10551777Y-15371484D02*
X10551777Y-15266722D01*
X10551777Y-15266722D02*
X10542253Y-15247674D01*
X10542253Y-15247674D02*
X10523206Y-15238150D01*
X10523206Y-15238150D02*
X10494634Y-15238150D01*
X10494634Y-15238150D02*
X10475587Y-15247674D01*
X10475587Y-15247674D02*
X10466063Y-15257198D01*
X10675587Y-15371484D02*
X10656539Y-15361960D01*
X10656539Y-15361960D02*
X10647015Y-15352436D01*
X10647015Y-15352436D02*
X10637492Y-15333388D01*
X10637492Y-15333388D02*
X10637492Y-15276246D01*
X10637492Y-15276246D02*
X10647015Y-15257198D01*
X10647015Y-15257198D02*
X10656539Y-15247674D01*
X10656539Y-15247674D02*
X10675587Y-15238150D01*
X10675587Y-15238150D02*
X10704158Y-15238150D01*
X10704158Y-15238150D02*
X10723206Y-15247674D01*
X10723206Y-15247674D02*
X10732730Y-15257198D01*
X10732730Y-15257198D02*
X10742253Y-15276246D01*
X10742253Y-15276246D02*
X10742253Y-15333388D01*
X10742253Y-15333388D02*
X10732730Y-15352436D01*
X10732730Y-15352436D02*
X10723206Y-15361960D01*
X10723206Y-15361960D02*
X10704158Y-15371484D01*
X10704158Y-15371484D02*
X10675587Y-15371484D01*
X10856539Y-15371484D02*
X10837492Y-15361960D01*
X10837492Y-15361960D02*
X10827968Y-15342912D01*
X10827968Y-15342912D02*
X10827968Y-15171484D01*
X11008920Y-15361960D02*
X10989873Y-15371484D01*
X10989873Y-15371484D02*
X10951777Y-15371484D01*
X10951777Y-15371484D02*
X10932730Y-15361960D01*
X10932730Y-15361960D02*
X10923206Y-15342912D01*
X10923206Y-15342912D02*
X10923206Y-15266722D01*
X10923206Y-15266722D02*
X10932730Y-15247674D01*
X10932730Y-15247674D02*
X10951777Y-15238150D01*
X10951777Y-15238150D02*
X10989873Y-15238150D01*
X10989873Y-15238150D02*
X11008920Y-15247674D01*
X11008920Y-15247674D02*
X11018444Y-15266722D01*
X11018444Y-15266722D02*
X11018444Y-15285769D01*
X11018444Y-15285769D02*
X10923206Y-15304817D01*
X11094634Y-15361960D02*
X11113682Y-15371484D01*
X11113682Y-15371484D02*
X11151777Y-15371484D01*
X11151777Y-15371484D02*
X11170825Y-15361960D01*
X11170825Y-15361960D02*
X11180349Y-15342912D01*
X11180349Y-15342912D02*
X11180349Y-15333388D01*
X11180349Y-15333388D02*
X11170825Y-15314341D01*
X11170825Y-15314341D02*
X11151777Y-15304817D01*
X11151777Y-15304817D02*
X11123206Y-15304817D01*
X11123206Y-15304817D02*
X11104158Y-15295293D01*
X11104158Y-15295293D02*
X11094634Y-15276246D01*
X11094634Y-15276246D02*
X11094634Y-15266722D01*
X11094634Y-15266722D02*
X11104158Y-15247674D01*
X11104158Y-15247674D02*
X11123206Y-15238150D01*
X11123206Y-15238150D02*
X11151777Y-15238150D01*
X11151777Y-15238150D02*
X11170825Y-15247674D01*
X11247015Y-15447674D02*
X11256539Y-15438150D01*
X11256539Y-15438150D02*
X11275587Y-15409579D01*
X11275587Y-15409579D02*
X11285111Y-15390531D01*
X11285111Y-15390531D02*
X11294634Y-15361960D01*
X11294634Y-15361960D02*
X11304158Y-15314341D01*
X11304158Y-15314341D02*
X11304158Y-15276246D01*
X11304158Y-15276246D02*
X11294634Y-15228627D01*
X11294634Y-15228627D02*
X11285111Y-15200055D01*
X11285111Y-15200055D02*
X11275587Y-15181008D01*
X11275587Y-15181008D02*
X11256539Y-15152436D01*
X11256539Y-15152436D02*
X11247015Y-15142912D01*
D10*
X6041000Y-15594000D02*
X6091000Y-15544000D01*
X6041000Y-15494000D01*
X5991000Y-15544000D01*
X6041000Y-15594000D01*
D11*
X6456539Y-15635484D02*
X6342253Y-15635484D01*
X6399396Y-15635484D02*
X6399396Y-15435484D01*
X6399396Y-15435484D02*
X6380348Y-15464055D01*
X6380348Y-15464055D02*
X6361301Y-15483103D01*
X6361301Y-15483103D02*
X6342253Y-15492627D01*
X6542253Y-15616436D02*
X6551777Y-15625960D01*
X6551777Y-15625960D02*
X6542253Y-15635484D01*
X6542253Y-15635484D02*
X6532729Y-15625960D01*
X6532729Y-15625960D02*
X6542253Y-15616436D01*
X6542253Y-15616436D02*
X6542253Y-15635484D01*
X6675586Y-15435484D02*
X6694634Y-15435484D01*
X6694634Y-15435484D02*
X6713682Y-15445008D01*
X6713682Y-15445008D02*
X6723205Y-15454531D01*
X6723205Y-15454531D02*
X6732729Y-15473579D01*
X6732729Y-15473579D02*
X6742253Y-15511674D01*
X6742253Y-15511674D02*
X6742253Y-15559293D01*
X6742253Y-15559293D02*
X6732729Y-15597388D01*
X6732729Y-15597388D02*
X6723205Y-15616436D01*
X6723205Y-15616436D02*
X6713682Y-15625960D01*
X6713682Y-15625960D02*
X6694634Y-15635484D01*
X6694634Y-15635484D02*
X6675586Y-15635484D01*
X6675586Y-15635484D02*
X6656539Y-15625960D01*
X6656539Y-15625960D02*
X6647015Y-15616436D01*
X6647015Y-15616436D02*
X6637491Y-15597388D01*
X6637491Y-15597388D02*
X6627967Y-15559293D01*
X6627967Y-15559293D02*
X6627967Y-15511674D01*
X6627967Y-15511674D02*
X6637491Y-15473579D01*
X6637491Y-15473579D02*
X6647015Y-15454531D01*
X6647015Y-15454531D02*
X6656539Y-15445008D01*
X6656539Y-15445008D02*
X6675586Y-15435484D01*
X6866062Y-15435484D02*
X6885110Y-15435484D01*
X6885110Y-15435484D02*
X6904158Y-15445008D01*
X6904158Y-15445008D02*
X6913682Y-15454531D01*
X6913682Y-15454531D02*
X6923205Y-15473579D01*
X6923205Y-15473579D02*
X6932729Y-15511674D01*
X6932729Y-15511674D02*
X6932729Y-15559293D01*
X6932729Y-15559293D02*
X6923205Y-15597388D01*
X6923205Y-15597388D02*
X6913682Y-15616436D01*
X6913682Y-15616436D02*
X6904158Y-15625960D01*
X6904158Y-15625960D02*
X6885110Y-15635484D01*
X6885110Y-15635484D02*
X6866062Y-15635484D01*
X6866062Y-15635484D02*
X6847015Y-15625960D01*
X6847015Y-15625960D02*
X6837491Y-15616436D01*
X6837491Y-15616436D02*
X6827967Y-15597388D01*
X6827967Y-15597388D02*
X6818443Y-15559293D01*
X6818443Y-15559293D02*
X6818443Y-15511674D01*
X6818443Y-15511674D02*
X6827967Y-15473579D01*
X6827967Y-15473579D02*
X6837491Y-15454531D01*
X6837491Y-15454531D02*
X6847015Y-15445008D01*
X6847015Y-15445008D02*
X6866062Y-15435484D01*
X7056539Y-15435484D02*
X7075586Y-15435484D01*
X7075586Y-15435484D02*
X7094634Y-15445008D01*
X7094634Y-15445008D02*
X7104158Y-15454531D01*
X7104158Y-15454531D02*
X7113682Y-15473579D01*
X7113682Y-15473579D02*
X7123205Y-15511674D01*
X7123205Y-15511674D02*
X7123205Y-15559293D01*
X7123205Y-15559293D02*
X7113682Y-15597388D01*
X7113682Y-15597388D02*
X7104158Y-15616436D01*
X7104158Y-15616436D02*
X7094634Y-15625960D01*
X7094634Y-15625960D02*
X7075586Y-15635484D01*
X7075586Y-15635484D02*
X7056539Y-15635484D01*
X7056539Y-15635484D02*
X7037491Y-15625960D01*
X7037491Y-15625960D02*
X7027967Y-15616436D01*
X7027967Y-15616436D02*
X7018443Y-15597388D01*
X7018443Y-15597388D02*
X7008920Y-15559293D01*
X7008920Y-15559293D02*
X7008920Y-15511674D01*
X7008920Y-15511674D02*
X7018443Y-15473579D01*
X7018443Y-15473579D02*
X7027967Y-15454531D01*
X7027967Y-15454531D02*
X7037491Y-15445008D01*
X7037491Y-15445008D02*
X7056539Y-15435484D01*
X7208920Y-15635484D02*
X7208920Y-15502150D01*
X7208920Y-15521198D02*
X7218443Y-15511674D01*
X7218443Y-15511674D02*
X7237491Y-15502150D01*
X7237491Y-15502150D02*
X7266063Y-15502150D01*
X7266063Y-15502150D02*
X7285110Y-15511674D01*
X7285110Y-15511674D02*
X7294634Y-15530722D01*
X7294634Y-15530722D02*
X7294634Y-15635484D01*
X7294634Y-15530722D02*
X7304158Y-15511674D01*
X7304158Y-15511674D02*
X7323205Y-15502150D01*
X7323205Y-15502150D02*
X7351777Y-15502150D01*
X7351777Y-15502150D02*
X7370824Y-15511674D01*
X7370824Y-15511674D02*
X7380348Y-15530722D01*
X7380348Y-15530722D02*
X7380348Y-15635484D01*
X7475586Y-15635484D02*
X7475586Y-15502150D01*
X7475586Y-15521198D02*
X7485110Y-15511674D01*
X7485110Y-15511674D02*
X7504158Y-15502150D01*
X7504158Y-15502150D02*
X7532729Y-15502150D01*
X7532729Y-15502150D02*
X7551777Y-15511674D01*
X7551777Y-15511674D02*
X7561301Y-15530722D01*
X7561301Y-15530722D02*
X7561301Y-15635484D01*
X7561301Y-15530722D02*
X7570824Y-15511674D01*
X7570824Y-15511674D02*
X7589872Y-15502150D01*
X7589872Y-15502150D02*
X7618443Y-15502150D01*
X7618443Y-15502150D02*
X7637491Y-15511674D01*
X7637491Y-15511674D02*
X7647015Y-15530722D01*
X7647015Y-15530722D02*
X7647015Y-15635484D01*
X8037491Y-15425960D02*
X7866063Y-15683103D01*
X8294634Y-15435484D02*
X8313682Y-15435484D01*
X8313682Y-15435484D02*
X8332729Y-15445008D01*
X8332729Y-15445008D02*
X8342253Y-15454531D01*
X8342253Y-15454531D02*
X8351777Y-15473579D01*
X8351777Y-15473579D02*
X8361301Y-15511674D01*
X8361301Y-15511674D02*
X8361301Y-15559293D01*
X8361301Y-15559293D02*
X8351777Y-15597388D01*
X8351777Y-15597388D02*
X8342253Y-15616436D01*
X8342253Y-15616436D02*
X8332729Y-15625960D01*
X8332729Y-15625960D02*
X8313682Y-15635484D01*
X8313682Y-15635484D02*
X8294634Y-15635484D01*
X8294634Y-15635484D02*
X8275586Y-15625960D01*
X8275586Y-15625960D02*
X8266063Y-15616436D01*
X8266063Y-15616436D02*
X8256539Y-15597388D01*
X8256539Y-15597388D02*
X8247015Y-15559293D01*
X8247015Y-15559293D02*
X8247015Y-15511674D01*
X8247015Y-15511674D02*
X8256539Y-15473579D01*
X8256539Y-15473579D02*
X8266063Y-15454531D01*
X8266063Y-15454531D02*
X8275586Y-15445008D01*
X8275586Y-15445008D02*
X8294634Y-15435484D01*
X8447015Y-15616436D02*
X8456539Y-15625960D01*
X8456539Y-15625960D02*
X8447015Y-15635484D01*
X8447015Y-15635484D02*
X8437491Y-15625960D01*
X8437491Y-15625960D02*
X8447015Y-15616436D01*
X8447015Y-15616436D02*
X8447015Y-15635484D01*
X8580348Y-15435484D02*
X8599396Y-15435484D01*
X8599396Y-15435484D02*
X8618444Y-15445008D01*
X8618444Y-15445008D02*
X8627968Y-15454531D01*
X8627968Y-15454531D02*
X8637491Y-15473579D01*
X8637491Y-15473579D02*
X8647015Y-15511674D01*
X8647015Y-15511674D02*
X8647015Y-15559293D01*
X8647015Y-15559293D02*
X8637491Y-15597388D01*
X8637491Y-15597388D02*
X8627968Y-15616436D01*
X8627968Y-15616436D02*
X8618444Y-15625960D01*
X8618444Y-15625960D02*
X8599396Y-15635484D01*
X8599396Y-15635484D02*
X8580348Y-15635484D01*
X8580348Y-15635484D02*
X8561301Y-15625960D01*
X8561301Y-15625960D02*
X8551777Y-15616436D01*
X8551777Y-15616436D02*
X8542253Y-15597388D01*
X8542253Y-15597388D02*
X8532729Y-15559293D01*
X8532729Y-15559293D02*
X8532729Y-15511674D01*
X8532729Y-15511674D02*
X8542253Y-15473579D01*
X8542253Y-15473579D02*
X8551777Y-15454531D01*
X8551777Y-15454531D02*
X8561301Y-15445008D01*
X8561301Y-15445008D02*
X8580348Y-15435484D01*
X8713682Y-15435484D02*
X8837491Y-15435484D01*
X8837491Y-15435484D02*
X8770825Y-15511674D01*
X8770825Y-15511674D02*
X8799396Y-15511674D01*
X8799396Y-15511674D02*
X8818444Y-15521198D01*
X8818444Y-15521198D02*
X8827968Y-15530722D01*
X8827968Y-15530722D02*
X8837491Y-15549769D01*
X8837491Y-15549769D02*
X8837491Y-15597388D01*
X8837491Y-15597388D02*
X8827968Y-15616436D01*
X8827968Y-15616436D02*
X8818444Y-15625960D01*
X8818444Y-15625960D02*
X8799396Y-15635484D01*
X8799396Y-15635484D02*
X8742253Y-15635484D01*
X8742253Y-15635484D02*
X8723206Y-15625960D01*
X8723206Y-15625960D02*
X8713682Y-15616436D01*
X8932729Y-15635484D02*
X8970825Y-15635484D01*
X8970825Y-15635484D02*
X8989872Y-15625960D01*
X8989872Y-15625960D02*
X8999396Y-15616436D01*
X8999396Y-15616436D02*
X9018444Y-15587865D01*
X9018444Y-15587865D02*
X9027968Y-15549769D01*
X9027968Y-15549769D02*
X9027968Y-15473579D01*
X9027968Y-15473579D02*
X9018444Y-15454531D01*
X9018444Y-15454531D02*
X9008920Y-15445008D01*
X9008920Y-15445008D02*
X8989872Y-15435484D01*
X8989872Y-15435484D02*
X8951777Y-15435484D01*
X8951777Y-15435484D02*
X8932729Y-15445008D01*
X8932729Y-15445008D02*
X8923206Y-15454531D01*
X8923206Y-15454531D02*
X8913682Y-15473579D01*
X8913682Y-15473579D02*
X8913682Y-15521198D01*
X8913682Y-15521198D02*
X8923206Y-15540246D01*
X8923206Y-15540246D02*
X8932729Y-15549769D01*
X8932729Y-15549769D02*
X8951777Y-15559293D01*
X8951777Y-15559293D02*
X8989872Y-15559293D01*
X8989872Y-15559293D02*
X9008920Y-15549769D01*
X9008920Y-15549769D02*
X9018444Y-15540246D01*
X9018444Y-15540246D02*
X9027968Y-15521198D01*
X9199396Y-15502150D02*
X9199396Y-15635484D01*
X9151777Y-15425960D02*
X9104158Y-15568817D01*
X9104158Y-15568817D02*
X9227968Y-15568817D01*
X9294634Y-15435484D02*
X9294634Y-15473579D01*
X9370825Y-15435484D02*
X9370825Y-15473579D01*
X9666063Y-15711674D02*
X9656539Y-15702150D01*
X9656539Y-15702150D02*
X9637491Y-15673579D01*
X9637491Y-15673579D02*
X9627968Y-15654531D01*
X9627968Y-15654531D02*
X9618444Y-15625960D01*
X9618444Y-15625960D02*
X9608920Y-15578341D01*
X9608920Y-15578341D02*
X9608920Y-15540246D01*
X9608920Y-15540246D02*
X9618444Y-15492627D01*
X9618444Y-15492627D02*
X9627968Y-15464055D01*
X9627968Y-15464055D02*
X9637491Y-15445008D01*
X9637491Y-15445008D02*
X9656539Y-15416436D01*
X9656539Y-15416436D02*
X9666063Y-15406912D01*
X9827968Y-15435484D02*
X9789872Y-15435484D01*
X9789872Y-15435484D02*
X9770825Y-15445008D01*
X9770825Y-15445008D02*
X9761301Y-15454531D01*
X9761301Y-15454531D02*
X9742253Y-15483103D01*
X9742253Y-15483103D02*
X9732730Y-15521198D01*
X9732730Y-15521198D02*
X9732730Y-15597388D01*
X9732730Y-15597388D02*
X9742253Y-15616436D01*
X9742253Y-15616436D02*
X9751777Y-15625960D01*
X9751777Y-15625960D02*
X9770825Y-15635484D01*
X9770825Y-15635484D02*
X9808920Y-15635484D01*
X9808920Y-15635484D02*
X9827968Y-15625960D01*
X9827968Y-15625960D02*
X9837491Y-15616436D01*
X9837491Y-15616436D02*
X9847015Y-15597388D01*
X9847015Y-15597388D02*
X9847015Y-15549769D01*
X9847015Y-15549769D02*
X9837491Y-15530722D01*
X9837491Y-15530722D02*
X9827968Y-15521198D01*
X9827968Y-15521198D02*
X9808920Y-15511674D01*
X9808920Y-15511674D02*
X9770825Y-15511674D01*
X9770825Y-15511674D02*
X9751777Y-15521198D01*
X9751777Y-15521198D02*
X9742253Y-15530722D01*
X9742253Y-15530722D02*
X9732730Y-15549769D01*
X10018444Y-15502150D02*
X10018444Y-15635484D01*
X9970825Y-15425960D02*
X9923206Y-15568817D01*
X9923206Y-15568817D02*
X10047015Y-15568817D01*
X10275587Y-15635484D02*
X10275587Y-15435484D01*
X10361301Y-15635484D02*
X10361301Y-15530722D01*
X10361301Y-15530722D02*
X10351777Y-15511674D01*
X10351777Y-15511674D02*
X10332730Y-15502150D01*
X10332730Y-15502150D02*
X10304158Y-15502150D01*
X10304158Y-15502150D02*
X10285111Y-15511674D01*
X10285111Y-15511674D02*
X10275587Y-15521198D01*
X10485111Y-15635484D02*
X10466063Y-15625960D01*
X10466063Y-15625960D02*
X10456539Y-15616436D01*
X10456539Y-15616436D02*
X10447015Y-15597388D01*
X10447015Y-15597388D02*
X10447015Y-15540246D01*
X10447015Y-15540246D02*
X10456539Y-15521198D01*
X10456539Y-15521198D02*
X10466063Y-15511674D01*
X10466063Y-15511674D02*
X10485111Y-15502150D01*
X10485111Y-15502150D02*
X10513682Y-15502150D01*
X10513682Y-15502150D02*
X10532730Y-15511674D01*
X10532730Y-15511674D02*
X10542253Y-15521198D01*
X10542253Y-15521198D02*
X10551777Y-15540246D01*
X10551777Y-15540246D02*
X10551777Y-15597388D01*
X10551777Y-15597388D02*
X10542253Y-15616436D01*
X10542253Y-15616436D02*
X10532730Y-15625960D01*
X10532730Y-15625960D02*
X10513682Y-15635484D01*
X10513682Y-15635484D02*
X10485111Y-15635484D01*
X10666063Y-15635484D02*
X10647015Y-15625960D01*
X10647015Y-15625960D02*
X10637492Y-15606912D01*
X10637492Y-15606912D02*
X10637492Y-15435484D01*
X10818444Y-15625960D02*
X10799396Y-15635484D01*
X10799396Y-15635484D02*
X10761301Y-15635484D01*
X10761301Y-15635484D02*
X10742253Y-15625960D01*
X10742253Y-15625960D02*
X10732730Y-15606912D01*
X10732730Y-15606912D02*
X10732730Y-15530722D01*
X10732730Y-15530722D02*
X10742253Y-15511674D01*
X10742253Y-15511674D02*
X10761301Y-15502150D01*
X10761301Y-15502150D02*
X10799396Y-15502150D01*
X10799396Y-15502150D02*
X10818444Y-15511674D01*
X10818444Y-15511674D02*
X10827968Y-15530722D01*
X10827968Y-15530722D02*
X10827968Y-15549769D01*
X10827968Y-15549769D02*
X10732730Y-15568817D01*
X10904158Y-15625960D02*
X10923206Y-15635484D01*
X10923206Y-15635484D02*
X10961301Y-15635484D01*
X10961301Y-15635484D02*
X10980349Y-15625960D01*
X10980349Y-15625960D02*
X10989873Y-15606912D01*
X10989873Y-15606912D02*
X10989873Y-15597388D01*
X10989873Y-15597388D02*
X10980349Y-15578341D01*
X10980349Y-15578341D02*
X10961301Y-15568817D01*
X10961301Y-15568817D02*
X10932730Y-15568817D01*
X10932730Y-15568817D02*
X10913682Y-15559293D01*
X10913682Y-15559293D02*
X10904158Y-15540246D01*
X10904158Y-15540246D02*
X10904158Y-15530722D01*
X10904158Y-15530722D02*
X10913682Y-15511674D01*
X10913682Y-15511674D02*
X10932730Y-15502150D01*
X10932730Y-15502150D02*
X10961301Y-15502150D01*
X10961301Y-15502150D02*
X10980349Y-15511674D01*
X11056539Y-15711674D02*
X11066063Y-15702150D01*
X11066063Y-15702150D02*
X11085111Y-15673579D01*
X11085111Y-15673579D02*
X11094634Y-15654531D01*
X11094634Y-15654531D02*
X11104158Y-15625960D01*
X11104158Y-15625960D02*
X11113682Y-15578341D01*
X11113682Y-15578341D02*
X11113682Y-15540246D01*
X11113682Y-15540246D02*
X11104158Y-15492627D01*
X11104158Y-15492627D02*
X11094634Y-15464055D01*
X11094634Y-15464055D02*
X11085111Y-15445008D01*
X11085111Y-15445008D02*
X11066063Y-15416436D01*
X11066063Y-15416436D02*
X11056539Y-15406912D01*
M02*
